<svg class="animated" id="freepik_stories-404-error-page-not-found-with-people-connecting-a-plug" xmlns="http://www.w3.org/2000/svg" viewBox="0 0 500 500" version="1.1" xmlns:xlink="http://www.w3.org/1999/xlink" xmlns:svgjs="http://svgjs.com/svgjs"><style>svg#freepik_stories-404-error-page-not-found-with-people-connecting-a-plug:not(.animated) .animable {opacity: 0;}svg#freepik_stories-404-error-page-not-found-with-people-connecting-a-plug.animated #freepik--character-1--inject-2 {animation: 1s 1 forwards ease-in slideLeft;animation-delay: 0s;}svg#freepik_stories-404-error-page-not-found-with-people-connecting-a-plug.animated #freepik--character-2--inject-2 {animation: 1s 1 forwards ease-in slideRight;animation-delay: 0s;}            @keyframes slideLeft {                0% {                    opacity: 0;                    transform: translateX(-30px);                }                100% {                    opacity: 1;                    transform: translateX(0);                }            }                    @keyframes slideRight {                0% {                    opacity: 0;                    transform: translateX(30px);                }                100% {                    opacity: 1;                    transform: translateX(0);                }            }        .animator-hidden { display: none; }</style><g id="freepik--background-simple--inject-2" class="animable" style="transform-origin: 243.721px 230.26px;"><path d="M432.34,292c-1.33-16.64-19.72-40-38.41-46.42-23.87-8.24-39,4.82-60.85,2.43-59.08-6.47-74.83-48.49-98.25-86.57-51.92-84.4-195.55-48.27-178.61,61.9C66.41,289.59,136.12,390,240.34,324.14c45-28.48,31.34-45,79.12-19.43C338.32,314.79,438.38,367.36,432.34,292Z" style="fill: rgb(207, 216, 220); transform-origin: 243.721px 230.26px;" id="elepvgzd2k9xj" class="animable"></path><g id="el6nql0la89lo"><path d="M432.34,292c-1.33-16.64-19.72-40-38.41-46.42-23.87-8.24-39,4.82-60.85,2.43-59.08-6.47-74.83-48.49-98.25-86.57-51.92-84.4-195.55-48.27-178.61,61.9C66.41,289.59,136.12,390,240.34,324.14c45-28.48,31.34-45,79.12-19.43C338.32,314.79,438.38,367.36,432.34,292Z" style="fill: rgb(255, 255, 255); opacity: 0.9; transform-origin: 243.721px 230.26px;" class="animable"></path></g></g><g id="freepik--Shadow--inject-2" class="animable animator-hidden" style="transform-origin: 250px 416.24px;"><ellipse id="freepik--path--inject-2" cx="250" cy="416.24" rx="193.89" ry="11.32" style="fill: rgb(245, 245, 245); transform-origin: 250px 416.24px;" class="animable"></ellipse></g><g id="freepik--character-1--inject-2" class="animable" style="transform-origin: 154.766px 275.111px;"><path d="M137.82,145.88c-8.06,8.11,5.64,20.7-3.41,26.48,7.39,3.71,33.29,8.42,40-6.17-4.89-3.8-1.49-13.14-6-22.11C161.66,130.78,129.76,136.67,137.82,145.88Z" style="fill: rgb(38, 50, 56); transform-origin: 154.41px 156.225px;" id="el8qjev6hk0r5" class="animable"></path><path d="M138.55,145.67c-2.51-.42-11,3.8-4.68,15.13,5.09,9.16.85,9.81.85,9.81s5,.14,2-6.67C133.54,156.67,132.05,149.13,138.55,145.67Z" style="fill: rgb(38, 50, 56); transform-origin: 135.064px 158.126px;" id="el2ij44r9zah" class="animable"></path><path d="M198,217.61a2.46,2.46,0,0,0-3.3-1l-.59.31c-.19.1-.55.34-.84.51s-.63.36-.95.52a15.54,15.54,0,0,1-1.95.82,12.28,12.28,0,0,1-3.85.73,10.57,10.57,0,0,1-3.55-.57,12.76,12.76,0,0,1-2.09-1c-.86-1.9-1.68-3.82-2.38-5.8-.85-2.31-1.6-4.67-2.26-7.06s-1.24-4.81-1.72-7.24c-.25-1.21-.47-2.43-.67-3.64l-.27-1.81c-.09-.58-.17-1.24-.22-1.7l0-.2a5,5,0,0,0-10,1c.07.85.13,1.5.22,2.21s.19,1.39.29,2.08c.22,1.38.47,2.74.75,4.1a76.87,76.87,0,0,0,2.1,8c.39,1.32.87,2.62,1.32,3.93s1,2.59,1.57,3.86a72.36,72.36,0,0,0,3.71,7.49l.12.22a3.89,3.89,0,0,0,1.55,1.54,20.26,20.26,0,0,0,6.05,2.14,16.83,16.83,0,0,0,6.56-.14,17.3,17.3,0,0,0,8.09-4.39c.37-.34.72-.69,1-1.06s.62-.72,1-1.24A2.46,2.46,0,0,0,198,217.61Z" style="fill: rgb(255, 139, 123); transform-origin: 180.788px 206.632px;" id="elzr7iih5b9yd" class="animable"></path><path d="M204.65,208.25h-.29a6.23,6.23,0,0,0-5,2.34l-4.83,6.06,0,4.14c3.88,1.54,8.8-2.61,8.8-2.61l2.49-.63a3.49,3.49,0,0,0,2.61-3.88l-.36-2.43A3.48,3.48,0,0,0,204.65,208.25Z" style="fill: rgb(255, 139, 123); transform-origin: 201.498px 214.691px;" id="eluk18ztd4vys" class="animable"></path><path d="M173.23,184.88c3.23,3.32,3.43,13.23,3.43,13.23l-12.92,10.4s-5.31-14.7-2.37-19.89C163.86,184.22,169.11,180.65,173.23,184.88Z" style="fill: rgb(207, 216, 220); transform-origin: 168.571px 195.748px;" id="elybgho318qvb" class="animable"></path><g id="elyion8i7saud"><g style="opacity: 0.2; transform-origin: 168.571px 195.748px;" class="animable"><path d="M173.23,184.88c3.23,3.32,3.43,13.23,3.43,13.23l-12.92,10.4s-5.31-14.7-2.37-19.89C163.86,184.22,169.11,180.65,173.23,184.88Z" style="fill: rgb(255, 255, 255); transform-origin: 168.571px 195.748px;" id="elddshbknowip" class="animable"></path></g></g><polygon points="151.85 407.67 158.99 408.45 159.97 389.05 152.83 388.26 151.85 407.67" style="fill: rgb(255, 139, 123); transform-origin: 155.91px 398.355px;" id="eltyk39awxmyl" class="animable"></polygon><path d="M160.16,403.79h-8.39a.65.65,0,0,0-.67.61l-.56,7.93a1.59,1.59,0,0,0,1.55,1.59c3.54,0,3.58,0,8,0H172c3.66,0,3.67-3.71,2.09-4.05-7.11-1.5-9.88-3.58-12.39-5.56A2.5,2.5,0,0,0,160.16,403.79Z" style="fill: rgb(38, 50, 56); transform-origin: 162.816px 408.855px;" id="elhwngap1mjev" class="animable"></path><g id="elzua9b8m1qia"><polygon points="159.97 389.06 159.46 399.06 152.28 399.06 152.83 388.27 159.97 389.06" style="opacity: 0.2; transform-origin: 156.125px 393.665px;" class="animable"></polygon></g><path d="M163.82,234.27S170,286,170,309c-4.87,32-9,88.16-9,88.16l-9.88-.26s-4.49-61.16-.33-87.57c-5.33-23.66-11.91-78.26-11.91-78.26Z" style="fill: rgb(38, 50, 56); transform-origin: 154.44px 314.115px;" id="el9f5230usmuo" class="animable"></path><g id="elapcfghavxmw"><path d="M144.77,248.67a29.51,29.51,0,0,0-3.42,1.78c1.36,10.21,3.15,23.06,5.05,34.92C149.64,275.61,147.89,254.15,144.77,248.67Z" style="opacity: 0.2; transform-origin: 144.74px 267.02px;" class="animable"></path></g><polygon points="74.53 389.66 80.42 393.77 90.58 377.21 84.69 373.1 74.53 389.66" style="fill: rgb(255, 139, 123); transform-origin: 82.555px 383.435px;" id="elvi546zx6f4c" class="animable"></polygon><path d="M81.91,391.6l-5-6.73a.64.64,0,0,0-.88-.17l-6.7,4.3a1.58,1.58,0,0,0-.35,2.19c2.09,2.85,2.13,2.87,4.76,6.41,1.63,2.17,4.88,6.54,7.12,9.55s5.17.73,4.49-.75c-3-6.59-3-10-2.94-13.24A2.54,2.54,0,0,0,81.91,391.6Z" style="fill: rgb(38, 50, 56); transform-origin: 77.0682px 396.611px;" id="elhsnhf9smjnq" class="animable"></path><g id="elyns3zybs47p"><polygon points="90.57 377.21 85.34 385.75 79.03 382.31 84.69 373.1 90.57 377.21" style="opacity: 0.2; transform-origin: 84.8px 379.425px;" class="animable"></polygon></g><path d="M110.66,396.6c-5.11,0-15.75,0-15.93-7.52-.14-5.9,7.16-8.35,13.46-8.65a5.32,5.32,0,0,1,5.57,5.06v.4c7.14-.34,11.76-1.9,13.45-4.56,3.81-6-3.49-21.49-10.54-36.46-8.3-17.61-17.7-37.56-17.88-56.67a5.32,5.32,0,0,1,5.27-5.37h0a5.33,5.33,0,0,1,5.32,5.27c.16,16.78,9,35.61,16.86,52.23,9,19.18,16.85,35.75,9.9,46.7C132.11,393.47,123.76,396.6,110.66,396.6Z" style="fill: rgb(207, 216, 220); transform-origin: 116.765px 339.715px;" id="elr1n4ggs9vx8" class="animable"></path><path d="M155.91,233.25s-17.06,59.12-25.39,80.56c-16.14,28.06-42.92,71-42.92,71l-8.55-5s20-49.6,33.45-72.7c3.61-24,17.26-77.26,17.26-77.26Z" style="fill: rgb(38, 50, 56); transform-origin: 117.48px 307.33px;" id="eluk8d103ylzf" class="animable"></path><path d="M83.45,396.43a2.85,2.85,0,0,0,1.48,1.21,1,1,0,0,0,1-.33.7.7,0,0,0,.22-.61c-.12-1.2-3.22-2.76-3.84-3.06a.16.16,0,0,0-.2.07.23.23,0,0,0,0,.25A14.78,14.78,0,0,0,83.45,396.43Zm2.13,0a.83.83,0,0,1,.17.38.24.24,0,0,1-.08.21.69.69,0,0,1-.66.22c-.66-.13-1.53-1.2-2.37-2.89A10.54,10.54,0,0,1,85.58,396.39Z" style="fill: rgb(207, 216, 220); transform-origin: 84.1147px 395.648px;" id="elvf2091prl0l" class="animable"></path><path d="M82.06,394l.06.05c1,.55,3.6,1,4.17.17a.87.87,0,0,0-.05-1c-1-1.77-4,.31-4.13.4a.24.24,0,0,0-.09.2A.33.33,0,0,0,82.06,394Zm3.8-.58a1,1,0,0,1,.08.11c.11.19.13.33.07.41-.33.48-2.25.31-3.37-.13C83.39,393.36,85.14,392.45,85.86,393.42Z" style="fill: rgb(207, 216, 220); transform-origin: 84.2218px 393.593px;" id="elayt4yoetg64" class="animable"></path><path d="M165,405.44a2.89,2.89,0,0,0,1.86-.47,1,1,0,0,0,.31-1,.75.75,0,0,0-.36-.55c-1-.61-4.13.94-4.74,1.26a.17.17,0,0,0-.08.2.27.27,0,0,0,.19.17A13.93,13.93,0,0,0,165,405.44Zm1.24-1.73a.76.76,0,0,1,.41.09c.05,0,.1.07.12.19a.68.68,0,0,1-.22.66c-.49.45-1.87.51-3.73.18A10.42,10.42,0,0,1,166.19,403.71Z" style="fill: rgb(207, 216, 220); transform-origin: 164.592px 404.366px;" id="elx710pemy97n" class="animable"></path><path d="M162.18,405.1l.07,0c1-.46,2.95-2.29,2.63-3.24a.87.87,0,0,0-.8-.53c-2-.23-2.14,3.39-2.15,3.54a.24.24,0,0,0,.11.2A.24.24,0,0,0,162.18,405.1Zm1.8-3.4h.14c.21,0,.34.09.37.19.19.55-1.09,2-2.12,2.63C162.46,403.65,162.78,401.7,164,401.7Z" style="fill: rgb(207, 216, 220); transform-origin: 163.423px 403.21px;" id="elf65lw0ia9o" class="animable"></path><path d="M129.76,229.9l34.06,4.36c7.68-25.86,10.21-38.35,10.89-44.36a6.53,6.53,0,0,0-4.52-7c-2-.64-4.58-1.4-7.14-2-.87-.23-1.76-.44-2.63-.64a109.08,109.08,0,0,0-15.46-2c-.77-.07-1.53-.11-2.3-.15-1.51-.08-3-.1-4.36-.1a7.35,7.35,0,0,0-7.33,8c.27,3,.48,5.79.64,8.35.38,6,.5,10.8.41,15A129.36,129.36,0,0,1,129.76,229.9Z" style="fill: rgb(207, 216, 220); transform-origin: 152.258px 206.135px;" id="elq6ikclvn16" class="animable"></path><g id="elwoyhu6fxaj"><g style="opacity: 0.3; transform-origin: 152.258px 206.135px;" class="animable"><path d="M129.76,229.9l34.06,4.36c7.68-25.86,10.21-38.35,10.89-44.36a6.53,6.53,0,0,0-4.52-7c-2-.64-4.58-1.4-7.14-2-.87-.23-1.76-.44-2.63-.64a109.08,109.08,0,0,0-15.46-2c-.77-.07-1.53-.11-2.3-.15-1.51-.08-3-.1-4.36-.1a7.35,7.35,0,0,0-7.33,8c.27,3,.48,5.79.64,8.35.38,6,.5,10.8.41,15A129.36,129.36,0,0,1,129.76,229.9Z" style="fill: rgb(255, 255, 255); transform-origin: 152.258px 206.135px;" id="eln39q30e65ig" class="animable"></path></g></g><g id="el4q86wue5mp7"><path d="M132,209.32c4.5-5.82,6.13-12.48,4.67-16.15l-5.08,1.14C132,200.29,132.11,205.11,132,209.32Z" style="fill: rgb(207, 216, 220); opacity: 0.3; transform-origin: 134.39px 201.245px;" class="animable"></path></g><path d="M163.05,180.84c-.88-.23-1.76-.44-2.63-.64a110.65,110.65,0,0,0-15.47-2c-.77-.06-1.53-.1-2.29-.14l-1.33-.06,1,1.75c.14.24,3.54,5.8,12,11.78l1.81,1.26,1.74-1.33a13.14,13.14,0,0,0,5.48-10.53Z" style="fill: rgb(255, 255, 255); transform-origin: 152.345px 185.395px;" id="elqsyordy6sjm" class="animable"></path><path d="M148.71,167.92c-.32,4.21-1.31,8.5-3.76,10.3,0,0,3.12,5.19,11.2,10.86,5.06-3.87,4.27-8.88,4.27-8.88-5.38-2-5-5.73-2.73-11.68l-4.2-2.26A2.75,2.75,0,0,0,148.71,167.92Z" style="fill: rgb(255, 139, 123); transform-origin: 152.707px 177.219px;" id="el3jtxk5nzq66" class="animable"></path><g id="elrtdqmhi1qlh"><path d="M153.49,166.26a2.75,2.75,0,0,0-4.73,1.28,17,17,0,0,0,7.35,7.51,18.21,18.21,0,0,1,1.57-6.53Z" style="opacity: 0.2; transform-origin: 153.22px 170.203px;" class="animable"></path></g><path d="M142.17,154.72c2.09,8.13,2.8,11.61,7.77,15,7.47,5.14,17,.8,17.37-7.78.35-7.73-3.12-19.73-11.8-21.45A11.45,11.45,0,0,0,142.17,154.72Z" style="fill: rgb(255, 139, 123); transform-origin: 154.55px 156.093px;" id="eli7a649j5ckb" class="animable"></path><path d="M162.86,142.17a43.9,43.9,0,0,1-17,9.37s6.21,13.21-5.41,9.88c-3.37-11.25,0-17.09,3-19.84C152.69,138.58,159.19,137.58,162.86,142.17Z" style="fill: rgb(38, 50, 56); transform-origin: 150.952px 150.492px;" id="elx8u3kx8r94s" class="animable"></path><path d="M141.78,162.73a6.14,6.14,0,0,0,3.44,3.18c2,.72,3.19-1,2.76-3-.39-1.79-1.91-4.33-4-4.2A2.75,2.75,0,0,0,141.78,162.73Z" style="fill: rgb(255, 139, 123); transform-origin: 144.766px 162.391px;" id="eliqsrjyivaj" class="animable"></path><path d="M129.51,227.84l-1.93,2.85c-.15.22.1.5.49.55l35.72,4.58c.31,0,.58-.08.63-.27l.7-3c0-.21-.2-.42-.53-.47l-34.5-4.42A.6.6,0,0,0,129.51,227.84Z" style="fill: rgb(207, 216, 220); transform-origin: 146.328px 231.732px;" id="elmu0o17i3l6m" class="animable"></path><path d="M133.64,232.29l-.92-.12c-.18,0-.31-.14-.28-.25l.94-3.91a.33.33,0,0,1,.38-.16l.93.12c.18,0,.31.13.28.25l-.94,3.9C134,232.24,133.83,232.31,133.64,232.29Z" style="fill: rgb(38, 50, 56); transform-origin: 133.705px 230.065px;" id="elxgw3topsyl" class="animable"></path><path d="M161.15,235.81l-.92-.11c-.18,0-.31-.14-.28-.26l.94-3.9c0-.11.2-.19.38-.17l.93.12c.18,0,.31.14.28.25l-.94,3.91C161.51,235.76,161.34,235.84,161.15,235.81Z" style="fill: rgb(38, 50, 56); transform-origin: 161.215px 233.592px;" id="elko8iuh2z1aj" class="animable"></path><path d="M147.4,234.05l-.92-.12c-.19,0-.32-.13-.29-.25l.94-3.9c0-.12.2-.19.39-.17l.92.12c.18,0,.31.14.29.25l-.95,3.91C147.76,234,147.58,234.07,147.4,234.05Z" style="fill: rgb(38, 50, 56); transform-origin: 147.459px 231.83px;" id="elxmcj444bhgd" class="animable"></path><path d="M156.1,154.37c.12.67.58,1.15,1,1.06s.69-.69.56-1.36-.59-1.15-1-1.06S156,153.7,156.1,154.37Z" style="fill: rgb(38, 50, 56); transform-origin: 156.885px 154.22px;" id="els4azv1o3i6a" class="animable"></path><path d="M163.66,152.92c.13.67.59,1.14,1,1.06s.69-.7.56-1.37-.59-1.14-1-1.06S163.54,152.25,163.66,152.92Z" style="fill: rgb(38, 50, 56); transform-origin: 164.442px 152.765px;" id="el5ztv33d5oky" class="animable"></path><path d="M164,151.63l1.52-.78S165,152.27,164,151.63Z" style="fill: rgb(38, 50, 56); transform-origin: 164.76px 151.323px;" id="elcmv3104fo86" class="animable"></path><path d="M161.66,154.42a18.53,18.53,0,0,0,3.21,3.81,2.91,2.91,0,0,1-2.3.91Z" style="fill: rgb(255, 86, 82); transform-origin: 163.265px 156.783px;" id="elckjgxaerkyh" class="animable"></path><path d="M156.94,161.84a.2.2,0,0,0,.24.31,5.37,5.37,0,0,1,4.88,0,.2.2,0,0,0,.27-.07.21.21,0,0,0-.06-.28,5.78,5.78,0,0,0-5.27,0S157,161.82,156.94,161.84Z" style="fill: rgb(38, 50, 56); transform-origin: 159.626px 161.67px;" id="elp8vev4vxgan" class="animable"></path><path d="M153.49,152.31a.36.36,0,0,0,.14-.16,3.17,3.17,0,0,1,2.26-1.79.4.4,0,0,0,.35-.45.39.39,0,0,0-.44-.35,4,4,0,0,0-2.89,2.24.4.4,0,0,0,.58.51Z" style="fill: rgb(38, 50, 56); transform-origin: 154.556px 150.967px;" id="el0ptiq974tlwo" class="animable"></path><path d="M165.91,147.24l.05-.05a.4.4,0,0,0-.1-.56,4,4,0,0,0-3.62-.54.41.41,0,0,0-.22.52.4.4,0,0,0,.52.22,3.16,3.16,0,0,1,2.86.46A.39.39,0,0,0,165.91,147.24Z" style="fill: rgb(38, 50, 56); transform-origin: 164.013px 146.62px;" id="elz91x2jprzme" class="animable"></path><path d="M156.47,153.08l1.52-.77S157.4,153.72,156.47,153.08Z" style="fill: rgb(38, 50, 56); transform-origin: 157.23px 152.778px;" id="elek9ig8aunqj" class="animable"></path><path d="M104.11,293.47a5.32,5.32,0,0,1-5.32-5.27c-.14-14.2,4.59-26.19,13.68-34.67,11.19-10.44,28.64-15.29,49.16-13.67,14.39,1.14,23.62-2.36,34.3-6.43,1.76-.66,3.53-1.34,5.35-2a5.32,5.32,0,1,1,3.64,10c-1.77.64-3.49,1.3-5.2,1.95-10.89,4.14-22.14,8.41-38.93,7.09-17.5-1.39-32.08,2.46-41.06,10.84-7,6.48-10.41,15.49-10.3,26.79a5.32,5.32,0,0,1-5.27,5.37Z" style="fill: rgb(207, 216, 220); transform-origin: 153.608px 262.288px;" id="eldkgdzixwk0r" class="animable"></path><g id="el8sfyzzglv5o"><path d="M191.21,215.28H214a7.17,7.17,0,0,1,7.17,7.17v25.69a7.17,7.17,0,0,1-7.17,7.17H191.21a0,0,0,0,1,0,0v-40A0,0,0,0,1,191.21,215.28Z" style="fill: rgb(207, 216, 220); transform-origin: 206.19px 235.295px; transform: rotate(159.88deg);" class="animable"></path></g><g id="elir3edjokte"><path d="M191.21,215.28H214a7.17,7.17,0,0,1,7.17,7.17v25.69a7.17,7.17,0,0,1-7.17,7.17H191.21a0,0,0,0,1,0,0v-40A0,0,0,0,1,191.21,215.28Z" style="fill: rgb(255, 255, 255); opacity: 0.7; transform-origin: 206.19px 235.295px; transform: rotate(159.88deg);" class="animable"></path></g><g id="el5yyfis591vr"><path d="M203.84,214.84l9.55-3.49,13.76,37.58-9.55,3.5a5.77,5.77,0,0,1-1.42-2.2l-12-32.79A5.7,5.7,0,0,1,203.84,214.84Z" style="fill: rgb(207, 216, 220); opacity: 0.2; transform-origin: 215.48px 231.89px;" class="animable"></path></g><g id="eldn0rav4kpif"><rect x="235" y="220.7" width="1" height="6.66" style="fill: rgb(207, 216, 220); transform-origin: 235.5px 224.03px; transform: rotate(-20.12deg);" class="animable"></rect></g><path d="M232.45,217.16l-3.37-9.22a8.16,8.16,0,0,0-7.65-5.33,8,8,0,0,0-2.78.49l-6.08,2.23-.35-.94,6.09-2.23a9,9,0,0,1,3.12-.55,9.18,9.18,0,0,1,8.59,6l3.37,9.22Z" style="fill: rgb(207, 216, 220); transform-origin: 222.805px 209.385px;" id="el13ht6vhdi1a" class="animable"></path><g id="elvw3rpzn01mb"><rect x="212.75" y="205.65" width="20.74" height="46.89" rx="5.62" style="fill: rgb(207, 216, 220); transform-origin: 223.12px 229.095px; transform: rotate(-199.885deg);" class="animable"></rect></g><path d="M222.2,217.87a3,3,0,1,1-3.84-1.79A3,3,0,0,1,222.2,217.87Z" style="fill: rgb(38, 50, 56); transform-origin: 219.382px 218.9px;" id="eljdj6osk3zad" class="animable"></path><path d="M229.67,238.26a3,3,0,1,1-3.85-1.79A3,3,0,0,1,229.67,238.26Z" style="fill: rgb(38, 50, 56); transform-origin: 226.851px 239.287px;" id="el2rh1hwj3ibu" class="animable"></path><path d="M142,235.85l-.08-.09c-1.56-1.56-3.21-3.26-4.7-5s-2.95-3.48-4.28-5.28a49.41,49.41,0,0,1-3.55-5.51,28.72,28.72,0,0,1-1.93-4.27c.6-2,1.24-4,2-5.92.87-2.31,1.85-4.58,2.92-6.82s2.21-4.44,3.44-6.59c.6-1.08,1.23-2.15,1.88-3.2l1-1.54c.31-.5.68-1,.94-1.43l.11-.16a5,5,0,0,0-8.16-5.77c-.5.68-.88,1.22-1.28,1.81s-.76,1.18-1.14,1.77c-.73,1.18-1.44,2.37-2.12,3.58a79,79,0,0,0-3.67,7.44c-.56,1.26-1,2.55-1.57,3.84s-.95,2.6-1.35,3.94a73.83,73.83,0,0,0-2.09,8.09l0,.23a4,4,0,0,0,.15,2.19,32.78,32.78,0,0,0,3.83,7.24,48.22,48.22,0,0,0,4.94,6,61.7,61.7,0,0,0,5.59,5.05,59.47,59.47,0,0,0,6.17,4.31,2.48,2.48,0,0,0,3-3.9Z" style="fill: rgb(255, 139, 123); transform-origin: 130.532px 211.198px;" id="elatl61f6fwwg" class="animable"></path><path d="M153.62,240.82l-.13-.26a6.2,6.2,0,0,0-4.37-3.4l-7.59-1.54-3.71,1.85c.4,4.16,6.34,6.65,6.34,6.65l1.69,1.93a3.5,3.5,0,0,0,4.64.55l2-1.43A3.48,3.48,0,0,0,153.62,240.82Z" style="fill: rgb(255, 139, 123); transform-origin: 145.892px 241.429px;" id="eloopjn1qsuio" class="animable"></path><path d="M135.19,178.65c-4.21,1.93-8.69,8.61-8.69,8.61l9,16.85s10.23-11.79,9.37-17.69C144.17,181.41,140.55,176.19,135.19,178.65Z" style="fill: rgb(207, 216, 220); transform-origin: 135.711px 191.066px;" id="elf0pp3196rqm" class="animable"></path><g id="el2r2nl4flnaw"><g style="opacity: 0.3; transform-origin: 135.711px 191.066px;" class="animable"><path d="M135.19,178.65c-4.21,1.93-8.69,8.61-8.69,8.61l9,16.85s10.23-11.79,9.37-17.69C144.17,181.41,140.55,176.19,135.19,178.65Z" style="fill: rgb(255, 255, 255); transform-origin: 135.711px 191.066px;" id="elexmrorflu" class="animable"></path></g></g></g><g id="freepik--character-2--inject-2" class="animable" style="transform-origin: 362.936px 264.853px;"><path d="M423.29,399.43c-8.81,0-17.47-1.81-21.67-7.29-19.88-26-19.7-78.3-19.53-128.91.1-27.25,2.25-53-.78-73-1.78-11.79-8-19.88-14.28-24.06-9.32-6.16-22.12-2.85-27.59-1.44a5.32,5.32,0,1,1-2.66-10.3c6.83-1.77,22.85-5.9,36.11,2.86,8.95,5.91,16.69,16.46,18.94,31.35,3.15,20.8,1,46.93.9,74.59-.17,48.83-.34,99.32,17.34,122.41,1.43,1.86,7,3.53,16.25,3.05.82,0,1.62-.09,2.41-.16a5.22,5.22,0,0,1-.54-2.33,5.32,5.32,0,0,1,5.32-5.32c11.63,0,17.75,1,18.93,6.32.34,1.53.52,5.37-5.1,8C443.14,397.17,433.12,399.43,423.29,399.43Z" style="fill: rgb(207, 216, 220); transform-origin: 392.635px 275.664px;" id="el47agmgtw9b7" class="animable"></path><polygon points="306.87 404.02 296.02 399.75 301.74 380.94 312.6 385.2 306.87 404.02" style="fill: rgb(255, 195, 189); transform-origin: 304.31px 392.48px;" id="el5uufvf42glc" class="animable"></polygon><path d="M295.76,398.6,308,403.4a.75.75,0,0,1,.46.8l-1.2,7.62a1.25,1.25,0,0,1-1.7.95c-3.07-1.27-7.88-3.37-11.77-4.9-2.39-.94-6.94-2.44-10.25-3.74s-2.45-4.74-1-4.5c6.59,1.06,9.11-.07,11.74-1.05A2,2,0,0,1,295.76,398.6Z" style="fill: rgb(38, 50, 56); transform-origin: 294.861px 405.654px;" id="elsujmgrk445" class="animable"></path><g id="elcay70guc33b"><polygon points="312.6 385.21 301.74 380.94 298.79 390.64 309.65 394.91 312.6 385.21" style="opacity: 0.2; transform-origin: 305.695px 387.925px;" class="animable"></polygon></g><path d="M326.17,239.61s-9.82,48.54-13.57,72.48c-4.22,26.83-15.37,75.84-15.37,75.84l14.43,5.67s20.61-50.18,23.48-74.48c8.65-19.75,25.85-77.87,25.85-77.87Z" style="fill: rgb(207, 216, 220); transform-origin: 329.11px 316.605px;" id="elpwzt7m67wo" class="animable"></path><polygon points="296.53 388.01 312.37 394.24 315.08 389.44 297.37 382.1 296.53 388.01" style="fill: rgb(38, 50, 56); transform-origin: 305.805px 388.17px;" id="elxikrospzns" class="animable"></polygon><path d="M292.65,398.81a2.59,2.59,0,0,1-1.36-1,1.24,1.24,0,0,1,0-1.14.62.62,0,0,1,.52-.4c1.05-.11,3,2.45,3.19,2.75a.2.2,0,0,1,0,.22.2.2,0,0,1-.2.09A10.18,10.18,0,0,1,292.65,398.81Zm-.53-2.09a.5.5,0,0,0-.26-.05c-.06,0-.13,0-.2.17a.8.8,0,0,0,0,.78c.29.53,1.29,1,2.74,1.24A7.86,7.86,0,0,0,292.12,396.72Z" style="fill: rgb(207, 216, 220); transform-origin: 293.092px 397.799px;" id="el57bharvy5ff" class="animable"></path><path d="M294.78,399.32a.16.16,0,0,1-.08-.06c-.64-.76-1.54-3.11-1-3.92a.66.66,0,0,1,.79-.25,1.1,1.1,0,0,1,.7.55c.62,1.11-.08,3.45-.11,3.55a.21.21,0,0,1-.16.14A.14.14,0,0,1,294.78,399.32Zm-.34-3.82-.08,0c-.26-.06-.32,0-.35.09-.3.48.19,2.18.76,3.11a4.82,4.82,0,0,0,0-2.84A.7.7,0,0,0,294.44,395.5Z" style="fill: rgb(207, 216, 220); transform-origin: 294.49px 397.195px;" id="el2rhssx4tsd9" class="animable"></path><g id="el1wqxxrbp0o4"><path d="M347.34,269c-5.44,6.74-7.59,23.92-7.57,38.24,3.67-10.11,7.88-22.95,11.58-34.61Z" style="opacity: 0.2; transform-origin: 345.56px 288.12px;" class="animable"></path></g><polygon points="372.17 405.83 360.51 405.83 358.96 386.23 370.62 386.23 372.17 405.83" style="fill: rgb(255, 195, 189); transform-origin: 365.565px 396.03px;" id="elzv73k00flr8" class="animable"></polygon><path d="M359.85,404.85H373a.73.73,0,0,1,.72.58l1.67,7.52a1.25,1.25,0,0,1-1.24,1.51c-3.32-.06-8.55-.26-12.73-.26-2.58,0-7.36.27-10.91.27s-4-3.51-2.57-3.83c6.53-1.43,8.47-3.39,10.55-5.27A2.06,2.06,0,0,1,359.85,404.85Z" style="fill: rgb(38, 50, 56); transform-origin: 361.299px 409.66px;" id="elt9vxq24mpln" class="animable"></path><g id="elaai6no9gu5d"><polygon points="370.62 386.23 358.95 386.23 359.76 396.34 371.43 396.34 370.62 386.23" style="opacity: 0.2; transform-origin: 365.19px 391.285px;" class="animable"></polygon></g><path d="M340.29,240.22s6.46,54.09,7.82,73.56c1.89,27.1,9.2,80.6,9.2,80.6h15.5s1.66-54.64-1.14-78.95c3.86-21.21,2.64-73.58,2.64-73.58Z" style="fill: rgb(207, 216, 220); transform-origin: 357.392px 317.3px;" id="elcp3chxv1aej" class="animable"></path><polygon points="356.69 394.71 373.71 394.71 374.48 389.26 355.31 388.9 356.69 394.71" style="fill: rgb(38, 50, 56); transform-origin: 364.895px 391.805px;" id="elqxn7hpy9u8" class="animable"></polygon><path d="M357,406.18a2.58,2.58,0,0,1-1.63-.43,1.25,1.25,0,0,1-.42-1.06.64.64,0,0,1,.35-.57c.94-.48,3.67,1.2,4,1.39a.2.2,0,0,1,.1.2.23.23,0,0,1-.16.17A10,10,0,0,1,357,406.18Zm-1.26-1.75a.53.53,0,0,0-.26.05c-.05,0-.11.08-.12.23a.8.8,0,0,0,.27.73c.46.39,1.57.44,3,.15A8.08,8.08,0,0,0,355.77,404.43Z" style="fill: rgb(207, 216, 220); transform-origin: 357.173px 405.111px;" id="elkmdt98joce" class="animable"></path><path d="M359.2,405.88l-.1,0c-.87-.48-2.57-2.33-2.39-3.28a.65.65,0,0,1,.64-.52,1.07,1.07,0,0,1,.85.25c1,.81,1.19,3.25,1.2,3.35a.22.22,0,0,1-.09.19A.23.23,0,0,1,359.2,405.88Zm-1.71-3.43h-.09c-.26,0-.28.16-.29.21-.11.55,1,2,1.84,2.62a4.86,4.86,0,0,0-1-2.66A.75.75,0,0,0,357.49,402.45Z" style="fill: rgb(207, 216, 220); transform-origin: 358.049px 403.976px;" id="el6xw9i3e9n0k" class="animable"></path><path d="M345.64,165.63h0l-9.34-.12c-3.14,0-6.26-.1-9.35-.15-.94,0-1.86-.06-2.79-.1.06,0,.1-.11.15-.16.66-.7,1.32-1.42,2-2.11q.51-.54,1-1.05c.31-.34.71-.72.92-1l.85-1.08a5.17,5.17,0,0,0-5.42-8.18l-1.85.5c-.57.17-1.14.36-1.71.55-1.12.39-2.22.82-3.31,1.29a49.09,49.09,0,0,0-6.35,3.38,45.63,45.63,0,0,0-5.95,4.53,39.42,39.42,0,0,0-5.31,5.91,9.07,9.07,0,0,0-1,1.72,8.76,8.76,0,0,0,4.52,11.53l.91.4a38.36,38.36,0,0,0,6.36,2.1c1.9.49,3.7.81,5.47,1.11s3.5.54,5.22.75,3.42.37,5.12.51c3.39.3,6.75.45,10.1.55s6.63.1,10.11-.06a10.42,10.42,0,0,0-.34-20.83Z" style="fill: rgb(255, 195, 189); transform-origin: 326.707px 169.04px;" id="elqvcetg0ghbo" class="animable"></path><path d="M351.08,183.88c-8.07,9.2-27.49,5.76-27.49,5.76l1.07-22.92a101,101,0,0,1,20.26-2.35C356.32,164.35,357.54,176.5,351.08,183.88Z" style="fill: rgb(38, 50, 56); transform-origin: 339.288px 177.32px;" id="elr0y7nezmo3e" class="animable"></path><path d="M329.54,176.83c-.48,3.7-1,8.68-1.31,15.38-4.21,21.3-5.78,36.39-2.06,47.4,2.94,3.63,41.25,2.93,48.14,2.23,4-9.9,4.42-38.32,4.89-62.21a13.77,13.77,0,0,0-11.45-13.82,92.49,92.49,0,0,0-26.12-.88A13.76,13.76,0,0,0,329.54,176.83Z" style="fill: rgb(38, 50, 56); transform-origin: 351.638px 203.397px;" id="elqyg9vyljj89" class="animable"></path><g id="ela74b2ll1fw"><path d="M366.71,191.37c.13,7.28,5.41,18.91,11.35,24.81.36-6.15.59-12.82.77-19.55Z" style="opacity: 0.2; transform-origin: 372.77px 203.775px;" class="animable"></path></g><path d="M400.09,205.52l-.34-.8a76,76,0,0,0-4.89-9.67c-1.78-3-3.7-5.83-5.69-8.56s-4.1-5.34-6.26-7.88c-1.1-1.26-2.19-2.52-3.34-3.74l-1.73-1.82L376,171.19a10.42,10.42,0,0,0-15.08,14.37l.3.33,5.87,6.53c2,2.22,3.91,4.48,5.81,6.73.92,1.13,1.87,2.26,2.73,3.41s1.77,2.26,2.63,3.4c1.24,1.73,2.44,3.45,3.51,5.14a25.68,25.68,0,0,1-.62,2.53,72.68,72.68,0,0,1-2.53,7.14c-1,2.47-2.06,5-3.16,7.49s-2.28,5.09-3.33,7.59l-.1.22a5.26,5.26,0,0,0,8.4,5.91,83,83,0,0,0,6.27-6.48q3-3.37,5.63-7.1c.89-1.25,1.74-2.55,2.58-3.9a45.2,45.2,0,0,0,2.39-4.25,39.75,39.75,0,0,0,2.1-4.92,22.39,22.39,0,0,0,1.28-6.71A7.49,7.49,0,0,0,400.09,205.52Z" style="fill: rgb(255, 195, 189); transform-origin: 379.471px 205.769px;" id="elpfi9vjyznh" class="animable"></path><path d="M368.43,165.94c13.49,2.31,22.28,20.57,22.28,20.57L374.45,204s-9.37-9.54-15-18.38C353.38,176,358.77,164.3,368.43,165.94Z" style="fill: rgb(38, 50, 56); transform-origin: 373.798px 184.893px;" id="elu96pj1206o8" class="animable"></path><path d="M343.79,137.15c-2.26-3.79-3-9,1.14-14.31a4.2,4.2,0,0,1-4.12-2,24.79,24.79,0,0,1,16.09-5.6c12.1,0,13,4.67,12.59,7.86,8.28.53,14.32,22.06-6.67,25.87C350.81,136.32,343.79,137.15,343.79,137.15Z" style="fill: rgb(38, 50, 56); transform-origin: 358.971px 132.103px;" id="elkr5pj3tt6g" class="animable"></path><path d="M368.73,123.49s3.37-3.44-.82-7.6a5.64,5.64,0,0,1,3.94,3.92C372.44,122.23,370.81,124.17,368.73,123.49Z" style="fill: rgb(38, 50, 56); transform-origin: 369.941px 119.759px;" id="el7xi98bw5i9t" class="animable"></path><path d="M364.09,146.34c-.32,6.63-.92,14.17.19,19.46-1.72,2.71-6.12,5.83-14,6.53-2.8-1.59-6.5-5.48-5.21-7.48,3.35-2.15,4.77-8.66,3.81-13.53Z" style="fill: rgb(255, 195, 189); transform-origin: 354.543px 159.335px;" id="el1fcxssqdm2p" class="animable"></path><g id="el2bnsbe42st7"><path d="M360.25,147.59l-11.39,3.73a17.87,17.87,0,0,1,.05,6.28c3.4-.11,8.11-2.67,9.88-5.07A6.32,6.32,0,0,0,360.25,147.59Z" style="opacity: 0.2; transform-origin: 354.583px 152.595px;" class="animable"></path></g><path d="M367.41,135.84c-2.11,8.13-2.93,13-7.91,16.41-7.49,5.13-16.91-.62-17.28-9.21-.32-7.74,3.18-19.74,11.88-21.45A11.46,11.46,0,0,1,367.41,135.84Z" style="fill: rgb(255, 195, 189); transform-origin: 355.007px 137.776px;" id="el7gdgiyvbdom" class="animable"></path><path d="M365.73,124.2c-3.57,2.54-8,13.3,1,17.62C374.81,134.72,372.72,124.2,365.73,124.2Z" style="fill: rgb(38, 50, 56); transform-origin: 366.686px 133.01px;" id="el65kwwhdejdv" class="animable"></path><path d="M367.79,125.49c1.53-7.08-16.34-10.74-22-2.47C343.87,128,366.71,132.4,367.79,125.49Z" style="fill: rgb(38, 50, 56); transform-origin: 356.779px 123.668px;" id="elkimvlgshg" class="animable"></path><path d="M354.46,144.47h0a17.28,17.28,0,0,0-5.88-1.49.21.21,0,0,0-.21.22.29.29,0,0,0,.27.24,16.75,16.75,0,0,1,5.64,1.42.24.24,0,0,0,.31-.11A.21.21,0,0,0,354.46,144.47Z" style="fill: rgb(38, 50, 56); transform-origin: 351.488px 143.93px;" id="elr7sbvn73cte" class="animable"></path><path d="M369.36,144.73a8,8,0,0,1-5.56,2.51c-2.8.06-3.51-2.61-2.16-4.89,1.22-2,4.14-4.56,6.68-3.54S371.12,142.82,369.36,144.73Z" style="fill: rgb(255, 195, 189); transform-origin: 365.733px 142.91px;" id="elbgzvafx2tg" class="animable"></path><path d="M354.48,135.7c-.13.67-.59,1.15-1,1.06s-.68-.7-.55-1.37.59-1.14,1-1S354.61,135,354.48,135.7Z" style="fill: rgb(38, 50, 56); transform-origin: 353.705px 135.568px;" id="elgcowvwla7bw" class="animable"></path><path d="M346.91,134.23c-.13.67-.59,1.14-1,1.06s-.69-.7-.56-1.37.59-1.15,1-1.06S347,133.56,346.91,134.23Z" style="fill: rgb(38, 50, 56); transform-origin: 346.123px 134.074px;" id="eldxmrwm5k3i" class="animable"></path><path d="M349.25,135a24.53,24.53,0,0,1-4.32,5.11c1,1.33,3.21,1.07,3.21,1.07Z" style="fill: rgb(237, 132, 126); transform-origin: 347.09px 138.1px;" id="elc4hyakivl3" class="animable"></path><path d="M353.39,131.81a.43.43,0,0,1,.4.12,3.19,3.19,0,0,0,2.66,1.15.41.41,0,0,1,.46.34.39.39,0,0,1-.34.45,4,4,0,0,1-3.38-1.41.39.39,0,0,1,0-.56A.51.51,0,0,1,353.39,131.81Z" style="fill: rgb(38, 50, 56); transform-origin: 354.993px 132.841px;" id="el11ruur9x0wws" class="animable"></path><path d="M344.57,129.59a.36.36,0,0,1-.21-.13.4.4,0,0,1,.07-.57,4,4,0,0,1,3.57-.77.41.41,0,0,1,.26.51.43.43,0,0,1-.51.25h0a3.19,3.19,0,0,0-2.83.64A.35.35,0,0,1,344.57,129.59Z" style="fill: rgb(38, 50, 56); transform-origin: 346.275px 128.797px;" id="eldssxtyxy2kq" class="animable"></path><path d="M376.85,235.56l-8.59-.06,4.44,9.86s7.33-1.57,6.93-5.55Z" style="fill: rgb(255, 195, 189); transform-origin: 373.953px 240.43px;" id="el0p1zwf68fby" class="animable"></path><path d="M363.89,242.27l1.41,2.78a3.34,3.34,0,0,0,4.21,1.58l3.19-1.27-4.44-9.86-3.41,2.6A3.33,3.33,0,0,0,363.89,242.27Z" style="fill: rgb(255, 195, 189); transform-origin: 368.113px 241.184px;" id="el58bwjhjjfre" class="animable"></path><path d="M311.46,228.3a5.33,5.33,0,0,1-3.81-9c3.82-3.94,7.27-7,10.31-9.67,7.34-6.47,9.87-9,9.63-13.85a48.72,48.72,0,0,0-1.9-8.82c-2.19-8.05-4.67-17.16-.42-24.47,2.28-3.93,6.15-6.62,11.51-8a5.32,5.32,0,0,1,2.66,10.3c-3.77,1-4.68,2.53-5,3.05-2,3.45-.07,10.59,1.49,16.32a55.55,55.55,0,0,1,2.26,11.1c.5,10.25-5.55,15.59-13.22,22.35-2.89,2.56-6.18,5.46-9.72,9.1A5.29,5.29,0,0,1,311.46,228.3Z" style="fill: rgb(207, 216, 220); transform-origin: 324.757px 191.323px;" id="elgh0m76aac67" class="animable"></path><path d="M323.13,151.9l8.32-2.13-1.94,10.64s-7.49.23-8.05-3.72Z" style="fill: rgb(255, 195, 189); transform-origin: 326.455px 155.091px;" id="elkatdombvcks" class="animable"></path><path d="M337.29,155.41l-.64,2.78a3.49,3.49,0,0,1-3.88,2.67l-3.26-.45,1.94-10.64,3.82,1.65A3.49,3.49,0,0,1,337.29,155.41Z" style="fill: rgb(255, 195, 189); transform-origin: 333.445px 155.332px;" id="elqcnfqrt20oq" class="animable"></path><g id="elae0cksv6rdf"><rect x="289.06" y="203.83" width="5.5" height="46.89" rx="2.59" style="fill: rgb(38, 50, 56); transform-origin: 291.81px 227.275px; transform: rotate(44.99deg);" class="animable"></rect></g><g id="el5d6yrg9scb4"><rect x="304.41" y="219.18" width="5.5" height="46.89" rx="2.59" style="fill: rgb(38, 50, 56); transform-origin: 307.16px 242.625px; transform: rotate(45deg);" class="animable"></rect></g><g id="elmttaffvdf6l"><path d="M293.18,203h29.39a7.17,7.17,0,0,1,7.17,7.17v25.69a7.17,7.17,0,0,1-7.17,7.17H293.18a0,0,0,0,1,0,0V203a0,0,0,0,1,0,0Z" style="fill: rgb(207, 216, 220); transform-origin: 311.46px 223.015px; transform: rotate(-45deg);" class="animable"></path></g><g id="elyx5zbyv63hf"><path d="M293.18,203h29.39a7.17,7.17,0,0,1,7.17,7.17v25.69a7.17,7.17,0,0,1-7.17,7.17H293.18a0,0,0,0,1,0,0V203a0,0,0,0,1,0,0Z" style="fill: rgb(255, 255, 255); opacity: 0.7; transform-origin: 311.46px 223.015px; transform: rotate(-45deg);" class="animable"></path></g><g id="el5hm6cwrzyha"><path d="M291.58,214.56l-7.2,7.19,28.31,28.31,7.19-7.2a5.74,5.74,0,0,0-1.39-2.22L293.8,216A5.74,5.74,0,0,0,291.58,214.56Z" style="fill: rgb(207, 216, 220); opacity: 0.2; transform-origin: 302.13px 232.31px;" class="animable"></path></g><g id="elzl912fhcsbc"><rect x="293.5" y="211.51" width="11.97" height="46.89" rx="5.62" style="fill: rgb(207, 216, 220); transform-origin: 299.485px 234.955px; transform: rotate(-45deg);" class="animable"></rect></g></g><g id="freepik--page-not-found--inject-2" class="animable animator-hidden" style="transform-origin: 250.02px 82.74px;"><rect x="130.06" y="37.96" width="239.88" height="57.52" rx="8.42" style="fill: rgb(255, 255, 255); transform-origin: 250px 66.72px;" id="elu4ido3hcij" class="animable"></rect><path d="M361.52,96.22h-223a9.17,9.17,0,0,1-9.16-9.16V46.38a9.17,9.17,0,0,1,9.16-9.16h223a9.17,9.17,0,0,1,9.16,9.16V87.06A9.17,9.17,0,0,1,361.52,96.22Zm-223-57.52a7.69,7.69,0,0,0-7.68,7.68V87.06a7.69,7.69,0,0,0,7.68,7.68h223a7.69,7.69,0,0,0,7.68-7.68V46.38a7.69,7.69,0,0,0-7.68-7.68Z" style="fill: rgb(38, 50, 56); transform-origin: 250.02px 66.72px;" id="elxztagc8c1t" class="animable"></path><g id="elgmrlp4wdnth"><g style="opacity: 0.4; transform-origin: 250.07px 68.88px;" class="animable"><path d="M149.78,76.72V55.08h8.16a20.86,20.86,0,0,1,3.3.2,6.68,6.68,0,0,1,2.67,1,5.28,5.28,0,0,1,1.73,2.09,7,7,0,0,1-1.1,7.63q-1.75,1.9-6.34,1.91h-5.56v8.8Zm2.86-11.35h5.6a5.92,5.92,0,0,0,3.94-1,3.66,3.66,0,0,0,1.17-2.9,3.91,3.91,0,0,0-.69-2.33,3.26,3.26,0,0,0-1.81-1.28,12.77,12.77,0,0,0-2.67-.19h-5.54Z" style="fill: rgb(38, 50, 56); transform-origin: 158.043px 65.8982px;" id="elgkekrricdqv" class="animable"></path><path d="M179.84,74.79A10.24,10.24,0,0,1,177,76.56a8.32,8.32,0,0,1-2.93.51,5.73,5.73,0,0,1-4-1.26,4.16,4.16,0,0,1-1.38-3.22,4.31,4.31,0,0,1,.52-2.11A4.5,4.5,0,0,1,170.6,69a6.72,6.72,0,0,1,1.92-.87,20.59,20.59,0,0,1,2.36-.4,24.45,24.45,0,0,0,4.74-.91c0-.36,0-.6,0-.69a2.93,2.93,0,0,0-.75-2.29,4.46,4.46,0,0,0-3-.9,4.77,4.77,0,0,0-2.77.65,4.1,4.1,0,0,0-1.32,2.33l-2.6-.36a6.48,6.48,0,0,1,1.17-2.69,5.12,5.12,0,0,1,2.35-1.58,10.44,10.44,0,0,1,3.56-.55,9.33,9.33,0,0,1,3.26.47,3.74,3.74,0,0,1,2.67,3,14.87,14.87,0,0,1,.13,2.45v3.54a38.39,38.39,0,0,0,.17,4.69,6.23,6.23,0,0,0,.67,1.88h-2.77A5.59,5.59,0,0,1,179.84,74.79Zm-.22-5.94a18.94,18.94,0,0,1-4.34,1,9.8,9.8,0,0,0-2.32.54,2.29,2.29,0,0,0-1.05.86,2.34,2.34,0,0,0,.44,3,3.41,3.41,0,0,0,2.35.71,5.47,5.47,0,0,0,2.73-.67,4.16,4.16,0,0,0,1.76-1.84,6.47,6.47,0,0,0,.43-2.65Z" style="fill: rgb(38, 50, 56); transform-origin: 175.924px 68.9092px;" id="elh0x60q9q6kb" class="animable"></path><path d="M185.94,78l2.58.38a2.46,2.46,0,0,0,.9,1.74,4.37,4.37,0,0,0,2.7.74,4.69,4.69,0,0,0,2.85-.74,3.65,3.65,0,0,0,1.36-2.06,16.84,16.84,0,0,0,.19-3.41,5.46,5.46,0,0,1-4.34,2,5.91,5.91,0,0,1-5-2.33,9,9,0,0,1-1.78-5.6,10.3,10.3,0,0,1,.82-4.14,6.5,6.5,0,0,1,2.35-2.93,6.36,6.36,0,0,1,3.63-1,5.63,5.63,0,0,1,4.57,2.24V61h2.45V74.59a13,13,0,0,1-.74,5.19,5.48,5.48,0,0,1-2.37,2.42,8.15,8.15,0,0,1-4,.88,7.53,7.53,0,0,1-4.54-1.26A4.26,4.26,0,0,1,185.94,78Zm2.19-9.42a6.76,6.76,0,0,0,1.23,4.5,3.88,3.88,0,0,0,3.07,1.42,3.93,3.93,0,0,0,3.07-1.41,6.55,6.55,0,0,0,1.24-4.42,6.37,6.37,0,0,0-1.28-4.34,3.91,3.91,0,0,0-3.07-1.46,3.82,3.82,0,0,0-3,1.44A6.36,6.36,0,0,0,188.13,68.6Z" style="fill: rgb(38, 50, 56); transform-origin: 192.321px 71.8676px;" id="eldrg4w92u54t" class="animable"></path><path d="M214,71.67l2.75.34a6.79,6.79,0,0,1-2.41,3.74,7.27,7.27,0,0,1-4.49,1.32A7.16,7.16,0,0,1,204.37,75a8.28,8.28,0,0,1-2-5.95,8.67,8.67,0,0,1,2-6.14,6.91,6.91,0,0,1,5.28-2.18,6.69,6.69,0,0,1,5.14,2.14,8.48,8.48,0,0,1,2,6c0,.16,0,.4,0,.71H205.1a6,6,0,0,0,1.46,4,4.36,4.36,0,0,0,3.28,1.37,4.08,4.08,0,0,0,2.49-.77A5.06,5.06,0,0,0,214,71.67Zm-8.72-4.29H214a5.34,5.34,0,0,0-1-3,4.08,4.08,0,0,0-3.3-1.54,4.19,4.19,0,0,0-3.07,1.23A4.76,4.76,0,0,0,205.25,67.38Z" style="fill: rgb(38, 50, 56); transform-origin: 209.578px 68.9044px;" id="eln0ckrnh7n6j" class="animable"></path><path d="M228.45,76.72V61h2.39v2.23a5.65,5.65,0,0,1,5-2.58,6.53,6.53,0,0,1,2.61.51,4.1,4.1,0,0,1,1.78,1.33,5.24,5.24,0,0,1,.83,2,16.37,16.37,0,0,1,.14,2.58v9.64h-2.65V67.18a7.37,7.37,0,0,0-.31-2.43,2.62,2.62,0,0,0-1.1-1.28,3.53,3.53,0,0,0-1.86-.48,4.3,4.3,0,0,0-2.93,1.08c-.82.72-1.23,2.08-1.23,4.09v8.56Z" style="fill: rgb(38, 50, 56); transform-origin: 234.828px 68.6822px;" id="el9tn6my3uqrk" class="animable"></path><path d="M244.28,68.88q0-4.35,2.42-6.45a7.3,7.3,0,0,1,4.93-1.74,7,7,0,0,1,5.28,2.12A8,8,0,0,1,259,68.66a10.44,10.44,0,0,1-.91,4.76,6.46,6.46,0,0,1-2.64,2.69,7.71,7.71,0,0,1-3.79,1A7,7,0,0,1,246.31,75,8.42,8.42,0,0,1,244.28,68.88Zm2.73,0a6.71,6.71,0,0,0,1.31,4.51,4.22,4.22,0,0,0,3.31,1.5,4.16,4.16,0,0,0,3.29-1.51,6.8,6.8,0,0,0,1.32-4.59,6.4,6.4,0,0,0-1.33-4.4,4.38,4.38,0,0,0-6.59,0A6.66,6.66,0,0,0,247,68.88Z" style="fill: rgb(38, 50, 56); transform-origin: 251.635px 68.9016px;" id="elr4e5uocof1" class="animable"></path><path d="M267.88,74.34l.39,2.35a9.75,9.75,0,0,1-2,.24,4.59,4.59,0,0,1-2.24-.46,2.66,2.66,0,0,1-1.13-1.2,9.8,9.8,0,0,1-.32-3.14v-9h-1.95V61h1.95V57.16l2.64-1.6V61h2.67v2.07h-2.67v9.17a4.79,4.79,0,0,0,.14,1.46,1.13,1.13,0,0,0,.46.51,1.73,1.73,0,0,0,.91.2A8.62,8.62,0,0,0,267.88,74.34Z" style="fill: rgb(38, 50, 56); transform-origin: 264.45px 66.2478px;" id="elmewvb3lt9h" class="animable"></path><path d="M279.52,76.72V63.11h-2.35V61h2.35V59.37A7.18,7.18,0,0,1,279.8,57a3.35,3.35,0,0,1,1.35-1.68,4.85,4.85,0,0,1,2.71-.64,13.59,13.59,0,0,1,2.48.26l-.4,2.32a8.76,8.76,0,0,0-1.57-.15,2.36,2.36,0,0,0-1.71.52,2.83,2.83,0,0,0-.5,1.93V61h3.06v2.07h-3.06V76.72Z" style="fill: rgb(38, 50, 56); transform-origin: 281.755px 65.6957px;" id="elj18x7rjhmo" class="animable"></path><path d="M286.29,68.88q0-4.35,2.42-6.45a7.33,7.33,0,0,1,4.94-1.74,7,7,0,0,1,5.28,2.12A8,8,0,0,1,301,68.66a10.45,10.45,0,0,1-.9,4.76,6.42,6.42,0,0,1-2.65,2.69,7.67,7.67,0,0,1-3.78,1A7.06,7.06,0,0,1,288.32,75,8.42,8.42,0,0,1,286.29,68.88Zm2.74,0a6.65,6.65,0,0,0,1.31,4.51,4.37,4.37,0,0,0,6.6,0,6.85,6.85,0,0,0,1.31-4.59,6.45,6.45,0,0,0-1.32-4.4,4.38,4.38,0,0,0-6.59,0A6.61,6.61,0,0,0,289,68.88Z" style="fill: rgb(38, 50, 56); transform-origin: 293.641px 68.901px;" id="ellimlzvvzzjj" class="animable"></path><path d="M314.37,76.72v-2.3a5.73,5.73,0,0,1-5,2.65,6.22,6.22,0,0,1-2.59-.53A4.25,4.25,0,0,1,305,75.21a5.09,5.09,0,0,1-.82-2,13.46,13.46,0,0,1-.16-2.48V61h2.66v8.7a15.3,15.3,0,0,0,.16,2.8,2.8,2.8,0,0,0,1.06,1.65,3.28,3.28,0,0,0,2,.6,4.35,4.35,0,0,0,2.24-.62,3.4,3.4,0,0,0,1.49-1.67,8.36,8.36,0,0,0,.43-3.06V61h2.66V76.72Z" style="fill: rgb(38, 50, 56); transform-origin: 310.367px 69.0362px;" id="eln9cfbfftzkb" class="animable"></path><path d="M320.91,76.72V61h2.39v2.23a5.65,5.65,0,0,1,5-2.58,6.53,6.53,0,0,1,2.61.51,4.1,4.1,0,0,1,1.78,1.33,5.24,5.24,0,0,1,.83,2,16.37,16.37,0,0,1,.14,2.58v9.64H331V67.18a7.37,7.37,0,0,0-.31-2.43,2.62,2.62,0,0,0-1.1-1.28,3.53,3.53,0,0,0-1.86-.48,4.32,4.32,0,0,0-2.93,1.08c-.82.72-1.23,2.08-1.23,4.09v8.56Z" style="fill: rgb(38, 50, 56); transform-origin: 327.288px 68.6822px;" id="elbvg4w792v9" class="animable"></path><path d="M347.9,76.72v-2a4.87,4.87,0,0,1-4.39,2.33,6.12,6.12,0,0,1-3.44-1,6.81,6.81,0,0,1-2.44-2.89,10,10,0,0,1-.86-4.25,11.15,11.15,0,0,1,.78-4.26,6.06,6.06,0,0,1,2.35-2.93,6.26,6.26,0,0,1,3.5-1,5.21,5.21,0,0,1,2.52.6,5.12,5.12,0,0,1,1.8,1.55V55.08h2.64V76.72Zm-8.4-7.82a6.81,6.81,0,0,0,1.27,4.5,3.84,3.84,0,0,0,3,1.49,3.78,3.78,0,0,0,3-1.43,6.55,6.55,0,0,0,1.21-4.34,7.37,7.37,0,0,0-1.24-4.73,3.8,3.8,0,0,0-3.05-1.5,3.69,3.69,0,0,0-3,1.44A7.12,7.12,0,0,0,339.5,68.9Z" style="fill: rgb(38, 50, 56); transform-origin: 343.564px 66.0678px;" id="el5n8vv08ks7j" class="animable"></path></g></g><circle cx="250" cy="106.49" r="18.54" style="fill: rgb(38, 50, 56); transform-origin: 250px 106.49px;" id="elciu8u2466e9" class="animable"></circle><circle cx="250" cy="106.49" r="15.78" style="fill: rgb(255, 255, 255); transform-origin: 250px 106.49px;" id="elrlu92e2jkfm" class="animable"></circle><polygon points="260.67 103.09 253.27 103.09 259.48 84.72 239.33 109.89 246.73 109.89 240.52 128.26 260.67 103.09" style="fill: rgb(207, 216, 220); transform-origin: 250px 106.49px;" id="elotfrlk6own" class="animable"></polygon><g id="elnxqrlwl3wmf"><rect x="248.44" y="88.95" width="3.12" height="35.09" style="fill: rgb(38, 50, 56); transform-origin: 250px 106.495px; transform: rotate(135deg);" class="animable"></rect></g></g><defs>     <filter id="active" height="200%">         <feMorphology in="SourceAlpha" result="DILATED" operator="dilate" radius="2"></feMorphology>                <feFlood flood-color="#32DFEC" flood-opacity="1" result="PINK"></feFlood>        <feComposite in="PINK" in2="DILATED" operator="in" result="OUTLINE"></feComposite>        <feMerge>            <feMergeNode in="OUTLINE"></feMergeNode>            <feMergeNode in="SourceGraphic"></feMergeNode>        </feMerge>    </filter>    <filter id="hover" height="200%">        <feMorphology in="SourceAlpha" result="DILATED" operator="dilate" radius="2"></feMorphology>                <feFlood flood-color="#ff0000" flood-opacity="0.5" result="PINK"></feFlood>        <feComposite in="PINK" in2="DILATED" operator="in" result="OUTLINE"></feComposite>        <feMerge>            <feMergeNode in="OUTLINE"></feMergeNode>            <feMergeNode in="SourceGraphic"></feMergeNode>        </feMerge>            <feColorMatrix type="matrix" values="0   0   0   0   0                0   1   0   0   0                0   0   0   0   0                0   0   0   1   0 "></feColorMatrix>    </filter></defs></svg>