<svg class="animated" id="freepik_stories-closed-sign" xmlns="http://www.w3.org/2000/svg" viewBox="0 0 500 500" version="1.1" xmlns:xlink="http://www.w3.org/1999/xlink" xmlns:svgjs="http://svgjs.com/svgjs"><style>svg#freepik_stories-closed-sign:not(.animated) .animable {opacity: 0;}svg#freepik_stories-closed-sign.animated #freepik--Sign--inject-8 {animation: 1.5s Infinite  linear wind;animation-delay: 0s;}            @keyframes wind {                0% {                    transform: rotate( 0deg );                }                25% {                    transform: rotate( 1deg );                }                75% {                    transform: rotate( -1deg );                }            }        .animator-hidden { display: none; }</style><g id="freepik--background-simple--inject-8" class="animable" style="transform-origin: 246.985px 240.603px;"><path d="M416,89.8a218.12,218.12,0,0,0-59.47-42.19c-32.79-15.5-68.91-23-105-23.41-105.57-1.3-113.6,124.06-146.06,141.49S14.14,185.17,12.11,254.9C10.83,298.75,21,343.84,49.43,378c26.09,31.29,64.4,47.15,102.15,58.87C194,450,238.93,463,283.53,454.07,329.29,445,361.44,408.33,399,383.58c23.66-15.59,44.9-32,59.51-57,1.74-3,3.38-6,4.94-9.13,19.55-38.86,23.39-83.68,12.6-125.73C466.39,154,444.55,118,416,89.8Z" style="fill: rgb(207, 216, 220); transform-origin: 246.985px 240.603px;" id="el2225lahzvra" class="animable"></path><g id="el22j3m1rlhwq"><path d="M416,89.8a218.12,218.12,0,0,0-59.47-42.19c-32.79-15.5-68.91-23-105-23.41-105.57-1.3-113.6,124.06-146.06,141.49S14.14,185.17,12.11,254.9C10.83,298.75,21,343.84,49.43,378c26.09,31.29,64.4,47.15,102.15,58.87C194,450,238.93,463,283.53,454.07,329.29,445,361.44,408.33,399,383.58c23.66-15.59,44.9-32,59.51-57,1.74-3,3.38-6,4.94-9.13,19.55-38.86,23.39-83.68,12.6-125.73C466.39,154,444.55,118,416,89.8Z" style="fill: rgb(255, 255, 255); opacity: 0.7; transform-origin: 246.985px 240.603px;" class="animable"></path></g></g><g id="freepik--Floor--inject-8" class="animable" style="transform-origin: 254.965px 444px;"><line x1="486.93" y1="444" x2="23" y2="444" style="fill: rgb(255, 255, 255); stroke: rgb(38, 50, 56); stroke-linecap: round; stroke-linejoin: round; transform-origin: 254.965px 444px;" id="elpydncp29p8b" class="animable"></line></g><g id="freepik--Shop--inject-8" class="animable" style="transform-origin: 244.515px 300.335px;"><rect x="289.92" y="156.17" width="158.18" height="288.33" style="fill: rgb(38, 50, 56); stroke: rgb(38, 50, 56); stroke-linecap: round; stroke-linejoin: round; transform-origin: 369.01px 300.335px;" id="elsjoaa15ll9" class="animable"></rect><rect x="299.94" y="170.19" width="135.64" height="150.17" style="fill: rgb(255, 255, 255); stroke: rgb(38, 50, 56); stroke-linecap: round; stroke-linejoin: round; transform-origin: 367.76px 245.275px;" id="elczoq2evcek7" class="animable"></rect><line x1="359.53" y1="298.15" x2="346.95" y2="304.6" style="fill: rgb(255, 255, 255); stroke: rgb(38, 50, 56); stroke-linecap: round; stroke-linejoin: round; transform-origin: 353.24px 301.375px;" id="elqw0b74y5rb" class="animable"></line><line x1="431.21" y1="261.38" x2="375.21" y2="290.1" style="fill: rgb(255, 255, 255); stroke: rgb(38, 50, 56); stroke-linecap: round; stroke-linejoin: round; transform-origin: 403.21px 275.74px;" id="elc79xn6me0mj" class="animable"></line><line x1="323.26" y1="219.38" x2="317.79" y2="222.19" style="fill: rgb(255, 255, 255); stroke: rgb(38, 50, 56); stroke-linecap: round; stroke-linejoin: round; transform-origin: 320.525px 220.785px;" id="el3uqpe4ibd7c" class="animable"></line><line x1="354.47" y1="203.37" x2="330.09" y2="215.88" style="fill: rgb(255, 255, 255); stroke: rgb(38, 50, 56); stroke-linecap: round; stroke-linejoin: round; transform-origin: 342.28px 209.625px;" id="el2c7fxyez0hv" class="animable"></line><rect x="299.94" y="336.38" width="135.64" height="92.1" style="fill: rgb(255, 255, 255); stroke: rgb(38, 50, 56); stroke-linecap: round; stroke-linejoin: round; transform-origin: 367.76px 382.43px;" id="elfudxjkyiqf" class="animable"></rect><rect x="438.05" y="285.66" width="4.94" height="52.67" style="fill: rgb(255, 255, 255); transform-origin: 440.52px 311.995px;" id="elvh6ocxm0rqe" class="animable"></rect><line x1="323.26" y1="398.16" x2="317.79" y2="400.97" style="fill: rgb(255, 255, 255); stroke: rgb(38, 50, 56); stroke-linecap: round; stroke-linejoin: round; transform-origin: 320.525px 399.565px;" id="elonjgxz5zwc" class="animable"></line><line x1="354.47" y1="382.14" x2="330.09" y2="394.65" style="fill: rgb(255, 255, 255); stroke: rgb(38, 50, 56); stroke-linecap: round; stroke-linejoin: round; transform-origin: 342.28px 388.395px;" id="elsrsjlexmoga" class="animable"></line><g id="elmgb1islxut"><g style="opacity: 0.3; transform-origin: 166.89px 408.31px;" class="animable"><rect x="51.14" y="388.07" width="23.95" height="11.4" id="elgrknhlo6qx9" class="animable" style="transform-origin: 63.115px 393.77px;"></rect><rect x="78.51" y="388.07" width="23.95" height="11.4" id="eluid35ahtlg" class="animable" style="transform-origin: 90.485px 393.77px;"></rect><rect x="78.51" y="417.15" width="23.95" height="11.4" id="el8mo310k4huh" class="animable" style="transform-origin: 90.485px 422.85px;"></rect><rect x="217.07" y="417.15" width="23.95" height="11.4" id="el9rbyvm8qqbv" class="animable" style="transform-origin: 229.045px 422.85px;"></rect><rect x="258.69" y="417.15" width="23.95" height="11.4" id="el3o3zsbxxm7k" class="animable" style="transform-origin: 270.665px 422.85px;"></rect><rect x="51.14" y="417.15" width="23.95" height="11.4" id="elu6fs6ojrk7" class="animable" style="transform-origin: 63.115px 422.85px;"></rect><rect x="149.22" y="417.15" width="23.95" height="11.4" id="el5sadn1vrmua" class="animable" style="transform-origin: 161.195px 422.85px;"></rect><rect x="121.28" y="417.15" width="23.95" height="11.4" id="eld7ukae7bsw8" class="animable" style="transform-origin: 133.255px 422.85px;"></rect><rect x="64.26" y="402.32" width="23.95" height="11.4" id="eldbwbb9fvbep" class="animable" style="transform-origin: 76.235px 408.02px;"></rect><rect x="91.06" y="402.32" width="23.95" height="11.4" id="el4uqbfomjh9c" class="animable" style="transform-origin: 103.035px 408.02px;"></rect><rect x="120.14" y="388.07" width="23.95" height="11.4" id="elohrno4fcs7p" class="animable" style="transform-origin: 132.115px 393.77px;"></rect><rect x="147.5" y="388.07" width="23.95" height="11.4" id="el7dnegala2ae" class="animable" style="transform-origin: 159.475px 393.77px;"></rect><rect x="133.25" y="402.32" width="23.95" height="11.4" id="el9bim04ja9ea" class="animable" style="transform-origin: 145.225px 408.02px;"></rect><rect x="189.13" y="388.07" width="23.95" height="11.4" id="el6d2pilvtv2l" class="animable" style="transform-origin: 201.105px 393.77px;"></rect><rect x="216.5" y="388.07" width="23.95" height="11.4" id="el7boxbg7qo8" class="animable" style="transform-origin: 228.475px 393.77px;"></rect><rect x="202.24" y="402.32" width="23.95" height="11.4" id="el4w23zvrr263" class="animable" style="transform-origin: 214.215px 408.02px;"></rect><rect x="229.61" y="402.32" width="23.95" height="11.4" id="el5oga3p02k4b" class="animable" style="transform-origin: 241.585px 408.02px;"></rect></g></g><rect x="49.1" y="156.44" width="226.78" height="206.23" style="fill: rgb(255, 255, 255); stroke: rgb(38, 50, 56); stroke-linecap: round; stroke-linejoin: round; transform-origin: 162.49px 259.555px;" id="elx7l7t1wyoes" class="animable"></rect><line x1="84.5" y1="257.13" x2="71.92" y2="263.58" style="fill: rgb(255, 255, 255); stroke: rgb(38, 50, 56); stroke-linecap: round; stroke-linejoin: round; transform-origin: 78.21px 260.355px;" id="elagm6f682uyk" class="animable"></line><line x1="233.57" y1="180.65" x2="100.18" y2="249.08" style="fill: rgb(255, 255, 255); stroke: rgb(38, 50, 56); stroke-linecap: round; stroke-linejoin: round; transform-origin: 166.875px 214.865px;" id="el4lsp1zvveda" class="animable"></line><line x1="147.4" y1="237.48" x2="71.92" y2="276.2" style="fill: rgb(255, 255, 255); stroke: rgb(38, 50, 56); stroke-linecap: round; stroke-linejoin: round; transform-origin: 109.66px 256.84px;" id="elpjjh3d0yj6" class="animable"></line><line x1="170.09" y1="286.59" x2="157.51" y2="293.04" style="fill: rgb(255, 255, 255); stroke: rgb(38, 50, 56); stroke-linecap: round; stroke-linejoin: round; transform-origin: 163.8px 289.815px;" id="eler4kymn3j49" class="animable"></line><line x1="241.77" y1="249.82" x2="185.77" y2="278.54" style="fill: rgb(255, 255, 255); stroke: rgb(38, 50, 56); stroke-linecap: round; stroke-linejoin: round; transform-origin: 213.77px 264.18px;" id="elncwpvk6uquk" class="animable"></line><rect x="40.93" y="347" width="239.7" height="29" style="fill: rgb(138, 138, 138); stroke: rgb(38, 50, 56); stroke-linecap: round; stroke-linejoin: round; transform-origin: 160.78px 361.5px;" id="elbqnpj9kepcb" class="animable"></rect><rect x="127.05" y="347" width="3.14" height="29" style="fill: rgb(255, 255, 255); stroke: rgb(38, 50, 56); stroke-linecap: round; stroke-linejoin: round; transform-origin: 128.62px 361.5px;" id="elxg7bfqwj15r" class="animable"></rect><rect x="148.72" y="347" width="3.14" height="29" style="fill: rgb(255, 255, 255); stroke: rgb(38, 50, 56); stroke-linecap: round; stroke-linejoin: round; transform-origin: 150.29px 361.5px;" id="el3pnchilb8hs" class="animable"></rect><rect x="105.38" y="347" width="3.14" height="29" style="fill: rgb(255, 255, 255); stroke: rgb(38, 50, 56); stroke-linecap: round; stroke-linejoin: round; transform-origin: 106.95px 361.5px;" id="elw9na85werii" class="animable"></rect><rect x="62.04" y="347" width="3.14" height="29" style="fill: rgb(255, 255, 255); stroke: rgb(38, 50, 56); stroke-linecap: round; stroke-linejoin: round; transform-origin: 63.61px 361.5px;" id="elb6ypd0yxgd8" class="animable"></rect><rect x="83.71" y="347" width="3.14" height="29" style="fill: rgb(255, 255, 255); stroke: rgb(38, 50, 56); stroke-linecap: round; stroke-linejoin: round; transform-origin: 85.28px 361.5px;" id="elj9oolw2bgb9" class="animable"></rect><rect x="170.39" y="347" width="3.14" height="29" style="fill: rgb(255, 255, 255); stroke: rgb(38, 50, 56); stroke-linecap: round; stroke-linejoin: round; transform-origin: 171.96px 361.5px;" id="elt8cinjatavb" class="animable"></rect><rect x="235.4" y="347" width="3.14" height="29" style="fill: rgb(255, 255, 255); stroke: rgb(38, 50, 56); stroke-linecap: round; stroke-linejoin: round; transform-origin: 236.97px 361.5px;" id="eluhw2cajbo9" class="animable"></rect><rect x="257.07" y="347" width="3.14" height="29" style="fill: rgb(255, 255, 255); stroke: rgb(38, 50, 56); stroke-linecap: round; stroke-linejoin: round; transform-origin: 258.64px 361.5px;" id="el3h1iznh14nb" class="animable"></rect><rect x="192.06" y="347" width="3.14" height="29" style="fill: rgb(255, 255, 255); stroke: rgb(38, 50, 56); stroke-linecap: round; stroke-linejoin: round; transform-origin: 193.63px 361.5px;" id="elaqe5b79r9ui" class="animable"></rect><rect x="213.73" y="347" width="3.14" height="29" style="fill: rgb(255, 255, 255); stroke: rgb(38, 50, 56); stroke-linecap: round; stroke-linejoin: round; transform-origin: 215.3px 361.5px;" id="elfxrjx2hxasn" class="animable"></rect></g><g id="freepik--Sign--inject-8" class="animable" style="transform-origin: 366.395px 248.13px;"><polyline points="348.25 245.95 367.12 222 387.45 246.68" style="fill: none; stroke: rgb(38, 50, 56); stroke-linecap: round; stroke-linejoin: round; transform-origin: 367.85px 234.34px;" id="el7g5iz44cynr" class="animable"></polyline><rect x="335.91" y="242.32" width="60.97" height="31.94" style="fill: rgb(207, 216, 220); stroke: rgb(38, 50, 56); stroke-linecap: round; stroke-linejoin: round; transform-origin: 366.395px 258.29px;" id="elpeb59dzct5" class="animable"></rect><path d="M348,265.68a3.27,3.27,0,0,1-2.82,1.21,3.35,3.35,0,0,1-2.88-1.28,6.16,6.16,0,0,1-1-3.72v-7.57q0-3.88,2-4.85a4.19,4.19,0,0,1,1.82-.36c2.44,0,3.66,1.55,3.66,4.63v2.39h-2.56V253.9a5.88,5.88,0,0,0-.22-1.92.88.88,0,0,0-.89-.57.91.91,0,0,0-.92.61,5.13,5.13,0,0,0-.26,1.87V262a5.65,5.65,0,0,0,.25,2,.89.89,0,0,0,.9.6.9.9,0,0,0,.9-.61,6.06,6.06,0,0,0,.24-2V259.5h2.6V262A6.23,6.23,0,0,1,348,265.68Z" style="fill: rgb(38, 50, 56); transform-origin: 345.067px 258.005px;" id="el2ghlnrjmnb2" class="animable"></path><path d="M351.06,266.7V249.31h2.65v15.13h3.35v2.26Z" style="fill: rgb(38, 50, 56); transform-origin: 354.06px 258.005px;" id="elvh1aopjy1xj" class="animable"></path><path d="M365.05,265.64a3.34,3.34,0,0,1-2.91,1.25,3.42,3.42,0,0,1-2.93-1.25,6.41,6.41,0,0,1-.94-3.8v-7.95c0-3.19,1.31-4.79,3.91-4.79a3.35,3.35,0,0,1,2.9,1.22,6.1,6.1,0,0,1,.88,3.57v7.95A6.47,6.47,0,0,1,365.05,265.64ZM361.17,264a.93.93,0,0,0,1,.6.89.89,0,0,0,.94-.62,6.51,6.51,0,0,0,.23-2.11v-8.1a5,5,0,0,0-.23-1.81.88.88,0,0,0-.91-.56,1,1,0,0,0-1,.56,4.46,4.46,0,0,0-.27,1.8v8.11A6.82,6.82,0,0,0,361.17,264Z" style="fill: rgb(38, 50, 56); transform-origin: 362.116px 257.995px;" id="elxyg6qm06toh" class="animable"></path><path d="M368,261.81v-1.55h2.51V262a5.69,5.69,0,0,0,.25,2,.9.9,0,0,0,.93.59.89.89,0,0,0,.9-.48,4,4,0,0,0,.22-1.58,4.37,4.37,0,0,0-.39-1.91,6.77,6.77,0,0,0-1.25-1.71l-1.29-1.32a8,8,0,0,1-1.4-1.95,5.22,5.22,0,0,1-.5-2.33,5.14,5.14,0,0,1,.83-3.2,3.46,3.46,0,0,1,2.86-1.05,2.91,2.91,0,0,1,2.74,1.22,7.14,7.14,0,0,1,.72,3.57V255H372.7v-1.24a5.54,5.54,0,0,0-.22-1.82.82.82,0,0,0-.84-.54,1,1,0,0,0-.88.41,2.23,2.23,0,0,0-.28,1.25,2.75,2.75,0,0,0,.28,1.32,6.87,6.87,0,0,0,1,1.26l1.43,1.55a9.06,9.06,0,0,1,1.62,2.36,6.14,6.14,0,0,1,.55,2.61,6.32,6.32,0,0,1-.82,3.61,3.27,3.27,0,0,1-2.87,1.16,3.08,3.08,0,0,1-2.85-1.3A7.18,7.18,0,0,1,368,261.81Z" style="fill: rgb(38, 50, 56); transform-origin: 371.672px 257.994px;" id="el6th58rtim1" class="animable"></path><path d="M377.3,266.7V249.31h5.83v2.28H380v5.06h3v2.23h-3v5.54h3.3v2.28Z" style="fill: rgb(38, 50, 56); transform-origin: 380.3px 258.005px;" id="el74yslszvl7t" class="animable"></path><path d="M385.35,266.7V249.31h3.9a3.28,3.28,0,0,1,2.78,1.13,5.43,5.43,0,0,1,.87,3.34v7.84a6.74,6.74,0,0,1-.87,3.85,3.28,3.28,0,0,1-2.88,1.23Zm2.65-2.06h.87a1.22,1.22,0,0,0,1.06-.47,3.27,3.27,0,0,0,.33-1.74v-8.59a4.07,4.07,0,0,0-.33-1.92,1.21,1.21,0,0,0-1.14-.57H388Z" style="fill: rgb(38, 50, 56); transform-origin: 389.134px 258.006px;" id="el138prk7e2v3" class="animable"></path></g><g id="freepik--Awning--inject-8" class="animable" style="transform-origin: 251.21px 132.38px;"><g id="eln78aslcuj3g"><path d="M410.36,83H29.66V189.64a26.12,26.12,0,0,0,26.12,26.12H66.42a26.12,26.12,0,0,0,26.13-26.12,26.11,26.11,0,0,0,26.12,26.12h10.64a26.11,26.11,0,0,0,26.12-26.12v-3H156v3a26.12,26.12,0,0,0,26.13,26.12h10.64a26.12,26.12,0,0,0,26.12-26.12v-3h.57v3a26.12,26.12,0,0,0,26.12,26.12h10.64a26.12,26.12,0,0,0,26.13-26.12v-3h.57v3A26.11,26.11,0,0,0,309,215.76h10.64a26.11,26.11,0,0,0,26.12-26.12v-3h.58v3a26.11,26.11,0,0,0,26.12,26.12h10.64a26.11,26.11,0,0,0,26.12-26.12v-3h.57v3A26.12,26.12,0,0,0,436,215.76h10.63a26.12,26.12,0,0,0,26.13-26.12V83Z" style="opacity: 0.2; transform-origin: 251.21px 149.38px;" class="animable"></path></g><path d="M92.55,145.19h62.89a0,0,0,0,1,0,0v10.45a26.12,26.12,0,0,1-26.12,26.12H118.67a26.12,26.12,0,0,1-26.12-26.12V145.19A0,0,0,0,1,92.55,145.19Z" style="fill: rgb(207, 216, 220); stroke: rgb(38, 50, 56); stroke-linecap: round; stroke-linejoin: round; transform-origin: 123.995px 163.475px;" id="eli8hm8i3o07b" class="animable"></path><path d="M29.66,145.19H92.55a0,0,0,0,1,0,0v10.45a26.12,26.12,0,0,1-26.12,26.12H55.78a26.12,26.12,0,0,1-26.12-26.12V145.19A0,0,0,0,1,29.66,145.19Z" style="fill: rgb(224, 224, 224); stroke: rgb(38, 50, 56); stroke-linecap: round; stroke-linejoin: round; transform-origin: 61.105px 163.475px;" id="elib8y68gbs3f" class="animable"></path><path d="M156,145.19h62.89a0,0,0,0,1,0,0v10.45a26.12,26.12,0,0,1-26.12,26.12H182.13A26.12,26.12,0,0,1,156,155.64V145.19A0,0,0,0,1,156,145.19Z" style="fill: rgb(224, 224, 224); stroke: rgb(38, 50, 56); stroke-linecap: round; stroke-linejoin: round; transform-origin: 187.445px 163.475px;" id="elf75tae0smpk" class="animable"></path><path d="M219.46,145.19h62.89a0,0,0,0,1,0,0v10.45a26.12,26.12,0,0,1-26.12,26.12H245.58a26.12,26.12,0,0,1-26.12-26.12V145.19A0,0,0,0,1,219.46,145.19Z" style="fill: rgb(207, 216, 220); stroke: rgb(38, 50, 56); stroke-linecap: round; stroke-linejoin: round; transform-origin: 250.905px 163.475px;" id="elmalfnx7xlkm" class="animable"></path><path d="M282.92,145.19H345.8a0,0,0,0,1,0,0v10.45a26.12,26.12,0,0,1-26.12,26.12H309a26.12,26.12,0,0,1-26.12-26.12V145.19a0,0,0,0,1,0,0Z" style="fill: rgb(224, 224, 224); stroke: rgb(38, 50, 56); stroke-linecap: round; stroke-linejoin: round; transform-origin: 314.34px 163.475px;" id="elllzpp32g6th" class="animable"></path><path d="M346.38,145.19h62.89a0,0,0,0,1,0,0v10.45a26.12,26.12,0,0,1-26.12,26.12H372.5a26.12,26.12,0,0,1-26.12-26.12V145.19A0,0,0,0,1,346.38,145.19Z" style="fill: rgb(207, 216, 220); stroke: rgb(38, 50, 56); stroke-linecap: round; stroke-linejoin: round; transform-origin: 377.825px 163.475px;" id="elkllbbmfg5i9" class="animable"></path><path d="M409.83,145.19h62.89a0,0,0,0,1,0,0v10.45a26.12,26.12,0,0,1-26.12,26.12H436a26.12,26.12,0,0,1-26.12-26.12V145.19A0,0,0,0,1,409.83,145.19Z" style="fill: rgb(224, 224, 224); stroke: rgb(38, 50, 56); stroke-linecap: round; stroke-linejoin: round; transform-origin: 441.275px 163.475px;" id="eliugwndaav9m" class="animable"></path><rect x="29.66" y="49" width="443.06" height="103.68" style="fill: rgb(255, 255, 255); stroke: rgb(38, 50, 56); stroke-linecap: round; stroke-linejoin: round; transform-origin: 251.19px 100.84px;" id="elr7o36du3n6b" class="animable"></rect><rect x="92.88" y="49" width="62.99" height="103.68" style="fill: rgb(207, 216, 220); stroke: rgb(38, 50, 56); stroke-linecap: round; stroke-linejoin: round; transform-origin: 124.375px 100.84px;" id="el8vkz8jpq2s9" class="animable"></rect><rect x="219.56" y="49" width="62.99" height="103.68" style="fill: rgb(207, 216, 220); stroke: rgb(38, 50, 56); stroke-linecap: round; stroke-linejoin: round; transform-origin: 251.055px 100.84px;" id="elglw82exp7jt" class="animable"></rect><rect x="347.37" y="49" width="62.99" height="103.68" style="fill: rgb(207, 216, 220); stroke: rgb(38, 50, 56); stroke-linecap: round; stroke-linejoin: round; transform-origin: 378.865px 100.84px;" id="eldi3ql0w08jk" class="animable"></rect><path d="M422.6,66.06q4.29-1.5,8.4-3.06" style="fill: none; stroke: rgb(38, 50, 56); stroke-linecap: round; stroke-linejoin: round; transform-origin: 426.8px 64.53px;" id="elqb09swr2ekk" class="animable"></path><path d="M327.94,90.12c31.71-6.05,62.91-13.41,89.43-22.27" style="fill: none; stroke: rgb(38, 50, 56); stroke-linecap: round; stroke-linejoin: round; transform-origin: 372.655px 78.985px;" id="elvtchtx0627b" class="animable"></path><path d="M159.82,112.57c30.67-2.65,96.44-9.2,161.38-21.19" style="fill: none; stroke: rgb(38, 50, 56); stroke-linecap: round; stroke-linejoin: round; transform-origin: 240.51px 101.975px;" id="elfyq4xaye0j" class="animable"></path><path d="M142,114s3.13-.22,8.8-.67" style="fill: none; stroke: rgb(38, 50, 56); stroke-linecap: round; stroke-linejoin: round; transform-origin: 146.4px 113.665px;" id="elqjz40h9ovkf" class="animable"></path><path d="M214,97.22c12.59-1.55,25.19-3.57,37-6.22" style="fill: none; stroke: rgb(38, 50, 56); stroke-linecap: round; stroke-linejoin: round; transform-origin: 232.5px 94.11px;" id="el90nhh5dlso" class="animable"></path><path d="M116,102a764.86,764.86,0,0,0,91.74-4" style="fill: none; stroke: rgb(38, 50, 56); stroke-linecap: round; stroke-linejoin: round; transform-origin: 161.87px 100.052px;" id="el7o5vx11glaw" class="animable"></path></g><g id="freepik--Character--inject-8" class="animable animator-hidden" style="transform-origin: 184px 339.467px;"><ellipse cx="184" cy="468.51" rx="66" ry="8.49" style="fill: rgb(38, 50, 56); stroke: rgb(38, 50, 56); stroke-linecap: round; stroke-linejoin: round; transform-origin: 184px 468.51px;" id="elxdwgrxchl0r" class="animable"></ellipse><path d="M151.47,455.31s2.59,3.3,4.95,4.48,8.72,2.36,8.72,4.25-3.77,3.53-8.72,3.3-9.9-3.3-11.55-3.54-8.25-.24-9.9-1.18.94-8.48.94-8.48l13.44-.95Z" style="fill: rgb(255, 255, 255); stroke: rgb(38, 50, 56); stroke-miterlimit: 10; transform-origin: 149.78px 460.276px;" id="el2u1xc4jpocl" class="animable"></path><path d="M144.87,463.8c1.65.24,6.6,3.3,11.55,3.54,4,.19,7.22-.85,8.32-2.25-5.07,1.85-13.52-.15-17-2s-10.56-2.26-13.27-2.33c0,.9.11,1.61.54,1.86C136.62,463.56,143.22,463.56,144.87,463.8Z" style="fill: rgb(255, 255, 255); stroke: rgb(38, 50, 56); stroke-miterlimit: 10; transform-origin: 149.605px 464.061px;" id="elabatvml3f78" class="animable"></path><path d="M159.72,352.07s-8,41.25-12.49,51.86-6.84,17.68-7.31,25.46S135,452,135,454.14s-.23,4.24-.23,4.24-1.89.71,3.06,0,10.14-3.07,10.84-3.07h2.83s3.3-4.71,3.3-7.77-1.88-9-.47-11.79,14.38-24.28,17.44-31.82,7.31-24,7.55-24.75-16-29.94-16-29.94S159.72,347.12,159.72,352.07Z" style="fill: rgb(207, 216, 220); stroke: rgb(38, 50, 56); stroke-linecap: round; stroke-linejoin: round; transform-origin: 156.869px 403.742px;" id="elhd936gxifqf" class="animable"></path><path d="M225.72,305.64s5.79.11,7.09.11a4.53,4.53,0,0,1,3.47,2.38,27.73,27.73,0,0,1,.87,7.16c-.22.87-5.21,2-5.21,2l-2.6-2-4.56-2.11Z" style="fill: rgb(255, 255, 255); stroke: rgb(38, 50, 56); stroke-miterlimit: 10; transform-origin: 230.966px 311.465px;" id="elvqfxi7n1t3" class="animable"></path><path d="M230.42,310.52l5.65,3.69s1.3,1.74.43,2.39-3.47-1.52-3.47-1.52-4.13,0-5.43-.87a13,13,0,0,1-2.38-2.17" style="fill: rgb(255, 255, 255); stroke: rgb(38, 50, 56); stroke-miterlimit: 10; transform-origin: 231.01px 313.621px;" id="elfo6qohjyau" class="animable"></path><path d="M198.38,294.09s12,5.42,15.56,7.07,11.78,4.48,11.78,4.48l-.94,7.54s-18.86-3.07-20.74-3.07a25.68,25.68,0,0,1-5.19-.94Z" style="fill: rgb(38, 50, 56); stroke: rgb(38, 50, 56); stroke-miterlimit: 10; transform-origin: 212.05px 303.635px;" id="el04dg3qmm5cmr" class="animable"></path><path d="M131.9,336.13l1.73,4.12s.87,5.21,1.09,6.51,2.17,3.47.87,3.69a2.38,2.38,0,0,1-2.61-1.74,11.08,11.08,0,0,0-1.52-2.38l-.43,5.21s1.95,1.08,1.3,2.17-2.82.21-3.47-.44a12.47,12.47,0,0,1-1.52-2.82s-4.12-.65-5.21-2.17-1.95-6.29-1.3-8a44.23,44.23,0,0,1,3.25-5.64Z" style="fill: rgb(255, 255, 255); stroke: rgb(38, 50, 56); stroke-miterlimit: 10; transform-origin: 128.319px 344.433px;" id="elyro6bmnmg8k" class="animable"></path><path d="M222.19,451.07a74.45,74.45,0,0,0,11.31-.47c4.48-.71,9-2.83,9.43-.24s-.47,5.43-9,10.38a85.19,85.19,0,0,1-16.5,7.54,25,25,0,0,1-5.42,1.18c-1.18,0-3.77-9.43-3.77-9.43l12.26-9.19Z" style="fill: rgb(255, 255, 255); stroke: rgb(38, 50, 56); stroke-miterlimit: 10; transform-origin: 225.628px 459.284px;" id="el90u2kbp4lh" class="animable"></path><path d="M234,460.74c8.49-4.95,9.43-7.78,9-10.38a1.34,1.34,0,0,0-.93-1.11,51.64,51.64,0,0,1-8.5,7.95c-6.32,4.69-19.33,9.2-22.74,10.33.49,1.13,1,1.93,1.29,1.93a25,25,0,0,0,5.42-1.18A85.19,85.19,0,0,0,234,460.74Z" style="fill: rgb(255, 255, 255); stroke: rgb(38, 50, 56); stroke-miterlimit: 10; transform-origin: 226.957px 459.355px;" id="elcvcvhk83b9e" class="animable"></path><path d="M154.54,332.27s-.95,7.31.23,12.26,6.37,10.84,6.37,10.84,13,37,16,42.9,17.92,38,20.75,41.25S203.56,454.14,205,457a8.08,8.08,0,0,0,4.24,3.78L223.6,450.6a27.81,27.81,0,0,0-1.41-6.13c-.95-2.12-12.5-30.17-13.68-36.3s-5.42-22.39-5.42-24-9.66-33.47-9.66-33.47l4.24-14.85.47-3.3-42.9-2.12Z" style="fill: rgb(207, 216, 220); stroke: rgb(38, 50, 56); stroke-linecap: round; stroke-linejoin: round; transform-origin: 188.889px 395.605px;" id="elfc3epdvsfbn" class="animable"></path><path d="M203.07,443.9a27.59,27.59,0,0,0,0,4.81" style="fill: none; stroke: rgb(38, 50, 56); stroke-miterlimit: 10; transform-origin: 203.018px 446.305px;" id="elzwqckwin5t" class="animable"></path><path d="M207.34,412.65s-3,17-4,28.06" style="fill: none; stroke: rgb(38, 50, 56); stroke-miterlimit: 10; transform-origin: 205.34px 426.68px;" id="el4x6oxonrplr" class="animable"></path><path d="M202.09,422.4a90.87,90.87,0,0,0,2.18-17.06" style="fill: none; stroke: rgb(38, 50, 56); stroke-miterlimit: 10; transform-origin: 203.18px 413.87px;" id="el40crcvtkk1r" class="animable"></path><path d="M199.79,431.27s.7-2.15,1.54-5.56" style="fill: none; stroke: rgb(38, 50, 56); stroke-miterlimit: 10; transform-origin: 200.56px 428.49px;" id="elyvvy4da5u4" class="animable"></path><path d="M181.64,340.29s7.07,5.18,8,6.83l.94,1.65" style="fill: none; stroke: rgb(38, 50, 56); stroke-miterlimit: 10; transform-origin: 186.11px 344.53px;" id="elac58wsz2vjc" class="animable"></path><line x1="185.18" y1="340.05" x2="189.66" y2="344.06" style="fill: none; stroke: rgb(38, 50, 56); stroke-miterlimit: 10; transform-origin: 187.42px 342.055px;" id="elm6ewhyirzr" class="animable"></line><path d="M171,242.23s-14.15,9.19-16.5,12.73-8.25,17.44-8.25,17.44-11.32,13.67-12,16.5-4.47,9.43-5.42,14.85S123,332,122.48,333.92a9.07,9.07,0,0,1-.94,2.59l11.07.71s3.78-10.84,5.19-15.79,5.42-14.14,7.54-18.62,3.77-8.49,3.77-8.49l3.54-4.24,2.59-2.12s.24,29,.47,29.93-1.65,9.43-1.65,12.5v4.24s1.18,0,9.43,1.41a85.39,85.39,0,0,0,19.57,1.18c5.42-.23,16.5-.47,16.73-1.18s0-11.55,0-13.43,1.18-19.8,1-25.7-1-10.13-1-12.25-2.83-17-3.77-20.51-4.71-13.2-7.54-16S171,242.23,171,242.23Z" style="fill: rgb(38, 50, 56); stroke: rgb(38, 50, 56); stroke-miterlimit: 10; transform-origin: 161.174px 289.789px;" id="elz0fcmwd8nqi" class="animable"></path><line x1="155.24" y1="287.96" x2="172.21" y2="272.4" style="fill: none; stroke: rgb(130, 130, 130); stroke-miterlimit: 10; transform-origin: 163.725px 280.18px;" id="elcxbjtkuit95" class="animable"></line><line x1="164.2" y1="279.47" x2="175.99" y2="274.76" style="fill: none; stroke: rgb(130, 130, 130); stroke-miterlimit: 10; transform-origin: 170.095px 277.115px;" id="el1xbnvajwfjd" class="animable"></line><path d="M191.35,203.74a23,23,0,0,1,4.66,5.34c1.92,3.16,2.33,7.27,2.88,7.82a2.78,2.78,0,0,1,.54,3.15,15.1,15.1,0,0,0-1.09,2.6s3.15,3.84,3,5.89a3.31,3.31,0,0,1-2.19,2.74l-.55,3.29s1,4.8-2.6,6.85a7.91,7.91,0,0,1-6.58.83l-2.6,6L173,240.19s.82-3.56.95-4.79-1.09-4.94-1.37-5.76-4.52-5.34-4-10.14,3.84-11.37,7.54-13.43a21.23,21.23,0,0,1,9.32-2.6C187.1,203.47,191.35,203.74,191.35,203.74Z" style="fill: rgb(255, 255, 255); stroke: rgb(38, 50, 56); stroke-miterlimit: 10; transform-origin: 184.941px 225.86px;" id="ell4mndt2f3y" class="animable"></path><path d="M184.63,222.24a4.44,4.44,0,0,0,1.65-1.1c.55-.68.27-1.78,1-2.19s3.7-1.51,3.42-3.42-2.74-5.35-3.83-5.76-4.25-1.37-1.24-3.15,4.94-.55,5.76-1.51.55-2.33-1.78-2.6-10.28-2.06-16.17,2.46-8.36,7.4-7.27,15.08,9.32,15.48,9.87,15.89,5.89,1,7.81-2.6-.27-6.58-.27-7.54A15.93,15.93,0,0,1,184.63,222.24Z" style="fill: rgb(38, 50, 56); stroke: rgb(38, 50, 56); stroke-miterlimit: 10; transform-origin: 178.865px 219.092px;" id="elvzlof9mvzl" class="animable"></path><line x1="183.13" y1="221.83" x2="203.27" y2="221.42" style="fill: none; stroke: rgb(38, 50, 56); stroke-miterlimit: 10; transform-origin: 193.2px 221.625px;" id="ele6ri0fdlq3e" class="animable"></line><path d="M199.43,220.05s3.7-.82,3.84,1.37-.55,3.83-2.47,3.83" style="fill: none; stroke: rgb(38, 50, 56); stroke-miterlimit: 10; transform-origin: 201.359px 222.575px;" id="elprwxspyearo" class="animable"></path><path d="M185.67,224.58s-1.92-8.89-4.8-4.33-.48,10.57,1.92,11.29l2.4.72s1.2,4.08,2.64,5.28" style="fill: rgb(255, 255, 255); stroke: rgb(38, 50, 56); stroke-miterlimit: 10; transform-origin: 183.692px 228.244px;" id="el713yye3zdtt" class="animable"></path><polygon points="172.53 237.83 170.33 242.54 185.73 254.33 190.76 247.1 172.53 237.83" style="fill: rgb(255, 255, 255); stroke: rgb(38, 50, 56); stroke-miterlimit: 10; transform-origin: 180.545px 246.08px;" id="el3okwbhd5ra8" class="animable"></polygon></g><defs>     <filter id="active" height="200%">         <feMorphology in="SourceAlpha" result="DILATED" operator="dilate" radius="2"></feMorphology>                <feFlood flood-color="#32DFEC" flood-opacity="1" result="PINK"></feFlood>        <feComposite in="PINK" in2="DILATED" operator="in" result="OUTLINE"></feComposite>        <feMerge>            <feMergeNode in="OUTLINE"></feMergeNode>            <feMergeNode in="SourceGraphic"></feMergeNode>        </feMerge>    </filter>    <filter id="hover" height="200%">        <feMorphology in="SourceAlpha" result="DILATED" operator="dilate" radius="2"></feMorphology>                <feFlood flood-color="#ff0000" flood-opacity="0.5" result="PINK"></feFlood>        <feComposite in="PINK" in2="DILATED" operator="in" result="OUTLINE"></feComposite>        <feMerge>            <feMergeNode in="OUTLINE"></feMergeNode>            <feMergeNode in="SourceGraphic"></feMergeNode>        </feMerge>            <feColorMatrix type="matrix" values="0   0   0   0   0                0   1   0   0   0                0   0   0   0   0                0   0   0   1   0 "></feColorMatrix>    </filter></defs></svg>