<svg class="animated" id="freepik_stories-video-call" xmlns="http://www.w3.org/2000/svg" viewBox="0 0 500 500" version="1.1" xmlns:xlink="http://www.w3.org/1999/xlink" xmlns:svgjs="http://svgjs.com/svgjs"><style>svg#freepik_stories-video-call:not(.animated) .animable {opacity: 0;}svg#freepik_stories-video-call.animated #freepik--character-1--inject-31 {animation: 1s 1 forwards cubic-bezier(.36,-0.01,.5,1.38) slideUp;animation-delay: 0s;}            @keyframes slideUp {                0% {                    opacity: 0;                    transform: translateY(30px);                }                100% {                    opacity: 1;                    transform: inherit;                }            }        </style><g id="freepik--background-simple--inject-31" class="animable" style="transform-origin: 260.107px 249.498px;"><path d="M456.45,167.63l-2-4.35c-16-34.92-49.56-59-87.87-61.68a103,103,0,0,0-16.19.13c-35.93,3.13-69.59,25.57-86.31,57.53-9.83,18.79-14.67,41.22-30.67,55.14-20.83,18.12-52.06,15-79.35,10.78s-58.54-7.26-79.29,10.94c-13,11.41-18.85,29.16-20,46.41-3.09,45.66,24,90.13,62.24,115.26s86,32.77,131.61,29.33c63.94-4.82,127.46-31.71,169.56-80.06S478.07,228,456.45,167.63Z" style="fill: rgb(235, 235, 235); transform-origin: 260.107px 264.621px;" id="elhri0mi3hq26" class="animable"></path><g id="eluw5v8wui5sb"><circle cx="132.22" cy="127.89" r="43.32" style="fill: rgb(235, 235, 235); transform-origin: 132.22px 127.89px; transform: rotate(-22.9727deg);" class="animable"></circle></g></g><g id="freepik--Icons--inject-31" class="animable" style="transform-origin: 241.579px 163.561px;"><g id="elm7toyxnaj3"><rect x="363.05" y="105.71" width="39.76" height="39.76" rx="4.98" style="fill: rgb(69, 90, 100); transform-origin: 382.93px 125.59px; transform: rotate(-73.53deg);" class="animable"></rect></g><path d="M391.62,137.08a1.91,1.91,0,0,1,.07-.34l.24-.93.95-3.48L396.32,120l.13.24-22.14-6.3.29-.16h0v0l0,.07,0,.15-.08.29-.17.57L374,116c-.22.76-.44,1.51-.65,2.25L372,122.66c-.83,2.85-1.62,5.58-2.35,8.13l-.15-.26,15.9,4.67,4.53,1.36,1.22.37.43.15-.4-.09-1.19-.31-4.52-1.24-16.09-4.5-.21-.06.06-.21c.73-2.55,1.5-5.28,2.32-8.14.41-1.43.82-2.9,1.25-4.39.21-.74.43-1.49.64-2.25l.33-1.14.17-.58.08-.28,0-.15,0-.07v0h0l.3-.16,22.12,6.38.19.06-.05.19c-1.52,5.14-2.78,9.4-3.67,12.43-.44,1.44-.78,2.59-1,3.41-.12.36-.21.65-.28.88A1.92,1.92,0,0,1,391.62,137.08Z" style="fill: rgb(250, 250, 250); transform-origin: 382.9px 125.295px;" id="elrzic07olqjf" class="animable"></path><path d="M382.74,112.51a13.2,13.2,0,0,1,2,.43c1.24.32,3,.79,5.09,1.37l.11,0,0,.12c.31,1.19.65,2.48,1,3.84l.11.4-.4-.12-2.1-.6c-3.49-1-6.65-1.93-8.95-2.63l-.29-.09.22-.2c1.86-1.71,3.11-2.7,3.2-2.55,0,0-.3.24-.82.72l-2.15,2.08-.07-.29c2.33.62,5.5,1.5,9,2.5l2.1.61-.3.28-1-3.84.15.15c-2.08-.61-3.82-1.15-5-1.53A11.2,11.2,0,0,1,382.74,112.51Z" style="fill: rgb(250, 250, 250); transform-origin: 385.18px 115.568px;" id="eljmdba8ocbg" class="animable"></path><path d="M387.1,128.21s.24-.4.52-1.18a5.2,5.2,0,0,0,0-3.4,5.07,5.07,0,1,0-4.7,6.64,5.28,5.28,0,0,0,3.2-1.17c.64-.52.9-.92.94-.89a1.07,1.07,0,0,1-.17.3,4.14,4.14,0,0,1-.65.73,5.24,5.24,0,0,1-3.31,1.37,5.48,5.48,0,0,1-4.71-2.31,5.39,5.39,0,0,1-1-3.05,5.44,5.44,0,0,1,3.77-5.32,5.44,5.44,0,0,1,6.94,3.6,5.27,5.27,0,0,1-.18,3.57,4.16,4.16,0,0,1-.48.86C387.19,128.14,387.11,128.22,387.1,128.21Z" style="fill: rgb(250, 250, 250); transform-origin: 382.688px 125.132px;" id="el59wnh2yqmto" class="animable"></path><g id="el0zw2ztvgm3gb"><rect x="80.74" y="165.31" width="55.71" height="55.71" rx="6.37" style="fill: rgb(207, 216, 220); transform-origin: 108.595px 193.165px; transform: rotate(-12.08deg);" class="animable"></rect></g><path d="M101,180.42a5.79,5.79,0,0,1,1,.42l2.8,1.34.11,0-.06.12c-.92,1.71-2.15,4-3.63,6.7l-.06-.26,13.64,8.75-.4.09c1.16-2,2.39-4.09,3.65-6.27l.12-.19.21.05a21.4,21.4,0,0,1,5,1.93,9.6,9.6,0,0,1,4.11,3.86,5,5,0,0,1,.44,1.42l.11.75-.06.76a5.07,5.07,0,0,1-.34,1.47,6.41,6.41,0,0,1-.58,1.38,9.1,9.1,0,0,1-4.35,4.13,9.77,9.77,0,0,1-6,.62,11,11,0,0,1-2.81-1c-.88-.46-1.64-1-2.45-1.5l-9.13-5.83-8.25-5.3-1.91-1.22a11.31,11.31,0,0,1-1.79-1.32,5.4,5.4,0,0,1-1.77-3.77,7.92,7.92,0,0,1,3-6.32,8.52,8.52,0,0,1,5-1.9,8.33,8.33,0,0,1,3.34.51,6.71,6.71,0,0,1,.8.36,1.11,1.11,0,0,1,.26.15,9.87,9.87,0,0,0-4.39-.76,8.28,8.28,0,0,0-4.76,1.92,7.57,7.57,0,0,0-2.75,6A4.92,4.92,0,0,0,90.78,191a11.06,11.06,0,0,0,1.74,1.25l1.91,1.2,8.28,5.24,9.15,5.8c.8.5,1.59,1.05,2.4,1.47a10.19,10.19,0,0,0,2.64.91,9.13,9.13,0,0,0,5.57-.58,8.36,8.36,0,0,0,4-3.83,6.54,6.54,0,0,0,.54-1.29,4.7,4.7,0,0,0,.31-1.32l.06-.67-.1-.65a4.29,4.29,0,0,0-.39-1.26,9,9,0,0,0-3.83-3.59,20.81,20.81,0,0,0-4.84-1.88l.33-.15-3.69,6.25-.16.26-.24-.16L101,189.12l-.16-.1.09-.16,3.77-6.63,0,.17L102,181A6.82,6.82,0,0,1,101,180.42Z" style="fill: rgb(250, 250, 250); transform-origin: 108.32px 193.512px;" id="elonrv715n7dl" class="animable"></path><path d="M115.29,187.58a19.83,19.83,0,0,1-1.12-4.43,19.57,19.57,0,0,1-.61-4.54,20.49,20.49,0,0,1,1.12,4.44A20.13,20.13,0,0,1,115.29,187.58Z" style="fill: rgb(250, 250, 250); transform-origin: 114.425px 183.095px;" id="elxe5n2wjvsm9" class="animable"></path><path d="M119,182.12a21.51,21.51,0,0,1-4.52,1.23,22.52,22.52,0,0,1-4.66.72,21.45,21.45,0,0,1,4.52-1.22A21.17,21.17,0,0,1,119,182.12Z" style="fill: rgb(250, 250, 250); transform-origin: 114.41px 183.095px;" id="elsf0j9y3sc8" class="animable"></path></g><g id="freepik--character-2--inject-31" class="animable" style="transform-origin: 307.31px 135.26px;"><rect x="275.65" y="88.96" width="63.27" height="92.77" style="fill: rgb(245, 245, 245); transform-origin: 307.285px 135.345px;" id="elnskol9ayce" class="animable"></rect><path d="M338.91,181.73s0-.16,0-.46,0-.74,0-1.31c0-1.17,0-2.87,0-5.08,0-4.45,0-10.92-.07-19.1,0-16.34-.07-39.5-.12-66.82l.24.24-63.26,0h0l.26-.26c0,34.9,0,67.11-.06,92.77l-.2-.21,46,.11,12.74.05,3.35,0c.76,0,1.16,0,1.16,0l-1.11,0-3.31,0-12.7.05-46.14.11h-.21v-.21c0-25.66,0-57.87-.05-92.77V88.7h.26l63.26,0h.24V89c0,27.38-.09,50.59-.12,67,0,8.15,0,14.61-.06,19,0,2.19,0,3.88,0,5,0,.56,0,1,0,1.29S338.91,181.73,338.91,181.73Z" style="fill: rgb(38, 50, 56); transform-origin: 307.31px 135.26px;" id="elwcc691yjxbp" class="animable"></path><path d="M281.62,178.19a8.72,8.72,0,0,1,.07-15.83,3.67,3.67,0,0,0,1.53-1c.56-.74.34-1.78.36-2.71a4.88,4.88,0,0,1,4.7-4.56l14.25,5.6v15Z" style="fill: rgb(38, 50, 56); transform-origin: 289.562px 166.14px;" id="elcrywrnf1q8r" class="animable"></path><path d="M276.41,181.48S287,173.15,300,171.19s27.51,0,27.51,0a40.11,40.11,0,0,1,11.35,3.93l.07,6.57-14-.05Z" style="fill: rgb(207, 216, 220); transform-origin: 307.67px 176.004px;" id="elhd9nxchh3dm" class="animable"></path><path d="M332.93,112.21c-1.36-3.77-7.8-7-11.34-8.89-5.29-2.81-10.09-2-13,.7-5.51-4.32-12.71-8.4-19.42-6.41s-12,9.11-10.51,16c.86,4,3.79,7.58,3.76,11.71,0,2.81-1.42,5.39-2.52,8s-1.91,5.59-.77,8.16c1.07,2.39,3.57,3.82,5,6,1.14,1.8,1.46,4,2.21,6,2.8,7.39,11.76,11.28,19.5,9.71s14-7.65,17.47-14.76,4.4-15.17,4.56-23.06" style="fill: rgb(38, 50, 56); transform-origin: 305.668px 130.313px;" id="eluatthj5kty" class="animable"></path><path d="M327.57,173.43l-.27-55.63-23.4-7.13a12.78,12.78,0,0,0-14.46,11.44c-.84,8.62-1.54,19.46-.71,26,1.63,12.83,11.36,14.76,11.36,14.76s-.08,4.76-.18,10.33a13.78,13.78,0,0,0,2.66,8.41H324.9A13.76,13.76,0,0,0,327.57,173.43Z" style="fill: rgb(255, 190, 157); transform-origin: 307.964px 146.081px;" id="elpn12n12rb2e" class="animable"></path><path d="M300.09,162.9a33.34,33.34,0,0,0,17.25-4.13s-4.57,9.12-17.31,7.52Z" style="fill: rgb(235, 153, 110); transform-origin: 308.685px 162.624px;" id="ele3f7in1rajh" class="animable"></path><path d="M308,123.47c.16.49,1.93.32,4,.63s3.71.93,4,.51c.13-.2-.15-.66-.81-1.15a6.8,6.8,0,0,0-2.94-1.13,6.65,6.65,0,0,0-3.14.27C308.34,122.88,308,123.25,308,123.47Z" style="fill: rgb(38, 50, 56); transform-origin: 312.016px 123.502px;" id="el0ro6teplcg5j" class="animable"></path><path d="M291.75,124.45c.3.41,1.53,0,3,0s2.68.36,3,0c.13-.2-.05-.61-.58-1a4.28,4.28,0,0,0-4.81,0C291.81,123.84,291.62,124.25,291.75,124.45Z" style="fill: rgb(38, 50, 56); transform-origin: 294.751px 123.671px;" id="ellqpc3htto7e" class="animable"></path><path d="M307.55,137.86a.47.47,0,0,0,.48.45.48.48,0,0,0,.46-.48.47.47,0,0,0-.94,0Z" style="fill: rgb(235, 153, 110); transform-origin: 308.02px 137.835px;" id="elo8widy4t2z8" class="animable"></path><path d="M294.28,136a.47.47,0,1,0,.93,0,.48.48,0,0,0-.48-.46A.47.47,0,0,0,294.28,136Z" style="fill: rgb(235, 153, 110); transform-origin: 294.745px 136.039px;" id="elv8g9tpqtj7" class="animable"></path><path d="M291.74,137.32a.47.47,0,0,0,.48.45.47.47,0,1,0,0-.94A.48.48,0,0,0,291.74,137.32Z" style="fill: rgb(235, 153, 110); transform-origin: 292.215px 137.3px;" id="elq1vsotd53h" class="animable"></path><path d="M290.89,135.39a.47.47,0,1,0,.45-.48A.47.47,0,0,0,290.89,135.39Z" style="fill: rgb(235, 153, 110); transform-origin: 291.36px 135.38px;" id="elrfaao7fl4w8" class="animable"></path><path d="M309.76,139.85a.46.46,0,0,0,.48.45.47.47,0,1,0-.48-.45Z" style="fill: rgb(235, 153, 110); transform-origin: 310.23px 139.83px;" id="elcoa4s983akp" class="animable"></path><path d="M311.44,137.92a.47.47,0,1,0,.45-.49A.48.48,0,0,0,311.44,137.92Z" style="fill: rgb(235, 153, 110); transform-origin: 311.91px 137.9px;" id="elhjzr6jxn1j" class="animable"></path><path d="M303.74,108.72a22.09,22.09,0,0,1,23.59-1.2c7.25,4.27,11.2,10.43,11.58,20.59v12.95c-.38,5.9.88,9.32-2,10.32-4,1.36-7,12.12-10.42,11.37-4.21-3.27-4.28-5.18-4.43-11.87-.16-7.19-2.32-15.74.5-20.37-9.3-2.77-16.72-11.67-18.14-21.78" style="fill: rgb(38, 50, 56); transform-origin: 321.325px 133.731px;" id="elb9ks4x6az7" class="animable"></path><path d="M290.68,97.21c0,.07,1.1.07,2.81.46a10.93,10.93,0,0,1,1.38.4,14.85,14.85,0,0,1,1.54.58,18.73,18.73,0,0,1,3.25,1.9,18.53,18.53,0,0,1,2.76,2.56c.36.45.73.87,1,1.3a12.58,12.58,0,0,1,.77,1.21c.88,1.52,1.2,2.58,1.26,2.55a4,4,0,0,0-.22-.73,6,6,0,0,0-.33-.85,10.52,10.52,0,0,0-.53-1.07,12.51,12.51,0,0,0-.75-1.25c-.28-.44-.64-.87-1-1.34a16.24,16.24,0,0,0-6.1-4.52,16.17,16.17,0,0,0-1.57-.58,14,14,0,0,0-1.41-.36,10.71,10.71,0,0,0-1.19-.19,6.41,6.41,0,0,0-.9-.07A3.78,3.78,0,0,0,290.68,97.21Z" style="fill: rgb(69, 90, 100); transform-origin: 298.065px 102.68px;" id="elc8c258q1i0l" class="animable"></path><path d="M283.25,146l-.09-.1-.27-.31a14.75,14.75,0,0,1-1-1.19,6.78,6.78,0,0,1-1.21-2.15,3.93,3.93,0,0,1-.16-1.51,4.16,4.16,0,0,1,.52-1.61,27.85,27.85,0,0,1,2.41-3.19,17.95,17.95,0,0,0,3.49-9,35.88,35.88,0,0,0,0-5.48,19.27,19.27,0,0,1,.31-5.4,11,11,0,0,1,5.86-7.2,10.38,10.38,0,0,1,3.81-1,11.45,11.45,0,0,1,5.62,1,12.44,12.44,0,0,1,1.37.77l.34.22c.08,0,.12.08.12.07a8,8,0,0,0-1.78-1.16,11.24,11.24,0,0,0-5.68-1.14,10.33,10.33,0,0,0-3.91,1,11.3,11.3,0,0,0-6,7.35,18.83,18.83,0,0,0-.33,5.48,39.69,39.69,0,0,1,.05,5.44,18,18,0,0,1-3.4,8.89,27.15,27.15,0,0,0-2.4,3.23,4.36,4.36,0,0,0-.53,1.7,4,4,0,0,0,.2,1.57,6.68,6.68,0,0,0,1.27,2.17c.44.53.82.91,1.07,1.16l.3.29Z" style="fill: rgb(69, 90, 100); transform-origin: 292.375px 126.799px;" id="elllbqriky15" class="animable"></path><path d="M291.77,132.28c.19.22,1.45-.67,3.2-.63s3,.94,3.22.73-.1-.48-.65-.9a4.43,4.43,0,0,0-2.57-.85,4.26,4.26,0,0,0-2.56.77C291.86,131.8,291.67,132.18,291.77,132.28Z" style="fill: rgb(38, 50, 56); transform-origin: 295.002px 131.52px;" id="eljmkf29svly9" class="animable"></path><path d="M309.7,132.57c.2.21,1.45-.68,3.21-.64s3,.95,3.22.74-.1-.49-.66-.91a4.47,4.47,0,0,0-2.57-.84,4.21,4.21,0,0,0-2.56.77C309.79,132.09,309.6,132.47,309.7,132.57Z" style="fill: rgb(38, 50, 56); transform-origin: 312.937px 131.81px;" id="elvukmkdm6ca" class="animable"></path><path d="M303.07,143.16a11.61,11.61,0,0,0-2.84-.57c-.45-.05-.87-.15-.94-.46a2.27,2.27,0,0,1,.33-1.32c.44-1.08.9-2.21,1.39-3.39,1.94-4.82,3.35-8.79,3.15-8.87s-1.92,3.77-3.86,8.6c-.46,1.19-.91,2.32-1.34,3.41a2.55,2.55,0,0,0-.26,1.75,1.11,1.11,0,0,0,.72.67,3.38,3.38,0,0,0,.76.12A11.42,11.42,0,0,0,303.07,143.16Z" style="fill: rgb(38, 50, 56); transform-origin: 301.412px 135.887px;" id="eldwajp8s4zr7" class="animable"></path><path d="M303.73,147.41a3.17,3.17,0,0,1,2.86-1.12,2.89,2.89,0,0,1,2,1.11,1.83,1.83,0,0,1,.1,2.09,2.11,2.11,0,0,1-2.31.54,6.52,6.52,0,0,1-2.22-1.38,1.89,1.89,0,0,1-.49-.53.59.59,0,0,1,0-.66" style="fill: rgb(207, 216, 220); transform-origin: 306.27px 148.216px;" id="el6gqpc9hxidr" class="animable"></path><path d="M308.21,144.48c-.28,0-.32,1.88-2,3.2s-3.68,1.07-3.7,1.34c0,.12.44.38,1.3.42a4.78,4.78,0,0,0,3.09-1,4.14,4.14,0,0,0,1.54-2.69C308.55,145,308.34,144.47,308.21,144.48Z" style="fill: rgb(38, 50, 56); transform-origin: 305.49px 146.961px;" id="elyhiqied7ejh" class="animable"></path><path d="M338.27,124.55a7,7,0,0,1-1.46.31,27.06,27.06,0,0,1-4.08.28,29.77,29.77,0,0,1-23.44-11.54,27.2,27.2,0,0,1-2.26-3.4,8.18,8.18,0,0,1-.65-1.34,9.1,9.1,0,0,1,.83,1.24,32.9,32.9,0,0,0,2.37,3.27,30.84,30.84,0,0,0,23.16,11.4,33.26,33.26,0,0,0,4-.11A9.6,9.6,0,0,1,338.27,124.55Z" style="fill: rgb(69, 90, 100); transform-origin: 322.325px 117px;" id="el6p4jnk3sik6" class="animable"></path><path d="M334.77,153s.56-.67,1.43-2a16.14,16.14,0,0,0,2.38-6.11,14.33,14.33,0,0,0-1.81-9.39,15.53,15.53,0,0,0-3.73-4.33,18.37,18.37,0,0,0-5.45-2.86c-2-.73-4-1.28-5.95-2a24.85,24.85,0,0,1-5.25-2.66,26,26,0,0,1-7-7,24.32,24.32,0,0,1-3-6,16,16,0,0,1-.5-1.75,4.51,4.51,0,0,1-.12-.63c.06,0,.25.84.81,2.31a26.13,26.13,0,0,0,10.07,12.65,24.72,24.72,0,0,0,5.17,2.58c1.88.7,3.91,1.25,5.95,2a18.91,18.91,0,0,1,5.59,3,15.72,15.72,0,0,1,3.82,4.5,14.5,14.5,0,0,1,1.76,9.68,15.51,15.51,0,0,1-2.58,6.16,12.48,12.48,0,0,1-1.14,1.42A2.91,2.91,0,0,1,334.77,153Z" style="fill: rgb(69, 90, 100); transform-origin: 322.455px 130.635px;" id="el75hxz2li9tx" class="animable"></path><path d="M300.09,162.9s-.23.12-.67.21a9,9,0,0,1-1.93.14,12.5,12.5,0,0,1-6-2,11.35,11.35,0,0,1-4.19-4.74,9.56,9.56,0,0,1-.64-1.81,1.82,1.82,0,0,1-.09-.71c.09,0,.32,1,1.06,2.36a11.93,11.93,0,0,0,4.14,4.46,13.47,13.47,0,0,0,5.77,2C299.09,163,300.08,162.81,300.09,162.9Z" style="fill: rgb(69, 90, 100); transform-origin: 293.328px 158.623px;" id="elfv0ud7h4swu" class="animable"></path></g><g id="freepik--character-1--inject-31" class="animable" style="transform-origin: 253.999px 256.115px;"><path d="M312.51,216.26c-2.64-4-4.36-20.31-7.79-19.39-4.38,1.16,1.77,18.53,2.2,20.12s-1.87,2.2-2.18.75c-.44-2.09-5.34-22.49-9.61-20.93-2.37.87-.85,5.19-.85,5.19s6.94,19.85,4.9,20.51-6-10.91-7.35-15c-1.27-3.93-3.38-5.05-4.84-3.21S289.2,218,290.4,222s4.7,14.77-1.38,10.73-12.25-4.92-14.06-4-1.14,3.75,1.09,4.12a27.31,27.31,0,0,1,6.78,2.87,26.22,26.22,0,0,1,4.65,3.63,22.8,22.8,0,0,1,4.63,5.94,14.18,14.18,0,0,0,9.32,6.91h0l1.83,7.47,20.79-7.74-3.46-14.12c-2.74-10.78-2.85-18.5-3.48-25.18-1-10.66-2.4-10.61-3.61-10.22C310.85,203.21,315.09,220.13,312.51,216.26Z" style="fill: rgb(255, 190, 157); transform-origin: 298.985px 228.197px;" id="elox2zhc3gu6" class="animable"></path><path d="M316.31,230a22.29,22.29,0,0,0-2.73,1.53,11.72,11.72,0,0,0-4.3,6,10.72,10.72,0,0,0-.44,2.23l0,.36-.32-.15a18.17,18.17,0,0,0-5.74-1.53c-1.49-.15-2.39-.1-2.4-.17a7.36,7.36,0,0,1,2.42-.16,16.49,16.49,0,0,1,5.93,1.4l-.36.21a11.18,11.18,0,0,1,.45-2.35,11.54,11.54,0,0,1,2-3.76,11.15,11.15,0,0,1,2.58-2.34,10.49,10.49,0,0,1,2.1-1A2.39,2.39,0,0,1,316.31,230Z" style="fill: rgb(235, 153, 110); transform-origin: 308.345px 235.06px;" id="elupusvr5sey8" class="animable"></path><path d="M317.48,245.81A18.73,18.73,0,0,1,307.3,250c0-.15,2.4-.66,5.21-1.84S317.39,245.68,317.48,245.81Z" style="fill: rgb(235, 153, 110); transform-origin: 312.39px 247.9px;" id="elr7ukrsc9i1" class="animable"></path><path d="M323.54,350.12a22.6,22.6,0,0,1-12.43-5.24l-33.55-28.36.3,32.69,6.65.48L282.64,374H178.77l0-.58c-6.39-5.44-10.32-13.64-11.71-22.59-2.53-16.18-3.47-42.55-5.73-61.19-1.58-13.12,1.31-30.11,13-36.31l9-3.55h0l28.38-11.18,36.46,1.68,24.34,6.83c6.75,2.56,12.57,10.65,16.72,16.61l20.29,28.23c-.22-4.61-8.62-32.43-9.17-33.68L325.15,248s25.59,56.86,22.15,81.43C344.43,349.9,323.54,350.12,323.54,350.12Z" style="fill: rgb(38, 50, 56); transform-origin: 254.275px 306.3px;" id="elpb6d7qz6um9" class="animable"></path><path d="M275.15,304.52c0-.15,2.27.15,5.82-.37a25.86,25.86,0,0,0,12.42-5.29,21.19,21.19,0,0,0,7-10.53,41.73,41.73,0,0,0,.87-5.1,3.71,3.71,0,0,1,.15,1.4,15.87,15.87,0,0,1-.45,3.82,20.26,20.26,0,0,1-7,10.95,25.08,25.08,0,0,1-12.89,5.27,23.55,23.55,0,0,1-4.35.09A5.94,5.94,0,0,1,275.15,304.52Z" style="fill: rgb(255, 255, 255); transform-origin: 288.287px 294.025px;" id="ele2qs50sq52" class="animable"></path><path d="M277.83,349.69c.25,0,.53-13.77.64-30.74s0-30.75-.24-30.76-.52,13.76-.64,30.74S277.59,349.68,277.83,349.69Z" style="fill: rgb(69, 90, 100); transform-origin: 278.028px 318.94px;" id="elcbszf7wtcnr" class="animable"></path><path d="M190.47,359.82a9.06,9.06,0,0,1,1.13-3.33,21.42,21.42,0,0,1,12.64-10.79,9,9,0,0,1,3.46-.6c0,.13-1.28.39-3.26,1.15a24.18,24.18,0,0,0-12.32,10.52C191.06,358.61,190.6,359.86,190.47,359.82Z" style="fill: rgb(69, 90, 100); transform-origin: 199.085px 352.459px;" id="elfpos5khwg2e" class="animable"></path><path d="M202.72,314.38a2.21,2.21,0,0,1,.4.17l1.11.59a37.82,37.82,0,0,0,4.45,1.88,35.23,35.23,0,0,0,17.47,1.5A34.53,34.53,0,0,0,247.86,305a28.71,28.71,0,0,0,5.68-14.12,19.24,19.24,0,0,0-.83-8,16.1,16.1,0,0,0-4.49-6.86,13.54,13.54,0,0,0-7.32-3.56,8.7,8.7,0,0,0-7.33,2.06,4.71,4.71,0,0,0-1.43,3.32,5.82,5.82,0,0,0,1.2,3.42,9.37,9.37,0,0,0,6.34,3.31,25.6,25.6,0,0,0,13.62-1.95,25.25,25.25,0,0,0,14.35-16,26.93,26.93,0,0,0,1.19-7.5,29,29,0,0,0-.35-4.81c-.09-.5-.17-.91-.23-1.23a1.28,1.28,0,0,1-.05-.43,20.09,20.09,0,0,1,1,6.47,26.55,26.55,0,0,1-1.06,7.63,26,26,0,0,1-4.68,9.06,26.67,26.67,0,0,1-23.85,9.56,10.13,10.13,0,0,1-6.87-3.59,6.59,6.59,0,0,1-1.37-3.9A5.53,5.53,0,0,1,233,274a9.51,9.51,0,0,1,8-2.3,14.42,14.42,0,0,1,7.77,3.76,17,17,0,0,1,4.72,7.22,19.93,19.93,0,0,1,.85,8.33,29.22,29.22,0,0,1-5.88,14.49,34.41,34.41,0,0,1-39.9,11.85A25.38,25.38,0,0,1,202.72,314.38Z" style="fill: rgb(255, 255, 255); transform-origin: 235.966px 286.108px;" id="elwe3evy9dl3" class="animable"></path><path d="M161.9,298.44a5.54,5.54,0,0,1,1-1.27,22.43,22.43,0,0,1,3.36-2.93,28.19,28.19,0,0,1,13.79-4.89,26.76,26.76,0,0,1,8.12.34,24.77,24.77,0,0,1,6.26,2.2,28.08,28.08,0,0,1,3.81,2.32,6,6,0,0,1,1.25,1.05c-.09.14-2-1.27-5.31-2.83a26.12,26.12,0,0,0-14-2.25,29.73,29.73,0,0,0-13.54,4.54C163.54,296.78,162,298.56,161.9,298.44Z" style="fill: rgb(255, 255, 255); transform-origin: 180.695px 293.816px;" id="el4m8oxjz67yk" class="animable"></path><path d="M171.87,255.72a25.46,25.46,0,0,0,5,3.67,18.21,18.21,0,0,0,6.42,1.88,16.09,16.09,0,0,0,14.52-6,18.25,18.25,0,0,0,3.21-5.86,25.57,25.57,0,0,0,1-6.16,5.08,5.08,0,0,1,.21,1.69,15.09,15.09,0,0,1-.62,4.64,17.79,17.79,0,0,1-3.18,6.18A16.4,16.4,0,0,1,183.25,262a17.68,17.68,0,0,1-6.61-2.12,15.45,15.45,0,0,1-3.72-2.84A5.21,5.21,0,0,1,171.87,255.72Z" style="fill: rgb(255, 255, 255); transform-origin: 187.053px 252.699px;" id="el6ve50hhmbgu" class="animable"></path><path d="M224.91,342.32a6.42,6.42,0,0,1,.13-1.18,12.73,12.73,0,0,1,1.1-3.23c1.26-2.68,4.39-6.05,9.33-8.1s11.57-2.61,18.32-.65c3.3,1,7.08,2.19,9.55,5.4a5.79,5.79,0,0,1,.7,5.86,9.22,9.22,0,0,1-4.44,4.19,14.12,14.12,0,0,1-5.9,1.47,8.61,8.61,0,0,1-5.66-1.76,7.23,7.23,0,0,1-2.54-5.14,12.76,12.76,0,0,1,.85-5.39,24.24,24.24,0,0,1,12.84-13,25.27,25.27,0,0,1,12.26-2.1,17.25,17.25,0,0,1,4.48.94c0,.11-1.59-.42-4.5-.62a25.69,25.69,0,0,0-12,2.32,25.09,25.09,0,0,0-7,4.75,22.46,22.46,0,0,0-5.37,8,12.24,12.24,0,0,0-.78,5.07,6.45,6.45,0,0,0,2.26,4.57,7.84,7.84,0,0,0,5.14,1.56,13.41,13.41,0,0,0,5.54-1.38,8.57,8.57,0,0,0,4.06-3.79,5,5,0,0,0-.61-5,11.7,11.7,0,0,0-4.17-3.31,29.32,29.32,0,0,0-4.93-1.83c-6.61-2-13.1-1.6-17.88.46a17.75,17.75,0,0,0-9.27,7.7A18.38,18.38,0,0,0,224.91,342.32Z" style="fill: rgb(255, 255, 255); transform-origin: 250.42px 332.351px;" id="elwgumc244uvf" class="animable"></path><path d="M164.49,330a2.81,2.81,0,0,1,.75-.3c.5-.17,1.25-.4,2.22-.64a27,27,0,0,1,8.49-.87,17.87,17.87,0,0,1,5.77,1.43,13.3,13.3,0,0,1,5.39,4.23,11,11,0,0,1,2.09,7.26A8.84,8.84,0,0,1,188,345a6.17,6.17,0,0,1-3.26,2.73,4.3,4.3,0,0,1-4.21-.83A5.59,5.59,0,0,1,179,343a16.68,16.68,0,0,1,1.46-7.41,16.2,16.2,0,0,1,9.09-8.62,16.45,16.45,0,0,1,8.48-.84,13.25,13.25,0,0,1,2.25.57,2.92,2.92,0,0,1,.75.33c0,.08-1.07-.34-3-.58a16.82,16.82,0,0,0-8.21,1.07,15.73,15.73,0,0,0-8.6,8.38,16,16,0,0,0-1.36,7.06,4.86,4.86,0,0,0,1.21,3.33,3.5,3.5,0,0,0,3.39.64,5.45,5.45,0,0,0,2.81-2.38,8.15,8.15,0,0,0,1.13-3.53,10.32,10.32,0,0,0-1.91-6.75,12.71,12.71,0,0,0-5-4,17.64,17.64,0,0,0-5.54-1.47,28.89,28.89,0,0,0-8.36.59C165.58,329.79,164.51,330.08,164.49,330Z" style="fill: rgb(255, 255, 255); transform-origin: 182.76px 336.935px;" id="el17jimcgz0by" class="animable"></path><path d="M319,334.8a2.25,2.25,0,0,1-.42-.36,15.51,15.51,0,0,1-1.1-1.13,23.77,23.77,0,0,1-3.27-4.79,32.73,32.73,0,0,1-2.91-8.09A57.69,57.69,0,0,1,310.05,310c-.15-3.73,0-7.3-.12-10.5A72.65,72.65,0,0,0,309,291c-.38-2.41-.77-4.34-1-5.68-.13-.62-.23-1.13-.31-1.54a2,2,0,0,1-.08-.54,1.81,1.81,0,0,1,.18.52c.1.34.24.85.4,1.52.34,1.32.78,3.25,1.21,5.65a65.4,65.4,0,0,1,1,8.54c.12,3.24,0,6.78.16,10.5a58.63,58.63,0,0,0,1.18,10.37,34,34,0,0,0,2.77,8,26.3,26.3,0,0,0,3.09,4.83C318.47,334.23,319,334.76,319,334.8Z" style="fill: rgb(69, 90, 100); transform-origin: 313.305px 309.02px;" id="el1g2k3b9jcyd" class="animable"></path><path d="M314,328.72a37.83,37.83,0,0,0-11.43,9.09,7,7,0,0,1,1.21-1.81,24.23,24.23,0,0,1,3.74-3.7,23.9,23.9,0,0,1,4.45-2.81A7.05,7.05,0,0,1,314,328.72Z" style="fill: rgb(255, 255, 255); transform-origin: 308.285px 333.265px;" id="elkxew7bo1gu" class="animable"></path><path d="M343.36,298.45A9,9,0,0,1,342,299c-.88.3-2.17.73-3.73,1.33a59.36,59.36,0,0,0-11.6,5.88c-4.26,2.79-7.55,6.06-10.14,8.22a10,10,0,0,1-3.42,2.05,3.78,3.78,0,0,1-1.08.18c-.25,0-.38,0-.38,0a14.32,14.32,0,0,0,1.4-.34,10.84,10.84,0,0,0,3.25-2.15c2.49-2.19,5.77-5.54,10.09-8.36A52.27,52.27,0,0,1,338.14,300c1.58-.56,2.89-.94,3.79-1.18A7.2,7.2,0,0,1,343.36,298.45Z" style="fill: rgb(255, 255, 255); transform-origin: 327.505px 307.555px;" id="elc8zvkos33bg" class="animable"></path><path d="M333.23,267.75a4,4,0,0,1-1.07.2l-2.93.44c-2.47.38-5.87,1-9.6,1.78s-7.07,1.67-9.44,2.45-3.76,1.45-3.8,1.38a3.85,3.85,0,0,1,.94-.57,27.87,27.87,0,0,1,2.74-1.16,73,73,0,0,1,9.45-2.61c3.74-.8,7.17-1.35,9.66-1.64,1.25-.14,2.26-.23,3-.27A4.37,4.37,0,0,1,333.23,267.75Z" style="fill: rgb(255, 255, 255); transform-origin: 319.81px 270.862px;" id="ellippoxtxl58" class="animable"></path><path d="M264.71,142.44c-6.32-1.71-12.65,4.12-19.12,3.08-3.93-.64-7-3.65-10.51-5.47-5.29-2.73-12.64-3-17.85-.08s-8.53,5.86-9,11.79c-4.92-2.61-12.76,3.74-15.3,9.69s-1.65,12,.11,18.21a85.44,85.44,0,0,0,15.14,29.57c.61.77,1.58,1.62,2.45,1.17a2.13,2.13,0,0,0,.87-1.76c.73-5.78-.2-11.61-.89-17.39s-1.14-11.74.5-17.32,5.8-10.77,11.46-12.09c4.19-1,8.61.25,12.43,2.23s7.2,4.67,10.85,7,7.72,4.15,12,4.19,8.83-2.13,10.53-6.08-.54-9.41-4.77-10.15a8.45,8.45,0,0,0,1.13-16.54Z" style="fill: rgb(38, 50, 56); transform-origin: 231.17px 174.207px;" id="elbqao7em4e98" class="animable"></path><path d="M202.08,181.12l8.42,64.71a19.4,19.4,0,0,0,22.69,16.59h0A19.43,19.43,0,0,0,249,240.79c-.64-4.87-1.17-8.93-1.2-9.44,0,0,16.27-3.69,15.34-20.15-.45-7.95-2.71-24.26-4.93-39a30.71,30.71,0,0,0-32.48-26l-1.59.11C207.09,148.46,199.43,164.15,202.08,181.12Z" style="fill: rgb(255, 190, 157); transform-origin: 232.373px 204.428px;" id="el1kc23i93mbx" class="animable"></path><path d="M247.8,231.11A38.34,38.34,0,0,1,226,226.5s5.88,11.48,22.19,8.87Z" style="fill: rgb(235, 153, 110); transform-origin: 237.095px 231.128px;" id="el7qcpyop1a9c" class="animable"></path><path d="M252.06,184a2.34,2.34,0,0,1-2.1,2.52,2.25,2.25,0,0,1-2.56-2,2.35,2.35,0,0,1,2.1-2.52A2.24,2.24,0,0,1,252.06,184Z" style="fill: rgb(38, 50, 56); transform-origin: 249.73px 184.259px;" id="el91v6mj9hx8" class="animable"></path><path d="M255.23,180.53c-.27.32-2.14-.87-4.67-.69s-4.29,1.57-4.59,1.28c-.14-.12.12-.7.88-1.34a6.53,6.53,0,0,1,3.65-1.41,6.21,6.21,0,0,1,3.74.93C255.06,179.85,255.36,180.38,255.23,180.53Z" style="fill: rgb(38, 50, 56); transform-origin: 250.596px 179.757px;" id="el86jym9ivdfb" class="animable"></path><path d="M227.75,185.67a2.36,2.36,0,0,1-2.1,2.53,2.26,2.26,0,0,1-2.57-1.95,2.36,2.36,0,0,1,2.1-2.53A2.26,2.26,0,0,1,227.75,185.67Z" style="fill: rgb(38, 50, 56); transform-origin: 225.415px 185.96px;" id="el0a1ikpnrsc3f" class="animable"></path><path d="M230.42,182.71c-.27.33-2.14-.86-4.67-.68s-4.29,1.57-4.58,1.28c-.15-.13.11-.7.88-1.34a6.43,6.43,0,0,1,3.64-1.41,6.19,6.19,0,0,1,3.74.93C230.25,182,230.55,182.57,230.42,182.71Z" style="fill: rgb(38, 50, 56); transform-origin: 225.789px 181.947px;" id="elqazf4tk8uor" class="animable"></path><path d="M240.88,200.82c0-.14,1.53-.52,4.06-1,.64-.11,1.24-.28,1.32-.73a3.34,3.34,0,0,0-.56-1.89c-.72-1.51-1.47-3.11-2.25-4.78-3.14-6.81-5.45-12.43-5.18-12.55s3,5.29,6.18,12.11c.75,1.68,1.48,3.28,2.17,4.81a3.79,3.79,0,0,1,.51,2.51,1.63,1.63,0,0,1-1,1,4.64,4.64,0,0,1-1.09.23C242.49,200.84,240.9,201,240.88,200.82Z" style="fill: rgb(38, 50, 56); transform-origin: 242.709px 190.382px;" id="ely3cb3hwyicl" class="animable"></path><path d="M233.57,203.08c.41-.05.6,2.69,3.08,4.48s5.38,1.28,5.43,1.66c0,.17-.61.58-1.84.7a6.82,6.82,0,0,1-4.52-1.24,6,6,0,0,1-2.42-3.76C233.12,203.78,233.38,203.08,233.57,203.08Z" style="fill: rgb(38, 50, 56); transform-origin: 237.66px 206.511px;" id="elcqlwkr8nfeq" class="animable"></path><path d="M230.39,172.77c-.2.7-2.75.55-5.69,1.11s-5.28,1.54-5.72,1c-.19-.28.18-1,1.1-1.69a10,10,0,0,1,8.69-1.57C229.89,171.93,230.47,172.43,230.39,172.77Z" style="fill: rgb(38, 50, 56); transform-origin: 224.664px 173.136px;" id="elrvsgr7iydfo" class="animable"></path><path d="M253.79,173.28c-.4.6-2.18.13-4.28.24s-3.84.66-4.29.08c-.2-.27,0-.87.78-1.47a6.2,6.2,0,0,1,6.9-.26C253.69,172.41,254,173,253.79,173.28Z" style="fill: rgb(38, 50, 56); transform-origin: 249.501px 172.404px;" id="elax3g5v6bo3n" class="animable"></path><path d="M204.26,193.21c-.29-.11-11.53-2.57-10.39,8.65S206,209.62,206,209.3,204.26,193.21,204.26,193.21Z" style="fill: rgb(255, 190, 157); transform-origin: 199.894px 201.479px;" id="elqo8k1rnvis" class="animable"></path><path d="M202.16,205.4s-.18.15-.5.34a2,2,0,0,1-1.46.18c-1.22-.32-2.41-2.1-2.67-4.11a6.55,6.55,0,0,1,.26-2.86,2.28,2.28,0,0,1,1.32-1.65,1,1,0,0,1,1.21.42c.18.3.13.53.19.55s.22-.22.09-.67a1.25,1.25,0,0,0-.52-.66,1.45,1.45,0,0,0-1.1-.17,2.75,2.75,0,0,0-1.87,1.94,6.6,6.6,0,0,0-.36,3.2c.3,2.25,1.67,4.25,3.34,4.55a2.1,2.1,0,0,0,1.76-.48C202.17,205.67,202.2,205.41,202.16,205.4Z" style="fill: rgb(235, 153, 110); transform-origin: 199.432px 201.612px;" id="el63jgohhhegq" class="animable"></path><path d="M261.45,168.56a23.79,23.79,0,0,1-21.43-3.3c-4.23-3.11-7.66-7.77-12.77-9a13.37,13.37,0,0,0-10.12,2.1,25.83,25.83,0,0,0-7.25,7.65c3.75,8.14,2.26,17.61.7,26.44a4.52,4.52,0,0,1-1.13,2.68c-1.26,1.12-3.31.46-4.55-.68-2-1.81-2.9-4.51-3.56-7.12a46.42,46.42,0,0,1-1.15-18.24,31.63,31.63,0,0,1,7.56-16.49,29.91,29.91,0,0,1,20.37-9.35,36.68,36.68,0,0,1,21.77,6.13,21.51,21.51,0,0,1,7.45,7.48" style="fill: rgb(38, 50, 56); transform-origin: 230.608px 169.465px;" id="eluextd5k67cr" class="animable"></path><path d="M269.71,146.07a2.45,2.45,0,0,1,0,1,4.55,4.55,0,0,1-1.42,2.43,7.17,7.17,0,0,1-4.1,1.69,11.86,11.86,0,0,1-2.8,0,6,6,0,0,1-3-1.13,4,4,0,0,1-1.62-3.08,3.5,3.5,0,0,1,2.19-3,4.37,4.37,0,0,1,2-.4,3.63,3.63,0,0,1,2,.74,5.09,5.09,0,0,1,2,3.81,6,6,0,0,1-1.49,4.25,9.09,9.09,0,0,1-3.91,2.59,14.85,14.85,0,0,1-9.68-.38,42.49,42.49,0,0,1-8.66-4.43,53.74,53.74,0,0,0-7.87-4.3,16.77,16.77,0,0,0-7.86-1.34,15.86,15.86,0,0,0-6.6,2.19,19.86,19.86,0,0,0-7,7.29,25.89,25.89,0,0,0-1.27,2.49,7.54,7.54,0,0,1-.41.88.78.78,0,0,1,.06-.24c.06-.15.13-.39.25-.68a19.89,19.89,0,0,1,1.18-2.55,19.52,19.52,0,0,1,7-7.53A16.23,16.23,0,0,1,225.4,144a17,17,0,0,1,8.09,1.33,52.58,52.58,0,0,1,8,4.3A42.47,42.47,0,0,0,250,154a14.32,14.32,0,0,0,9.32.39A8.45,8.45,0,0,0,263,152a5.35,5.35,0,0,0,1.38-3.87,4.61,4.61,0,0,0-1.72-3.45,3.38,3.38,0,0,0-3.51-.31,3.06,3.06,0,0,0-2,2.62,3.55,3.55,0,0,0,1.44,2.76,5.58,5.58,0,0,0,2.76,1.09,11.82,11.82,0,0,0,2.72,0,7,7,0,0,0,4-1.54,4.71,4.71,0,0,0,1.45-2.29A8.18,8.18,0,0,0,269.71,146.07Z" style="fill: rgb(69, 90, 100); transform-origin: 239.986px 150.473px;" id="elx2fgi4cjroq" class="animable"></path><path d="M191.54,171.27a19.27,19.27,0,0,0,3.5.66,9.76,9.76,0,0,0,3.74-.66,15.91,15.91,0,0,0,4.07-2.32,13.17,13.17,0,0,0,4.55-7,26.44,26.44,0,0,0,.5-3.53,2.6,2.6,0,0,1,.13,1,11.44,11.44,0,0,1-.25,2.65,12.87,12.87,0,0,1-4.58,7.39,15.72,15.72,0,0,1-4.25,2.37,9.56,9.56,0,0,1-3.93.56,9,9,0,0,1-2.61-.6A3,3,0,0,1,191.54,171.27Z" style="fill: rgb(69, 90, 100); transform-origin: 199.788px 165.416px;" id="elj3wlgzpca88" class="animable"></path><path d="M192.59,179.37c0-.1,1.34.1,3.46-.16a15.5,15.5,0,0,0,12.52-9.58c.81-2,1-3.31,1.06-3.29a2.6,2.6,0,0,1,0,.94,14,14,0,0,1-.64,2.49,14.92,14.92,0,0,1-12.85,9.83,13.88,13.88,0,0,1-2.57,0A2.73,2.73,0,0,1,192.59,179.37Z" style="fill: rgb(69, 90, 100); transform-origin: 201.131px 173px;" id="el7ijychnmvie" class="animable"></path><path d="M222.77,194a.31.31,0,1,1,.18-.37A.29.29,0,0,1,222.77,194Z" style="fill: rgb(235, 153, 110); transform-origin: 222.654px 193.714px;" id="el6eok4a4xl93" class="animable"></path><path d="M227.52,192.61a.36.36,0,1,1,.17-.41A.31.31,0,0,1,227.52,192.61Z" style="fill: rgb(235, 153, 110); transform-origin: 227.349px 192.296px;" id="elxx1f0dpbish" class="animable"></path><path d="M230.76,192.3c-.15,0-.31-.14-.36-.39s0-.47.19-.5.31.14.36.39S230.91,192.27,230.76,192.3Z" style="fill: rgb(235, 153, 110); transform-origin: 230.673px 191.853px;" id="el8z5xr95p4si" class="animable"></path><path d="M225.35,196.9c-.16,0-.29-.06-.29-.16s.11-.18.26-.19.29.06.29.16S225.5,196.89,225.35,196.9Z" style="fill: rgb(235, 153, 110); transform-origin: 225.335px 196.725px;" id="eljq1pqyjem9k" class="animable"></path><path d="M229.7,195.57a.32.32,0,1,1,.23-.36A.29.29,0,0,1,229.7,195.57Z" style="fill: rgb(235, 153, 110); transform-origin: 229.617px 195.262px;" id="el1xxdk9swx9b" class="animable"></path><path d="M252.56,191.23a.32.32,0,1,1,.18-.38A.29.29,0,0,1,252.56,191.23Z" style="fill: rgb(235, 153, 110); transform-origin: 252.436px 190.937px;" id="elcg5ffzw5fd" class="animable"></path><path d="M255.83,190.7c-.15,0-.3-.11-.34-.3a.32.32,0,0,1,.22-.39c.15,0,.3.11.33.3A.31.31,0,0,1,255.83,190.7Z" style="fill: rgb(235, 153, 110); transform-origin: 255.767px 190.355px;" id="el25pzh86rvd6" class="animable"></path><path d="M249.66,191.51a.25.25,0,1,1-.13-.47.25.25,0,1,1,.13.47Z" style="fill: rgb(235, 153, 110); transform-origin: 249.595px 191.275px;" id="elu8z3332qms" class="animable"></path><path d="M252.32,194.63a.29.29,0,0,1-.39-.15.28.28,0,1,1,.49-.26A.3.3,0,0,1,252.32,194.63Z" style="fill: rgb(235, 153, 110); transform-origin: 252.17px 194.347px;" id="el2p5nz5qnze" class="animable"></path><path d="M255.1,193.88a.26.26,0,0,1-.23-.29.28.28,0,1,1,.23.29Z" style="fill: rgb(235, 153, 110); transform-origin: 255.149px 193.604px;" id="el01xsdxka100f" class="animable"></path><path d="M197.87,208.76a7,7,0,0,0-.13,2.58,3.72,3.72,0,0,0,1.39,2.27,3.37,3.37,0,0,0,3.08.58,3.12,3.12,0,0,0,2-2.33,4,4,0,0,0-.65-2.59,5.6,5.6,0,0,0-1.78-1.86c0-.08,1.16.19,2.12,1.65a4.26,4.26,0,0,1,.82,2.88,3.57,3.57,0,0,1-2.37,2.78,3.83,3.83,0,0,1-3.58-.71,4,4,0,0,1-1.46-2.61,4.19,4.19,0,0,1,.18-2C197.68,209,197.84,208.75,197.87,208.76Z" style="fill: rgb(38, 50, 56); transform-origin: 200.998px 211.145px;" id="eltg34b6eiygd" class="animable"></path><path d="M197.77,206.86c0-.06.42.11.68.72a1.69,1.69,0,0,1,0,1.14,1.63,1.63,0,0,1-1,1,1.53,1.53,0,0,1-1.42-.25,1.27,1.27,0,0,1-.5-1.06c.05-.7.51-.91.53-.85s-.2.34-.13.84a.91.91,0,0,0,.4.66,1.08,1.08,0,0,0,.93.13,1.2,1.2,0,0,0,.7-.68,1.38,1.38,0,0,0,.08-.84C198,207.19,197.71,206.92,197.77,206.86Z" style="fill: rgb(38, 50, 56); transform-origin: 197.039px 208.322px;" id="elzpefqq08an" class="animable"></path><path d="M284.24,352.81,282.33,374l10,0,8.84-.14a62.1,62.1,0,0,0,10.14.27,1,1,0,0,0,.47-.11,8.07,8.07,0,0,0,1.54-.37h0v0c.9-.33,1.83-.91,1.69-1.9-.44-3-2.24-3.28-2.24-3.28l-.91-.06-.07-.26c1.37,0,2.52,0,3.13-.1.29,0,.45-.07.47-.11s3.54-.42,3.27-2.29c-.43-3-2.24-3.28-2.24-3.28l-2.91-.19c1.41,0,2.61,0,3.24-.1.28,0,.45-.06.47-.1s3.54-.43,3.27-2.3c-.44-3-2.24-3.27-2.24-3.27l-2.41-.17c1.14,0,2.09,0,2.62-.09.29,0,.45-.07.47-.11s3.54-.42,3.27-2.29c-.43-3-2.24-3.28-2.24-3.28s-5.57-.4-9.39-.55c0,0-4.34-3.92-6-3.74-2.55.27-17.4,5.76-17.4,5.76Z" style="fill: rgb(255, 190, 157); transform-origin: 302.272px 360.199px;" id="elol301x4ljic" class="animable"></path><path d="M303,367.75c0,.18,2.23.39,4.95.48s4.92,0,4.9-.16-2.23-.39-4.95-.48S303,367.58,303,367.75Z" style="fill: rgb(235, 153, 110); transform-origin: 307.925px 367.909px;" id="elw1i41o878pc" class="animable"></path><path d="M302.94,361.76c0,.17,3.15.43,7,.57s7,.1,7.06-.07-3.15-.44-7-.57S303,361.58,302.94,361.76Z" style="fill: rgb(235, 153, 110); transform-origin: 309.97px 362.011px;" id="eldatkbl7350k" class="animable"></path><g id="elzhvcr1hmsa"><g style="opacity: 0.78; transform-origin: 310.48px 355.909px;" class="animable"><path d="M303.45,355.66c0,.18,3.14.44,7,.57s7.06.11,7.06-.07-3.14-.43-7-.57S303.45,355.49,303.45,355.66Z" style="fill: rgb(235, 153, 110); transform-origin: 310.48px 355.909px;" id="el6kcakre93fq" class="animable"></path></g></g><path d="M312.18,349.94a10.61,10.61,0,0,1-2.24.17l-5.41.18-5.41.19a9.44,9.44,0,0,1-2.25,0,9.71,9.71,0,0,1,2.23-.34c1.38-.14,3.3-.28,5.41-.35s4-.07,5.43,0A9,9,0,0,1,312.18,349.94Z" style="fill: rgb(235, 153, 110); transform-origin: 304.525px 350.142px;" id="elosfgke4mcm8" class="animable"></path><path d="M284.51,349.69h-.35l-1-.05-3.9-.23-14.33-.88c-12.11-.74-28.84-1.79-47.32-2.73l-9.9-.45h-.24v-.24c-.15-4-.52-7.94-.81-11.7s-.63-7.37-.93-10.79c-.6-6.84-1.14-12.94-1.6-18.05s-.8-9.16-1-12c-.12-1.38-.2-2.46-.27-3.23,0-.35,0-.63-.05-.84a1.59,1.59,0,0,1,0-.29,1,1,0,0,1,.05.28c0,.22.06.49.11.84.08.77.2,1.85.35,3.23.29,2.84.7,6.92,1.21,12s1.07,11.2,1.72,18c.3,3.42.62,7,1,10.79s.68,7.66.84,11.74l-.25-.26,9.91.44c18.48.94,35.21,2.05,47.31,2.88l14.33,1,3.89.32,1,.1Z" style="fill: rgb(69, 90, 100); transform-origin: 243.657px 318.95px;" id="elgu06spdkwj5" class="animable"></path><path d="M214.64,374a4.56,4.56,0,0,1-.5-1.08,9.71,9.71,0,0,1-.46-1.31,14.84,14.84,0,0,1-.47-1.79,18.32,18.32,0,0,1-.37-2.22,25.38,25.38,0,0,1-.17-2.57,25.46,25.46,0,0,1,2.58-11.45,24.71,24.71,0,0,1,1.26-2.25,20.93,20.93,0,0,1,1.29-1.84A15.34,15.34,0,0,1,219,348a8.36,8.36,0,0,1,1-1,6.39,6.39,0,0,1,.91-.77c.08.08-1.2,1.2-2.79,3.39a21.24,21.24,0,0,0-1.21,1.85c-.43.67-.79,1.44-1.2,2.23A26.62,26.62,0,0,0,213.15,365a25.26,25.26,0,0,0,.12,2.53,19,19,0,0,0,.3,2.19C214.07,372.36,214.74,373.92,214.64,374Z" style="fill: rgb(255, 255, 255); transform-origin: 216.791px 360.115px;" id="el46mzyotpdre" class="animable"></path><path d="M346.38,374.08c0,.14-41.64.26-93,.26s-93-.12-93-.26,41.63-.26,93-.26S346.38,373.93,346.38,374.08Z" style="fill: rgb(38, 50, 56); transform-origin: 253.38px 374.08px;" id="elg870jxqrfhg" class="animable"></path></g><g id="freepik--Device--inject-31" class="animable" style="transform-origin: 252.825px 256.975px;"><path d="M324.26,47,181.5,46.87A31.1,31.1,0,0,0,150.38,78l-.07,357.92A31.11,31.11,0,0,0,181.39,467l142.77.08A31.09,31.09,0,0,0,355.27,436l.07-357.92A31.09,31.09,0,0,0,324.26,47Zm21.55,383.79A21.77,21.77,0,0,1,324,452.53l-142.48-.08a21.78,21.78,0,0,1-21.77-21.79l.07-349.35a21.77,21.77,0,0,1,21.79-21.78h34a6.88,6.88,0,0,1,6.72,7v5a6.88,6.88,0,0,0,6.72,7l54,0a6.87,6.87,0,0,0,6.73-7v-5a6.87,6.87,0,0,1,6.72-7h27.68A21.78,21.78,0,0,1,345.88,81.4Z" style="fill: rgb(38, 50, 56); transform-origin: 252.825px 256.975px;" id="el4qpnspn2ig3" class="animable"></path><rect x="220.29" y="374.08" width="74.08" height="32.98" style="fill: rgb(38, 50, 56); transform-origin: 257.33px 390.57px;" id="el40jaj7bg4zr" class="animable"></rect><path d="M345.82,374.08H282.1c0,14.05-12,25.48-26.64,25.48s-26.63-11.43-26.63-25.48h-69v57.15A21.78,21.78,0,0,0,181.57,453l142.48.08a21.77,21.77,0,0,0,21.79-21.78Z" style="fill: rgb(207, 216, 220); transform-origin: 252.835px 413.58px;" id="el1jm4jc009cd" class="animable"></path><path d="M232.55,409.08h4.36c3.14,0,5.3,1.9,5.3,4.8s-2.16,4.8-5.3,4.8h-4.36Zm4.25,7.78a3,3,0,1,0,0-5.95h-2v5.95Z" style="fill: rgb(255, 255, 255); transform-origin: 237.38px 413.88px;" id="el44yyd3fv4jq" class="animable"></path><path d="M250.25,414.47v4.21h-2v-.91a2.43,2.43,0,0,1-2.25,1c-1.73,0-2.76-1-2.76-2.23s.92-2.21,3.17-2.21h1.7c0-.92-.55-1.45-1.7-1.45a3.55,3.55,0,0,0-2.12.68l-.77-1.49a5.64,5.64,0,0,1,3.18-.9C249,411.19,250.25,412.24,250.25,414.47Zm-2.14,1.88v-.75h-1.46c-1,0-1.32.37-1.32.86s.45.89,1.2.89A1.57,1.57,0,0,0,248.11,416.35Z" style="fill: rgb(255, 255, 255); transform-origin: 246.745px 414.977px;" id="elyb1kodamvp" class="animable"></path><path d="M259.73,414.46v4.22h-2.14v-3.89c0-1.19-.55-1.74-1.5-1.74s-1.77.63-1.77,2v3.64h-2.14v-7.37h2v.86a3.23,3.23,0,0,1,2.44-1C258.41,411.19,259.73,412.21,259.73,414.46Z" style="fill: rgb(255, 255, 255); transform-origin: 255.955px 414.934px;" id="elpxp4vpy1xep" class="animable"></path><path d="M261.4,409.08a1.22,1.22,0,0,1,1.33-1.19,1.2,1.2,0,0,1,1.33,1.15,1.24,1.24,0,0,1-1.33,1.24A1.23,1.23,0,0,1,261.4,409.08Zm.26,2.23h2.14v7.37h-2.14Z" style="fill: rgb(255, 255, 255); transform-origin: 262.73px 413.281px;" id="elg3xo5hmq6i8" class="animable"></path><path d="M273,415.6h-5.58a2,2,0,0,0,2.11,1.48,2.49,2.49,0,0,0,1.85-.71l1.14,1.23a3.85,3.85,0,0,1-3,1.19c-2.55,0-4.21-1.6-4.21-3.8a3.76,3.76,0,0,1,3.93-3.8A3.66,3.66,0,0,1,273,415C273,415.19,273,415.42,273,415.6Zm-5.61-1.25H271a1.85,1.85,0,0,0-3.64,0Z" style="fill: rgb(255, 255, 255); transform-origin: 269.156px 414.991px;" id="elu5s24xi065d" class="animable"></path><path d="M274.44,408.51h2.14v10.17h-2.14Z" style="fill: rgb(255, 255, 255); transform-origin: 275.51px 413.595px;" id="elucv5ynsumx" class="animable"></path><path d="M246.29,425.58v5.63h-.41V426h-1.37v-.37Z" style="fill: rgb(255, 255, 255); transform-origin: 245.4px 428.395px;" id="elbm33e5gvdj8" class="animable"></path><path d="M247.72,428.4c0-1.76.91-2.86,2.2-2.86s2.21,1.1,2.21,2.86-.91,2.85-2.21,2.85S247.72,430.16,247.72,428.4Zm4,0c0-1.57-.73-2.48-1.8-2.48s-1.79.91-1.79,2.48.73,2.47,1.79,2.47S251.72,430,251.72,428.4Z" style="fill: rgb(255, 255, 255); transform-origin: 249.925px 428.395px;" id="elcq94m7r6nak" class="animable"></path><path d="M253,427.32a.34.34,0,1,1,.67,0,.34.34,0,1,1-.67,0Zm0,3.58a.34.34,0,1,1,.67,0,.34.34,0,1,1-.67,0Z" style="fill: rgb(255, 255, 255); transform-origin: 253.335px 429.11px;" id="el5gf25abk3pj" class="animable"></path><path d="M254.62,428.4c0-1.76.91-2.86,2.21-2.86s2.2,1.1,2.2,2.86-.91,2.85-2.2,2.85S254.62,430.16,254.62,428.4Zm4,0c0-1.57-.73-2.48-1.79-2.48s-1.8.91-1.8,2.48.74,2.47,1.8,2.47S258.62,430,258.62,428.4Z" style="fill: rgb(255, 255, 255); transform-origin: 256.825px 428.395px;" id="ellvtahqi0dzl" class="animable"></path><path d="M264.62,429.65h-1.19v1.56H263v-1.56h-3.21v-.3l3.06-3.77h.46l-3,3.71H263v-1.38h.39v1.38h1.19Z" style="fill: rgb(255, 255, 255); transform-origin: 262.205px 428.395px;" id="elmo4g8f6jmk" class="animable"></path><rect x="178.81" y="400.77" width="21.64" height="21.64" rx="4.45" style="fill: rgb(250, 250, 250); transform-origin: 189.63px 411.59px;" id="el6489q9ds8if" class="animable"></rect><path d="M324.63,420.93h-12a4.71,4.71,0,0,1-4.7-4.7v-12a4.7,4.7,0,0,1,4.7-4.69h12a4.7,4.7,0,0,1,4.7,4.69v12A4.71,4.71,0,0,1,324.63,420.93Zm-12-20.9a4.2,4.2,0,0,0-4.2,4.19v12a4.21,4.21,0,0,0,4.2,4.2h12a4.2,4.2,0,0,0,4.2-4.2v-12a4.2,4.2,0,0,0-4.2-4.19Z" style="fill: rgb(255, 255, 255); transform-origin: 318.63px 410.235px;" id="el5uy6h7s53r9" class="animable"></path><path d="M193.57,408.07h-7.89a1,1,0,0,0-1,1v5.22a1,1,0,0,0,1,1h.67v2.3l2.66-2.3h4.56a1,1,0,0,0,1-1V409.1A1,1,0,0,0,193.57,408.07Zm-6.45,4.6a.78.78,0,1,1,.77-.77A.77.77,0,0,1,187.12,412.67Zm2.4,0a.78.78,0,1,1,.78-.77A.78.78,0,0,1,189.52,412.67Zm2.57,0a.78.78,0,1,1,.78-.77A.78.78,0,0,1,192.09,412.67Z" style="fill: rgb(207, 216, 220); transform-origin: 189.625px 412.83px;" id="el8x6p4uldnh" class="animable"></path><path d="M315.88,413a.25.25,0,0,1-.24-.23c-.6-5,3.12-6.57,3.16-6.58a.25.25,0,0,1,.32.13.24.24,0,0,1-.13.33c-.14.06-3.41,1.47-2.86,6.07a.24.24,0,0,1-.22.27Z" style="fill: rgb(255, 255, 255); transform-origin: 317.36px 409.586px;" id="elso9qvehg3ch" class="animable"></path><path d="M315.88,413a.28.28,0,0,1-.19-.09l-1.57-1.85a.25.25,0,0,1,0-.36.26.26,0,0,1,.35,0l1.37,1.62,1.21-1.61a.24.24,0,0,1,.35,0,.25.25,0,0,1,.05.35l-1.4,1.85a.26.26,0,0,1-.19.1Z" style="fill: rgb(255, 255, 255); transform-origin: 315.772px 411.821px;" id="elrzzxuynmx6m" class="animable"></path><path d="M318.36,414.3a.25.25,0,0,1-.23-.16.25.25,0,0,1,.13-.32c.14-.06,3.41-1.48,2.86-6.07a.25.25,0,0,1,.22-.28.27.27,0,0,1,.28.22c.59,5-3.13,6.57-3.17,6.59Z" style="fill: rgb(255, 255, 255); transform-origin: 319.898px 410.885px;" id="el79ep5o0wgoo" class="animable"></path><path d="M320,409.82a.23.23,0,0,1-.15-.05.25.25,0,0,1-.05-.35l1.4-1.85a.24.24,0,0,1,.19-.1h0a.28.28,0,0,1,.19.09l1.57,1.85a.25.25,0,0,1,0,.35.26.26,0,0,1-.36,0l-1.37-1.62-1.21,1.6A.23.23,0,0,1,320,409.82Z" style="fill: rgb(255, 255, 255); transform-origin: 321.486px 408.651px;" id="eleqz024zcklr" class="animable"></path><circle cx="189.47" cy="98.13" r="14.72" style="fill: rgb(235, 235, 235); transform-origin: 189.47px 98.13px;" id="elkqfcmnah1tb" class="animable"></circle><path d="M188.68,102.43a.27.27,0,0,1-.18-.08l-3.84-4a.26.26,0,0,1,0-.35l3.84-4a.26.26,0,0,1,.36,0,.25.25,0,0,1,0,.36l-3.67,3.86,3.67,3.87a.25.25,0,0,1,0,.36A.29.29,0,0,1,188.68,102.43Z" style="fill: rgb(38, 50, 56); transform-origin: 186.764px 98.1919px;" id="ellipiovhjel" class="animable"></path><path d="M195.35,98.38H184.84a.25.25,0,0,1-.25-.25.26.26,0,0,1,.25-.25h10.51a.25.25,0,0,1,.25.25A.25.25,0,0,1,195.35,98.38Z" style="fill: rgb(38, 50, 56); transform-origin: 190.095px 98.13px;" id="el6swcmcdeo14" class="animable"></path><g id="elj34am9gjpy"><circle cx="321.46" cy="355.51" r="13.24" style="fill: rgb(207, 216, 220); transform-origin: 321.46px 355.51px; transform: rotate(-80.74deg);" class="animable"></circle></g><path d="M321.46,358.48a2.39,2.39,0,0,1-2.39-2.38v-5.21a2.39,2.39,0,0,1,4.78,0v5.21A2.39,2.39,0,0,1,321.46,358.48Zm0-9.47a1.89,1.89,0,0,0-1.89,1.88v5.21a1.89,1.89,0,0,0,3.78,0v-5.21A1.89,1.89,0,0,0,321.46,349Z" style="fill: rgb(255, 255, 255); transform-origin: 321.46px 353.49px;" id="el8wa62m84chr" class="animable"></path><path d="M321.46,360.16a4.29,4.29,0,0,1-3.35-1.33,6.38,6.38,0,0,1-1.27-4.43.25.25,0,0,1,.5.05,6,6,0,0,0,1.14,4.05,3.83,3.83,0,0,0,3,1.16,4,4,0,0,0,3-1.16,6.19,6.19,0,0,0,1.37-4.07.25.25,0,0,1,.24-.25.25.25,0,0,1,.26.24,6.61,6.61,0,0,1-1.51,4.43A4.49,4.49,0,0,1,321.46,360.16Z" style="fill: rgb(255, 255, 255); transform-origin: 321.584px 357.171px;" id="elschbcrmejzp" class="animable"></path><path d="M321.46,363.82a.25.25,0,0,1-.25-.25v-3.66a.25.25,0,0,1,.5,0v3.66A.25.25,0,0,1,321.46,363.82Z" style="fill: rgb(255, 255, 255); transform-origin: 321.46px 361.74px;" id="el7ltz7wosbc6" class="animable"></path><circle cx="255.46" cy="372.94" r="23.28" style="fill: rgb(207, 216, 220); transform-origin: 255.46px 372.94px;" id="el404k1vfqmi1" class="animable"></circle><path d="M253.39,366.5a4,4,0,0,0-6,1.22,2.41,2.41,0,0,0,.56,3c2.14,2.1,6.63,6.31,8.58,8.14a4.84,4.84,0,0,0,4,1.29,4.15,4.15,0,0,0,2.82-1.75c2.21-3-3.07-5.38-3.07-5.38l-2.31,2.42-5.38-5.19,2.36-2.6Z" style="fill: rgb(255, 255, 255); transform-origin: 255.492px 372.914px;" id="elorovbw5ve6d" class="animable"></path></g><defs>     <filter id="active" height="200%">         <feMorphology in="SourceAlpha" result="DILATED" operator="dilate" radius="2"></feMorphology>                <feFlood flood-color="#32DFEC" flood-opacity="1" result="PINK"></feFlood>        <feComposite in="PINK" in2="DILATED" operator="in" result="OUTLINE"></feComposite>        <feMerge>            <feMergeNode in="OUTLINE"></feMergeNode>            <feMergeNode in="SourceGraphic"></feMergeNode>        </feMerge>    </filter>    <filter id="hover" height="200%">        <feMorphology in="SourceAlpha" result="DILATED" operator="dilate" radius="2"></feMorphology>                <feFlood flood-color="#ff0000" flood-opacity="0.5" result="PINK"></feFlood>        <feComposite in="PINK" in2="DILATED" operator="in" result="OUTLINE"></feComposite>        <feMerge>            <feMergeNode in="OUTLINE"></feMergeNode>            <feMergeNode in="SourceGraphic"></feMergeNode>        </feMerge>            <feColorMatrix type="matrix" values="0   0   0   0   0                0   1   0   0   0                0   0   0   0   0                0   0   0   1   0 "></feColorMatrix>    </filter></defs></svg>