<svg class="animated" id="freepik_stories-search-engines" xmlns="http://www.w3.org/2000/svg" viewBox="0 0 500 500" version="1.1" xmlns:xlink="http://www.w3.org/1999/xlink" xmlns:svgjs="http://svgjs.com/svgjs"><style>svg#freepik_stories-search-engines:not(.animated) .animable {opacity: 0;}svg#freepik_stories-search-engines.animated #freepik--Character--inject-70 {animation: 1s 1 forwards ease-in slideLeft;animation-delay: 0s;}            @keyframes slideLeft {                0% {                    opacity: 0;                    transform: translateX(-30px);                }                100% {                    opacity: 1;                    transform: translateX(0);                }            }        </style><g id="freepik--background-simple--inject-70" class="animable" style="transform-origin: 226.489px 202.32px;"><path d="M248.63,114.31c-51.46,17.37-165-52.8-182.25,32.26-14.18,69.81,57.18,139.86,150,163.69,65.89,16.92,155.29-12.14,170.54-94.21,9.54-51.33-29-109.94-59.43-121.62C289.46,79.85,282.19,103,248.63,114.31Z" style="fill: rgb(207, 216, 220); transform-origin: 226.489px 202.32px;" id="el6e6sc69evbv" class="animable"></path><g id="elba36asjbpts"><path d="M248.63,114.31c-51.46,17.37-165-52.8-182.25,32.26-14.18,69.81,57.18,139.86,150,163.69,65.89,16.92,155.29-12.14,170.54-94.21,9.54-51.33-29-109.94-59.43-121.62C289.46,79.85,282.19,103,248.63,114.31Z" style="fill: rgb(255, 255, 255); opacity: 0.9; transform-origin: 226.489px 202.32px;" class="animable"></path></g></g><g id="freepik--Shadow--inject-70" class="animable" style="transform-origin: 250px 416.24px;"><ellipse cx="250" cy="416.24" rx="193.89" ry="11.32" style="fill: rgb(245, 245, 245); transform-origin: 250px 416.24px;" id="eln40ey01ln4" class="animable"></ellipse></g><g id="freepik--Graphics--inject-70" class="animable" style="transform-origin: 243.135px 177.65px;"><path d="M186.55,128.28v0s0,0,0,0a33.71,33.71,0,0,0-.45-5.56,35,35,0,0,0-34.17-29.3h-.3a34.83,34.83,0,0,0-28.26,14.5c-.53.73-1,1.48-1.48,2.23a.86.86,0,0,0-.1.16,34.66,34.66,0,0,0-5,18v.07A34.88,34.88,0,0,0,180,148.63c.52-.73,1-1.47,1.47-2.23a.86.86,0,0,0,.1-.16A34.45,34.45,0,0,0,186.55,128.28Zm-68.27-.79a33,33,0,0,1,4.63-16.2h10.91a55.08,55.08,0,0,0-2.59,16.2Zm17.07-16.2h15.56v16.2H132.73A53.38,53.38,0,0,1,135.35,111.29Zm17.06-1.5V94.87a12.2,12.2,0,0,1,6,2.23c3.71,2.54,6.82,7,9,12.69Zm15.54,1.5a51.81,51.81,0,0,1,2.4,11.55c.15,1.56.22,3.11.24,4.65H152.41v-16.2Zm-19.24-16a10.57,10.57,0,0,1,2.2-.38v14.91h-15C138.71,102.28,143.25,96.8,148.71,95.26Zm2.2,33.73v16.2H135.38A51.25,51.25,0,0,1,133,133.64q-.21-2.34-.24-4.65Zm0,17.7v14.92a12.23,12.23,0,0,1-6-2.23c-3.7-2.54-6.81-7-9-12.69Zm3.7,14.53a10.45,10.45,0,0,1-2.2.38V146.69h15C164.61,154.2,160.07,159.69,154.61,161.22Zm-2.2-16V129h18.18a53.08,53.08,0,0,1-2.62,16.2ZM172.09,129h13a33.12,33.12,0,0,1-4.63,16.2H169.5A55.08,55.08,0,0,0,172.09,129Zm13-1.5h-13c0-1.58-.1-3.18-.25-4.79a52.89,52.89,0,0,0-2.29-11.41h10.89a33.41,33.41,0,0,1,4.19,11.6A35.91,35.91,0,0,1,185.05,127.49Zm-13.87-26.33a33.58,33.58,0,0,1,8.32,8.63H169c-2.24-6.19-5.61-11.09-9.74-13.93l-.32-.21A33.44,33.44,0,0,1,171.18,101.16Zm-26.87-5.49c-4.21,2.77-7.67,7.81-10,14.12H123.85l.73-1.07A33.19,33.19,0,0,1,144.31,95.67Zm-26,33.32h12.95c0,1.58.1,3.18.25,4.79a53.5,53.5,0,0,0,2.29,11.41H122.89a33.21,33.21,0,0,1-4.19-11.6A32.5,32.5,0,0,1,118.28,129Zm5.54,17.7h10.46c2.24,6.19,5.61,11.09,9.74,13.93l.33.21a33.62,33.62,0,0,1-20.53-14.14ZM159,160.81c4.2-2.76,7.66-7.81,10-14.12h10.48c-.24.36-.48.72-.73,1.07A33.15,33.15,0,0,1,159,160.81Z" style="fill: rgb(207, 216, 220); transform-origin: 151.67px 128.291px;" id="elqwai8kzhhzc" class="animable"></path><g id="elhm2v4r71l56"><path d="M186.55,128.28v0s0,0,0,0a33.71,33.71,0,0,0-.45-5.56,35,35,0,0,0-34.17-29.3h-.3a34.83,34.83,0,0,0-28.26,14.5c-.53.73-1,1.48-1.48,2.23a.86.86,0,0,0-.1.16,34.66,34.66,0,0,0-5,18v.07A34.88,34.88,0,0,0,180,148.63c.52-.73,1-1.47,1.47-2.23a.86.86,0,0,0,.1-.16A34.45,34.45,0,0,0,186.55,128.28Zm-68.27-.79a33,33,0,0,1,4.63-16.2h10.91a55.08,55.08,0,0,0-2.59,16.2Zm17.07-16.2h15.56v16.2H132.73A53.38,53.38,0,0,1,135.35,111.29Zm17.06-1.5V94.87a12.2,12.2,0,0,1,6,2.23c3.71,2.54,6.82,7,9,12.69Zm15.54,1.5a51.81,51.81,0,0,1,2.4,11.55c.15,1.56.22,3.11.24,4.65H152.41v-16.2Zm-19.24-16a10.57,10.57,0,0,1,2.2-.38v14.91h-15C138.71,102.28,143.25,96.8,148.71,95.26Zm2.2,33.73v16.2H135.38A51.25,51.25,0,0,1,133,133.64q-.21-2.34-.24-4.65Zm0,17.7v14.92a12.23,12.23,0,0,1-6-2.23c-3.7-2.54-6.81-7-9-12.69Zm3.7,14.53a10.45,10.45,0,0,1-2.2.38V146.69h15C164.61,154.2,160.07,159.69,154.61,161.22Zm-2.2-16V129h18.18a53.08,53.08,0,0,1-2.62,16.2ZM172.09,129h13a33.12,33.12,0,0,1-4.63,16.2H169.5A55.08,55.08,0,0,0,172.09,129Zm13-1.5h-13c0-1.58-.1-3.18-.25-4.79a52.89,52.89,0,0,0-2.29-11.41h10.89a33.41,33.41,0,0,1,4.19,11.6A35.91,35.91,0,0,1,185.05,127.49Zm-13.87-26.33a33.58,33.58,0,0,1,8.32,8.63H169c-2.24-6.19-5.61-11.09-9.74-13.93l-.32-.21A33.44,33.44,0,0,1,171.18,101.16Zm-26.87-5.49c-4.21,2.77-7.67,7.81-10,14.12H123.85l.73-1.07A33.19,33.19,0,0,1,144.31,95.67Zm-26,33.32h12.95c0,1.58.1,3.18.25,4.79a53.5,53.5,0,0,0,2.29,11.41H122.89a33.21,33.21,0,0,1-4.19-11.6A32.5,32.5,0,0,1,118.28,129Zm5.54,17.7h10.46c2.24,6.19,5.61,11.09,9.74,13.93l.33.21a33.62,33.62,0,0,1-20.53-14.14ZM159,160.81c4.2-2.76,7.66-7.81,10-14.12h10.48c-.24.36-.48.72-.73,1.07A33.15,33.15,0,0,1,159,160.81Z" style="fill: rgb(250, 250, 250); opacity: 0.8; transform-origin: 151.67px 128.291px;" class="animable"></path></g><rect x="99.89" y="144.9" width="314.4" height="76.18" style="fill: rgb(207, 216, 220); transform-origin: 257.09px 182.99px;" id="elj6ttntkr48" class="animable"></rect><g id="elpehn6qvl6c"><rect x="99.89" y="144.9" width="314.4" height="76.18" style="fill: rgb(250, 250, 250); opacity: 0.6; transform-origin: 257.09px 182.99px;" class="animable"></rect></g><rect x="92.8" y="151.99" width="314.4" height="76.18" style="fill: rgb(207, 216, 220); transform-origin: 250px 190.08px;" id="elhvabka5hp2" class="animable"></rect><g id="elpjth820bx2f"><rect x="92.8" y="151.99" width="314.4" height="76.18" style="opacity: 0.3; transform-origin: 250px 190.08px;" class="animable"></rect></g><rect x="85.71" y="159.08" width="314.4" height="76.18" style="fill: rgb(207, 216, 220); transform-origin: 242.91px 197.17px;" id="elixyswquhwpf" class="animable"></rect><g id="elgmrpw5ko9ot"><rect x="85.71" y="159.08" width="314.4" height="76.18" style="fill: rgb(250, 250, 250); opacity: 0.1; transform-origin: 242.91px 197.17px;" class="animable"></rect></g><g id="eluedoinpobh"><rect x="219.83" y="54.97" width="46.18" height="284.4" style="fill: rgb(207, 216, 220); transform-origin: 242.92px 197.17px; transform: rotate(90deg);" class="animable"></rect></g><g id="elxyqez9llhn"><rect x="219.83" y="54.97" width="46.18" height="284.4" style="fill: rgb(250, 250, 250); opacity: 0.9; transform-origin: 242.92px 197.17px; transform: rotate(90deg);" class="animable"></rect></g><g id="el82e9ak9u8xi"><rect x="315.01" y="196.33" width="46.18" height="1.67" style="fill: rgb(207, 216, 220); transform-origin: 338.1px 197.165px; transform: rotate(-90deg);" class="animable"></rect></g><g id="el52ekesrm4vw"><rect x="315.01" y="196.33" width="46.18" height="1.67" style="fill: rgb(250, 250, 250); opacity: 0.6; transform-origin: 338.1px 197.165px; transform: rotate(-90deg);" class="animable"></rect></g><g id="elp7d1uqjxe98"><rect x="91.91" y="196.33" width="33.44" height="1.67" style="fill: rgb(207, 216, 220); transform-origin: 108.63px 197.165px; transform: rotate(-90deg);" class="animable"></rect></g><g id="eltndr2s29v1k"><rect x="91.91" y="196.33" width="33.44" height="1.67" style="fill: rgb(250, 250, 250); opacity: 0.6; transform-origin: 108.63px 197.165px; transform: rotate(-90deg);" class="animable"></rect></g><path d="M360.43,203a7.38,7.38,0,1,1,5.22-12.6h0a7.38,7.38,0,0,1-5.22,12.6Zm0-12.75a5.38,5.38,0,1,0,3.8,1.57h0A5.33,5.33,0,0,0,360.43,190.2Z" style="fill: rgb(207, 216, 220); transform-origin: 360.433px 195.62px;" id="els5ox9x3y1oh" class="animable"></path><path d="M370,206.14a1,1,0,0,1-.71-.3l-5.05-5.05a1,1,0,1,1,1.41-1.41l5.05,5.05a1,1,0,0,1,0,1.41A1,1,0,0,1,370,206.14Z" style="fill: rgb(207, 216, 220); transform-origin: 367.441px 202.585px;" id="elvsiydqd6hr" class="animable"></path><g id="elhfwforpfho"><g style="opacity: 0.6; transform-origin: 362.022px 197.19px;" class="animable"><path d="M360.43,203a7.38,7.38,0,1,1,5.22-12.6h0a7.38,7.38,0,0,1-5.22,12.6Zm0-12.75a5.38,5.38,0,1,0,3.8,1.57h0A5.33,5.33,0,0,0,360.43,190.2Z" style="fill: rgb(250, 250, 250); transform-origin: 360.433px 195.62px;" id="elujgfyntnu48" class="animable"></path><path d="M370,206.14a1,1,0,0,1-.71-.3l-5.05-5.05a1,1,0,1,1,1.41-1.41l5.05,5.05a1,1,0,0,1,0,1.41A1,1,0,0,1,370,206.14Z" style="fill: rgb(250, 250, 250); transform-origin: 367.441px 202.585px;" id="elqvktcuiuftf" class="animable"></path></g></g><rect x="261.15" y="98.85" width="31.44" height="0.78" style="fill: rgb(207, 216, 220); transform-origin: 276.87px 99.24px;" id="ell3wbya2n6l" class="animable"></rect><rect x="261.15" y="102.16" width="31.44" height="0.78" style="fill: rgb(207, 216, 220); transform-origin: 276.87px 102.55px;" id="elc2qacs662zk" class="animable"></rect><rect x="261.15" y="105.48" width="31.44" height="0.78" style="fill: rgb(207, 216, 220); transform-origin: 276.87px 105.87px;" id="el0gt3ed67wey" class="animable"></rect><rect x="261.15" y="108.79" width="31.44" height="0.78" style="fill: rgb(207, 216, 220); transform-origin: 276.87px 109.18px;" id="elpxiiskxn9jr" class="animable"></rect><rect x="261.15" y="112.1" width="31.44" height="0.78" style="fill: rgb(207, 216, 220); transform-origin: 276.87px 112.49px;" id="elny6ihkgf6jp" class="animable"></rect><rect x="261.15" y="115.42" width="20.5" height="0.78" style="fill: rgb(207, 216, 220); transform-origin: 271.4px 115.81px;" id="elmmj0k431nkh" class="animable"></rect><g id="el8xrmkt7o35s"><g style="opacity: 0.5; transform-origin: 276.87px 107.525px;" class="animable"><rect x="261.15" y="98.85" width="31.44" height="0.78" style="fill: rgb(250, 250, 250); transform-origin: 276.87px 99.24px;" id="elyccg32vtfcb" class="animable"></rect><rect x="261.15" y="102.16" width="31.44" height="0.78" style="fill: rgb(250, 250, 250); transform-origin: 276.87px 102.55px;" id="elb4w6wgzmmca" class="animable"></rect><rect x="261.15" y="105.48" width="31.44" height="0.78" style="fill: rgb(250, 250, 250); transform-origin: 276.87px 105.87px;" id="elfi8fjx8s1nl" class="animable"></rect><rect x="261.15" y="108.79" width="31.44" height="0.78" style="fill: rgb(250, 250, 250); transform-origin: 276.87px 109.18px;" id="el20m5s4axz9b" class="animable"></rect><rect x="261.15" y="112.1" width="31.44" height="0.78" style="fill: rgb(250, 250, 250); transform-origin: 276.87px 112.49px;" id="el5377uc1nefv" class="animable"></rect><rect x="261.15" y="115.42" width="20.5" height="0.78" style="fill: rgb(250, 250, 250); transform-origin: 271.4px 115.81px;" id="el4jqky5z6p9h" class="animable"></rect></g></g><rect x="69.85" y="241.84" width="33.5" height="0.5" style="fill: rgb(207, 216, 220); transform-origin: 86.6px 242.09px;" id="elen2pq4onazq" class="animable"></rect><rect x="69.85" y="243.96" width="33.5" height="0.5" style="fill: rgb(207, 216, 220); transform-origin: 86.6px 244.21px;" id="el04vuea667cc9" class="animable"></rect><rect x="69.85" y="246.08" width="33.5" height="0.5" style="fill: rgb(207, 216, 220); transform-origin: 86.6px 246.33px;" id="elwbbk640o3j" class="animable"></rect><rect x="69.85" y="248.2" width="33.5" height="0.5" style="fill: rgb(207, 216, 220); transform-origin: 86.6px 248.45px;" id="el30xaemogpn7" class="animable"></rect><rect x="69.85" y="250.32" width="33.5" height="0.5" style="fill: rgb(207, 216, 220); transform-origin: 86.6px 250.57px;" id="el6toko6qvzjf" class="animable"></rect><rect x="69.85" y="252.45" width="21.06" height="0.5" style="fill: rgb(207, 216, 220); transform-origin: 80.38px 252.7px;" id="el9fiod3rjqwd" class="animable"></rect><g id="elbotccc86zk4"><g style="opacity: 0.4; transform-origin: 86.6px 247.395px;" class="animable"><rect x="69.85" y="241.84" width="33.5" height="0.5" style="fill: rgb(250, 250, 250); transform-origin: 86.6px 242.09px;" id="el5ryeti8rc1i" class="animable"></rect><rect x="69.85" y="243.96" width="33.5" height="0.5" style="fill: rgb(250, 250, 250); transform-origin: 86.6px 244.21px;" id="elbw2dconfvn8" class="animable"></rect><rect x="69.85" y="246.08" width="33.5" height="0.5" style="fill: rgb(250, 250, 250); transform-origin: 86.6px 246.33px;" id="el42ueiswtq6y" class="animable"></rect><rect x="69.85" y="248.2" width="33.5" height="0.5" style="fill: rgb(250, 250, 250); transform-origin: 86.6px 248.45px;" id="elp34hbi2kg7f" class="animable"></rect><rect x="69.85" y="250.32" width="33.5" height="0.5" style="fill: rgb(250, 250, 250); transform-origin: 86.6px 250.57px;" id="elj9bpa7vyudl" class="animable"></rect><rect x="69.85" y="252.45" width="21.06" height="0.5" style="fill: rgb(250, 250, 250); transform-origin: 80.38px 252.7px;" id="el5m3h8eikar6" class="animable"></rect></g></g><path d="M213.45,103.76h0a6.32,6.32,0,0,0-6.32,6.32v20.85a6.32,6.32,0,0,0,6.32,6.32h0a6.32,6.32,0,0,0,6.32-6.32V110.08A6.32,6.32,0,0,0,213.45,103.76Z" style="fill: rgb(207, 216, 220); transform-origin: 213.45px 120.505px;" id="elyd91lhd675d" class="animable"></path><g id="elcouj3fll9sq"><path d="M213.45,103.76h0a6.32,6.32,0,0,0-6.32,6.32v20.85a6.32,6.32,0,0,0,6.32,6.32h0a6.32,6.32,0,0,0,6.32-6.32V110.08A6.32,6.32,0,0,0,213.45,103.76Z" style="fill: rgb(250, 250, 250); opacity: 0.2; transform-origin: 213.45px 120.505px;" class="animable"></path></g><path d="M229.29,91.33h0A6.32,6.32,0,0,0,223,97.65v33.28a6.32,6.32,0,0,0,6.32,6.32h0a6.32,6.32,0,0,0,6.32-6.32V97.65A6.32,6.32,0,0,0,229.29,91.33Z" style="fill: rgb(207, 216, 220); transform-origin: 229.32px 114.29px;" id="el171gn6om0db" class="animable"></path><g id="elus9ca3zy7s"><path d="M229.29,91.33h0A6.32,6.32,0,0,0,223,97.65v33.28a6.32,6.32,0,0,0,6.32,6.32h0a6.32,6.32,0,0,0,6.32-6.32V97.65A6.32,6.32,0,0,0,229.29,91.33Z" style="opacity: 0.3; transform-origin: 229.32px 114.29px;" class="animable"></path></g><path d="M245.12,116.19h0a6.32,6.32,0,0,0-6.32,6.32v8.42a6.32,6.32,0,0,0,6.32,6.32h0a6.32,6.32,0,0,0,6.33-6.32v-8.42A6.32,6.32,0,0,0,245.12,116.19Z" style="fill: rgb(207, 216, 220); transform-origin: 245.125px 126.72px;" id="elzgr4pbeegyq" class="animable"></path><g id="elazt6g6jv6i"><path d="M245.12,116.19h0a6.32,6.32,0,0,0-6.32,6.32v8.42a6.32,6.32,0,0,0,6.32,6.32h0a6.32,6.32,0,0,0,6.33-6.32v-8.42A6.32,6.32,0,0,0,245.12,116.19Z" style="fill: rgb(250, 250, 250); opacity: 0.6; transform-origin: 245.125px 126.72px;" class="animable"></path></g><polyline points="378.61 259.13 404.16 259.13 360.54 213.89 360.54 213.89 378.61 259.13" style="fill: rgb(207, 216, 220); transform-origin: 382.35px 236.51px;" id="elgo2qp9prkyf" class="animable"></polyline><g id="elfrf09kxgrz9"><g style="opacity: 0.1; transform-origin: 382.35px 236.51px;" class="animable"><polyline points="378.61 259.13 404.16 259.13 360.54 213.89 360.54 213.89 378.61 259.13" id="elyg8uowum0yb" class="animable" style="transform-origin: 382.35px 236.51px;"></polyline></g></g><polygon points="354.05 235.25 360.54 213.89 364.22 235.25 354.05 235.25" style="fill: rgb(207, 216, 220); mix-blend-mode: multiply; transform-origin: 359.135px 224.57px;" id="ellylc1u5krr" class="animable"></polygon><polygon points="360.54 213.89 360.54 277.19 365.06 272.68 378.61 259.13 360.54 213.89" style="fill: rgb(207, 216, 220); transform-origin: 369.575px 245.54px;" id="el4hesmr99xy5" class="animable"></polygon><g id="elracns6f035"><polygon points="360.54 213.89 360.54 277.19 365.06 272.68 378.61 259.13 360.54 213.89" style="fill: rgb(250, 250, 250); opacity: 0.3; transform-origin: 369.575px 245.54px;" class="animable"></polygon></g><path d="M405.72,78.11h-56A10.76,10.76,0,0,0,339,88.82v28.92a10.76,10.76,0,0,0,10.71,10.71h41.09l-.3,10.11,10.37-10.11h4.83a10.76,10.76,0,0,0,10.72-10.71V88.82A10.76,10.76,0,0,0,405.72,78.11ZM348.46,90.43a3,3,0,0,1,3-3h12.89a3,3,0,0,1,0,6H351.45A3,3,0,0,1,348.46,90.43Zm54.08,28H380.26a3,3,0,1,1,0-5.91h22.28a3,3,0,1,1,0,5.91Zm0-12.51H354.45a3,3,0,1,1,0-5.91h48.09a3,3,0,1,1,0,5.91Zm0-12.51H374.07a3,3,0,0,1,0-6h28.47a3,3,0,0,1,0,6Z" style="fill: rgb(207, 216, 220); transform-origin: 377.71px 108.335px;" id="elq62jj6almmj" class="animable"></path></g><g id="freepik--Character--inject-70" class="animable" style="transform-origin: 220.946px 272.307px;"><path d="M318.14,169.78A53.7,53.7,0,0,0,307.39,152H227.88a53.7,53.7,0,0,0-10.75,17.78l11,54.76a53.73,53.73,0,0,0,90-54.76Z" style="fill: rgb(207, 216, 220); transform-origin: 269.241px 196.919px;" id="eloecvhjdlbsr" class="animable"></path><g id="el5o4s1b8hish"><path d="M318.14,169.78A53.7,53.7,0,0,0,307.39,152H227.88a53.7,53.7,0,0,0-10.75,17.78l11,54.76a53.73,53.73,0,0,0,90-54.76Z" style="fill: rgb(250, 250, 250); opacity: 0.1; transform-origin: 269.241px 196.919px;" class="animable"></path></g><path d="M321.31,190.61a53.55,53.55,0,0,1-14.16,33.93h-79a53.81,53.81,0,0,1-11-54.76h101A53.42,53.42,0,0,1,321.31,190.61Z" style="fill: rgb(207, 216, 220); transform-origin: 267.653px 197.16px;" id="elggv4zudzc7" class="animable"></path><g id="eluh2pj3tubti"><path d="M321.31,190.61a53.55,53.55,0,0,1-14.16,33.93h-79a53.81,53.81,0,0,1-11-54.76h101A53.42,53.42,0,0,1,321.31,190.61Z" style="fill: rgb(250, 250, 250); opacity: 0.9; transform-origin: 267.653px 197.16px;" class="animable"></path></g><g id="el3pp8s0v3sb7"><path d="M321.31,190.61a53.61,53.61,0,1,1-3.17-20.83A53.55,53.55,0,0,1,321.31,190.61Z" style="fill: rgb(255, 255, 255); opacity: 0.3; transform-origin: 267.759px 188.103px;" class="animable"></path></g><g id="elokve4kkrm0o"><path d="M297.92,143.76l-77.26,70.46q-.58-1.07-1.14-2.16a53,53,0,0,1-4.87-15h0l66.73-60.86A53.42,53.42,0,0,1,297.92,143.76Z" style="fill: rgb(255, 255, 255); opacity: 0.4; transform-origin: 256.285px 175.21px;" class="animable"></path></g><g id="elb17jt42rin"><path d="M318.59,171.07,246,237.31a53.68,53.68,0,0,1-19.48-14.64l79.32-72.34A53.75,53.75,0,0,1,318.59,171.07Z" style="fill: rgb(255, 255, 255); opacity: 0.4; transform-origin: 272.555px 193.82px;" class="animable"></path></g><path d="M321.29,157.15a62,62,0,1,0-22.66,84.64A62,62,0,0,0,321.29,157.15Zm-96,55.44a48.89,48.89,0,1,1,66.79,17.89A48.88,48.88,0,0,1,225.3,212.59Z" style="fill: rgb(207, 216, 220); transform-origin: 267.582px 188.124px;" id="eld2ga0qh4ewr" class="animable"></path><g id="ele76vpqr6rxu"><path d="M321.29,157.15a62,62,0,1,0-22.66,84.64A62,62,0,0,0,321.29,157.15Zm-96,55.44a48.89,48.89,0,1,1,66.79,17.89A48.88,48.88,0,0,1,225.3,212.59Z" style="opacity: 0.1; transform-origin: 267.582px 188.124px;" class="animable"></path></g><path d="M125.06,251.89l7.66,1.78-6.35,4.74s-4.55-2.06-4.76-5.29Z" style="fill: rgb(228, 137, 123); transform-origin: 127.165px 255.15px;" id="elb8exfrumc34" class="animable"></path><polygon points="136.82 258.77 131.3 262.45 126.37 258.41 132.72 253.68 136.82 258.77" style="fill: rgb(228, 137, 123); transform-origin: 131.595px 258.065px;" id="el0bfzyld2uqa" class="animable"></polygon><path d="M223.47,220.78c-8.14,6-16.49,11.7-24.88,17.27s-16.89,11-25.43,16.33S156,264.93,147.35,270c-4.32,2.58-8.68,5.08-13,7.62a25.32,25.32,0,0,1-6.94,3.07,21.75,21.75,0,0,1-4,.67,17,17,0,0,1-4.49-.23,8.2,8.2,0,0,1-6.45-9.65,7,7,0,0,1,.28-1,16.56,16.56,0,0,1,2-4,21.22,21.22,0,0,1,2.56-3.1,25.52,25.52,0,0,1,6.13-4.48c4.37-2.49,8.71-5,13.11-7.47,8.76-4.95,17.6-9.77,26.46-14.53s17.83-9.37,26.85-13.87,18.11-8.88,27.39-12.92a6.21,6.21,0,0,1,6.18,10.69Z" style="fill: rgb(207, 216, 220); transform-origin: 169.141px 245.498px;" id="el3vsvtj9448o" class="animable"></path><g id="elabo0qmj51zg"><path d="M223.47,220.78c-8.14,6-16.49,11.7-24.88,17.27s-16.89,11-25.43,16.33S156,264.93,147.35,270c-4.32,2.58-8.68,5.08-13,7.62a25.32,25.32,0,0,1-6.94,3.07,21.75,21.75,0,0,1-4,.67,17,17,0,0,1-4.49-.23,8.2,8.2,0,0,1-6.45-9.65,7,7,0,0,1,.28-1,16.56,16.56,0,0,1,2-4,21.22,21.22,0,0,1,2.56-3.1,25.52,25.52,0,0,1,6.13-4.48c4.37-2.49,8.71-5,13.11-7.47,8.76-4.95,17.6-9.77,26.46-14.53s17.83-9.37,26.85-13.87,18.11-8.88,27.39-12.92a6.21,6.21,0,0,1,6.18,10.69Z" style="opacity: 0.1; transform-origin: 169.141px 245.498px;" class="animable"></path></g><path d="M136.16,204.52c-.5.81-1.07,1.79-1.61,2.71s-1.07,1.88-1.57,2.85c-1,1.91-2,3.85-3,5.82s-1.81,4-2.63,6c-.4,1-.82,2-1.19,3l-.56,1.53c-.11.29-.13.41-.2.62s-.1.41-.16.61a31.13,31.13,0,0,0-.59,6c-.05,2.15,0,4.34.12,6.55s.24,4.43.44,6.65.4,4.48.61,6.68l-3.86.79c-.68-2.23-1.21-4.45-1.74-6.7s-.93-4.51-1.32-6.81-.65-4.61-.82-7a34.78,34.78,0,0,1,.19-7.51c.06-.35.11-.68.2-1s.18-.77.26-1l.49-1.7c.32-1.13.69-2.25,1.07-3.36.77-2.23,1.61-4.42,2.55-6.58s1.94-4.27,3-6.35c.55-1,1.13-2.07,1.72-3.1s1.18-2,1.92-3.09Z" style="fill: rgb(228, 137, 123); transform-origin: 127.06px 227.23px;" id="eln39t35641sm" class="animable"></path><path d="M131.89,411a9.4,9.4,0,0,1-2-.28.17.17,0,0,1-.14-.14.19.19,0,0,1,.08-.19c.27-.18,2.63-1.7,3.54-1.29a.62.62,0,0,1,.36.52,1,1,0,0,1-.3,1A2.26,2.26,0,0,1,131.89,411Zm-1.53-.54c1.36.27,2.38.22,2.77-.14a.68.68,0,0,0,.19-.65.27.27,0,0,0-.16-.24C132.69,409.22,131.32,409.88,130.36,410.46Z" style="fill: rgb(207, 216, 220); transform-origin: 131.755px 410.023px;" id="el26ngqt8ld5ci" class="animable"></path><path d="M129.88,410.73a.16.16,0,0,1-.09,0,.17.17,0,0,1-.09-.16c0-.09,0-2.33.85-3.08a1,1,0,0,1,.78-.25.64.64,0,0,1,.62.52c.18.87-1.24,2.55-2,3A.16.16,0,0,1,129.88,410.73Zm1.33-3.16a.62.62,0,0,0-.41.16,4.18,4.18,0,0,0-.72,2.46c.74-.6,1.62-1.86,1.51-2.39,0-.09-.07-.19-.3-.22Z" style="fill: rgb(207, 216, 220); transform-origin: 130.833px 408.997px;" id="elv4s7rvipcl8" class="animable"></path><path d="M167.31,411a12.52,12.52,0,0,1-2.45-.28.17.17,0,0,1-.15-.15.19.19,0,0,1,.1-.19c.35-.18,3.45-1.76,4.4-1.24a.59.59,0,0,1,.32.49,1,1,0,0,1-.34.89A2.9,2.9,0,0,1,167.31,411Zm-1.84-.54c1.73.29,3,.21,3.48-.21a.68.68,0,0,0,.21-.59.23.23,0,0,0-.12-.2C168.52,409.18,166.74,409.85,165.47,410.46Z" style="fill: rgb(207, 216, 220); transform-origin: 167.124px 410.024px;" id="elrjwkib48ee8" class="animable"></path><path d="M164.89,410.73a.13.13,0,0,1-.1,0,.15.15,0,0,1-.08-.16c0-.09.19-2.19,1.16-3a1.39,1.39,0,0,1,1-.32c.51.05.65.31.69.52.14.88-1.69,2.56-2.62,3Zm1.86-3.16a1,1,0,0,0-.64.24,4.29,4.29,0,0,0-1,2.4c.94-.57,2.19-1.89,2.1-2.42,0,0,0-.18-.36-.21Z" style="fill: rgb(207, 216, 220); transform-origin: 166.138px 409.008px;" id="ely80h1yiptig" class="animable"></path><path d="M148,174.49c.61,4.67,2,14.14-1.38,17,0,0,1,4.76,9.52,5.31,9.42.61,4.8-4.38,4.8-4.38-5.06-1.56-4.68-5.37-3.55-8.89Z" style="fill: rgb(228, 137, 123); transform-origin: 154.346px 185.671px;" id="elgk0mgwceo6" class="animable"></path><path d="M165.47,165a.34.34,0,0,1-.17-.05.36.36,0,0,1-.15-.5,3.65,3.65,0,0,1,2.73-2,.37.37,0,0,1,.07.73h0a3,3,0,0,0-2.15,1.58A.4.4,0,0,1,165.47,165Z" style="fill: rgb(38, 50, 56); transform-origin: 166.669px 163.725px;" id="el9mwz1r5izp" class="animable"></path><path d="M168.16,169.1a16.73,16.73,0,0,0,2.6,3.78,2.7,2.7,0,0,1-2.19.63Z" style="fill: rgb(222, 87, 83); transform-origin: 169.46px 171.321px;" id="elh5h3fqvv1c9" class="animable"></path><path d="M167.5,168.08c.06.63.44,1.1.84,1.06s.7-.57.64-1.2-.44-1.1-.85-1.06S167.44,167.46,167.5,168.08Z" style="fill: rgb(38, 50, 56); transform-origin: 168.24px 168.01px;" id="elpo9fbuho0c" class="animable"></path><path d="M168,166.93l1.46-.57S168.76,167.6,168,166.93Z" style="fill: rgb(38, 50, 56); transform-origin: 168.73px 166.744px;" id="elabtp7mojg8d" class="animable"></path><polygon points="156.33 410.54 164.12 410.54 164.64 392.52 156.85 392.52 156.33 410.54" style="fill: rgb(228, 137, 123); transform-origin: 160.485px 401.53px;" id="el9gew51bgyz8" class="animable"></polygon><polygon points="120.96 410.54 128.75 410.54 131.25 392.52 123.47 392.52 120.96 410.54" style="fill: rgb(228, 137, 123); transform-origin: 126.105px 401.53px;" id="el3wb8pndvkt9" class="animable"></polygon><path d="M129.23,409.64h-8.75a.62.62,0,0,0-.62.53l-1,6.92a1.25,1.25,0,0,0,1.24,1.39c3-.05,4.52-.23,8.37-.23,2.36,0,5.82.24,9.09.24s3.44-3.23,2.08-3.52c-6.1-1.31-7.06-3.12-9.12-4.85A2,2,0,0,0,129.23,409.64Z" style="fill: rgb(38, 50, 56); transform-origin: 129.647px 414.065px;" id="elw2s8btboud" class="animable"></path><path d="M164.38,409.64h-8.74a.61.61,0,0,0-.62.53l-1,6.92a1.26,1.26,0,0,0,1.25,1.39c3-.05,4.52-.23,8.36-.23,2.37,0,7.26.24,10.53.24s3.44-3.23,2.08-3.52c-6.1-1.31-8.5-3.12-10.56-4.85A2,2,0,0,0,164.38,409.64Z" style="fill: rgb(38, 50, 56); transform-origin: 165.528px 414.065px;" id="elo481rtld2o" class="animable"></path><polygon points="164.63 392.52 164.37 401.81 156.58 401.81 156.85 392.52 164.63 392.52" style="fill: rgb(206, 111, 100); transform-origin: 160.605px 397.165px;" id="elxfudp8cr6ys" class="animable"></polygon><polygon points="123.46 392.52 131.25 392.52 129.96 401.81 122.17 401.81 123.46 392.52" style="fill: rgb(206, 111, 100); transform-origin: 126.71px 397.165px;" id="eler2r210eet7" class="animable"></polygon><path d="M139.48,205.72a39.94,39.94,0,0,1-5.11,6.42l-.89-.59L123.62,205S129,193,133.05,192.39c3.87-.62,6.69,3.38,8,7.66C141.55,201.6,140.72,203.7,139.48,205.72Z" style="fill: rgb(207, 216, 220); transform-origin: 132.409px 202.233px;" id="elarf69ga2n56" class="animable"></path><g id="elln2w5gxd7dg"><path d="M139.48,205.72a39.94,39.94,0,0,1-5.11,6.42l-.89-.59L123.62,205S129,193,133.05,192.39c3.87-.62,6.69,3.38,8,7.66C141.55,201.6,140.72,203.7,139.48,205.72Z" style="fill: rgb(250, 250, 250); opacity: 0.6; transform-origin: 132.409px 202.233px;" class="animable"></path></g><path d="M139.48,205.72a39.94,39.94,0,0,1-5.11,6.42l-.89-.59c.44-3.6,1.84-7.17,3.44-8.3C137.9,203.35,138.77,204.39,139.48,205.72Z" style="fill: rgb(207, 216, 220); transform-origin: 136.48px 207.695px;" id="elns92wl99m4o" class="animable"></path><g id="elh0mlybo9fi"><path d="M139.48,205.72a39.94,39.94,0,0,1-5.11,6.42l-.89-.59c.44-3.6,1.84-7.17,3.44-8.3C137.9,203.35,138.77,204.39,139.48,205.72Z" style="fill: rgb(250, 250, 250); opacity: 0.4; transform-origin: 136.48px 207.695px;" class="animable"></path></g><path d="M173.21,211.71h0c-.47,3-1.08,6.53-1.9,10.72-1,5.36-2.4,11.79-4.17,19.48l-31.55-2c1.36-12.81,1.89-20.73-2.54-47.48a92.82,92.82,0,0,1,13.52-.89,100.56,100.56,0,0,1,14.32.93c6.12,1,13,2.84,13,2.84S175.65,196,173.21,211.71Z" style="fill: rgb(207, 216, 220); transform-origin: 153.777px 216.724px;" id="elosiwi5xy8y" class="animable"></path><g id="elqozx7isk7yl"><path d="M173.21,211.71h0c-.47,3-1.08,6.53-1.9,10.72-1,5.36-2.4,11.79-4.17,19.48l-31.55-2c1.36-12.81,1.89-20.73-2.54-47.48a92.82,92.82,0,0,1,13.52-.89,100.56,100.56,0,0,1,14.32.93c6.12,1,13,2.84,13,2.84S175.65,196,173.21,211.71Z" style="fill: rgb(250, 250, 250); opacity: 0.6; transform-origin: 153.777px 216.724px;" class="animable"></path></g><path d="M173.21,211.71h0c-.47,3-1.08,6.53-1.9,10.72A77.48,77.48,0,0,1,167,211h5.86Z" style="fill: rgb(207, 216, 220); transform-origin: 170.105px 216.715px;" id="elbxr3ngqtlm" class="animable"></path><g id="elbzozytit28"><path d="M173.21,211.71h0c-.47,3-1.08,6.53-1.9,10.72A77.48,77.48,0,0,1,167,211h5.86Z" style="fill: rgb(250, 250, 250); opacity: 0.4; transform-origin: 170.105px 216.715px;" class="animable"></path></g><path d="M146.28,167.92c1.19,7.63,1.54,10.89,5.79,14.46,6.39,5.38,15.5,2.24,16.61-5.6,1-7.05-1.12-18.35-8.93-20.69A10.53,10.53,0,0,0,146.28,167.92Z" style="fill: rgb(228, 137, 123); transform-origin: 157.521px 170.345px;" id="elytrmgjk6xf" class="animable"></path><path d="M158.8,241.37s-.5,13.89-1.7,31.41c-1,14.7-2.51,31.94-4.62,45.68l-.06.38C148.63,343.16,131.84,400,131.84,400H121.22s8.75-54.9,10.67-79c4.87-60.87-7.33-67.76,3.7-81.18Z" style="fill: rgb(207, 216, 220); transform-origin: 140.01px 319.91px;" id="el1g6ztq1kgok" class="animable"></path><g id="eltwuehihb2jf"><path d="M158.8,241.37s-.5,13.89-1.7,31.41c-1,14.7-2.51,31.94-4.62,45.68l-.06.38C148.63,343.16,131.84,400,131.84,400H121.22s8.75-54.9,10.67-79c4.87-60.87-7.33-67.76,3.7-81.18Z" style="opacity: 0.3; transform-origin: 140.01px 319.91px;" class="animable"></path></g><path d="M157.1,272.78c-1,14.7-2.51,31.94-4.62,45.68-3.59-17.85-9.49-43.92-1.57-61C152.8,262.31,155,267.79,157.1,272.78Z" style="fill: rgb(207, 216, 220); transform-origin: 152.038px 287.96px;" id="eli33glkws03r" class="animable"></path><g id="el3fuchfuad8p"><path d="M157.1,272.78c-1,14.7-2.51,31.94-4.62,45.68-3.59-17.85-9.49-43.92-1.57-61C152.8,262.31,155,267.79,157.1,272.78Z" style="opacity: 0.4; transform-origin: 152.038px 287.96px;" class="animable"></path></g><path d="M167.14,241.92s9,53.34,8.46,77.08c-.53,24.7-9.58,81-9.58,81H155.5s1.66-54.87.73-79.12c-1-26.44-12.2-80.47-12.2-80.47Z" style="fill: rgb(207, 216, 220); transform-origin: 159.827px 320.205px;" id="elnm3ngsrfg6d" class="animable"></path><g id="elq5t92triy9"><path d="M167.14,241.92s9,53.34,8.46,77.08c-.53,24.7-9.58,81-9.58,81H155.5s1.66-54.87.73-79.12c-1-26.44-12.2-80.47-12.2-80.47Z" style="opacity: 0.3; transform-origin: 159.827px 320.205px;" class="animable"></path></g><polygon points="153.7 400.5 167.81 400.5 168.91 395.77 153.2 395.88 153.7 400.5" style="fill: rgb(38, 50, 56); transform-origin: 161.055px 398.135px;" id="el9wf1uvwzuu" class="animable"></polygon><polygon points="119.68 400.5 133.79 400.5 134.89 395.77 119.78 395.88 119.68 400.5" style="fill: rgb(38, 50, 56); transform-origin: 127.285px 398.135px;" id="ele0jcf65k2nd" class="animable"></polygon><path d="M135.23,238l-1.6,2.74c-.13.21.12.45.48.47l33.09,2.15c.28,0,.53-.1.56-.28l.47-2.81c0-.19-.21-.37-.52-.39l-32-2.08A.61.61,0,0,0,135.23,238Z" style="fill: rgb(38, 50, 56); transform-origin: 150.913px 240.58px;" id="elzs4wvl12dfm" class="animable"></path><path d="M139.29,241.84l-.85-.06c-.17,0-.3-.11-.28-.21l.64-3.65c0-.1.17-.18.34-.17l.86.05c.17,0,.29.11.28.22l-.64,3.64C139.62,241.77,139.46,241.85,139.29,241.84Z" style="fill: rgb(207, 216, 220); transform-origin: 139.219px 239.795px;" id="elvxfeg7okk9c" class="animable"></path><g id="el0ams609cb877"><path d="M139.29,241.84l-.85-.06c-.17,0-.3-.11-.28-.21l.64-3.65c0-.1.17-.18.34-.17l.86.05c.17,0,.29.11.28.22l-.64,3.64C139.62,241.77,139.46,241.85,139.29,241.84Z" style="opacity: 0.3; transform-origin: 139.219px 239.795px;" class="animable"></path></g><path d="M160,243.18l-.85-.05c-.17,0-.3-.11-.28-.22l.64-3.64c0-.11.17-.18.35-.17l.85.05c.17,0,.3.11.28.22l-.64,3.64C160.36,243.12,160.2,243.19,160,243.18Z" style="fill: rgb(207, 216, 220); transform-origin: 159.93px 241.14px;" id="elonixs7161gp" class="animable"></path><g id="elsdij97k5yzl"><path d="M160,243.18l-.85-.05c-.17,0-.3-.11-.28-.22l.64-3.64c0-.11.17-.18.35-.17l.85.05c.17,0,.3.11.28.22l-.64,3.64C160.36,243.12,160.2,243.19,160,243.18Z" style="opacity: 0.3; transform-origin: 159.93px 241.14px;" class="animable"></path></g><path d="M175.68,203.31c1.2,4,2.34,8.05,3.45,12.09l3.35,12.09.42,1.5.11.37.05.19,0,.1a3.56,3.56,0,0,0,.13.39,6.41,6.41,0,0,0,1,1.68,16.69,16.69,0,0,0,4.1,3.16,52.87,52.87,0,0,0,11,4.44l-.58,3.9a41.59,41.59,0,0,1-13.08-2.83,20.73,20.73,0,0,1-6.29-3.88,12.46,12.46,0,0,1-2.6-3.42,9.36,9.36,0,0,1-.47-1.07l-.11-.27-.07-.19-.13-.37-.53-1.51c-1.4-4-2.7-8-3.93-12.06s-2.44-8.06-3.54-12.14Z" style="fill: rgb(228, 137, 123); transform-origin: 183.625px 223.265px;" id="elmztutd0tmyq" class="animable"></path><path d="M173.89,195.27c4,1.31,8.2,14.39,8.2,14.39l-14.44,6.22s-6-14.68-3.34-18S169.3,193.77,173.89,195.27Z" style="fill: rgb(207, 216, 220); transform-origin: 172.86px 205.211px;" id="elagt67wihnub" class="animable"></path><g id="elnldjf20u52f"><path d="M173.89,195.27c4,1.31,8.2,14.39,8.2,14.39l-14.44,6.22s-6-14.68-3.34-18S169.3,193.77,173.89,195.27Z" style="fill: rgb(250, 250, 250); opacity: 0.6; transform-origin: 172.86px 205.211px;" class="animable"></path></g><path d="M166.17,155.65c-2.55-3.15-22.25-5.4-23.3,3.18-7,4.9-.36,17.56.64,20.78-4.83,1.34-20.39,6.66-9,17s28.47,8.58,31.81-2.12c2.34-7.48-5.09-20-4.93-24.38S170.54,161,166.17,155.65Z" style="fill: rgb(38, 50, 56); transform-origin: 148.898px 178.171px;" id="elo0ot72p0vza" class="animable"></path><path d="M144.89,181.19a.23.23,0,0,1-.19-.09c-1.81-2.2-8.11-13.76-5.9-19.26a4.79,4.79,0,0,1,4.23-3,.24.24,0,0,1,.27.22.25.25,0,0,1-.21.28,4.32,4.32,0,0,0-3.83,2.66c-2.13,5.32,4.05,16.61,5.82,18.77a.24.24,0,0,1-.19.4Z" style="fill: rgb(38, 50, 56); transform-origin: 141.739px 170.014px;" id="el89sgqdmfctm" class="animable"></path><path d="M159.83,169.64a6.64,6.64,0,0,0,2,3.82c1.42,1.36,2.76.43,2.89-1.3.12-1.55-.48-4.12-2.16-4.84S159.62,167.91,159.83,169.64Z" style="fill: rgb(228, 137, 123); transform-origin: 162.271px 170.615px;" id="elpsy1aoiwdac" class="animable"></path><path d="M194.39,238.24l5.68-1.93-.89,6.83s-2.24,1-5.14-1.52l-2.77-1.77,2.18-1.19A5.28,5.28,0,0,1,194.39,238.24Z" style="fill: rgb(228, 137, 123); transform-origin: 195.67px 239.823px;" id="elo9nl2lz2xv" class="animable"></path><polygon points="204.04 236.29 202.3 242.26 199.18 243.13 200.07 236.31 204.04 236.29" style="fill: rgb(228, 137, 123); transform-origin: 201.61px 239.71px;" id="elcxrpa8zeic9" class="animable"></polygon></g><defs>     <filter id="active" height="200%">         <feMorphology in="SourceAlpha" result="DILATED" operator="dilate" radius="2"></feMorphology>                <feFlood flood-color="#32DFEC" flood-opacity="1" result="PINK"></feFlood>        <feComposite in="PINK" in2="DILATED" operator="in" result="OUTLINE"></feComposite>        <feMerge>            <feMergeNode in="OUTLINE"></feMergeNode>            <feMergeNode in="SourceGraphic"></feMergeNode>        </feMerge>    </filter>    <filter id="hover" height="200%">        <feMorphology in="SourceAlpha" result="DILATED" operator="dilate" radius="2"></feMorphology>                <feFlood flood-color="#ff0000" flood-opacity="0.5" result="PINK"></feFlood>        <feComposite in="PINK" in2="DILATED" operator="in" result="OUTLINE"></feComposite>        <feMerge>            <feMergeNode in="OUTLINE"></feMergeNode>            <feMergeNode in="SourceGraphic"></feMergeNode>        </feMerge>            <feColorMatrix type="matrix" values="0   0   0   0   0                0   1   0   0   0                0   0   0   0   0                0   0   0   1   0 "></feColorMatrix>    </filter></defs></svg>