<?xml version="1.0" standalone="no"?>
<!DOCTYPE svg PUBLIC "-//W3C//DTD SVG 1.1//EN" "http://www.w3.org/Graphics/SVG/1.1/DTD/svg11.dtd">
<svg xmlns="http://www.w3.org/2000/svg">
<defs >
<font id="Karla" horiz-adv-x="1049" ><font-face
    font-family="Karla Medium"
    units-per-em="2000"
    panose-1="2 11 0 4 3 5 3 3 0 3"
    ascent="1834"
    descent="-504"
    alphabetic="0" />
<glyph unicode=" " horiz-adv-x="488" />
<glyph unicode="!" horiz-adv-x="568" d="M209 388L187 1284H391L368 388H209ZM289 -18Q229 -18 191 19T152 113Q152 169 190 207T289 246Q348 246 388 208T429 113Q429 57 389 20T289 -18Z" />
<glyph unicode="&quot;" horiz-adv-x="675" d="M448 912L423 1367H616L590 912H448ZM85 912L60 1367H253L227 912H85Z" />
<glyph unicode="#" horiz-adv-x="1296" d="M274 64L303 335H109L121 461H315L352 802H157L170 928H365L393 1196H572L544 928H836L865 1196H1042L1015 928H1211L1197 802H1000L966 461H1163L1149 335H952L923 64H745L774 335H481L452 64H274ZM494 461H786L823
802H530L494 461Z" />
<glyph unicode="$" horiz-adv-x="1311" d="M668 -26Q561 -26 465 0T294 77T177 206T135 389H321Q321 305 364 252T488 174T676 149Q773 149 836 175T931 246T963 342Q963 409 920 456T795 531L661 579V746L882 671Q1025 623 1101 544T1177 337Q1177 246 1122 163T954
27T668 -26ZM585 -191V1445H727V-191H585ZM627 577L506 618Q340 673 252 748T164 957Q164 1108 289 1202T651 1297Q869 1297 985 1202T1129 947H939Q924 1029 851 1081T648 1133Q511 1133 441 1082T370 951Q370 889 407 852T525 787L627 747V577Z" />
<glyph unicode="%" horiz-adv-x="1484" d="M218 0L1078 1274H1273L413 0H218ZM1108 -21Q1039 -21 980 12T883 110T846 274Q846 372 883 437T979 535T1108 568Q1179 568 1239 535T1336 437T1373 274Q1373 176 1337 111T1240 12T1108 -21ZM1108 106Q1160 106 1192
145T1225 274Q1225 362 1193 402T1108 443Q1056 443 1024 403T992 274Q992 184 1024 145T1108 106ZM384 711Q315 711 256 744T159 842T122 1005Q122 1102 159 1167T255 1264T384 1297Q454 1297 515 1265T612 1167T649 1005Q649 908 613 843T515 744T384 711ZM384
836Q435 836 467 876T500 1005Q500 1093 468 1133T384 1174Q332 1174 300 1134T268 1005Q268 916 300 876T384 836Z" />
<glyph unicode="&amp;" horiz-adv-x="1872" d="M1485 -26Q1401 -26 1327 11T1168 125L522 701Q453 761 413 835T372 991Q372 1078 420 1146T561 1255T781 1295Q903 1295 991 1255T1128 1147T1177 995Q1177 912 1137 844T1014 719T799 613L697 710Q800 753 858
794T942 880T967 977Q967 1044 916 1088T781 1132Q682 1132 631 1083T580 964Q580 913 605 868T684 773L1320 207Q1359 174 1391 158T1469 142Q1518 142 1555 179T1597 299H1772Q1767 148 1696 61T1485 -26ZM691 -26Q583 -26 491 3T328 85T219 206T180 357Q180
511 303 589T654 686L709 579Q543 563 466 511T389 367Q389 306 424 256T528 176T693 146Q811 146 910 194T1091 326T1238 524T1351 767L1481 695Q1430 539 1355 408T1180 180T959 28T691 -26Z" />
<glyph unicode="&apos;" horiz-adv-x="308" d="M58 1354H251L225 899H83L58 1354Z" />
<glyph unicode="(" horiz-adv-x="748" d="M551 1477L688 1379Q574 1262 498 1140T383 888T344 623Q344 421 430 234T688 -130L551 -231Q348 -47 247 171T146 623Q146 860 247 1077T551 1477Z" />
<glyph unicode=")" horiz-adv-x="748" d="M198 -231L59 -130Q231 46 318 233T405 623Q405 759 367 888T251 1139T59 1379L198 1477Q400 1295 501 1078T603 623Q603 466 558 317T423 29T198 -231Z" />
<glyph unicode="*" horiz-adv-x="822" d="M159 871L336 1041L107 1120L160 1240L366 1137L345 1385H483L462 1137L668 1243L721 1121L495 1043L672 871L570 783L416 988L259 783L159 871Z" />
<glyph unicode="+" horiz-adv-x="1068" d="M440 982H629V573H1033V409H629V0H440V409H36V573H440V982Z" />
<glyph unicode="," horiz-adv-x="455" d="M197 -241L55 -170Q116 -139 160 -101T218 -10Q170 -3 136 27T102 106Q102 156 139 190T235 225Q308 225 351 173T395 49Q395 -34 344 -113T197 -241Z" />
<glyph unicode="-" horiz-adv-x="718" d="M83 508V674H635V508H83Z" />
<glyph unicode="." horiz-adv-x="388" d="M55 112Q55 168 93 207T191 246Q250 246 291 207T332 112Q332 57 291 20T191 -18Q132 -18 94 20T55 112Z" />
<glyph unicode="/" horiz-adv-x="897" d="M111 -151L618 1474H812L302 -151H111Z" />
<glyph unicode="0" horiz-adv-x="1220" d="M611 -26Q458 -26 343 47T163 267T99 637Q99 859 163 1006T342 1225T611 1297Q763 1297 878 1225T1057 1006T1122 637Q1122 414 1058 267T878 47T611 -26ZM611 149Q763 149 844 275T926 637Q926 871 845 998T611 1125Q459
1125 378 998T296 637Q296 402 377 276T611 149Z" />
<glyph unicode="1" horiz-adv-x="683" d="M339 1279H487V0H297V1054Q247 1025 195 1010T91 992V1176Q156 1184 217 1208T339 1279Z" />
<glyph unicode="2" horiz-adv-x="1181" d="M125 0V201Q125 310 159 384T258 509T416 595L672 695Q764 732 809 789T854 930Q854 1017 793 1074T620 1131Q511 1131 440 1082T358 934H147Q152 1053 213 1134T378 1256T617 1297Q743 1297 843 1249T1001 1116T1060
920Q1060 821 1024 748T918 620T748 526L488 423Q400 389 358 344T315 225V175H1050V0H125Z" />
<glyph unicode="3" horiz-adv-x="1208" d="M608 -26Q510 -26 419 1T256 81T141 212T99 394H297Q300 316 341 261T451 178T608 149Q740 149 813 212T887 370Q887 431 857 477T762 548T594 574H439V724H557Q689 724 765 778T841 927Q841 1011 778 1068T595 1125Q500
1125 426 1087T328 949H131Q146 1073 209 1150T370 1262T589 1297Q720 1297 823 1253T986 1129T1045 947Q1045 848 990 777T828 667Q946 631 1020 553T1094 354Q1094 243 1034 157T865 23T608 -26Z" />
<glyph unicode="4" horiz-adv-x="1148" d="M709 1290H890V460H1111V298H890V0H702V298H49V443L709 1290ZM710 1000L274 443H710V1000Z" />
<glyph unicode="5" horiz-adv-x="1144" d="M577 -26Q449 -26 347 19T185 152T123 366H315Q315 258 390 204T577 149Q701 149 775 226T849 417Q849 641 556 641H194L251 1274H982V1100H404L442 1160L402 745L382 764Q430 775 493 780T604 785Q806 785 925 692T1045
417Q1045 292 988 192T825 33T577 -26Z" />
<glyph unicode="6" horiz-adv-x="1174" d="M620 -26Q464 -26 347 58T164 286T99 615Q99 831 165 983T352 1216T638 1297Q757 1297 848 1253T993 1128T1055 941H850Q837 1026 787 1075T643 1125Q479 1125 385 982T290 592Q290 558 291 515T299 435Q311 564 364
637T495 742T661 773Q778 773 869 722T1013 581T1066 373Q1066 254 1010 164T853 24T620 -26ZM620 149Q726 149 797 211T868 379Q868 488 797 549T620 611Q550 611 495 582T407 500T374 379Q374 274 445 212T620 149Z" />
<glyph unicode="7" horiz-adv-x="963" d="M105 0L704 1092H48V1274H928V1095L360 0H105Z" />
<glyph unicode="8" horiz-adv-x="1256" d="M628 -26Q472 -26 355 22T171 154T105 343Q105 437 154 503T289 606T483 642Q518 642 549 638T618 623V572Q524 572 453 543T342 465T302 360Q302 293 345 246T462 174T628 149Q787 149 870 196T954 318Q954 378 912
418T793 487L437 624Q373 648 306 692T194 801T148 956Q148 1058 204 1135T368 1254T628 1297Q764 1297 872 1251T1043 1124T1105 939Q1105 863 1065 798T948 692T760 652Q728 652 701 656T637 672V730Q712 730 773 754T871 824T908 928Q908 986 873 1030T774 1100T628
1125Q548 1125 484 1102T383 1038T346 949Q346 889 386 853T501 788L862 649Q1002 595 1077 524T1152 327Q1152 224 1090 144T911 19T628 -26Z" />
<glyph unicode="9" horiz-adv-x="1186" d="M579 -26Q451 -26 350 25T190 168T131 377H329Q333 273 399 211T573 149Q688 149 758 214T862 400T895 681Q895 716 893 747T886 816Q870 707 820 638T693 535T524 501Q408 501 317 552T174 693T121 901Q121 1021 177
1110T333 1248T565 1297Q676 1297 771 1252T937 1123T1047 922T1087 660Q1087 450 1032 296T864 58T579 -26ZM566 663Q634 663 690 693T780 774T813 892Q813 1000 741 1062T565 1124Q460 1124 389 1062T318 892Q318 785 389 724T566 663Z" />
<glyph unicode=":" horiz-adv-x="494" d="M108 164Q108 220 146 259T244 298Q303 298 344 259T385 164Q385 109 344 72T244 34Q185 34 147 72T108 164ZM108 770Q108 826 146 865T244 904Q303 904 344 865T385 770Q385 715 344 678T244 640Q185 640 147 678T108 770Z" />
<glyph unicode=";" horiz-adv-x="562" d="M253 -241L111 -170Q172 -139 216 -101T274 -10Q226 -3 192 27T158 106Q158 156 195 190T291 225Q364 225 407 173T451 49Q451 -34 400 -113T253 -241ZM167 770Q167 826 205 865T303 904Q362 904 403 865T444 770Q444
715 403 678T303 640Q244 640 206 678T167 770Z" />
<glyph unicode="&lt;" horiz-adv-x="948" d="M731 1181L857 1036L221 585V664L857 217L731 70L85 540V709L731 1181Z" />
<glyph unicode="=" horiz-adv-x="991" d="M158 380H832V216H158V380ZM158 779H832V614H158V779Z" />
<glyph unicode="&gt;" horiz-adv-x="948" d="M217 70L92 217L725 664V585L92 1036L217 1181L863 709V540L217 70Z" />
<glyph unicode="?" horiz-adv-x="1013" d="M352 349V435Q352 522 371 577T434 673T551 752Q617 787 654 816T708 879T724 958Q724 1030 666 1077T506 1125Q391 1125 330 1077T255 947H55Q68 1105 180 1201T500 1297Q634 1297 731 1252T880 1128T932 955Q932 852
880 781T714 651Q648 616 610 586T557 517T541 419V349H352ZM451 -26Q391 -26 353 12T315 104Q315 160 352 199T450 238Q510 238 550 200T591 105Q591 51 551 13T451 -26Z" />
<glyph unicode="@" horiz-adv-x="1952" d="M1109 -392Q888 -392 709 -330T401 -155T203 111T134 446Q134 630 203 785T396 1055T688 1233T1053 1297Q1237 1297 1385 1243T1638 1091T1799 863T1855 584Q1855 457 1817 357T1714 185T1568 76T1401 38Q1316 38 1260
75T1190 176L1182 207Q1148 138 1089 88T931 38Q843 38 768 83T648 209T602 401Q602 499 638 585T739 736T886 837T1061 874Q1187 874 1260 799T1333 572V286Q1333 232 1351 208T1407 183Q1460 183 1519 228T1620 363T1662 582Q1662 741 1591 864T1385 1057T1062
1128Q897 1128 762 1074T530 923T380 698T327 422Q327 228 420 80T688 -153T1109 -237V-392ZM961 191Q1036 191 1086 236T1178 364V571Q1178 645 1152 686T1060 727Q996 727 931 687T821 574T777 402Q777 298 829 245T961 191Z" />
<glyph unicode="A" horiz-adv-x="1192" d="M49 0L485 1274H720L1143 0H943L844 304H352L249 0H49ZM400 450H797L599 1045L400 450Z" />
<glyph unicode="B" horiz-adv-x="1266" d="M195 0V1274H688Q831 1274 925 1228T1067 1106T1114 939Q1114 830 1054 751T877 642Q953 629 1011 588T1102 485T1136 350Q1136 287 1114 225T1041 112T904 31T689 0H195ZM385 166H685Q815 166 873 220T932 360Q932 447
870 500T685 553H385V166ZM385 1110V718H681Q792 718 855 771T919 918Q919 1007 858 1058T683 1110H385Z" />
<glyph unicode="C" horiz-adv-x="1243" d="M647 -26Q478 -26 356 56T166 289T99 643Q99 857 170 1002T365 1222T647 1297Q858 1297 983 1193T1149 921L946 882Q910 993 832 1059T647 1126Q553 1126 475 1072T350 911T303 643Q303 495 342 384T457 210T647 148Q786
148 866 222T946 417H1151Q1151 277 1089 179T913 27T647 -26Z" />
<glyph unicode="D" horiz-adv-x="1343" d="M195 1274H585Q779 1274 922 1196T1146 974T1226 637Q1226 444 1146 301T923 79T585 0H195V1274ZM385 1103V168H585Q721 168 818 229T969 396T1022 637Q1022 772 969 877T819 1043T585 1103H385Z" />
<glyph unicode="E" horiz-adv-x="1145" d="M193 0V1274H993V1110H383V722H957V558H383V166H993V0H193Z" />
<glyph unicode="F" horiz-adv-x="1067" d="M195 0V1274H982V1110H385V724H937V561H385V0H195Z" />
<glyph unicode="G" horiz-adv-x="1316" d="M651 -26Q497 -26 372 54T173 281T99 626Q99 787 145 912T274 1123T466 1253T699 1297Q861 1297 977 1229T1168 1013L980 959Q920 1042 848 1083T690 1125Q585 1125 497 1065T355 893T302 626Q302 485 346 378T472 210T665
149Q753 149 823 189T933 307T974 502H1024Q1024 341 986 223T865 39T651 -26ZM1004 0L974 292V508L668 516V641H1158V0H1004Z" />
<glyph unicode="H" horiz-adv-x="1369" d="M195 1274H385V725H983V1274H1172V0H983V560H385V0H195V1274Z" />
<glyph unicode="I" horiz-adv-x="581" d="M195 0V1274H385V0H195Z" />
<glyph unicode="J" horiz-adv-x="841" d="M23 59V252Q98 206 171 183T311 160Q407 160 449 216T492 381V1274H682V381Q682 236 638 147T513 16T325 -26Q241 -26 166 -2T23 59Z" />
<glyph unicode="K" horiz-adv-x="1255" d="M929 1274H1191L366 427V690L929 1274ZM600 741L1226 0H979L466 617L600 741ZM195 1274H387V0H195V1274Z" />
<glyph unicode="L" horiz-adv-x="958" d="M385 1274V166H934V0H195V1274H385Z" />
<glyph unicode="M" horiz-adv-x="1717" d="M195 1274H468L872 437H854L1258 1274H1522V0H1330V1065H1361L925 151H800L366 1060H385V0H195V1274Z" />
<glyph unicode="N" horiz-adv-x="1396" d="M192 1274H409L1026 286H1011V1274H1201V0H999L352 1032H382V0H192V1274Z" />
<glyph unicode="O" horiz-adv-x="1323" d="M661 -26Q498 -26 371 48T172 269T99 636Q99 860 171 1006T371 1225T661 1297Q825 1297 952 1224T1152 1004T1225 636Q1225 414 1153 267T953 47T661 -26ZM661 148Q831 148 929 273T1028 638Q1028 872 930 999T661 1127Q494
1127 395 999T296 636Q296 398 395 273T661 148Z" />
<glyph unicode="P" horiz-adv-x="1130" d="M190 0V1274H617Q830 1274 945 1168T1060 875Q1060 690 945 585T617 479H382V0H190ZM382 645H617Q739 645 802 708T865 875Q865 980 802 1045T617 1110H382V645Z" />
<glyph unicode="Q" horiz-adv-x="1332" d="M661 -26Q498 -26 371 48T172 269T99 636Q99 860 171 1006T371 1225T661 1297Q825 1297 952 1224T1152 1004T1225 636Q1225 414 1153 267T953 47T661 -26ZM1047 -345Q954 -345 878 -297T740 -157L608 36L768 99L884 -73Q915
-117 951 -135T1024 -155Q1076 -155 1121 -142T1218 -105V-308Q1172 -327 1131 -336T1047 -345ZM661 148Q831 148 929 273T1028 638Q1028 872 930 999T661 1127Q494 1127 395 999T296 636Q296 398 395 273T661 148Z" />
<glyph unicode="R" horiz-adv-x="1251" d="M195 0V1274H651Q874 1274 990 1169T1107 891Q1107 721 991 616T651 511H385V0H195ZM898 0L545 586H750L1145 0H898ZM385 641H634Q770 641 841 706T912 876Q912 983 846 1046T651 1110H385V641Z" />
<glyph unicode="S" horiz-adv-x="1237" d="M619 -26Q489 -26 380 20T205 159T135 389H321Q321 306 361 253T469 175T617 149Q699 149 762 174T859 241T894 337Q894 410 849 454T712 530L475 618Q322 675 242 749T162 957Q162 1108 280 1202T612 1297Q815 1297
927 1203T1056 947H869Q855 1029 793 1077T612 1125Q498 1125 434 1076T370 951Q370 889 410 852T537 785L807 686Q946 637 1024 554T1102 343Q1102 235 1046 152T882 22T619 -26Z" />
<glyph unicode="T" horiz-adv-x="1027" d="M12 1110V1274H1016V1110H566L609 1154V0H419V1154L461 1110H12Z" />
<glyph unicode="U" horiz-adv-x="1338" d="M171 1274H361V469Q361 299 446 224T669 149Q806 149 891 224T976 469V1274H1166V469Q1166 309 1106 199T935 31T669 -26Q516 -26 404 31T232 198T171 469V1274Z" />
<glyph unicode="V" horiz-adv-x="1159" d="M568 205L923 1274H1124L677 0H478L36 1274H238L590 205H568Z" />
<glyph unicode="W" horiz-adv-x="1833" d="M25 1274H238L559 168H507L831 1162H960L1286 179H1238L1593 1274H1807L1362 0H1162L887 816H914L633 0H434L25 1274Z" />
<glyph unicode="X" horiz-adv-x="1319" d="M85 0L534 633L82 1274H314L661 780L973 1274H1203L766 636L1231 0H995L641 485L315 0H85Z" />
<glyph unicode="Y" horiz-adv-x="1129" d="M16 1274H243L582 686H540L887 1274H1112L655 525V0H464V525L16 1274Z" />
<glyph unicode="Z" horiz-adv-x="1215" d="M146 0V167L909 1166V1096L146 1100V1274H1094V1107L364 150L354 178L1094 174V0H146Z" />
<glyph unicode="[" horiz-adv-x="663" d="M195 -236V1511H632V1341H385V-66H632V-236H195Z" />
<glyph unicode="\" horiz-adv-x="897" d="M87 1474L594 -151H788L278 1474H87Z" />
<glyph unicode="]" horiz-adv-x="612" d="M417 -236V1511H-20V1341H227V-66H-20V-236H417Z" />
<glyph unicode="^" horiz-adv-x="961" d="M41 467L411 1187H562L931 467H721L450 1037H522L253 467H41Z" />
<glyph unicode="_" horiz-adv-x="1486" d="M110 0V166H1378V0H110Z" />
<glyph unicode="`" horiz-adv-x="678" d="M487 1121L98 1452L228 1557L580 1197L487 1121Z" />
<glyph unicode="a" horiz-adv-x="1130" d="M798 0L774 221V622Q774 740 725 793T570 847Q510 847 464 830T391 777T364 689H154Q154 795 206 861T351 957T570 988Q687 988 776 950T914 829T964 617V0H798ZM476 -26Q355 -26 275 16T156 128T116 275Q116 370 164
431T299 523T497 553Q574 553 647 539T791 502V387Q733 408 663 420T531 433Q440 433 379 397T318 275Q318 212 366 167T518 121Q594 121 652 155T742 242T774 346H820Q820 246 780 162T662 26T476 -26Z" />
<glyph unicode="b" horiz-adv-x="1203" d="M658 -26Q564 -26 488 24T366 174T320 417H385Q385 333 421 272T515 179T634 146Q708 146 767 187T862 304T898 485Q898 588 863 662T768 777T632 818Q568 818 512 787T420 696T385 548H320Q320 689 364 787T486 936T671
988Q786 988 881 927T1034 752T1092 485Q1092 330 1033 216T876 38T658 -26ZM195 0V1367H385V231L324 0H195Z" />
<glyph unicode="c" horiz-adv-x="1043" d="M545 -26Q427 -26 325 37T161 214T99 482Q99 644 161 756T325 928T545 988Q632 988 700 961T817 887T896 782T939 662L746 652Q725 727 673 772T543 818Q478 818 421 782T328 671T292 482Q292 376 325 301T415 186T543
146Q645 146 695 195T746 332H939Q939 231 892 150T757 22T545 -26Z" />
<glyph unicode="d" horiz-adv-x="1203" d="M544 -26Q426 -26 327 37T170 215T111 485Q111 639 168 752T321 926T532 988Q638 988 717 937T839 787T883 548H817Q817 635 782 695T691 787T571 818Q496 818 436 778T340 663T304 485Q304 381 339 305T435 187T570
146Q631 146 687 178T780 272T817 417H883Q883 273 838 174T715 25T544 -26ZM850 0L817 231V1367H1008V0H850Z" />
<glyph unicode="e" horiz-adv-x="1041" d="M540 -26Q416 -26 316 38T158 216T99 480Q99 639 157 752T315 927T540 988Q652 988 732 943T861 821T928 647T935 447H251V557H805L759 527Q762 581 754 635T721 734T654 807T543 835Q459 835 403 793T317 681T288 526V449Q288
356 316 284T399 171T540 129Q623 129 677 168T745 285H939Q924 191 870 121T732 13T540 -26Z" />
<glyph unicode="f" horiz-adv-x="706" d="M249 0V1097Q249 1197 287 1259T390 1352T531 1382Q575 1382 621 1376T713 1358L677 1210Q649 1220 621 1226T566 1232Q535 1232 506 1221T459 1179T440 1094V0H249ZM98 833V962H629V833H98Z" />
<glyph unicode="g" horiz-adv-x="1144" d="M549 -496Q393 -496 281 -453T107 -338T46 -181Q46 -73 125 -16T326 42L449 -16Q345 -16 289 -58T232 -172Q232 -247 314 -295T549 -344Q660 -344 744 -312T874 -227T920 -114Q920 -73 891 -45T801 -16H449Q351 -16 277
14T160 95T118 206Q118 266 152 309T242 375T365 398L408 332Q379 332 350 320T302 282T283 220Q283 177 319 149T449 120H801Q945 120 1027 63T1109 -103Q1109 -202 1041 -292T848 -439T549 -496ZM570 289Q458 289 367 332T221 454T167 638Q167 744 221 822T366
944T570 988Q679 988 769 945T914 823T969 638Q969 533 915 455T770 333T570 289ZM570 423Q673 423 727 484T782 638Q782 734 728 793T570 852Q469 852 413 793T356 638Q356 546 412 485T570 423ZM897 834L808 877Q808 963 844 1027T944 1127T1091 1163L1079 978Q990
978 944 943T897 834Z" />
<glyph unicode="h" horiz-adv-x="1224" d="M869 0V564Q869 689 810 753T649 818Q569 818 510 775T418 648T385 444H317Q317 621 362 742T493 925T697 988Q813 988 893 936T1016 789T1058 564V0H869ZM195 0V1367H385V0H195Z" />
<glyph unicode="i" horiz-adv-x="622" d="M305 1167Q248 1167 216 1198T183 1284Q183 1336 215 1366T305 1397Q361 1397 393 1367T426 1284Q426 1230 394 1199T305 1167ZM210 0V965H400V0H210Z" />
<glyph unicode="j" horiz-adv-x="645" d="M327 1167Q271 1167 239 1198T206 1284Q206 1336 238 1366T327 1397Q383 1397 416 1367T449 1284Q449 1230 416 1199T327 1167ZM110 -496Q37 -496 -28 -479T-163 -427L-157 -263Q-101 -292 -45 -311T69 -330Q148 -330
191 -282T234 -125V966H423V-127Q423 -325 338 -410T110 -496Z" />
<glyph unicode="k" horiz-adv-x="1151" d="M195 0V1367H385V0H195ZM358 571L815 962H1076L358 372V571ZM867 0L421 610L607 649L1099 0H867Z" />
<glyph unicode="l" horiz-adv-x="581" d="M195 0V1367H385V0H195Z" />
<glyph unicode="m" horiz-adv-x="1882" d="M1528 0V564Q1528 689 1469 753T1309 818Q1189 818 1124 724T1058 454H975Q975 593 1002 694T1079 860T1200 956T1358 988Q1474 988 1554 936T1677 789T1719 564V0H1528ZM195 0V962H360L381 781Q427 882 507 935T697
988Q813 988 893 936T1016 789T1058 564V0H869V564Q869 689 810 753T649 818Q569 818 510 775T418 648T385 444V0H195Z" />
<glyph unicode="n" horiz-adv-x="1224" d="M869 0V564Q869 689 810 753T649 818Q569 818 510 775T418 648T385 444H317Q317 621 362 742T493 925T697 988Q813 988 893 936T1016 789T1058 564V0H869ZM195 0V962H360L385 754V0H195Z" />
<glyph unicode="o" horiz-adv-x="1110" d="M557 -26Q426 -26 323 31T159 201T99 480Q99 649 159 761T322 931T557 988Q686 988 789 931T951 762T1011 480Q1011 314 952 201T789 31T557 -26ZM551 140Q634 140 694 180T787 296T820 480Q820 644 754 734T562 824Q478
824 418 784T325 667T292 480Q292 319 359 230T551 140Z" />
<glyph unicode="p" horiz-adv-x="1191" d="M651 -26Q546 -26 469 21T352 161T311 391H385Q385 312 419 258T508 175T627 146Q693 146 755 183T858 296T898 482Q898 588 863 663T766 778T629 818Q565 818 509 788T419 699T385 556H311Q311 701 357 797T483 940T658
988Q771 988 870 928T1030 754T1092 482Q1092 323 1030 209T868 35T651 -26ZM195 -472V962H352L385 731V-472H195Z" />
<glyph unicode="q" horiz-adv-x="1191" d="M540 -26Q424 -26 324 34T161 209T99 482Q99 641 160 754T320 927T531 988Q628 988 707 941T833 797T880 556H804Q804 640 770 698T681 787T561 818Q486 818 425 778T328 663T292 482Q292 371 331 296T433 184T564 146Q625
146 680 174T769 257T804 391H850Q850 267 817 174T714 27T540 -26ZM1075 -496Q927 -457 866 -375T804 -143V731L867 962H993V-157Q993 -221 1005 -257T1049 -315T1134 -354L1075 -496Z" />
<glyph unicode="r" horiz-adv-x="749" d="M195 0V965H385V0H195ZM333 430Q333 615 371 737T479 920T643 980Q671 980 695 976T744 965L737 776Q710 783 679 788T621 794Q539 794 487 751T410 626T385 430H333Z" />
<glyph unicode="s" horiz-adv-x="1053" d="M547 -26Q407 -26 311 13T165 123T112 289H291Q295 206 357 166T527 126Q584 126 630 144T704 193T732 263Q732 312 696 340T580 391L383 458Q265 498 202 564T139 724Q139 843 245 915T526 988Q707 988 805 912T908
720H725Q718 777 669 807T526 838Q439 838 390 800T340 714Q340 628 488 586L695 513Q813 475 877 415T941 263Q941 189 892 123T755 16T547 -26Z" />
<glyph unicode="t" horiz-adv-x="768" d="M504 -26Q422 -26 356 5T252 98T213 256V1224H402V262Q402 126 529 126Q568 126 605 134T689 160L716 25Q663 3 612 -11T504 -26ZM66 833V962H687V833H66Z" />
<glyph unicode="u" horiz-adv-x="1229" d="M843 965H1034V0H843V965ZM171 965H361V369Q361 260 414 204T565 148Q647 148 709 191T807 313T843 500H904Q904 331 858 216T729 42T535 -18Q429 -18 347 21T218 141T171 352V965Z" />
<glyph unicode="v" horiz-adv-x="1019" d="M31 962H249L520 163H500L771 962H989L615 0H404L31 962Z" />
<glyph unicode="w" horiz-adv-x="1477" d="M31 962H229L458 190H437L658 913H823L1043 188H1023L1252 962H1442L1126 0H940L722 680H751L536 0H350L31 962Z" />
<glyph unicode="x" horiz-adv-x="1059" d="M43 0L412 480L43 965H276L535 624L782 965H1014L645 480L1013 0H781L521 342L276 0H43Z" />
<glyph unicode="y" horiz-adv-x="963" d="M42 962H255L545 166H506L739 962H933L568 -185Q518 -341 440 -418T243 -496Q177 -496 117 -479T-7 -429V-258Q47 -296 97 -313T201 -330Q255 -330 293 -298T358 -212T404 -95L433 0L42 962Z" />
<glyph unicode="z" horiz-adv-x="966" d="M109 0V154L648 809H109V962H860V809L333 154H860V0H109Z" />
<glyph unicode="{" horiz-adv-x="732" d="M720 -291Q554 -291 452 -229T304 -57T257 192V374Q257 459 242 493T187 527H147V716H187Q226 716 241 749T257 868V1052Q257 1193 303 1301T452 1472T720 1534V1365Q573 1365 509 1286T445 1050V861Q445 767 413 710T329
626V618Q380 592 412 535T445 382V194Q445 37 509 -42T720 -121V-291Z" />
<glyph unicode="|" horiz-adv-x="581" d="M195 -244V1517H385V-244H195Z" />
<glyph unicode="}" horiz-adv-x="732" d="M12 -291Q178 -291 280 -229T428 -57T475 192V374Q475 459 490 493T545 527H585V716H545Q506 716 491 749T475 868V1052Q475 1193 429 1301T280 1472T12 1534V1365Q159 1365 223 1286T287 1050V861Q287 767 319 710T403
626V618Q352 592 320 535T287 382V194Q287 37 223 -42T12 -121V-291Z" />
<glyph unicode="~" horiz-adv-x="1076" d="M212 430L109 485Q143 602 200 667T341 732Q380 732 426 719T548 676Q627 645 665 634T732 623Q771 623 805 651T864 735L965 670Q927 553 864 497T719 441Q688 441 641 454T518 497Q441 525 405 537T338 549Q302 549
271 523T212 430Z" />
<glyph unicode="&#xa0;" horiz-adv-x="488" />
<glyph unicode="&#xa1;" horiz-adv-x="568" d="M209 875L187 -21H391L368 875H209ZM289 1281Q229 1281 191 1244T152 1150Q152 1094 190 1056T289 1017Q348 1017 388 1055T429 1150Q429 1206 389 1243T289 1281Z" />
<glyph unicode="&#xa2;" horiz-adv-x="1039" d="M462 -212V28H622V-212H462ZM462 941V1156H622V941H462ZM545 -26Q427 -26 325 37T161 214T99 482Q99 644 161 756T325 928T545 988Q632 988 700 961T817 887T896 782T939 662L746 652Q725 727 673 772T543 818Q478
818 421 782T328 671T292 482Q292 376 325 301T415 186T543 146Q645 146 695 195T746 332H939Q939 231 892 150T757 22T545 -26Z" />
<glyph unicode="&#xa3;" horiz-adv-x="1161" d="M101 113V168Q177 168 209 212T242 346V874Q242 1010 287 1104T418 1248T627 1297Q778 1297 871 1217T988 976H801Q790 1051 742 1088T627 1125Q537 1125 485 1065T432 874V357Q432 230 362 172T101 113ZM42 0V168H685Q782
168 826 208T883 332H1088Q1080 177 991 89T686 0H42ZM67 546V676H786V546H67Z" />
<glyph unicode="&#xa4;" horiz-adv-x="1200" d="M600 222Q486 222 392 278T242 428T186 636Q186 750 242 844T392 993T600 1049Q714 1049 807 994T956 844T1012 636Q1012 522 957 428T808 278T600 222ZM600 395Q666 395 720 427T808 515T841 636Q841 704 808 758T721
844T600 876Q534 876 479 844T392 758T359 636Q359 570 391 515T479 428T600 395ZM855 803L766 892L977 1101L1065 1014L855 803ZM336 811L135 1012L221 1101L423 900L336 811ZM864 461L1065 260L979 170L777 372L864 461ZM336 461L423 372L221 170L135 260L336
461Z" />
<glyph unicode="&#xa5;" horiz-adv-x="1129" d="M464 0V525L16 1274H243L582 686H540L887 1274H1112L655 525V0H464ZM218 188V301H903V188H218ZM218 393V506H903V393H218Z" />
<glyph unicode="&#xa6;" horiz-adv-x="581" d="M195 727V1517H385V727H195ZM195 -244V546H385V-244H195Z" />
<glyph unicode="&#xa7;" horiz-adv-x="1200" d="M635 447Q693 447 739 465T813 514T841 588Q841 635 803 662T688 713L491 780Q374 817 311 884T248 1043Q248 1164 353 1236T633 1309Q816 1309 914 1233T1016 1041H833Q827 1099 776 1129T642 1160Q545 1160 497
1122T449 1033Q449 952 596 908L803 834Q921 796 985 737T1049 588Q1049 511 1000 445T863 337T655 296L635 447ZM565 757Q478 757 429 717T379 626Q379 544 527 500L734 427Q851 389 915 329T979 180Q979 104 932 37T794 -71T569 -112Q444 -112 350 -73T204 37T151
203H330Q332 121 395 81T555 40Q655 40 713 79T771 179Q771 226 733 254T619 306L422 372Q303 411 241 478T178 638Q178 763 284 834T565 905V757Z" />
<glyph unicode="&#xa8;" horiz-adv-x="793" d="M573 1140Q524 1140 489 1172T454 1254Q454 1302 489 1335T573 1369Q625 1369 660 1336T695 1254Q695 1205 660 1173T573 1140ZM218 1140Q166 1140 133 1172T99 1252Q99 1302 132 1334T218 1367Q270 1367 304 1335T339
1252Q339 1205 305 1173T218 1140Z" />
<glyph unicode="&#xa9;" horiz-adv-x="1397" d="M699 -12Q564 -12 447 38T239 178T99 385T48 638Q48 773 98 890T239 1097T446 1238T699 1289Q833 1289 951 1238T1158 1098T1298 891T1349 638Q1349 503 1299 386T1159 179T951 39T699 -12ZM699 86Q814 86 913 129T1089
247T1208 423T1251 638Q1251 753 1208 852T1089 1028T914 1148T699 1191Q585 1191 485 1148T308 1029T189 853T146 638Q146 524 189 424T308 248T484 129T699 86ZM696 233Q593 233 518 283T401 426T360 642Q360 774 404 863T524 998T696 1044Q826 1044 902 980T1004
813L880 789Q858 858 811 899T696 940Q639 940 591 907T514 807T485 642Q485 553 508 484T579 377T696 339Q782 339 831 385T880 504H1005Q1005 376 921 305T696 233Z" />
<glyph unicode="&#xaa;" horiz-adv-x="1130" d="M798 0L774 221V622Q774 740 725 793T570 847Q510 847 464 830T391 777T364 689H154Q154 795 206 861T351 957T570 988Q687 988 776 950T914 829T964 617V0H798ZM476 -26Q355 -26 275 16T156 128T116 275Q116 370
164 431T299 523T497 553Q574 553 647 539T791 502V387Q733 408 663 420T531 433Q440 433 379 397T318 275Q318 212 366 167T518 121Q594 121 652 155T742 242T774 346H820Q820 246 780 162T662 26T476 -26Z" />
<glyph unicode="&#xab;" horiz-adv-x="1187" d="M277 505L645 870L510 964L99 534L510 104L645 198L277 563V505ZM720 505L1088 870L953 964L542 534L953 104L1088 198L720 563V505Z" />
<glyph unicode="&#xac;" horiz-adv-x="1200" d="M225 652H920V295H788V554L830 506H225V652Z" />
<glyph unicode="&#xad;" horiz-adv-x="1200" d="M83 508V674H635V508H83Z" />
<glyph unicode="&#xae;" horiz-adv-x="1397" d="M699 -12Q564 -12 447 38T239 178T99 385T48 638Q48 773 98 890T239 1097T446 1238T699 1289Q833 1289 951 1238T1158 1098T1298 891T1349 638Q1349 503 1299 386T1159 179T951 39T699 -12ZM699 86Q814 86 913 129T1089
247T1208 423T1251 638Q1251 753 1208 852T1089 1028T914 1148T699 1191Q585 1191 485 1148T308 1029T189 853T146 638Q146 524 189 424T308 248T484 129T699 86ZM863 282L659 619H777L1004 282H863ZM458 282V1015H720Q848 1015 915 955T982 795Q982 698 915 637T720
576H566V282H458ZM566 650H710Q789 650 829 688T870 786Q870 848 832 884T720 921H566V650Z" />
<glyph unicode="&#xaf;" horiz-adv-x="850" d="M99 1325H752V1168H99V1325Z" />
<glyph unicode="&#xb0;" horiz-adv-x="722" d="M361 961Q284 961 220 999T118 1101T80 1243Q80 1321 118 1384T220 1485T361 1523Q438 1523 502 1486T604 1385T642 1243Q642 1166 604 1102T502 999T361 961ZM361 1091Q424 1091 468 1135T512 1243Q512 1305 468
1349T361 1394Q299 1394 254 1350T209 1243Q209 1180 254 1136T361 1091Z" />
<glyph unicode="&#xb1;" horiz-adv-x="991" d="M419 1070H571V750H867V624H571V304H419V624H123V750H419V1070ZM148 145H844V0H148V145Z" />
<glyph unicode="&#xb2;" horiz-adv-x="809" d="M125 516V637Q125 703 145 748T205 823T301 874L455 935Q510 957 537 991T564 1076Q564 1129 528 1163T423 1197Q358 1197 315 1168T266 1079H139Q142 1150 178 1199T277 1272T422 1297Q498 1297 558 1269T653 1189T689
1070Q689 1011 667 967T603 890T501 833L344 771Q291 750 266 723T240 652V621H683V516H125Z" />
<glyph unicode="&#xb3;" horiz-adv-x="813" d="M405 500Q346 500 292 516T193 565T124 644T99 753H218Q220 706 244 673T310 623T405 606Q485 606 529 644T573 739Q573 776 555 803T498 846T397 862H303V952H375Q454 952 500 985T546 1074Q546 1125 508 1159T397
1194Q340 1194 296 1171T237 1088H118Q127 1162 165 1208T262 1276T394 1297Q473 1297 535 1271T633 1197T669 1086Q669 1027 636 984T538 918Q609 896 653 849T698 729Q698 662 662 611T560 530T405 500Z" />
<glyph unicode="&#xb4;" horiz-adv-x="678" d="M192 1121L99 1197L451 1557L580 1452L192 1121Z" />
<glyph unicode="&#xb5;" horiz-adv-x="1229" d="M843 965H1034V0H843V965ZM171 965H361V369Q361 260 414 204T565 148Q647 148 709 191T807 313T843 500H904Q904 331 858 216T729 42T535 -18Q429 -18 347 21T218 141T171 352V965ZM171 -402V965H361V-402H171Z" />
<glyph unicode="&#xb6;" horiz-adv-x="1200" d="M537 479Q324 479 210 584T95 876Q95 1062 209 1168T537 1274H951V1105H644V479H537ZM551 -252V1274H696V-252H551ZM839 -252V1274H983V-252H839Z" />
<glyph unicode="&#xb7;" horiz-adv-x="388" d="M55 519Q55 575 93 614T191 653Q250 653 291 614T332 519Q332 464 291 427T191 389Q132 389 94 427T55 519Z" />
<glyph unicode="&#xb8;" horiz-adv-x="626" d="M99 -361L128 -288Q199 -324 255 -329T346 -315T383 -262Q386 -230 360 -206T289 -165T193 -135L267 66L363 55L294 -131L260 -72Q353 -90 413 -119T502 -187T528 -272Q524 -329 479 -364T367 -410T229 -410T99 -361Z" />
<glyph unicode="&#xb9;" horiz-adv-x="526" d="M240 1279H329V509H215V1144Q185 1126 154 1117T91 1107V1217Q130 1222 167 1237T240 1279Z" />
<glyph unicode="&#xba;" horiz-adv-x="1110" d="M557 -26Q426 -26 323 31T159 201T99 480Q99 649 159 761T322 931T557 988Q686 988 789 931T951 762T1011 480Q1011 314 952 201T789 31T557 -26ZM551 140Q634 140 694 180T787 296T820 480Q820 644 754 734T562
824Q478 824 418 784T325 667T292 480Q292 319 359 230T551 140Z" />
<glyph unicode="&#xbb;" horiz-adv-x="1187" d="M910 505L542 870L677 964L1088 534L677 104L542 198L910 563V505ZM467 505L99 870L234 964L645 534L234 104L99 198L467 563V505Z" />
<glyph unicode="&#xbc;" horiz-adv-x="1807" d="M241 1371H329V600H215V1235Q185 1217 154 1208T91 1198V1309Q130 1313 167 1328T241 1371ZM250 -19L1213 1362H1362L396 -19H250ZM1528 777H1636V277H1770V179H1636V0H1524V179H1130V267L1528 777ZM1528 602L1267
267H1528V602Z" />
<glyph unicode="&#xbd;" horiz-adv-x="1890" d="M241 1371H329V600H215V1235Q185 1217 154 1208T91 1198V1309Q130 1313 167 1328T241 1371ZM250 -19L1213 1362H1362L396 -19H250ZM1206 0V121Q1206 219 1252 272T1382 358L1535 419Q1591 441 1618 475T1645 561Q1645
613 1608 647T1504 681Q1438 681 1396 651T1346 563H1219Q1222 635 1259 683T1358 757T1503 782Q1578 782 1638 754T1734 674T1769 555Q1769 466 1721 410T1581 317L1425 255Q1371 235 1346 208T1320 136V105H1763V0H1206Z" />
<glyph unicode="&#xbe;" horiz-adv-x="2094" d="M406 574Q327 574 257 603T143 688T99 827H218Q221 756 274 718T406 679Q485 679 529 717T574 812Q574 868 533 902T398 936H304V1026H375Q455 1026 500 1059T546 1148Q546 1199 508 1233T398 1268Q341 1268 297
1245T237 1161H119Q132 1273 208 1322T394 1372Q513 1372 591 1313T669 1160Q669 1101 636 1058T538 992Q609 970 653 923T698 803Q698 703 619 639T406 574ZM536 -19L1499 1362H1648L682 -19H536ZM1815 777H1923V277H2057V179H1923V0H1811V179H1417V267L1815 777ZM1815
602L1554 267H1815V602Z" />
<glyph unicode="&#xbf;" horiz-adv-x="1013" d="M635 906V820Q635 733 616 678T553 582T436 503Q370 468 333 439T279 376T263 297Q263 225 321 178T481 130Q596 130 657 178T732 308H932Q919 150 807 54T487 -42Q353 -42 256 3T107 127T55 300Q55 403 107 474T273
604Q339 639 377 669T430 738T446 836V906H635ZM536 1281Q596 1281 634 1243T672 1151Q672 1095 635 1056T537 1017Q477 1017 437 1055T396 1150Q396 1204 436 1242T536 1281Z" />
<glyph unicode="&#xc0;" horiz-adv-x="1192" d="M49 0L485 1274H720L1143 0H943L844 304H352L249 0H49ZM400 450H797L599 1045L400 450ZM754 1432L365 1763L495 1868L847 1508L754 1432Z" />
<glyph unicode="&#xc1;" horiz-adv-x="1192" d="M49 0L485 1274H720L1143 0H943L844 304H352L249 0H49ZM400 450H797L599 1045L400 450ZM544 1427L451 1503L803 1863L932 1758L544 1427Z" />
<glyph unicode="&#xc2;" horiz-adv-x="1192" d="M49 0L485 1274H720L1143 0H943L844 304H352L249 0H49ZM400 450H797L599 1045L400 450ZM384 1401L271 1490L604 1799L939 1490L826 1401L571 1647H637L384 1401Z" />
<glyph unicode="&#xc3;" horiz-adv-x="1192" d="M49 0L485 1274H720L1143 0H943L844 304H352L249 0H49ZM400 450H797L599 1045L400 450ZM354 1427L277 1475Q301 1584 351 1643T470 1702Q498 1702 527 1692T616 1651Q674 1622 698 1612T746 1601Q775 1601 803 1625T852
1702L933 1648Q919 1581 890 1532T825 1455T751 1427Q718 1427 684 1440T588 1485Q536 1512 514 1521T470 1530Q439 1530 410 1508T354 1427Z" />
<glyph unicode="&#xc4;" horiz-adv-x="1192" d="M49 0L485 1274H720L1143 0H943L844 304H352L249 0H49ZM400 450H797L599 1045L400 450ZM782 1451Q733 1451 698 1483T663 1565Q663 1613 698 1646T782 1680Q834 1680 869 1647T904 1565Q904 1516 869 1484T782 1451ZM427
1451Q375 1451 342 1483T308 1563Q308 1613 341 1645T427 1678Q479 1678 513 1646T548 1563Q548 1516 514 1484T427 1451Z" />
<glyph unicode="&#xc5;" horiz-adv-x="1192" d="M49 0L485 1274H720L1143 0H943L844 304H352L249 0H49ZM400 450H797L599 1045L400 450ZM606 1383Q546 1383 497 1412T419 1490T390 1599Q390 1658 419 1707T497 1786T606 1816Q665 1816 714 1786T792 1707T822 1599Q822
1539 793 1490T714 1412T606 1383ZM606 1514Q642 1514 666 1538T691 1599Q691 1635 667 1659T606 1684Q570 1684 546 1660T521 1599Q521 1563 545 1539T606 1514Z" />
<glyph unicode="&#xc6;" horiz-adv-x="1717" d="M1565 1274V1110H962L996 1141V646L962 716H1528V552H962L996 604V82L962 167H1565V0H806V368L840 304H340L432 362L289 0H92L597 1274H1565ZM840 450L806 395L805 1138L840 1110H679L756 1179L449 406L400 450H840Z" />
<glyph unicode="&#xc7;" horiz-adv-x="1243" d="M647 -26Q478 -26 356 56T166 289T99 643Q99 857 170 1002T365 1222T647 1297Q858 1297 983 1193T1149 921L946 882Q910 993 832 1059T647 1126Q553 1126 475 1072T350 911T303 643Q303 495 342 384T457 210T647
148Q786 148 866 222T946 417H1151Q1151 277 1089 179T913 27T647 -26ZM459 -361L488 -288Q559 -324 615 -329T706 -315T743 -262Q746 -230 720 -206T649 -165T553 -135L627 66L723 55L654 -131L620 -72Q713 -90 773 -119T862 -187T888 -272Q884 -329 839 -364T727
-410T589 -410T459 -361Z" />
<glyph unicode="&#xc8;" horiz-adv-x="1145" d="M193 0V1274H993V1110H383V722H957V558H383V166H993V0H193ZM721 1432L332 1763L462 1868L814 1508L721 1432Z" />
<glyph unicode="&#xc9;" horiz-adv-x="1145" d="M193 0V1274H993V1110H383V722H957V558H383V166H993V0H193ZM511 1427L418 1503L770 1863L899 1758L511 1427Z" />
<glyph unicode="&#xca;" horiz-adv-x="1145" d="M193 0V1274H993V1110H383V722H957V558H383V166H993V0H193ZM351 1401L238 1490L571 1799L906 1490L793 1401L538 1647H604L351 1401Z" />
<glyph unicode="&#xcb;" horiz-adv-x="1145" d="M193 0V1274H993V1110H383V722H957V558H383V166H993V0H193ZM749 1451Q700 1451 665 1483T630 1565Q630 1613 665 1646T749 1680Q801 1680 836 1647T871 1565Q871 1516 836 1484T749 1451ZM394 1451Q342 1451 309
1483T275 1563Q275 1613 308 1645T394 1678Q446 1678 480 1646T515 1563Q515 1516 481 1484T394 1451Z" />
<glyph unicode="&#xcc;" horiz-adv-x="581" d="M195 0V1274H385V0H195ZM439 1432L50 1763L180 1868L532 1508L439 1432Z" />
<glyph unicode="&#xcd;" horiz-adv-x="581" d="M195 0V1274H385V0H195ZM229 1427L136 1503L488 1863L617 1758L229 1427Z" />
<glyph unicode="&#xce;" horiz-adv-x="581" d="M195 0V1274H385V0H195ZM69 1401L-44 1490L289 1799L624 1490L511 1401L256 1647H322L69 1401Z" />
<glyph unicode="&#xcf;" horiz-adv-x="581" d="M195 0V1274H385V0H195ZM467 1451Q418 1451 383 1483T348 1565Q348 1613 383 1646T467 1680Q519 1680 554 1647T589 1565Q589 1516 554 1484T467 1451ZM112 1451Q60 1451 27 1483T-7 1563Q-7 1613 26 1645T112 1678Q164
1678 198 1646T233 1563Q233 1516 199 1484T112 1451Z" />
<glyph unicode="&#xd0;" horiz-adv-x="1343" d="M44 719H673V555H44V719ZM195 1274H585Q779 1274 922 1196T1146 974T1226 637Q1226 444 1146 301T923 79T585 0H195V1274ZM385 1103V168H585Q721 168 818 229T969 396T1022 637Q1022 772 969 877T819 1043T585 1103H385Z" />
<glyph unicode="&#xd1;" horiz-adv-x="1396" d="M192 1274H409L1026 286H1011V1274H1201V0H999L352 1032H382V0H192V1274ZM447 1427L370 1475Q394 1584 444 1643T563 1702Q591 1702 620 1692T709 1651Q767 1622 791 1612T839 1601Q868 1601 896 1625T945 1702L1026
1648Q1012 1581 983 1532T918 1455T844 1427Q811 1427 777 1440T681 1485Q629 1512 607 1521T563 1530Q532 1530 503 1508T447 1427Z" />
<glyph unicode="&#xd2;" horiz-adv-x="1323" d="M661 -26Q498 -26 371 48T172 269T99 636Q99 860 171 1006T371 1225T661 1297Q825 1297 952 1224T1152 1004T1225 636Q1225 414 1153 267T953 47T661 -26ZM661 148Q831 148 929 273T1028 638Q1028 872 930 999T661
1127Q494 1127 395 999T296 636Q296 398 395 273T661 148ZM816 1432L427 1763L557 1868L909 1508L816 1432Z" />
<glyph unicode="&#xd3;" horiz-adv-x="1323" d="M661 -26Q498 -26 371 48T172 269T99 636Q99 860 171 1006T371 1225T661 1297Q825 1297 952 1224T1152 1004T1225 636Q1225 414 1153 267T953 47T661 -26ZM661 148Q831 148 929 273T1028 638Q1028 872 930 999T661
1127Q494 1127 395 999T296 636Q296 398 395 273T661 148ZM606 1427L513 1503L865 1863L994 1758L606 1427Z" />
<glyph unicode="&#xd4;" horiz-adv-x="1323" d="M661 -26Q498 -26 371 48T172 269T99 636Q99 860 171 1006T371 1225T661 1297Q825 1297 952 1224T1152 1004T1225 636Q1225 414 1153 267T953 47T661 -26ZM661 148Q831 148 929 273T1028 638Q1028 872 930 999T661
1127Q494 1127 395 999T296 636Q296 398 395 273T661 148ZM446 1401L333 1490L666 1799L1001 1490L888 1401L633 1647H699L446 1401Z" />
<glyph unicode="&#xd5;" horiz-adv-x="1323" d="M661 -26Q498 -26 371 48T172 269T99 636Q99 860 171 1006T371 1225T661 1297Q825 1297 952 1224T1152 1004T1225 636Q1225 414 1153 267T953 47T661 -26ZM661 148Q831 148 929 273T1028 638Q1028 872 930 999T661
1127Q494 1127 395 999T296 636Q296 398 395 273T661 148ZM416 1427L339 1475Q363 1584 413 1643T532 1702Q560 1702 589 1692T678 1651Q736 1622 760 1612T808 1601Q837 1601 865 1625T914 1702L995 1648Q981 1581 952 1532T887 1455T813 1427Q780 1427 746 1440T650
1485Q598 1512 576 1521T532 1530Q501 1530 472 1508T416 1427Z" />
<glyph unicode="&#xd6;" horiz-adv-x="1323" d="M661 -26Q498 -26 371 48T172 269T99 636Q99 860 171 1006T371 1225T661 1297Q825 1297 952 1224T1152 1004T1225 636Q1225 414 1153 267T953 47T661 -26ZM661 148Q831 148 929 273T1028 638Q1028 872 930 999T661
1127Q494 1127 395 999T296 636Q296 398 395 273T661 148ZM844 1451Q795 1451 760 1483T725 1565Q725 1613 760 1646T844 1680Q896 1680 931 1647T966 1565Q966 1516 931 1484T844 1451ZM489 1451Q437 1451 404 1483T370 1563Q370 1613 403 1645T489 1678Q541 1678
575 1646T610 1563Q610 1516 576 1484T489 1451Z" />
<glyph unicode="&#xd7;" horiz-adv-x="1069" d="M260 101L127 236L401 511L127 783L260 917L535 644L809 917L943 783L668 511L943 236L809 101L535 375L260 101Z" />
<glyph unicode="&#xd8;" horiz-adv-x="1323" d="M78 0L1061 1275H1225L239 0H78ZM661 -26Q497 -26 370 48T171 269T98 636Q98 860 170 1006T370 1225T661 1297Q824 1297 951 1224T1151 1004T1224 636Q1224 414 1152 267T952 47T661 -26ZM661 148Q830 148 928 273T1027
638Q1027 872 929 999T661 1127Q494 1127 395 999T295 636Q295 398 394 273T661 148Z" />
<glyph unicode="&#xd9;" horiz-adv-x="1338" d="M171 1274H361V469Q361 299 446 224T669 149Q806 149 891 224T976 469V1274H1166V469Q1166 309 1106 199T935 31T669 -26Q516 -26 404 31T232 198T171 469V1274ZM818 1432L429 1763L559 1868L911 1508L818 1432Z" />
<glyph unicode="&#xda;" horiz-adv-x="1338" d="M171 1274H361V469Q361 299 446 224T669 149Q806 149 891 224T976 469V1274H1166V469Q1166 309 1106 199T935 31T669 -26Q516 -26 404 31T232 198T171 469V1274ZM608 1427L515 1503L867 1863L996 1758L608 1427Z" />
<glyph unicode="&#xdb;" horiz-adv-x="1338" d="M171 1274H361V469Q361 299 446 224T669 149Q806 149 891 224T976 469V1274H1166V469Q1166 309 1106 199T935 31T669 -26Q516 -26 404 31T232 198T171 469V1274ZM448 1401L335 1490L668 1799L1003 1490L890 1401L635
1647H701L448 1401Z" />
<glyph unicode="&#xdc;" horiz-adv-x="1338" d="M171 1274H361V469Q361 299 446 224T669 149Q806 149 891 224T976 469V1274H1166V469Q1166 309 1106 199T935 31T669 -26Q516 -26 404 31T232 198T171 469V1274ZM845 1451Q796 1451 761 1483T726 1565Q726 1613
761 1646T845 1680Q897 1680 932 1647T967 1565Q967 1516 932 1484T845 1451ZM490 1451Q438 1451 405 1483T371 1563Q371 1613 404 1645T490 1678Q542 1678 576 1646T611 1563Q611 1516 577 1484T490 1451Z" />
<glyph unicode="&#xdd;" horiz-adv-x="1129" d="M16 1274H243L582 686H540L887 1274H1112L655 525V0H464V525L16 1274ZM504 1427L411 1503L763 1863L892 1758L504 1427Z" />
<glyph unicode="&#xde;" horiz-adv-x="1130" d="M190 0V1274H382V1021L339 1064H617Q830 1064 945 958T1060 665Q1060 480 945 375T617 269H339L382 311V0H190ZM382 392L339 435H617Q739 435 802 498T865 665Q865 770 802 835T617 900H339L382 944V392Z" />
<glyph unicode="&#xdf;" horiz-adv-x="1257" d="M1001 1076Q1001 1002 974 953T912 868T849 802T821 734Q821 695 854 665T935 604T1031 535T1112 440T1145 299Q1145 202 1096 129T968 16T794 -25Q737 -25 667 -9T539 35L541 192Q599 152 656 133T768 113Q829
113 866 136T921 196T938 276Q938 343 907 389T831 470T741 538T665 610T634 705Q634 759 663 798T730 872T797 948T826 1049Q826 1126 769 1174T610 1222Q493 1222 440 1150T386 916V0H195V920Q195 1066 244 1167T389 1320T621 1372Q743 1372 828 1334T957 1228T1001
1076Z" />
<glyph unicode="&#xe0;" horiz-adv-x="1130" d="M798 0L774 221V622Q774 740 725 793T570 847Q510 847 464 830T391 777T364 689H154Q154 795 206 861T351 957T570 988Q687 988 776 950T914 829T964 617V0H798ZM476 -26Q355 -26 275 16T156 128T116 275Q116 370
164 431T299 523T497 553Q574 553 647 539T791 502V387Q733 408 663 420T531 433Q440 433 379 397T318 275Q318 212 366 167T518 121Q594 121 652 155T742 242T774 346H820Q820 246 780 162T662 26T476 -26ZM714 1121L325 1452L455 1557L807 1197L714 1121Z" />
<glyph unicode="&#xe1;" horiz-adv-x="1130" d="M798 0L774 221V622Q774 740 725 793T570 847Q510 847 464 830T391 777T364 689H154Q154 795 206 861T351 957T570 988Q687 988 776 950T914 829T964 617V0H798ZM476 -26Q355 -26 275 16T156 128T116 275Q116 370
164 431T299 523T497 553Q574 553 647 539T791 502V387Q733 408 663 420T531 433Q440 433 379 397T318 275Q318 212 366 167T518 121Q594 121 652 155T742 242T774 346H820Q820 246 780 162T662 26T476 -26ZM504 1116L411 1192L763 1552L892 1447L504 1116Z" />
<glyph unicode="&#xe2;" horiz-adv-x="1130" d="M798 0L774 221V622Q774 740 725 793T570 847Q510 847 464 830T391 777T364 689H154Q154 795 206 861T351 957T570 988Q687 988 776 950T914 829T964 617V0H798ZM476 -26Q355 -26 275 16T156 128T116 275Q116 370
164 431T299 523T497 553Q574 553 647 539T791 502V387Q733 408 663 420T531 433Q440 433 379 397T318 275Q318 212 366 167T518 121Q594 121 652 155T742 242T774 346H820Q820 246 780 162T662 26T476 -26ZM344 1090L231 1179L564 1488L899 1179L786 1090L531
1336H597L344 1090Z" />
<glyph unicode="&#xe3;" horiz-adv-x="1130" d="M798 0L774 221V622Q774 740 725 793T570 847Q510 847 464 830T391 777T364 689H154Q154 795 206 861T351 957T570 988Q687 988 776 950T914 829T964 617V0H798ZM476 -26Q355 -26 275 16T156 128T116 275Q116 370
164 431T299 523T497 553Q574 553 647 539T791 502V387Q733 408 663 420T531 433Q440 433 379 397T318 275Q318 212 366 167T518 121Q594 121 652 155T742 242T774 346H820Q820 246 780 162T662 26T476 -26ZM313 1116L236 1164Q260 1273 310 1332T429 1391Q457
1391 486 1381T575 1340Q633 1311 657 1301T705 1290Q734 1290 762 1314T811 1391L892 1337Q878 1270 849 1221T784 1144T710 1116Q677 1116 643 1129T547 1174Q495 1201 473 1210T429 1219Q398 1219 369 1197T313 1116Z" />
<glyph unicode="&#xe4;" horiz-adv-x="1130" d="M798 0L774 221V622Q774 740 725 793T570 847Q510 847 464 830T391 777T364 689H154Q154 795 206 861T351 957T570 988Q687 988 776 950T914 829T964 617V0H798ZM476 -26Q355 -26 275 16T156 128T116 275Q116 370
164 431T299 523T497 553Q574 553 647 539T791 502V387Q733 408 663 420T531 433Q440 433 379 397T318 275Q318 212 366 167T518 121Q594 121 652 155T742 242T774 346H820Q820 246 780 162T662 26T476 -26ZM741 1140Q692 1140 657 1172T622 1254Q622 1302 657
1335T741 1369Q793 1369 828 1336T863 1254Q863 1205 828 1173T741 1140ZM386 1140Q334 1140 301 1172T267 1252Q267 1302 300 1334T386 1367Q438 1367 472 1335T507 1252Q507 1205 473 1173T386 1140Z" />
<glyph unicode="&#xe5;" horiz-adv-x="1130" d="M798 0L774 221V622Q774 740 725 793T570 847Q510 847 464 830T391 777T364 689H154Q154 795 206 861T351 957T570 988Q687 988 776 950T914 829T964 617V0H798ZM476 -26Q355 -26 275 16T156 128T116 275Q116 370
164 431T299 523T497 553Q574 553 647 539T791 502V387Q733 408 663 420T531 433Q440 433 379 397T318 275Q318 212 366 167T518 121Q594 121 652 155T742 242T774 346H820Q820 246 780 162T662 26T476 -26ZM565 1072Q505 1072 456 1101T378 1179T349 1288Q349
1347 378 1396T456 1475T565 1505Q624 1505 673 1475T751 1396T781 1288Q781 1228 752 1179T673 1101T565 1072ZM565 1203Q601 1203 625 1227T650 1288Q650 1324 626 1348T565 1373Q529 1373 505 1349T480 1288Q480 1252 504 1228T565 1203Z" />
<glyph unicode="&#xe6;" horiz-adv-x="1707" d="M789 302H764V622Q764 738 714 792T562 847Q505 847 460 830T390 777T364 689H154Q154 795 205 861T342 957T527 988Q653 988 738 943T868 810T912 593V415L789 302ZM469 -26Q357 -26 278 14T158 124T116 278Q116
370 163 431T295 522T485 553Q561 553 636 538T782 502V387Q724 408 651 420T523 433Q437 433 378 397T318 279Q318 213 364 167T501 121Q581 121 640 155T731 240T764 346H888Q888 255 838 170T695 29T469 -26ZM1216 -26Q1085 -26 984 40T826 222T769 485Q769
632 825 745T981 923T1210 988Q1319 988 1398 943T1527 820T1594 647T1601 447H917V557H1471L1425 527Q1428 581 1419 635T1387 734T1319 807T1208 835Q1125 835 1069 793T983 681T953 526V449Q953 356 980 284T1064 171T1207 129Q1286 129 1341 167T1410 285H1605Q1591
192 1536 122T1398 13T1216 -26Z" />
<glyph unicode="&#xe7;" horiz-adv-x="1043" d="M545 -26Q427 -26 325 37T161 214T99 482Q99 644 161 756T325 928T545 988Q632 988 700 961T817 887T896 782T939 662L746 652Q725 727 673 772T543 818Q478 818 421 782T328 671T292 482Q292 376 325 301T415 186T543
146Q645 146 695 195T746 332H939Q939 231 892 150T757 22T545 -26ZM345 -360L374 -287Q445 -323 501 -328T592 -314T629 -261Q632 -229 606 -205T535 -164T439 -134L513 67L609 56L540 -130L506 -71Q599 -89 659 -118T748 -186T774 -271Q770 -328 725 -363T613
-409T475 -409T345 -360Z" />
<glyph unicode="&#xe8;" horiz-adv-x="1041" d="M540 -26Q416 -26 316 38T158 216T99 480Q99 639 157 752T315 927T540 988Q652 988 732 943T861 821T928 647T935 447H251V557H805L759 527Q762 581 754 635T721 734T654 807T543 835Q459 835 403 793T317 681T288
526V449Q288 356 316 284T399 171T540 129Q623 129 677 168T745 285H939Q924 191 870 121T732 13T540 -26ZM670 1121L281 1452L411 1557L763 1197L670 1121Z" />
<glyph unicode="&#xe9;" horiz-adv-x="1041" d="M540 -26Q416 -26 316 38T158 216T99 480Q99 639 157 752T315 927T540 988Q652 988 732 943T861 821T928 647T935 447H251V557H805L759 527Q762 581 754 635T721 734T654 807T543 835Q459 835 403 793T317 681T288
526V449Q288 356 316 284T399 171T540 129Q623 129 677 168T745 285H939Q924 191 870 121T732 13T540 -26ZM460 1116L367 1192L719 1552L848 1447L460 1116Z" />
<glyph unicode="&#xea;" horiz-adv-x="1041" d="M540 -26Q416 -26 316 38T158 216T99 480Q99 639 157 752T315 927T540 988Q652 988 732 943T861 821T928 647T935 447H251V557H805L759 527Q762 581 754 635T721 734T654 807T543 835Q459 835 403 793T317 681T288
526V449Q288 356 316 284T399 171T540 129Q623 129 677 168T745 285H939Q924 191 870 121T732 13T540 -26ZM300 1346L187 1435L520 1744L855 1435L742 1346L487 1592H553L300 1346Z" />
<glyph unicode="&#xeb;" horiz-adv-x="1041" d="M540 -26Q416 -26 316 38T158 216T99 480Q99 639 157 752T315 927T540 988Q652 988 732 943T861 821T928 647T935 447H251V557H805L759 527Q762 581 754 635T721 734T654 807T543 835Q459 835 403 793T317 681T288
526V449Q288 356 316 284T399 171T540 129Q623 129 677 168T745 285H939Q924 191 870 121T732 13T540 -26ZM697 1140Q648 1140 613 1172T578 1254Q578 1302 613 1335T697 1369Q749 1369 784 1336T819 1254Q819 1205 784 1173T697 1140ZM342 1140Q290 1140 257 1172T223
1252Q223 1302 256 1334T342 1367Q394 1367 428 1335T463 1252Q463 1205 429 1173T342 1140Z" />
<glyph unicode="&#xec;" horiz-adv-x="622" d="M210 0V965H400V0H210ZM709 1121L320 1452L450 1557L802 1197L709 1121Z" />
<glyph unicode="&#xed;" horiz-adv-x="622" d="M210 0V965H400V0H210ZM243 1372L150 1448L502 1808L631 1703L243 1372Z" />
<glyph unicode="&#xee;" horiz-adv-x="622" d="M210 0V965H400V0H210ZM83 1090L-30 1179L303 1488L638 1179L525 1090L270 1336H336L83 1090Z" />
<glyph unicode="&#xef;" horiz-adv-x="622" d="M210 0V965H400V0H210ZM736 1140Q687 1140 652 1172T617 1254Q617 1302 652 1335T736 1369Q788 1369 823 1336T858 1254Q858 1205 823 1173T736 1140ZM381 1140Q329 1140 296 1172T262 1252Q262 1302 295 1334T381
1367Q433 1367 467 1335T502 1252Q502 1205 468 1173T381 1140Z" />
<glyph unicode="&#xf0;" horiz-adv-x="1127" d="M548 -26Q430 -26 331 37T171 216T111 487Q111 639 168 751T320 926T527 988Q639 988 724 927T857 761T905 518H840Q838 621 798 687T696 786T570 818Q495 818 435 778T340 662T304 483Q304 381 339 305T435 188T573
146Q656 146 712 192T801 319T838 498Q844 657 823 801T748 1075T607 1316T393 1523L546 1634Q662 1536 751 1417T901 1166T992 897T1024 625Q1024 472 987 351T884 147T732 19T548 -26ZM433 1115L377 1234L973 1527L1029 1408L433 1115Z" />
<glyph unicode="&#xf1;" horiz-adv-x="1224" d="M869 0V564Q869 689 810 753T649 818Q569 818 510 775T418 648T385 444H317Q317 621 362 742T493 925T697 988Q813 988 893 936T1016 789T1058 564V0H869ZM195 0V962H360L385 754V0H195ZM382 1127L305 1175Q329
1284 379 1343T498 1402Q526 1402 555 1392T644 1351Q702 1322 726 1312T774 1301Q803 1301 831 1325T880 1402L961 1348Q947 1281 918 1232T853 1155T779 1127Q746 1127 712 1140T616 1185Q564 1212 542 1221T498 1230Q467 1230 438 1208T382 1127Z" />
<glyph unicode="&#xf2;" horiz-adv-x="1110" d="M557 -26Q426 -26 323 31T159 201T99 480Q99 649 159 761T322 931T557 988Q686 988 789 931T951 762T1011 480Q1011 314 952 201T789 31T557 -26ZM551 140Q634 140 694 180T787 296T820 480Q820 644 754 734T562
824Q478 824 418 784T325 667T292 480Q292 319 359 230T551 140ZM704 1121L315 1452L445 1557L797 1197L704 1121Z" />
<glyph unicode="&#xf3;" horiz-adv-x="1110" d="M557 -26Q426 -26 323 31T159 201T99 480Q99 649 159 761T322 931T557 988Q686 988 789 931T951 762T1011 480Q1011 314 952 201T789 31T557 -26ZM551 140Q634 140 694 180T787 296T820 480Q820 644 754 734T562
824Q478 824 418 784T325 667T292 480Q292 319 359 230T551 140ZM494 1116L401 1192L753 1552L882 1447L494 1116Z" />
<glyph unicode="&#xf4;" horiz-adv-x="1110" d="M557 -26Q426 -26 323 31T159 201T99 480Q99 649 159 761T322 931T557 988Q686 988 789 931T951 762T1011 480Q1011 314 952 201T789 31T557 -26ZM551 140Q634 140 694 180T787 296T820 480Q820 644 754 734T562
824Q478 824 418 784T325 667T292 480Q292 319 359 230T551 140ZM334 1346L221 1435L554 1744L889 1435L776 1346L521 1592H587L334 1346Z" />
<glyph unicode="&#xf5;" horiz-adv-x="1110" d="M557 -26Q426 -26 323 31T159 201T99 480Q99 649 159 761T322 931T557 988Q686 988 789 931T951 762T1011 480Q1011 314 952 201T789 31T557 -26ZM551 140Q634 140 694 180T787 296T820 480Q820 644 754 734T562
824Q478 824 418 784T325 667T292 480Q292 319 359 230T551 140ZM304 1116L227 1164Q251 1273 301 1332T420 1391Q448 1391 477 1381T566 1340Q624 1311 648 1301T696 1290Q725 1290 753 1314T802 1391L883 1337Q869 1270 840 1221T775 1144T701 1116Q668 1116
634 1129T538 1174Q486 1201 464 1210T420 1219Q389 1219 360 1197T304 1116Z" />
<glyph unicode="&#xf6;" horiz-adv-x="1110" d="M557 -26Q426 -26 323 31T159 201T99 480Q99 649 159 761T322 931T557 988Q686 988 789 931T951 762T1011 480Q1011 314 952 201T789 31T557 -26ZM551 140Q634 140 694 180T787 296T820 480Q820 644 754 734T562
824Q478 824 418 784T325 667T292 480Q292 319 359 230T551 140ZM732 1140Q683 1140 648 1172T613 1254Q613 1302 648 1335T732 1369Q784 1369 819 1336T854 1254Q854 1205 819 1173T732 1140ZM377 1140Q325 1140 292 1172T258 1252Q258 1302 291 1334T377 1367Q429
1367 463 1335T498 1252Q498 1205 464 1173T377 1140Z" />
<glyph unicode="&#xf7;" horiz-adv-x="1035" d="M151 449V615H883V449H151ZM516 114Q466 114 433 146T399 225Q399 273 432 305T516 338Q567 338 601 306T635 225Q635 179 601 147T516 114ZM516 722Q466 722 433 753T399 834Q399 880 432 912T516 945Q567 945
601 913T635 834Q635 785 601 754T516 722Z" />
<glyph unicode="&#xf8;" horiz-adv-x="1110" d="M557 -26Q426 -26 323 31T159 201T99 480Q99 649 159 761T322 931T557 988Q686 988 789 931T951 762T1011 480Q1011 314 952 201T789 31T557 -26ZM551 140Q634 140 694 180T787 296T820 480Q820 644 754 734T562
824Q478 824 418 784T325 667T292 480Q292 319 359 230T551 140ZM87 0L895 968H1072L261 0H87Z" />
<glyph unicode="&#xf9;" horiz-adv-x="1229" d="M843 965H1034V0H843V965ZM171 965H361V369Q361 260 414 204T565 148Q647 148 709 191T807 313T843 500H904Q904 331 858 216T729 42T535 -18Q429 -18 347 21T218 141T171 352V965ZM781 1121L392 1452L522 1557L874
1197L781 1121Z" />
<glyph unicode="&#xfa;" horiz-adv-x="1229" d="M843 965H1034V0H843V965ZM171 965H361V369Q361 260 414 204T565 148Q647 148 709 191T807 313T843 500H904Q904 331 858 216T729 42T535 -18Q429 -18 347 21T218 141T171 352V965ZM571 1116L478 1192L830 1552L959
1447L571 1116Z" />
<glyph unicode="&#xfb;" horiz-adv-x="1229" d="M843 965H1034V0H843V965ZM171 965H361V369Q361 260 414 204T565 148Q647 148 709 191T807 313T843 500H904Q904 331 858 216T729 42T535 -18Q429 -18 347 21T218 141T171 352V965ZM411 1090L298 1179L631 1488L966
1179L853 1090L598 1336H664L411 1090Z" />
<glyph unicode="&#xfc;" horiz-adv-x="1229" d="M843 965H1034V0H843V965ZM171 965H361V369Q361 260 414 204T565 148Q647 148 709 191T807 313T843 500H904Q904 331 858 216T729 42T535 -18Q429 -18 347 21T218 141T171 352V965ZM808 1140Q759 1140 724 1172T689
1254Q689 1302 724 1335T808 1369Q860 1369 895 1336T930 1254Q930 1205 895 1173T808 1140ZM453 1140Q401 1140 368 1172T334 1252Q334 1302 367 1334T453 1367Q505 1367 539 1335T574 1252Q574 1205 540 1173T453 1140Z" />
<glyph unicode="&#xfd;" horiz-adv-x="963" d="M42 962H255L545 166H506L739 962H933L568 -185Q518 -341 440 -418T243 -496Q177 -496 117 -479T-7 -429V-258Q47 -296 97 -313T201 -330Q255 -330 293 -298T358 -212T404 -95L433 0L42 962ZM421 1116L328 1192L680
1552L809 1447L421 1116Z" />
<glyph unicode="&#xfe;" horiz-adv-x="1200" d="M651 -26Q546 -26 469 21T352 161T311 391H385Q385 312 419 258T508 175T627 146Q693 146 755 183T858 296T898 482Q898 588 863 663T766 778T629 818Q565 818 509 788T419 699T385 556H311Q311 701 357 797T483
940T658 988Q771 988 870 928T1030 754T1092 482Q1092 323 1030 209T868 35T651 -26ZM195 -472V1274H385V-472H195Z" />
<glyph unicode="&#xff;" horiz-adv-x="963" d="M42 962H255L545 166H506L739 962H933L568 -185Q518 -341 440 -418T243 -496Q177 -496 117 -479T-7 -429V-258Q47 -296 97 -313T201 -330Q255 -330 293 -298T358 -212T404 -95L433 0L42 962ZM659 1140Q610 1140 575
1172T540 1254Q540 1302 575 1335T659 1369Q711 1369 746 1336T781 1254Q781 1205 746 1173T659 1140ZM304 1140Q252 1140 219 1172T185 1252Q185 1302 218 1334T304 1367Q356 1367 390 1335T425 1252Q425 1205 391 1173T304 1140Z" />
<glyph unicode="&#x2013;" horiz-adv-x="990" d="M110 508V674H880V508H110Z" />
<glyph unicode="&#x2014;" horiz-adv-x="1486" d="M110 508V674H1378V508H110Z" />
<glyph unicode="&#x2018;" horiz-adv-x="475" d="M232 804Q185 804 149 829T93 895T72 987Q72 1070 127 1147T278 1274L412 1201Q351 1171 307 1132T247 1039Q298 1033 331 1005T365 927Q365 877 329 841T232 804Z" />
<glyph unicode="&#x2019;" horiz-adv-x="475" d="M176 804L42 878Q103 908 147 947T206 1038Q155 1045 121 1075T87 1153Q87 1205 126 1239T224 1274Q273 1274 308 1249T361 1183T380 1092Q380 1008 325 932T176 804Z" />
<glyph unicode="&#x201a;" horiz-adv-x="507" d="M214 -241L72 -170Q133 -139 177 -101T235 -10Q187 -3 153 27T119 106Q119 156 156 190T252 225Q325 225 368 173T412 49Q412 -34 361 -113T214 -241Z" />
<glyph unicode="&#x201c;" horiz-adv-x="879" d="M604 804Q557 804 521 829T465 895T444 987Q444 1070 499 1147T650 1274L784 1201Q723 1171 679 1132T619 1039Q670 1033 703 1005T737 927Q737 877 701 841T604 804ZM232 804Q185 804 149 829T93 895T72 987Q72
1070 127 1147T278 1274L412 1201Q351 1171 307 1132T247 1039Q298 1033 331 1005T365 927Q365 877 329 841T232 804Z" />
<glyph unicode="&#x201d;" horiz-adv-x="869" d="M570 804L436 878Q497 908 541 947T600 1038Q549 1045 515 1075T481 1153Q481 1205 520 1239T618 1274Q667 1274 702 1249T755 1183T774 1092Q774 1008 719 932T570 804ZM206 804L72 878Q133 908 177 947T236 1038Q185
1045 151 1075T117 1153Q117 1205 156 1239T254 1274Q303 1274 338 1249T391 1183T410 1092Q410 1008 355 932T206 804Z" />
<glyph unicode="&#x201e;" horiz-adv-x="940" d="M647 -241L505 -170Q566 -139 610 -101T668 -10Q620 -3 586 27T552 106Q552 156 589 190T685 225Q758 225 801 173T845 49Q845 -34 794 -113T647 -241ZM214 -241L72 -170Q133 -139 177 -101T235 -10Q187 -3 153
27T119 106Q119 156 156 190T252 225Q325 225 368 173T412 49Q412 -34 361 -113T214 -241Z" />
<glyph unicode="&#x2022;" horiz-adv-x="593" d="M57 571Q57 673 127 744T305 815Q413 815 487 744T562 571Q562 471 488 403T305 334Q198 334 128 403T57 571Z" />
<glyph unicode="&#x2039;" horiz-adv-x="743" d="M277 505L645 870L510 964L99 534L510 104L645 198L277 563V505Z" />
<glyph unicode="&#x203a;" horiz-adv-x="743" d="M233 104L99 198L466 563V505L99 870L233 964L645 534L233 104Z" />
</font>
</defs>
</svg>
