<svg class="animated" id="freepik_stories-empty" xmlns="http://www.w3.org/2000/svg" viewBox="0 0 500 500" version="1.1" xmlns:xlink="http://www.w3.org/1999/xlink" xmlns:svgjs="http://svgjs.com/svgjs"><style>svg#freepik_stories-empty:not(.animated) .animable {opacity: 0;}svg#freepik_stories-empty.animated #freepik--Moth--inject-32 {animation: 1s 1 forwards ease-in slideUp;animation-delay: 0s;}            @keyframes slideUp {                0% {                    opacity: 0;                    transform: translateY(30px);                }                100% {                    opacity: 1;                    transform: inherit;                }            }        </style><g id="freepik--Floor--inject-32" class="animable" style="transform-origin: 253.74px 341.76px;"><ellipse id="freepik--floor--inject-32" cx="253.74" cy="341.76" rx="235.29" ry="135.85" style="fill: rgb(245, 245, 245); transform-origin: 253.74px 341.76px;" class="animable"></ellipse></g><g id="freepik--Shadow--inject-32" class="animable" style="transform-origin: 255.27px 365.35px;"><ellipse id="freepik--shadow--inject-32" cx="408.88" cy="369.84" rx="66.75" ry="38.54" style="fill: rgb(224, 224, 224); transform-origin: 408.88px 369.84px;" class="animable"></ellipse><polygon id="freepik--shadow--inject-32" points="239.95 390.63 164.65 347.14 250.72 297.45 326.03 340.93 239.95 390.63" style="fill: rgb(224, 224, 224); transform-origin: 245.34px 344.04px;" class="animable"></polygon><polygon id="freepik--shadow--inject-32" points="34.91 377.18 132.03 433.25 213.49 386.23 116.37 330.16 34.91 377.18" style="fill: rgb(224, 224, 224); transform-origin: 124.2px 381.705px;" class="animable"></polygon></g><g id="freepik--Shelf--inject-32" class="animable" style="transform-origin: 110.3px 124.145px;"><g id="freepik--shelf--inject-32" class="animable" style="transform-origin: 110.3px 124.145px;"><g id="freepik--shelf--inject-32" class="animable" style="transform-origin: 110.3px 128.797px;"><path d="M178.52,113.63v-5.52h0a1.87,1.87,0,0,0-1.1-1.47L144.09,87.52a5.7,5.7,0,0,0-5.12,0l-95.79,55a1.87,1.87,0,0,0-1.1,1.47h0v5.52h0a1.86,1.86,0,0,0,1.1,1.47L76.5,170.07a5.7,5.7,0,0,0,5.12,0l95.79-55a1.86,1.86,0,0,0,1.1-1.47Z" style="fill: rgb(240, 240, 240); transform-origin: 110.3px 128.795px;" id="elw1l0ajooc8" class="animable"></path><path d="M43.18,145.43,76.5,164.55a5.64,5.64,0,0,0,5.12,0l95.79-55c1.41-.81,1.41-2.12,0-2.94L144.09,87.52a5.7,5.7,0,0,0-5.12,0l-95.79,55C41.77,143.31,41.77,144.62,43.18,145.43Z" style="fill: rgb(250, 250, 250); transform-origin: 110.295px 126.039px;" id="elncarmnsqki" class="animable"></path><path d="M79.06,165.17v5.51a5.35,5.35,0,0,1-2.56-.61L43.18,151a1.86,1.86,0,0,1-1.1-1.47h0V144h0a1.43,1.43,0,0,1,.21-.63c-.39.71-.1,1.53.89,2.1L76.5,164.56A5.21,5.21,0,0,0,79.06,165.17Z" style="fill: rgb(224, 224, 224); transform-origin: 60.57px 157.025px;" id="elhfzx7h889ck" class="animable"></path></g><g id="freepik--Book--inject-32" class="animable" style="transform-origin: 135.015px 108.71px;"><polygon points="96.96 118.53 125.19 134.62 171.82 107.86 143.6 91.76 96.96 118.53" style="fill: rgb(224, 224, 224); transform-origin: 134.39px 113.19px;" id="elk3ympbz2ejp" class="animable"></polygon><path d="M125.51,133.4,98.28,117.77a11.27,11.27,0,0,0-.15-7.06l27.06,15.46S125.71,127.88,125.51,133.4Z" style="fill: rgb(255, 255, 255); transform-origin: 111.843px 122.055px;" id="elyvoyw3hlgn9" class="animable"></path><path d="M123.8,124a5.75,5.75,0,0,1,2.62,4.5v5.26c0,1.66-1.18,2.33-2.62,1.51L97,119.83v-1.3l26.48,15.1c.87.5,1.57.09,1.57-.9l0-4.88a3.44,3.44,0,0,0-1.57-2.7L97,110v-1.48Z" style="fill: rgb(235, 235, 235); transform-origin: 111.71px 122.07px;" id="elhu4x8jgv2fe" class="animable"></path><path d="M97,108.57,143.6,81.8l26.83,15.4a5.74,5.74,0,0,1,2.62,4.51V107a1.8,1.8,0,0,1-.77,1.68l-46.63,26.77a1.84,1.84,0,0,0,.76-1.68v-5.27a5.71,5.71,0,0,0-2.62-4.5Z" style="fill: rgb(250, 250, 250); transform-origin: 135.03px 108.625px;" id="eli9spbrbq6k9" class="animable"></path><path d="M125.65,125.91a5.2,5.2,0,0,1,.77,2.56v5.27a1.84,1.84,0,0,1-.76,1.68l46.63-26.77a1.8,1.8,0,0,0,.77-1.68v-5.26a5.2,5.2,0,0,0-.77-2.56Z" style="fill: rgb(240, 240, 240); transform-origin: 149.36px 117.285px;" id="elrvta5b17a7l" class="animable"></path></g><g id="freepik--book--inject-32" class="animable" style="transform-origin: 88.6021px 112.48px;"><polygon points="68.26 78.48 67.99 82.04 99.51 98.95 100.22 96.87 68.26 78.48" style="fill: rgb(235, 235, 235); transform-origin: 84.105px 88.715px;" id="elryao16r186h" class="animable"></polygon><polygon points="99.8 97.7 69.27 80.08 63.96 83.14 95.09 101.35 99.8 97.7" style="fill: rgb(255, 255, 255); transform-origin: 81.88px 90.715px;" id="elabj7c700zeh" class="animable"></polygon><path d="M89.36,99.46l-3,35.38a2.5,2.5,0,0,0,1.13,2l17.71,10.25a2.1,2.1,0,0,0,.92.26l-11-44.81a2.28,2.28,0,0,1-.92-.25l-1.27-.74Z" style="fill: rgb(224, 224, 224); transform-origin: 96.24px 123.405px;" id="elpylokswn9v" class="animable"></path><path d="M96.44,102.25l3.16-2.71,2.31-2c.24-.38.52-.66.37-1l10.86,44.48,0,0c.15.31.19,1-.24,1.26l-5.47,4.68a2.35,2.35,0,0,1-1.35.26l-11-44.81A2.41,2.41,0,0,0,96.44,102.25Z" style="fill: rgb(240, 240, 240); transform-origin: 104.162px 121.887px;" id="elpp1qfam4o3p" class="animable"></path><path d="M101.92,96.25c.62.36.47.76,0,1.3l-5.48,4.69a2.44,2.44,0,0,1-2.26,0l-4.82-2.78c-.63-.36-.74-.88-.25-1.16a2.28,2.28,0,0,1,2,.14l3.8,2.2a.83.83,0,0,0,.75,0l4-3.48c.21-.12.21-.31,0-.43L68.26,78.48l1.5-.87Z" style="fill: rgb(250, 250, 250); transform-origin: 85.2953px 90.0637px;" id="elpwdk0ugva6p" class="animable"></path></g><g id="freepik--book--inject-32" class="animable" style="transform-origin: 70.03px 119.616px;"><polygon points="59.16 80.19 89.19 97.53 89.19 154.67 59.16 137.32 59.16 80.19" style="fill: rgb(235, 235, 235); transform-origin: 74.175px 117.43px;" id="elqzs6tkl7kt8" class="animable"></polygon><path d="M88.22,98.48,59.16,81.8a12.28,12.28,0,0,1-6.65,3.64l28.82,16.61S83.19,101.61,88.22,98.48Z" style="fill: rgb(255, 255, 255); transform-origin: 70.365px 91.925px;" id="eljpyivjzlq3p" class="animable"></path><path d="M78.54,102a6.23,6.23,0,0,0,5.58,0L89,99.14c1.54-.89,1.54-2.32,0-3.21L60.37,79.49l-1.21.7L87.33,96.46a1,1,0,0,1,0,1.92L82.78,101a3.73,3.73,0,0,1-3.35,0L51.27,84.72l-1.38.79Z" style="fill: rgb(250, 250, 250); transform-origin: 70.0225px 91.0748px;" id="el13r2jp8tceq9" class="animable"></path><path d="M49.9,85.51v57.13l28.64,16.44a6.23,6.23,0,0,0,5.58,0l4.9-2.81a1.94,1.94,0,0,0,1.15-1.61V97.53A1.92,1.92,0,0,1,89,99.13L84.12,102a6.23,6.23,0,0,1-5.58,0Z" style="fill: rgb(235, 235, 235); transform-origin: 70.035px 122.625px;" id="el8hpbsrf1o3b" class="animable"></path><path d="M81.33,102.61a5.75,5.75,0,0,0,2.79-.66L89,99.13a1.92,1.92,0,0,0,1.15-1.6v57.13A1.94,1.94,0,0,1,89,156.27l-4.9,2.81a5.75,5.75,0,0,1-2.79.66Z" style="fill: rgb(240, 240, 240); transform-origin: 85.73px 128.636px;" id="elbktx6czvgyb" class="animable"></path></g></g></g><g id="freepik--Plants--inject-32" class="animable" style="transform-origin: 347.216px 274.406px;"><g id="freepik--plants--inject-32" class="animable" style="transform-origin: 347.216px 274.406px;"><path d="M322.57,310c-.15-2.53-.49-5.56-.9-9.08-1.53-13.36-3.62-31.66,1.92-49.19,3.37-10.67,11.49-23.32,24.17-26.83,2.82-.78,9.64-1.93,12.26,4.12a8.52,8.52,0,0,1,.65,2.75c.27,3.84-1.46,7.23-3.38,10.32-2.21,3.59-4.77,7-7.25,10.32-2.34,3.14-4.77,6.38-6.89,9.74a84.16,84.16,0,0,0-6,11.43l-.81-.35a84.82,84.82,0,0,1,6-11.55c2.13-3.39,4.57-6.65,6.93-9.8,2.46-3.3,5-6.7,7.2-10.25,1.84-3,3.5-6.21,3.25-9.8a7.58,7.58,0,0,0-.58-2.46c-2.34-5.41-8.62-4.33-11.21-3.62-12.34,3.42-20.27,15.8-23.57,26.24-5.48,17.36-3.4,35.55-1.88,48.83.4,3.53.75,6.58.9,9.13Z" style="fill: rgb(37, 128, 194); transform-origin: 340.338px 267.133px;" id="elx3m94jmlzi" class="animable"></path><path d="M323.47,324.54a.71.71,0,0,1-.2,0,1.25,1.25,0,0,1-.89-.69,2.3,2.3,0,0,1,0-1.53,9.93,9.93,0,0,0,0-2.89c0-.54-.09-1.11-.09-1.62V311.6a75.44,75.44,0,0,1,9.57-31.73c4.88-8.49,10.28-14.14,17-17.8a32.15,32.15,0,0,1,11.7-3.75,14.68,14.68,0,0,1,10.22,2.7c3.05,2.41,4.42,6.54,3.27,9.81-.81,2.29-2.66,4-4.55,5.55-3.37,2.75-7.05,5.21-10.6,7.59-2.95,2-6,4-8.85,6.2a84.23,84.23,0,0,0-21.53,24.65c-.9,1.55-1.75,3.15-2.53,4.75l-.32.63a14.79,14.79,0,0,0-.82,1.77c-.05.13-.1.4-.17.71a3.73,3.73,0,0,1-.53,1.61A1,1,0,0,1,323.47,324.54ZM362,259.15c-.45,0-.9,0-1.36.06a30.88,30.88,0,0,0-11.35,3.64c-6.56,3.57-11.85,9.12-16.65,17.46a74.64,74.64,0,0,0-9.45,31.33v6.15c0,.48,0,1,.09,1.55a10.41,10.41,0,0,1,0,3.16,1.59,1.59,0,0,0,0,1,.38.38,0,0,0,.26.2,4.06,4.06,0,0,0,.36-1.17,6.12,6.12,0,0,1,.2-.82,15.11,15.11,0,0,1,.86-1.87l.31-.62c.8-1.62,1.66-3.23,2.56-4.8a87.73,87.73,0,0,1,6.21-9.32,84.39,84.39,0,0,1,15.55-15.59c2.88-2.2,5.94-4.25,8.9-6.23,3.54-2.37,7.19-4.82,10.54-7.54,1.78-1.45,3.53-3.08,4.27-5.16,1-2.93-.23-6.64-3-8.83A13.15,13.15,0,0,0,362,259.15Z" style="fill: rgb(37, 128, 194); transform-origin: 348.352px 291.389px;" id="elrma4gt8gcie" class="animable"></path><path d="M322.72,316l-.11,0a.43.43,0,0,1-.32-.53c8.25-32.9,31.06-47.58,43.24-51.07a.44.44,0,0,1,.54.3.45.45,0,0,1-.3.55c-12,3.43-34.47,17.92-42.62,50.43A.45.45,0,0,1,322.72,316Z" style="fill: rgb(37, 128, 194); transform-origin: 344.181px 290.192px;" id="el6ldosbu67pn" class="animable"></path><path d="M322.67,289h0a.45.45,0,0,1-.41-.48c2.63-35.53,25.87-55,28.51-57.09a.43.43,0,0,1,.62.07.44.44,0,0,1-.07.62c-2.61,2.07-25.58,21.31-28.17,56.47A.46.46,0,0,1,322.67,289Z" style="fill: rgb(37, 128, 194); transform-origin: 336.873px 260.165px;" id="elyw6g7gpl26" class="animable"></path></g></g><g id="freepik--Bookshelf--inject-32" class="animable" style="transform-origin: 251.994px 253.743px;"><g id="freepik--bookshelf--inject-32" class="animable" style="transform-origin: 251.994px 253.743px;"><path d="M319.9,165.09,264.29,133a3,3,0,0,0-3-.29l-4,2.31a3,3,0,0,0-1.27,2.77V290a9.45,9.45,0,0,0,4.28,7.4l55.6,32.05a3,3,0,0,0,3,.3l4-2.32a3,3,0,0,0,1.25-2.76V172.49A9.44,9.44,0,0,0,319.9,165.09Z" style="fill: rgb(38, 50, 56); transform-origin: 290.085px 231.228px;" id="el1w0reeh7xrh" class="animable"></path><path d="M268,292.61l-4,2.31v12.66a2.36,2.36,0,0,0,1.07,1.85l1.87,1.08a2.37,2.37,0,0,0,2.14,0l1.87-1.08a3.8,3.8,0,0,0,1.47-1.79l3.61-10.4Z" style="fill: rgb(38, 50, 56); transform-origin: 270.015px 301.688px;" id="els9sedlvb67k" class="animable"></path><path d="M264,307.58a2.36,2.36,0,0,0,1.07,1.85l1.87,1.08a1,1,0,0,0,1.47-.55L272,299.55l-8-4.63Z" style="fill: rgb(55, 71, 79); transform-origin: 268px 302.787px;" id="el8np2es5ugke" class="animable"></path><path d="M308.12,315.7l-4,2.32v12.65a2.37,2.37,0,0,0,1.06,1.86l1.88,1.08a2.35,2.35,0,0,0,2.13,0l1.88-1.08a3.8,3.8,0,0,0,1.47-1.79l3.6-10.41Z" style="fill: rgb(38, 50, 56); transform-origin: 310.13px 324.783px;" id="elqcf7zymh4d" class="animable"></path><path d="M304.12,330.67a2.37,2.37,0,0,0,1.06,1.86l1.88,1.08a1,1,0,0,0,1.47-.55l3.61-10.41-8-4.63Z" style="fill: rgb(55, 71, 79); transform-origin: 308.13px 325.887px;" id="el3to1yg4wlhd" class="animable"></path><path d="M260.56,135.43l55.6,32a9.47,9.47,0,0,1,4.28,7.41V327.05a2.61,2.61,0,0,1-4.28,2.47l-55.6-32.06a9.44,9.44,0,0,1-4.27-7.4V137.89a2.6,2.6,0,0,1,4.27-2.46Z" style="fill: rgb(55, 71, 79); transform-origin: 288.364px 232.473px;" id="el1ev9ae7mmiv" class="animable"></path><g id="freepik--Bottom--inject-32" class="animable" style="transform-origin: 251.99px 335.375px;"><polygon points="179.82 343.48 239.96 378.2 324.16 329.59 320.15 327.27 260.01 292.55 179.82 338.85 179.82 343.48" style="fill: rgb(69, 90, 100); transform-origin: 251.99px 335.375px;" id="el7xpuoa7pq6d" class="animable"></polygon><polygon points="239.96 378.2 239.96 373.57 324.16 324.96 324.16 329.59 239.96 378.2" style="fill: rgb(38, 50, 56); transform-origin: 282.06px 351.58px;" id="elg9ywzacjen5" class="animable"></polygon></g><path d="M240.34,371.46l-.61-.41C250.4,354.9,250.33,327,249.46,320c-.07-.47-.12-.76-.13-.87l.73-.12c0,.22.08.48.12.79.78,4.95,5.19,31.84,10.41,40l-.62.4c-4.13-6.41-7.66-23.71-9.43-33.69C250.65,337.84,249,358.43,240.34,371.46Z" style="fill: rgb(250, 250, 250); transform-origin: 250.16px 345.235px;" id="elu4ezug9lp9" class="animable"></path><path d="M275.46,346.8c-.91-.27-22.17-6.71-24.13-16.09l.73-.15c1.86,8.95,23.39,15.47,23.61,15.54Z" style="fill: rgb(250, 250, 250); transform-origin: 263.5px 338.68px;" id="elw3nzpzjodcb" class="animable"></path><path d="M254,343l-.54-2.29a1.89,1.89,0,0,0-1.76-1.56,1.74,1.74,0,0,0-1.78.89l-.69-.29a2.48,2.48,0,0,1,2.53-1.34,2.6,2.6,0,0,1,1.89,1A3.68,3.68,0,0,1,255,337a1.85,1.85,0,0,1,1.82.06l-.33.66a1.16,1.16,0,0,0-1.13-.07c-.85.48-1.18,2.33-1.23,3Z" style="fill: rgb(250, 250, 250); transform-origin: 253.025px 339.895px;" id="ell2jkikcwa5j" class="animable"></path><path d="M256.09,350.63l-.66-2.08c-.75-2.35-2-3.7-3.48-3.79a3.18,3.18,0,0,0-2.95,1.85l-.67-.32A3.89,3.89,0,0,1,252,344c.89.05,2.42.53,3.56,2.85.25-1.83,1-4.77,2.93-6a4.6,4.6,0,0,1,4.51.05l-.31.67a3.89,3.89,0,0,0-3.8-.09c-2.57,1.6-2.74,6.89-2.74,6.95Z" style="fill: rgb(250, 250, 250); transform-origin: 255.665px 345.457px;" id="elq5ab9f9yce" class="animable"></path><path d="M247.06,355.71l-.66-.34c1.48-2.85,4.73-4.9,7.55-4.76a4,4,0,0,1,3.1,1.53,10.85,10.85,0,0,1,4.74-7.08,9.21,9.21,0,0,1,9-.67l-.29.67a8.53,8.53,0,0,0-8.28.62,9.91,9.91,0,0,0-4.5,7.68l0,1.89-.7-1.76a3.28,3.28,0,0,0-3.06-2.14C251.37,351.22,248.42,353.1,247.06,355.71Z" style="fill: rgb(250, 250, 250); transform-origin: 258.595px 349.616px;" id="elesprc7sai39" class="animable"></path><path d="M243,366.75l-.65-.36c.9-1.64,5.69-9.88,11.36-11.37a5.89,5.89,0,0,1,4.78.69l-.38.63a5.22,5.22,0,0,0-4.21-.61C249.74,356.83,245.44,362.35,243,366.75Z" style="fill: rgb(250, 250, 250); transform-origin: 250.42px 360.771px;" id="elqk2m03m2pv" class="animable"></path><polygon points="316.14 278.66 316.14 283.29 239.96 327.27 179.82 292.55 179.82 287.92 256 243.94 316.14 278.66" style="fill: rgb(38, 50, 56); transform-origin: 247.98px 285.605px;" id="ellq6yez7o6r" class="animable"></polygon><polygon points="316.14 278.66 239.96 322.64 179.82 287.92 256 243.94 316.14 278.66" style="fill: rgb(69, 90, 100); transform-origin: 247.98px 283.29px;" id="eldn9c24zsmjq" class="animable"></polygon><polygon points="316.14 227.74 316.14 232.36 239.96 276.35 179.82 241.62 179.82 237 256 193.01 316.14 227.74" style="fill: rgb(38, 50, 56); transform-origin: 247.98px 234.68px;" id="eledjf9r1tti7" class="animable"></polygon><polygon points="316.14 227.74 239.96 271.72 179.82 237 256 193.01 316.14 227.74" style="fill: rgb(69, 90, 100); transform-origin: 247.98px 232.365px;" id="el940sc2adpj5" class="animable"></polygon><g id="freepik--Side--inject-32" class="animable" style="transform-origin: 249.97px 276.168px;"><path d="M239.7,211.33l-55.6-32.05a3,3,0,0,0-3-.3c-.72.41-3.28,1.9-4,2.31a3,3,0,0,0-1.26,2.77V336.23a9.45,9.45,0,0,0,4.28,7.4l55.6,32.06a3,3,0,0,0,3,.3c.72-.42,3.3-1.9,4-2.33A3,3,0,0,0,244,370.9V218.74A9.45,9.45,0,0,0,239.7,211.33Z" style="fill: rgb(38, 50, 56); transform-origin: 209.919px 277.485px;" id="elltop0a0wqb" class="animable"></path><g id="elsbcz1j5t7ts"><polygon points="239.96 234.69 243.98 232.37 243.98 218.47 239.95 220.79 239.96 234.69" style="opacity: 0.2; transform-origin: 241.965px 226.58px;" class="animable"></polygon></g><g id="elckeaafwb37a"><polygon points="320.16 188.39 324.18 186.08 324.18 172.18 320.15 174.5 320.16 188.39" style="opacity: 0.2; transform-origin: 322.165px 180.285px;" class="animable"></polygon></g><path d="M187.84,338.85l-4,2.31v12.66a2.36,2.36,0,0,0,1.07,1.85l1.87,1.08a2.37,2.37,0,0,0,2.14,0l1.87-1.08a3.82,3.82,0,0,0,1.47-1.78l3.61-10.41Z" style="fill: rgb(38, 50, 56); transform-origin: 189.855px 347.928px;" id="elacyl4y1vp6n" class="animable"></path><path d="M183.83,353.82a2.36,2.36,0,0,0,1.07,1.85l1.87,1.08a1,1,0,0,0,1.47-.55l3.61-10.41-8-4.63Z" style="fill: rgb(55, 71, 79); transform-origin: 187.84px 349.027px;" id="elz868wpcqfbb" class="animable"></path><path d="M227.93,362l-4,2.31v12.66a2.35,2.35,0,0,0,1.06,1.85l1.88,1.08a2.35,2.35,0,0,0,2.13,0l1.88-1.08a3.88,3.88,0,0,0,1.47-1.78l3.6-10.41Z" style="fill: rgb(38, 50, 56); transform-origin: 229.94px 371.078px;" id="elz1dh1ljcmhg" class="animable"></path><path d="M223.93,376.92a2.35,2.35,0,0,0,1.06,1.85l1.88,1.08a1,1,0,0,0,1.47-.55l3.6-10.41-8-4.63Z" style="fill: rgb(55, 71, 79); transform-origin: 227.935px 372.127px;" id="elgo2vg102ryk" class="animable"></path><path d="M180.08,181.6l55.61,32.05a9.46,9.46,0,0,1,4.27,7.41V378.2s-3.09-1.83-4.27-2.51l-55.6-32.06a9.45,9.45,0,0,1-4.28-7.4V184.06a2.6,2.6,0,0,1,4.27-2.46Z" style="fill: rgb(55, 71, 79); transform-origin: 207.86px 279.575px;" id="eltbl1g9wz9vr" class="animable"></path><g id="el4d64hg0b3yt"><path d="M235.69,213.65,180.08,181.6a2.6,2.6,0,0,0-4.27,2.46v13.59l64.15,37V221.06A9.46,9.46,0,0,0,235.69,213.65Z" style="opacity: 0.2; transform-origin: 207.86px 207.8px;" class="animable"></path></g></g><path d="M312.13,228.11a.38.38,0,0,1-.37-.37V182.08l-43.55,25.14a.35.35,0,0,1-.5-.13.37.37,0,0,1,.13-.51L312,181.12a.35.35,0,0,1,.37,0,.37.37,0,0,1,.18.32v46.3A.37.37,0,0,1,312.13,228.11Z" style="fill: rgb(250, 250, 250); transform-origin: 290.104px 204.59px;" id="elkrnnqrx43rr" class="animable"></path><path d="M304.11,216.53H304a.37.37,0,0,1-.28-.44l7.46-32.31-14.8,25.63a.36.36,0,0,1-.5.14.37.37,0,0,1-.14-.51l16-27.78a.38.38,0,0,1,.46-.16.37.37,0,0,1,.22.43l-8,34.73A.36.36,0,0,1,304.11,216.53Z" style="fill: rgb(250, 250, 250); transform-origin: 304.06px 198.803px;" id="eltnzls7ijc2q" class="animable"></path><path d="M288.08,205a.36.36,0,0,1-.27-.12.37.37,0,0,1,0-.52l24.06-23.15a.37.37,0,0,1,.52,0,.38.38,0,0,1,0,.53l-24.06,23.14A.36.36,0,0,1,288.08,205Z" style="fill: rgb(250, 250, 250); transform-origin: 300.1px 193.052px;" id="el4h2z4sbp7wy" class="animable"></path><path d="M312.13,220.72h0a.38.38,0,0,1-.37-.37c0-6.06-6.76-6.47-7.05-6.48a.39.39,0,0,1-.28-.15.36.36,0,0,1-.06-.3,7.19,7.19,0,0,0-2.31-6.81,3.45,3.45,0,0,0-2.66-1,1.85,1.85,0,0,0-1.27.86.37.37,0,0,1-.43.17.37.37,0,0,1-.26-.38c0-.23.41-5.62-4.33-6.15a.38.38,0,0,1-.29-.2.37.37,0,0,1,0-.34s2.1-3.93,1.29-5.86a1.56,1.56,0,0,0-1.07-.92.36.36,0,0,1-.25-.46.38.38,0,0,1,.46-.25,2.27,2.27,0,0,1,1.54,1.35c.77,1.83-.53,4.86-1.09,6,3.68.71,4.36,4.18,4.46,5.9a2.82,2.82,0,0,1,1.1-.47,4,4,0,0,1,3.27,1.21,8,8,0,0,1,2.63,7.12c1.62.21,7.34,1.34,7.33,7.18A.37.37,0,0,1,312.13,220.72Z" style="fill: rgb(250, 250, 250); transform-origin: 302.631px 206.394px;" id="elbu23wgb726m" class="animable"></path><path d="M312.13,210.74a.37.37,0,0,1-.37-.34c-.16-2.12-1.39-4.86-2.94-5.54a1.73,1.73,0,0,0-1.87.3.38.38,0,0,1-.41,0,.37.37,0,0,1-.19-.36s.33-3.75-1.36-5.3a3,3,0,0,0-2.68-.6.36.36,0,0,1-.35-.12.38.38,0,0,1-.07-.37c.34-.93,1-3.54.11-4.47-.42-.43-1.19-.47-2.3-.11a.37.37,0,0,1-.42-.14.38.38,0,0,1,0-.44c.62-.78,2.15-3.06,1.77-4.15a.92.92,0,0,0-.74-.56.37.37,0,0,1-.27-.45.35.35,0,0,1,.44-.27,1.62,1.62,0,0,1,1.27,1c.41,1.19-.59,3-1.29,4a2.28,2.28,0,0,1,2.06.53c1.1,1.14.57,3.55.24,4.68a3.48,3.48,0,0,1,2.72.85c1.49,1.36,1.65,4,1.63,5.21a2.35,2.35,0,0,1,2,0c1.89.83,3.2,3.78,3.39,6.17a.36.36,0,0,1-.34.39Z" style="fill: rgb(250, 250, 250); transform-origin: 305.856px 199.273px;" id="eld6j4nirubhj" class="animable"></path><g id="freepik--Top--inject-32" class="animable" style="transform-origin: 251.994px 176.814px;"><path d="M333.67,165.24a3,3,0,0,0-1.76-2.47L272.3,128.35a9.47,9.47,0,0,0-8.55,0l-91.68,52.94a3,3,0,0,0-1.76,2.47v4.63a3,3,0,0,0,1.76,2.47l59.61,34.41a9.41,9.41,0,0,0,8.55,0l91.68-52.93a3,3,0,0,0,1.76-2.47Z" style="fill: rgb(55, 71, 79); transform-origin: 251.99px 176.814px;" id="eljxdo48bjusn" class="animable"></path><path d="M231.68,220.64l-59.61-34.41c-2.36-1.37-2.36-3.58,0-4.94l91.68-52.94a9.47,9.47,0,0,1,8.55,0l59.61,34.42c2.37,1.37,2.37,3.57,0,4.94l-91.68,52.93A9.41,9.41,0,0,1,231.68,220.64Z" style="fill: rgb(69, 90, 100); transform-origin: 251.994px 174.499px;" id="elbz8y9t3c9uo" class="animable"></path></g><g id="freepik--Shadows--inject-32" class="animable" style="transform-origin: 282.06px 261.305px;"><g id="elq27ia631oq"><polygon points="320.15 179.12 292.09 213.85 243.98 241.63 243.97 223.11 320.15 179.12" style="opacity: 0.1; transform-origin: 282.06px 210.375px;" class="animable"></polygon></g><g id="elpco8qzgjv4o"><polygon points="316.14 232.36 292.09 264.77 243.98 292.56 243.98 274.03 316.14 232.36" style="opacity: 0.1; transform-origin: 280.06px 262.46px;" class="animable"></polygon></g><g id="elnggw4a40g7"><polygon points="316.14 283.29 292.09 315.7 243.98 343.49 243.98 324.96 316.14 283.29" style="opacity: 0.1; transform-origin: 280.06px 313.39px;" class="animable"></polygon></g></g></g></g><g id="freepik--Box--inject-32" class="animable" style="transform-origin: 121.815px 336.86px;"><g id="freepik--box--inject-32" class="animable" style="transform-origin: 121.815px 336.86px;"><polygon points="205.78 384.44 132.02 427.03 48.96 378.96 122.72 336.38 205.78 384.44" style="fill: rgb(37, 128, 194); transform-origin: 127.37px 381.705px;" id="elymrxmk0nrmc" class="animable"></polygon><g id="elucemi8yepfi"><polygon points="205.78 384.44 132.02 427.03 48.96 378.96 122.72 336.38 205.78 384.44" style="opacity: 0.5; transform-origin: 127.37px 381.705px;" class="animable"></polygon></g><polygon points="122.72 278.65 122.72 336.38 48.96 378.96 48.96 321.24 122.72 278.65" style="fill: rgb(37, 128, 194); transform-origin: 85.84px 328.805px;" id="elrm0k5rs65y" class="animable"></polygon><g id="eldt3c3pt2zyk"><polygon points="122.72 278.65 122.72 336.38 48.96 378.96 48.96 321.24 122.72 278.65" style="opacity: 0.23; transform-origin: 85.84px 328.805px;" class="animable"></polygon></g><polygon points="132.02 369.3 132.02 427.03 48.96 378.96 48.96 321.24 132.02 369.3" style="fill: rgb(37, 128, 194); transform-origin: 90.49px 374.135px;" id="elsavytocls7" class="animable"></polygon><g id="elaq4qllvgd3o"><polygon points="132.02 369.3 132.02 427.03 48.96 378.96 48.96 321.24 132.02 369.3" style="opacity: 0.38; transform-origin: 90.49px 374.135px;" class="animable"></polygon></g><polygon points="205.78 326.71 205.78 384.44 122.72 336.38 122.72 278.65 205.78 326.71" style="fill: rgb(37, 128, 194); transform-origin: 164.25px 331.545px;" id="elrm3ajjg9lrp" class="animable"></polygon><g id="elbt9ssyjzxpq"><polygon points="205.78 326.71 205.78 384.44 122.72 336.38 122.72 278.65 205.78 326.71" style="opacity: 0.4; transform-origin: 164.25px 331.545px;" class="animable"></polygon></g><polygon points="205.78 384.44 205.78 326.71 132.02 369.3 132.02 427.03 205.78 384.44" style="fill: rgb(37, 128, 194); transform-origin: 168.9px 376.87px;" id="el88y2l6uymw" class="animable"></polygon><g id="elodpw51k4jjd"><polygon points="205.78 384.44 205.78 326.71 132.02 369.3 132.02 427.03 205.78 384.44" style="opacity: 0.23; transform-origin: 168.9px 376.87px;" class="animable"></polygon></g><polygon points="122.72 278.65 122.82 246.69 205.68 294.81 205.78 326.71 122.72 278.65" style="fill: rgb(37, 128, 194); transform-origin: 164.25px 286.7px;" id="elsfeutoteq7" class="animable"></polygon><g id="el2fypo742kc7"><polygon points="122.72 278.65 122.82 246.69 205.68 294.81 205.78 326.71 122.72 278.65" style="opacity: 0.2; transform-origin: 164.25px 286.7px;" class="animable"></polygon></g><polygon points="132.02 369.3 138.94 341.34 212.03 299.14 205.78 326.71 132.02 369.3" style="fill: rgb(37, 128, 194); transform-origin: 172.025px 334.22px;" id="elhs9off0mv0j" class="animable"></polygon><g id="elgwqomrmmtri"><polygon points="132.02 369.3 138.94 341.34 212.03 299.14 205.78 326.71 132.02 369.3" style="opacity: 0.3; transform-origin: 172.025px 334.22px;" class="animable"></polygon></g><polygon points="48.96 321.24 40.16 292.24 113.92 249.66 122.72 278.65 48.96 321.24" style="fill: rgb(37, 128, 194); transform-origin: 81.44px 285.45px;" id="el0j6lg0pbg6f" class="animable"></polygon><g id="elo5xbra21ws"><polygon points="48.96 321.24 40.16 292.24 113.92 249.66 122.72 278.65 48.96 321.24" style="opacity: 0.1; transform-origin: 81.44px 285.45px;" class="animable"></polygon></g><polygon points="48.96 321.24 31.6 297.27 114.67 345.33 132.02 369.3 48.96 321.24" style="fill: rgb(37, 128, 194); transform-origin: 81.81px 333.285px;" id="ell6usqiiz4s9" class="animable"></polygon><g id="el6209vvld9gf"><polygon points="48.96 321.24 31.6 297.27 114.67 345.33 132.02 369.3 48.96 321.24" style="opacity: 0.45; transform-origin: 81.81px 333.285px;" class="animable"></polygon></g><g id="eluijpnnyrp5h"><g style="opacity: 0.7; transform-origin: 155.843px 402.93px;" class="animable"><path d="M153.74,409.86a.46.46,0,0,1-.46-.45V399.25a.47.47,0,0,1,.46-.46.46.46,0,0,1,.45.46v10.16A.45.45,0,0,1,153.74,409.86Z" style="fill: rgb(255, 255, 255); transform-origin: 153.735px 404.325px;" id="elw88bre09dd" class="animable"></path><path d="M152.41,402.77a.58.58,0,0,1-.18,0,.47.47,0,0,1-.24-.6l1.62-3.73,1.8,2.08a.46.46,0,0,1-.69.6l-.85-1-1,2.4A.47.47,0,0,1,152.41,402.77Z" style="fill: rgb(255, 255, 255); transform-origin: 153.724px 400.608px;" id="el86of5928eeu" class="animable"></path><path d="M157.93,407.47a.46.46,0,0,1-.45-.46V396.86a.45.45,0,1,1,.9,0V407A.46.46,0,0,1,157.93,407.47Z" style="fill: rgb(255, 255, 255); transform-origin: 157.93px 401.939px;" id="elzemzsyjpr6k" class="animable"></path><path d="M156.6,400.38a.58.58,0,0,1-.18,0,.45.45,0,0,1-.23-.6L157.8,396l1.8,2.07a.46.46,0,0,1,0,.64.45.45,0,0,1-.64,0l-.85-1-1,2.4A.46.46,0,0,1,156.6,400.38Z" style="fill: rgb(255, 255, 255); transform-origin: 157.939px 398.194px;" id="elpa53gvtem8e" class="animable"></path></g></g><g id="elrsjbtnpo1hd"><g style="opacity: 0.7; transform-origin: 142.916px 408.855px;" class="animable"><path d="M141.65,416.75a1,1,0,0,1-.49-.12,1.2,1.2,0,0,1-.55-1.09v-1.25a.46.46,0,0,1,.46-.45.45.45,0,0,1,.45.45v1.25c0,.18,0,.28.09.3s.14,0,.29-.08a2.65,2.65,0,0,0,.85-2.05v-5.2a.45.45,0,1,1,.9,0v5.2a3.44,3.44,0,0,1-1.29,2.83A1.41,1.41,0,0,1,141.65,416.75Z" style="fill: rgb(255, 255, 255); transform-origin: 142.13px 412.405px;" id="elmwsxls4s5w" class="animable"></path><path d="M136.88,412.56v-.78a12.87,12.87,0,0,1,5.79-10c1.64-.94,3.2-1.08,4.4-.38a4.33,4.33,0,0,1,1.86,4v.26Zm8.51-10.74a4.7,4.7,0,0,0-2.26.7,12,12,0,0,0-5.3,8.45L148,405.09a3.37,3.37,0,0,0-1.41-3A2.38,2.38,0,0,0,145.39,401.82Z" style="fill: rgb(255, 255, 255); transform-origin: 142.916px 406.76px;" id="el9j7riljsnhr" class="animable"></path></g></g><g id="el1rjvojkjqqt"><polygon points="31.6 297.27 114.67 345.33 132.02 369.3 113.75 346.18 31.6 297.27" style="fill: rgb(255, 255, 255); opacity: 0.7; transform-origin: 81.81px 333.285px;" class="animable"></polygon></g><g id="elr20vvd3ohnn"><polygon points="205.78 326.71 132.02 369.3 132.02 427.03 133.4 370.46 205.78 326.71" style="fill: rgb(255, 255, 255); opacity: 0.7; transform-origin: 168.9px 376.87px;" class="animable"></polygon></g></g></g><g id="freepik--Moth--inject-32" class="animable" style="transform-origin: 89.8451px 256.064px;"><g id="freepik--moth--inject-32" class="animable" style="transform-origin: 89.8451px 256.064px;"><path d="M97.54,303.62c7.61-1.1,14.56-6,19-12.16a29,29,0,0,0,4.5-9.54,20.43,20.43,0,0,0,.46-9.88c-1.37-5.49-6.45-8.74-11.82-9.42a18,18,0,0,0-8.1.79,13.68,13.68,0,0,0-6.7,5A8.28,8.28,0,0,0,93,272.77a2.5,2.5,0,0,0,2.24,2.55,7.22,7.22,0,0,0,4.57-1.16,14.49,14.49,0,0,0,4.27-3.64,30.56,30.56,0,0,0,5.54-10.5,21.09,21.09,0,0,0,0-10,18.46,18.46,0,0,0-4.53-9.21,16.76,16.76,0,0,0-9.74-4.29,23.72,23.72,0,0,0-10.74,1,11.49,11.49,0,0,0-4.13,2.26c-.86.8-1.84,2.12-1.49,3.42s2.25,1.88,3.54,1.71a9.28,9.28,0,0,0,5-2.71,21.35,21.35,0,0,0,3.77-5,8.78,8.78,0,0,0,1.13-4.34c-.13-6.34-7.14-10.44-12.63-11.6a16.25,16.25,0,0,0-4.51-.3c-.51,0-.2.84.21.81A16.48,16.48,0,0,1,84,223.69a14.22,14.22,0,0,1,6.21,5.53,7.61,7.61,0,0,1-.24,7.74,20.53,20.53,0,0,1-3.62,4.62c-1.19,1.08-3,2.33-4.67,2.21a1.47,1.47,0,0,1-1.32-.83,2.13,2.13,0,0,1,.59-1.82A8.37,8.37,0,0,1,84.14,239a21,21,0,0,1,9.49-1.56,17,17,0,0,1,9.34,3,14.69,14.69,0,0,1,4.86,7.71,22.64,22.64,0,0,1,.88,9.5,24.35,24.35,0,0,1-3.63,9c-1.85,3.06-4.17,6-7.65,7.2-.86.31-2.66.76-3-.49s.64-2.79,1.27-3.76a12.72,12.72,0,0,1,5.82-4.91,16.07,16.07,0,0,1,7.29-1.1c4.71.35,9.49,2.81,11.13,7.49a17,17,0,0,1,.26,8.6,27.64,27.64,0,0,1-3.31,8.84A31.58,31.58,0,0,1,102,301.51c-1.48.64-3,1.18-4.55,1.68-.16.06-.09.46.09.43Z" style="fill: rgb(224, 224, 224); transform-origin: 98.4616px 262.269px;" id="elax7i2c0zcfl" class="animable"></path><path d="M65.75,216.8c-4-.29-9.51,2.86-7.55,5.16s7.16-1.42,7.16-1.42-.49,4.65,1.21,5.18,4-3.91,2.3-6.75a5.23,5.23,0,0,0,5-.64c2.42-1.78-.14-3.46-3.55-3.16,0,0,2.44-8-2.49-6.47C65.36,209.45,64.49,212.34,65.75,216.8Z" style="fill: rgb(37, 128, 194); transform-origin: 66.3069px 217.134px;" id="el2n5370slzoo" class="animable"></path><g id="el6chagr5pjfe"><path d="M65.75,216.8c-4-.29-9.51,2.86-7.55,5.16s7.16-1.42,7.16-1.42-.49,4.65,1.21,5.18,4-3.91,2.3-6.75a5.23,5.23,0,0,0,5-.64c2.42-1.78-.14-3.46-3.55-3.16,0,0,2.44-8-2.49-6.47C65.36,209.45,64.49,212.34,65.75,216.8Z" style="fill: rgb(255, 255, 255); opacity: 0.65; transform-origin: 66.3069px 217.134px;" class="animable"></path></g><path d="M69.47,218.5a8,8,0,0,0-.7-.61c-.35-.27-.72-.53-1.07-.79a9.12,9.12,0,0,0-1.07-.67,6.65,6.65,0,0,0-.66-.32,1.83,1.83,0,0,0-1-.16.5.5,0,0,0-.4.78,2.5,2.5,0,0,0,1,.66l.54.29c.37.22.7.47,1,.72s.7.49,1,.74a6.53,6.53,0,0,0,1.71,1,.19.19,0,0,0,.18,0C70.51,219.74,69.76,218.79,69.47,218.5Z" style="fill: rgb(69, 90, 100); transform-origin: 67.3287px 218.05px;" id="elo17heybt1" class="animable"></path></g></g><g id="freepik--Character--inject-32" class="animable" style="transform-origin: 397.399px 214.926px;"><g id="freepik--character--inject-32" class="animable" style="transform-origin: 397.399px 214.926px;"><path d="M388.28,106.79c-4.37,5.88-10.22,38.21-12.43,48.58-10.63-.31-24.85-.81-30.23-1.37-6-.63-18.81-1.86-25.1-1-15.61,2-15,12.26-14.62,14.94.41,3.06,2.6,4.46,11,2.55a28.92,28.92,0,0,1,5.72-.67c.81,0,2.52-.41,3.16.28,1,1-1.89,2.68-2.61,3.14-1.11.72-2.27,1.63-2.5,2.93a1.29,1.29,0,0,0,.41,1.33,1.68,1.68,0,0,0,1.27,0,45.08,45.08,0,0,0,11-4.19,25.52,25.52,0,0,1,4.11-2c2.17-.7,4.41-.29,6.59-.29,4.69,0,29.48,2.46,40.5,3.58,7.63.77,8.44-6.76,11.07-14.39C398.85,150.75,406.5,101,406.5,101,398.78,99.88,393.48,99.81,388.28,106.79Z" style="fill: rgb(255, 168, 167); transform-origin: 356.133px 139.031px;" id="elmk3maumsftf" class="animable"></path><path d="M406.62,100.22c-3.69-.68-12-1.71-16.52,3.34s-5.59,10.35-7.58,18S377,142.91,377,142.91s5.83,8.37,24.08,6Z" style="fill: rgb(55, 71, 79); transform-origin: 391.81px 124.489px;" id="elcxk7zl0vcxj" class="animable"></path><polygon points="452.45 364.64 439.62 364.65 435.93 336.8 452.12 336.16 452.45 364.64" style="fill: rgb(255, 168, 167); transform-origin: 444.19px 350.405px;" id="el2k1mbsa0id9" class="animable"></polygon><path d="M409.85,350.73c-2.18,3.79-9.19,3.48-15,2.14l-.67-27.38,17.15-.68Z" style="fill: rgb(255, 168, 167); transform-origin: 402.755px 339.299px;" id="eltg6dlz16io" class="animable"></path><path d="M451.58,188.66c.46,11.85-1.11,81.92-1.11,81.92.43,3.4,3.95,9.33,4.68,21.6C456.22,310,452.59,348,452.59,348s-7.35,3.84-15.27.9c0,0-8.06-55-11-72.58-2.54-15.3-5.8-56.34-5.8-56.34l-6.33,52.6a87.29,87.29,0,0,1,1.43,18.89c-.26,8.18-4.92,47.9-4.92,47.9a28.49,28.49,0,0,1-16.42.39s-3.82-61.64-4.26-69.11c-.5-8.52-.16-83.73-.16-83.73Z" style="fill: rgb(37, 128, 194); transform-origin: 422.547px 268.464px;" id="el5fldong19tp" class="animable"></path><g id="elszcqjmel06"><path d="M420.54,220s-11.21-3.18-18.85-10c0,0,3.58,6.11,13.72,11.53l-.58,45.91Z" style="opacity: 0.2; transform-origin: 411.115px 238.72px;" class="animable"></path></g><path d="M425,387.87c-.41.42-.17,3.19.33,3.91s3.56,3.16,8.87,3.34c5.07.16,9.55-.7,12.44-2.7s4.25-4.13,4.42-7-.26-5.66,1-7.93c1.19-2.09,3.12-4.48,3.51-5.61.87-2.45-.19-5.86-.19-5.86Z" style="fill: rgb(38, 50, 56); transform-origin: 440.352px 380.579px;" id="elczbbmm9h599" class="animable"></path><path d="M437.8,362.2a11.11,11.11,0,0,1-.46,3.23,33.1,33.1,0,0,1-4.83,9.51c-1.46,1.87-3.3,3.44-4.85,5.25a10.39,10.39,0,0,0-2.88,6.33c-.06,4,4.3,5.15,7.63,5.61a24.28,24.28,0,0,0,10.74-1,9.87,9.87,0,0,0,6.94-8.18c.14-1.11,0-2.23.12-3.34a15.56,15.56,0,0,1,2.81-7.06,21.55,21.55,0,0,0,2.22-3.86c.93-2.5,0-5.23-.76-7.64-.65-2.09-1.39-4.46-2.12-4.23,0,1.11,0,1.21-.71,2-1,1-.95,2.39-2,3.26a14.16,14.16,0,0,0,.62-2.84,1.63,1.63,0,0,0-.27-1.12,3,3,0,0,0-1.24-.6,24.26,24.26,0,0,0-4.85-.91,14.52,14.52,0,0,0-4.7.15,2.09,2.09,0,0,0-1.16.73,2.42,2.42,0,0,0-.37,1.37C437.68,359.51,437.79,361.14,437.8,362.2Z" style="fill: rgb(69, 90, 100); transform-origin: 440.204px 374.412px;" id="elejxf8dfhj4" class="animable"></path><path d="M434,372.73c1.44-1.16,4.74-1.31,6.56-1.18a10.9,10.9,0,0,1,5.21,1.6,1.17,1.17,0,0,0,1.51-.18h0a1.11,1.11,0,0,0-.18-1.68,11.19,11.19,0,0,0-5.87-1.92c-4.46-.13-5.73.68-5.73.68S433.51,371.43,434,372.73Z" style="fill: rgb(245, 245, 245); transform-origin: 440.753px 371.351px;" id="el8swm8gjy9oa" class="animable"></path><path d="M430.76,376.93c1.81-1.17,5.46-1.16,7.27-1a10.37,10.37,0,0,1,5.08,1.71,1.16,1.16,0,0,0,1.5-.18h0a1.1,1.1,0,0,0-.17-1.68,11.57,11.57,0,0,0-6-2.08c-4.47-.14-5.59.81-5.59.81A3.68,3.68,0,0,0,430.76,376.93Z" style="fill: rgb(245, 245, 245); transform-origin: 437.842px 375.761px;" id="ela5f5rdd4yv" class="animable"></path><path d="M442.83,365.05a11.06,11.06,0,0,0-5.58.68c-.76.47-1.23,1.73-.72,2a10.31,10.31,0,0,1,4.94-.88,14.6,14.6,0,0,1,4.86,1.14c.39.15.85.37,1.25.57a1.06,1.06,0,0,0,1.45-.51h0a1,1,0,0,0-.44-1.26A14.12,14.12,0,0,0,442.83,365.05Z" style="fill: rgb(245, 245, 245); transform-origin: 442.712px 366.812px;" id="el3crsu9tghi3" class="animable"></path><path d="M365.53,367.81a4.82,4.82,0,0,0,0,3.56c.44,1.07,5.74,4.39,13.1,4.25A30.68,30.68,0,0,0,394.09,371c2.89-1.72,5.82-1.93,9.46-2s8.5-1.62,9.38-3.28.1-4.63.1-4.63Z" style="fill: rgb(38, 50, 56); transform-origin: 389.269px 368.357px;" id="els333uo16utc" class="animable"></path><path d="M396.23,346.31l-.57-.15a2.47,2.47,0,0,0-1-.09,1.8,1.8,0,0,0-.93.56,18.17,18.17,0,0,0-2,2.86c-1.65,2.43-5,4.36-8.6,6.09-2.46,1.17-4.85,2.06-7.38,3.05s-6,1.55-8,2.79c-3,1.81-3.57,6.66-.39,8.74,2.76,1.8,10.12,3.95,18,2.11,4.31-1,9.25-5.32,14.85-5.49,3.57-.11,10.33-.79,12.74-3.38.91-1.15,0-5-.81-8.32-.84-3.62-.46-9-2.08-9l-.1,1.81c-.15.54-1.42,1.07-1.82,1.49l-1.44,1.52a7.17,7.17,0,0,1-2.12,1.72c-1.43.64-3.1.26-4.63-.14-.06,0,.77-2.78.86-3.05a1.2,1.2,0,0,0,.08-.67,1,1,0,0,0-.43-.53A11.34,11.34,0,0,0,396.23,346.31Z" style="fill: rgb(69, 90, 100); transform-origin: 389.277px 359.513px;" id="elg47e8a5uex" class="animable"></path><path d="M386.55,353.8a3.31,3.31,0,0,1,2.71-1.63c1.63-.22,4.42,1.1,6.13,2.65a1.33,1.33,0,0,1-.3,2.18h0a1.31,1.31,0,0,1-1.5-.24A10.16,10.16,0,0,0,386.55,353.8Z" style="fill: rgb(245, 245, 245); transform-origin: 391.19px 354.641px;" id="elzq8ll9gxxb" class="animable"></path><path d="M381.41,356.37a3.79,3.79,0,0,1,3.18-1.45s4.22.32,6.71,2.88a1.29,1.29,0,0,1-.28,2.1h0a1.28,1.28,0,0,1-1.45-.23A10.14,10.14,0,0,0,381.41,356.37Z" style="fill: rgb(245, 245, 245); transform-origin: 386.565px 357.472px;" id="eln907wp55uud" class="animable"></path><path d="M375.76,358.63a4.25,4.25,0,0,1,3.3-1.29,11.43,11.43,0,0,1,6.42,2.89,1.3,1.3,0,0,1-.28,2.11h0a1.26,1.26,0,0,1-1.45-.24A9.73,9.73,0,0,0,375.76,358.63Z" style="fill: rgb(245, 245, 245); transform-origin: 380.83px 359.902px;" id="elkpvl0y73si" class="animable"></path><path d="M428,100.44c4.72.54,10.3.83,14.81,1.42,5.81.76,10.34,6.77,11.76,16.07,1.56,10.24-5,39.6-5,39.6l2.09,34.62c-8.51,6.27-44.75,9.56-62.81-3.48,0,0,.42-58.92,1.83-68,1.94-12.45,5-20.18,19-21.07Z" style="fill: rgb(69, 90, 100); transform-origin: 421.83px 148.626px;" id="el1l3o45k7fwv" class="animable"></path><path d="M460.27,175.44c-1.53,2.56-3.07,5.12-4.65,7.65-.58.94-1.17,1.87-1.78,2.79a6.61,6.61,0,0,1-1.15,1.21c-.76.52-2.34.19-3.26.22q-6.78.23-13.52,1a2.57,2.57,0,0,0-2,.86,1.76,1.76,0,0,0,.64,2.24,5.07,5.07,0,0,0,2.43.72l3.9.46a3,3,0,0,1,1.56.5c1.42,1.15-1.29,2.53-2.1,3.09a29.56,29.56,0,0,1-5.19,2.88c-8.13,3.42-9.12,5.9-7.62,8.72,1.3,2.45,6.92,11.36,21.2,3.69,5.75-3.09,14.5-12.85,18.49-17.57,5.74-6.81,15.45-22,15.45-22,5.52-7.58,6.23-10.69,6.36-13.84s-17-27.38-22.82-35.89-8.59-18.86-23.4-20.28c0,0-5.64,17.88,3.7,29.45l21.57,30.09S462.37,171.93,460.27,175.44Z" style="fill: rgb(255, 168, 167); transform-origin: 457.988px 158.206px;" id="el1h5wtqp73h5j" class="animable"></path><path d="M475.92,133.71c-2.77-4-5.66-8.12-8.45-12.2-11.75-17.15-10.76-20.29-27.7-20.53-1.5,2.3-2.39,12.2-.13,22.14,1.89,8.35,9,14.24,9,14.24l8.48,11.49s5.19-.16,11.41-4.72A19,19,0,0,0,475.92,133.71Z" style="fill: rgb(55, 71, 79); transform-origin: 457.095px 124.915px;" id="eldea81ih2ul9" class="animable"></path><path d="M439.17,55.37a8.45,8.45,0,0,0-7.85-3.7l-.88,21.47L429,81.07l.25,8.83A5,5,0,0,0,433.11,87c1.32-2.54,5-14.82,5-14.82h0C441.41,62.09,440.71,57.53,439.17,55.37Z" style="fill: rgb(38, 50, 56); transform-origin: 434.729px 70.7644px;" id="eltdafdh2kan9" class="animable"></path><path d="M429.44,73.24a7.57,7.57,0,0,1,2.07-3.42c1.23-1.32,6.13-2.75,8.36,1.41s-1.53,9.65-4.43,11.33c-3.71,2.16-5.89-.78-5.89-.78l.09,19.77h0c-1.73,4-9.54,7.56-14.19,7-3.7-.47-7.11-3.38-3.8-7.62l-.27-5.64s-4.95,1-7.4.75c-4.07-.42-6.78-3.49-8.22-7.81-2.32-6.94-3.35-12.58-2.37-26.5,1.08-15.25,18.71-16.28,28.54-10.76S429.44,73.24,429.44,73.24Z" style="fill: rgb(255, 168, 167); transform-origin: 416.783px 78.2591px;" id="el05wgxsd9q1ot" class="animable"></path><path d="M387.78,45.89c-.45-3.33.7-6.9,4.19-8.08a7.37,7.37,0,0,1,7.74,1.29,6.74,6.74,0,0,1,12-1.27,6.58,6.58,0,0,1,4-2.79,7.76,7.76,0,0,1,5.94,1.08c1.42,1.05,3.09,3,2.67,5.53,2.81-1.13,5.74-.19,7.83,2.29a8.85,8.85,0,0,1,2,5.37,7.16,7.16,0,0,1-.43,3c-.4.91-1.22,1.51-1.46,2.54a7.93,7.93,0,0,0-.53,2.84c.23,1.68.6,3.36.82,5a40.63,40.63,0,0,1,.41,4.93,2.73,2.73,0,0,1-1.21,1.92,7.74,7.74,0,0,0-2.11,3c-.35.72-.69,2.5-1.38,3-2.13,1.49-2.37-3.33-2.47-4.26a50.05,50.05,0,0,1,0-6.41,7.7,7.7,0,0,1-5.67-2.6,6.64,6.64,0,0,1-1.41-3.14,10.8,10.8,0,0,1-.16-2c-1.39,2.3-4.62,3.24-6.92,3-3.86-.35-5.19-2-5.81-3.21a7.67,7.67,0,0,1-1.53,3.26,8.73,8.73,0,0,1-3.47,2,6.37,6.37,0,0,1-6.31-1.82c-1.57,2.25-5.55,1.25-6.43.62-2-1.45-2.65-3.18-2.87-5.65s.78-5.29,3.52-6.26A9.87,9.87,0,0,1,387.78,45.89Z" style="fill: rgb(38, 50, 56); transform-origin: 409.674px 55.268px;" id="elr16pcisj9vh" class="animable"></path><path d="M411.38,95.26s8.94-2.26,12-4.1a10.39,10.39,0,0,0,4.15-4.54,14.27,14.27,0,0,1-2.23,5.22c-2.16,3.07-13.82,5.83-13.82,5.83Z" style="fill: rgb(242, 143, 143); transform-origin: 419.455px 92.145px;" id="elszf1lsic42a" class="animable"></path><path d="M411.88,72.58a1.94,1.94,0,1,0,1.84-2.11A2,2,0,0,0,411.88,72.58Z" style="fill: rgb(38, 50, 56); transform-origin: 413.814px 72.4078px;" id="elmwj1del0ln9" class="animable"></path><path d="M408.89,87.05a2.5,2.5,0,1,0,2.36-2.73A2.57,2.57,0,0,0,408.89,87.05Z" style="fill: rgb(242, 143, 143); transform-origin: 411.382px 86.8167px;" id="eln5r72wiew6l" class="animable"></path><path d="M413.49,65.92l4.12,2a2.42,2.42,0,0,0-1.09-3.15A2.24,2.24,0,0,0,413.49,65.92Z" style="fill: rgb(38, 50, 56); transform-origin: 415.658px 66.2354px;" id="el995w1tolaat" class="animable"></path><path d="M395.57,67.65l3.51-3a2.21,2.21,0,0,0-3.2-.33A2.43,2.43,0,0,0,395.57,67.65Z" style="fill: rgb(38, 50, 56); transform-origin: 397.065px 65.7163px;" id="elwteew966vdn" class="animable"></path><path d="M396.62,72.19a1.88,1.88,0,1,0,1.78-2A1.91,1.91,0,0,0,396.62,72.19Z" style="fill: rgb(38, 50, 56); transform-origin: 398.497px 72.0675px;" id="el7hxbhbg2vbo" class="animable"></path><polygon points="405.9 69.97 405.84 81.8 399.58 80 405.9 69.97" style="fill: rgb(242, 143, 143); transform-origin: 402.74px 75.885px;" id="eldtd05lp11q5" class="animable"></polygon><path d="M390.19,86.52a.44.44,0,0,0,.28-.2.45.45,0,0,0-.12-.64l-5.44-3.62a.46.46,0,0,0-.64.13.45.45,0,0,0,.13.64l5.43,3.62A.43.43,0,0,0,390.19,86.52Z" style="fill: rgb(224, 224, 224); transform-origin: 387.372px 84.2579px;" id="elb63q6nnhpwg" class="animable"></path><path d="M389.61,88.86a.48.48,0,0,0,.35-.35.47.47,0,0,0-.35-.56l-6.36-1.47a.46.46,0,0,0-.56.34.47.47,0,0,0,.35.56l6.36,1.48A.74.74,0,0,0,389.61,88.86Z" style="fill: rgb(224, 224, 224); transform-origin: 386.325px 87.6668px;" id="elc35frlx5zq7" class="animable"></path><path d="M383.7,93.09l.06,0,6.13-2.24a.46.46,0,1,0-.32-.87l-6.13,2.24a.46.46,0,0,0-.27.6A.46.46,0,0,0,383.7,93.09Z" style="fill: rgb(224, 224, 224); transform-origin: 386.666px 91.5268px;" id="eldu5d946zik" class="animable"></path><path d="M331.84,141.06a1.45,1.45,0,0,0,2.66-.15l4.56-11.25a1.45,1.45,0,1,0-2.72-1l-4.57,11.25A1.45,1.45,0,0,0,331.84,141.06Z" style="fill: rgb(224, 224, 224); transform-origin: 335.426px 134.761px;" id="elfbhq7bwvir7" class="animable"></path><path d="M324.33,141a1.45,1.45,0,0,0,2.75-.66l-.15-14a1.45,1.45,0,0,0-2.89,0l.14,14A1.45,1.45,0,0,0,324.33,141Z" style="fill: rgb(224, 224, 224); transform-origin: 325.56px 133.409px;" id="elkidz8wxejwk" class="animable"></path><path d="M311.6,133.21l.09.17,6.89,10a1.45,1.45,0,0,0,2,.4,1.47,1.47,0,0,0,.39-2l-6.89-10a1.44,1.44,0,0,0-2.49,1.44Z" style="fill: rgb(224, 224, 224); transform-origin: 316.318px 137.571px;" id="elvo5274aczg" class="animable"></path></g></g><defs>     <filter id="active" height="200%">         <feMorphology in="SourceAlpha" result="DILATED" operator="dilate" radius="2"></feMorphology>                <feFlood flood-color="#32DFEC" flood-opacity="1" result="PINK"></feFlood>        <feComposite in="PINK" in2="DILATED" operator="in" result="OUTLINE"></feComposite>        <feMerge>            <feMergeNode in="OUTLINE"></feMergeNode>            <feMergeNode in="SourceGraphic"></feMergeNode>        </feMerge>    </filter>    <filter id="hover" height="200%">        <feMorphology in="SourceAlpha" result="DILATED" operator="dilate" radius="2"></feMorphology>                <feFlood flood-color="#ff0000" flood-opacity="0.5" result="PINK"></feFlood>        <feComposite in="PINK" in2="DILATED" operator="in" result="OUTLINE"></feComposite>        <feMerge>            <feMergeNode in="OUTLINE"></feMergeNode>            <feMergeNode in="SourceGraphic"></feMergeNode>        </feMerge>            <feColorMatrix type="matrix" values="0   0   0   0   0                0   1   0   0   0                0   0   0   0   0                0   0   0   1   0 "></feColorMatrix>    </filter></defs></svg>