<?xml version="1.0" encoding="iso-8859-1"?>
<!-- Uploaded to: SVG Repo, www.svgrepo.com, Generator: SVG Repo Mixer Tools -->
<svg height="800px" width="800px" version="1.1" id="Layer_1" xmlns="http://www.w3.org/2000/svg" xmlns:xlink="http://www.w3.org/1999/xlink" 
	 viewBox="0 0 496.159 496.159" xml:space="preserve">
<path style="fill:#E04F5F;" d="M496.159,248.086c0-137.022-111.07-248.082-248.076-248.082C111.071,0.004,0,111.063,0,248.086
	c0,137.001,111.07,248.07,248.083,248.07C385.089,496.155,496.159,385.086,496.159,248.086z"/>
<g>
	<path style="fill:#FFFFFF;" d="M259.432,128.917c-3.409-1.851-7.559-1.688-10.813,0.425l-95.137,61.791h-35.164
		c-5.845,0-10.583,4.738-10.583,10.582v92.728c0,5.845,4.738,10.583,10.583,10.583h35.164l95.137,61.79
		c1.748,1.135,3.754,1.708,5.765,1.708c1.733,0,3.471-0.426,5.049-1.283c3.41-1.852,5.534-5.42,5.534-9.301V138.219
		C264.966,134.339,262.842,130.768,259.432,128.917z"/>
	<path style="fill:#FFFFFF;" d="M355.405,248.079l30.384-30.384c3.515-3.516,3.515-9.213,0-12.729
		c-3.515-3.514-9.213-3.514-12.728,0l-30.384,30.385l-30.384-30.385c-3.515-3.514-9.213-3.514-12.728,0
		c-3.515,3.516-3.515,9.213,0,12.729l30.385,30.384l-30.384,30.384c-3.515,3.516-3.515,9.213,0,12.729
		c1.757,1.757,4.061,2.636,6.364,2.636c2.303,0,4.606-0.879,6.364-2.636l30.384-30.385l30.384,30.385
		c1.757,1.757,4.061,2.636,6.364,2.636c2.303,0,4.606-0.879,6.364-2.636c3.515-3.516,3.515-9.213,0-12.729L355.405,248.079z"/>
</g>
</svg>