<svg xmlns="http://www.w3.org/2000/svg" width="1815" height="1233" fill="none"><g opacity=".25"><path fill="url(#a)" fill-opacity=".18" d="M425.268-192.756 15.739 40.401l441.563 262.86L890.308.491l-465.04-193.247z"/><path fill="url(#b)" fill-opacity=".4" d="M425.268-192.756 15.739 40.401l441.563 262.86L890.308.491l-465.04-193.247z"/><path fill="url(#c)" fill-opacity=".44" d="M79 238v418.866l173.43 115.361 202.553 123.321L456 428.061 79 238z"/><path fill="url(#d)" fill-opacity=".45" d="M965-233v418.866l173.43 115.361 202.55 123.321L1342-42.939 965-233z"/><path fill="url(#e)" fill-opacity=".22" d="M959.733 553 501 743.774 959.733 986 1430 736.5 959.733 553z"/><path fill="url(#f)" fill-opacity=".45" d="m1815 129-437.89 182.45L1376 820l231.17-126.819 196.86-111.597L1815 129z"/></g><defs><linearGradient id="a" x1="521.998" x2="678.572" y1="48.889" y2="156.267" gradientUnits="userSpaceOnUse"><stop stop-color="#F8F9FA"/><stop offset="1" stop-color="#0094FF"/></linearGradient><linearGradient id="b" x1="-491.49" x2="522.968" y1="13.583" y2="-38.594" gradientUnits="userSpaceOnUse"><stop stop-color="#0094FF"/><stop offset="1" stop-color="#fff" stop-opacity="0"/></linearGradient><linearGradient id="c" x1="557" x2="114.714" y1="1092" y2="313.538" gradientUnits="userSpaceOnUse"><stop stop-color="#0094FF"/><stop offset="1" stop-color="#fff" stop-opacity="0"/></linearGradient><linearGradient id="d" x1="1443" x2="1000.71" y1="621" y2="-157.462" gradientUnits="userSpaceOnUse"><stop stop-color="#0094FF"/><stop offset="1" stop-color="#fff" stop-opacity="0"/></linearGradient><linearGradient id="f" x1="1318.59" x2="1893.72" y1="880.557" y2="59.364" gradientUnits="userSpaceOnUse"><stop stop-color="#62B1EA"/><stop offset="1" stop-color="#fff" stop-opacity="0"/></linearGradient><radialGradient id="e" cx="0" cy="0" r="1" gradientTransform="matrix(57.74854 808.9995 -1928.67248 137.67379 905.998 176.997)" gradientUnits="userSpaceOnUse"><stop offset=".313" stop-color="#fff"/><stop offset="1" stop-color="#0094FF"/></radialGradient></defs></svg>