<?xml version="1.0" encoding="iso-8859-1"?>
<!-- Generator: Adobe Illustrator 19.0.0, SVG Export Plug-In . SVG Version: 6.00 Build 0)  -->
<svg version="1.1" id="Layer_1" xmlns="http://www.w3.org/2000/svg" xmlns:xlink="http://www.w3.org/1999/xlink" x="0px" y="0px"
	 viewBox="0 0 512 512" style="enable-background:new 0 0 512 512;" xml:space="preserve">
<g>
	<path style="fill:#38454F;" d="M512,317.793H0V48.552c0-17.064,13.833-30.897,30.897-30.897h450.207
		c17.064,0,30.897,13.833,30.897,30.897V317.793z"/>
	<path style="fill:#E8EDEE;" d="M361.931,494.345H150.069c0-19.5,15.81-35.31,35.31-35.31h141.241
		C346.121,459.034,361.931,474.845,361.931,494.345"/>
	<polygon style="fill:#B0B6BB;" points="317.793,459.034 194.207,459.034 211.862,388.414 300.138,388.414 	"/>
	<path style="fill:#E8EDEE;" d="M481.103,388.414H30.897C13.833,388.414,0,374.581,0,357.517v-39.724h512v39.724
		C512,374.581,498.167,388.414,481.103,388.414"/>
	<g>
		<path style="fill:#25AE88;" d="M291.31,291.31c-4.882,0-8.828-3.955-8.828-8.828V256c0-4.873,3.946-8.828,8.828-8.828
			c4.882,0,8.828,3.955,8.828,8.828v26.483C300.138,287.356,296.192,291.31,291.31,291.31"/>
		<path style="fill:#25AE88;" d="M326.621,291.31c-4.882,0-8.828-3.955-8.828-8.828V220.69c0-4.873,3.946-8.828,8.828-8.828
			c4.882,0,8.828,3.955,8.828,8.828v61.793C335.448,287.356,331.502,291.31,326.621,291.31"/>
		<path style="fill:#25AE88;" d="M361.931,291.31c-4.882,0-8.828-3.955-8.828-8.828v-44.138c0-4.873,3.946-8.828,8.828-8.828
			c4.882,0,8.828,3.955,8.828,8.828v44.138C370.759,287.356,366.813,291.31,361.931,291.31"/>
		<path style="fill:#25AE88;" d="M397.241,291.31c-4.882,0-8.828-3.955-8.828-8.828V176.552c0-4.873,3.946-8.828,8.828-8.828
			c4.882,0,8.828,3.955,8.828,8.828v105.931C406.069,287.356,402.123,291.31,397.241,291.31"/>
		<path style="fill:#25AE88;" d="M432.552,291.31c-4.882,0-8.828-3.955-8.828-8.828v-70.621c0-4.873,3.946-8.828,8.828-8.828
			c4.882,0,8.828,3.955,8.828,8.828v70.621C441.379,287.356,437.433,291.31,432.552,291.31"/>
	</g>
	<path style="fill:#DD691D;" d="M238.345,163.31c0,51.191-41.498,92.69-92.69,92.69s-92.69-41.498-92.69-92.69
		s41.498-92.69,92.69-92.69S238.345,112.119,238.345,163.31"/>
	<path style="fill:#ECBA16;" d="M141.362,70.718c-0.044,0.044-0.071,0.079-0.124,0.124v96.556c0,0.185,0.15,0.327,0.327,0.327
		h96.556c0.044-0.044,0.079-0.071,0.124-0.124C240.708,113.02,195.943,68.255,141.362,70.718"/>
	<g>
		<path style="fill:#DD691D;" d="M388.414,114.759h-70.621c-4.882,0-8.828-3.955-8.828-8.828c0-4.873,3.946-8.828,8.828-8.828
			h70.621c4.882,0,8.828,3.955,8.828,8.828C397.241,110.804,393.295,114.759,388.414,114.759"/>
		<path style="fill:#DD691D;" d="M432.552,114.759c-2.295,0-4.599-0.971-6.268-2.56c-0.353-0.441-0.794-0.883-1.059-1.324
			c-0.353-0.53-0.618-1.059-0.794-1.589c-0.265-0.53-0.441-1.059-0.53-1.589c-0.088-0.618-0.177-1.236-0.177-1.766
			c0-0.53,0.088-1.148,0.177-1.766c0.088-0.53,0.265-1.059,0.53-1.589c0.177-0.53,0.441-1.059,0.794-1.589
			c0.265-0.441,0.706-0.883,1.059-1.324c3.266-3.266,9.181-3.266,12.535,0c1.589,1.677,2.56,3.884,2.56,6.268
			c0,2.383-0.971,4.59-2.56,6.268C437.142,113.788,434.847,114.759,432.552,114.759"/>
		<path style="fill:#DD691D;" d="M432.552,70.621h-26.483c-4.882,0-8.828-3.955-8.828-8.828s3.946-8.828,8.828-8.828h26.483
			c4.882,0,8.828,3.955,8.828,8.828S437.433,70.621,432.552,70.621"/>
		<path style="fill:#DD691D;" d="M335.448,70.621h-17.655c-4.882,0-8.828-3.955-8.828-8.828s3.946-8.828,8.828-8.828h17.655
			c4.882,0,8.828,3.955,8.828,8.828S340.33,70.621,335.448,70.621"/>
		<path style="fill:#DD691D;" d="M370.759,70.621c-2.295,0-4.599-0.971-6.268-2.56c-1.598-1.677-2.56-3.972-2.56-6.268
			c0-2.295,0.962-4.59,2.56-6.268c0.883-0.794,1.766-1.412,2.913-1.854c3.266-1.412,7.15-0.618,9.622,1.854
			c1.589,1.677,2.56,3.972,2.56,6.268c0,2.295-0.971,4.59-2.56,6.268C375.349,69.65,373.054,70.621,370.759,70.621"/>
	</g>
</g>
<g>
</g>
<g>
</g>
<g>
</g>
<g>
</g>
<g>
</g>
<g>
</g>
<g>
</g>
<g>
</g>
<g>
</g>
<g>
</g>
<g>
</g>
<g>
</g>
<g>
</g>
<g>
</g>
<g>
</g>
</svg>
