<svg width="6" height="5" viewBox="0 0 6 5" fill="none" xmlns="http://www.w3.org/2000/svg">
<path d="M3.52006 3.59003H1.81006C1.74454 3.58756 1.68238 3.56042 1.63603 3.51406C1.58967 3.46771 1.56253 3.40554 1.56006 3.34003V1.86003C1.56253 1.83793 1.57309 1.81753 1.58971 1.80276C1.60633 1.78799 1.62782 1.77989 1.65006 1.78003H3.65006C3.67053 1.7822 3.68964 1.79133 3.7042 1.80589C3.71876 1.82045 3.72789 1.83956 3.73006 1.86003V3.34003C3.73083 3.39995 3.71005 3.45816 3.67151 3.50405C3.63296 3.54993 3.57921 3.58045 3.52006 3.59003ZM1.73006 2.00003V3.34003C1.73223 3.3605 1.74136 3.37961 1.75592 3.39417C1.77047 3.40873 1.78958 3.41786 1.81006 3.42003H3.52006C3.54128 3.42003 3.56162 3.4116 3.57663 3.3966C3.59163 3.3816 3.60006 3.36125 3.60006 3.34003V2.00003H1.73006Z" fill="#71717A"/>
<path d="M3.69009 2.00003H1.69009C1.67919 2.00534 1.66722 2.0081 1.65509 2.0081C1.64297 2.0081 1.631 2.00534 1.62009 2.00003C1.61307 1.98787 1.60938 1.97408 1.60938 1.96003C1.60938 1.94599 1.61307 1.9322 1.62009 1.92003L1.95009 1.28003C1.97048 1.24468 1.99954 1.2151 2.03454 1.19411C2.06953 1.17311 2.1093 1.16138 2.15009 1.16003H3.23009C3.2711 1.16039 3.31127 1.1717 3.34643 1.1928C3.3816 1.2139 3.41048 1.24402 3.43009 1.28003L3.76009 1.92003C3.77013 1.94576 3.77013 1.97431 3.76009 2.00003C3.73752 2.00847 3.71266 2.00847 3.69009 2.00003ZM1.79009 1.83003H3.55009L3.28009 1.32003H2.10009C2.09249 1.31565 2.08387 1.31334 2.07509 1.31334C2.06632 1.31334 2.05769 1.31565 2.05009 1.32003L1.79009 1.83003Z" fill="#71717A"/>
<path d="M2.67008 1.48995C2.65877 1.49137 2.64728 1.49036 2.63639 1.48699C2.6255 1.48361 2.61545 1.47794 2.60693 1.47037C2.59841 1.46279 2.5916 1.45348 2.58697 1.44306C2.58234 1.43264 2.57999 1.42135 2.58008 1.40995V1.15995C2.58008 1.13608 2.58956 1.11318 2.60644 1.09631C2.62332 1.07943 2.64621 1.06995 2.67008 1.06995C2.69218 1.07242 2.71258 1.08298 2.72735 1.0996C2.74212 1.11621 2.75022 1.13771 2.75008 1.15995V1.40995C2.75008 1.43116 2.74165 1.45151 2.72665 1.46651C2.71165 1.48152 2.6913 1.48995 2.67008 1.48995Z" fill="#71717A"/>
<path d="M2.67008 2.40998C2.64784 2.41012 2.62635 2.40202 2.60973 2.38725C2.59311 2.37247 2.58255 2.35207 2.58008 2.32998V1.67998C2.58255 1.65788 2.59311 1.63748 2.60973 1.62271C2.62635 1.60794 2.64784 1.59984 2.67008 1.59998C2.69055 1.60215 2.70966 1.61128 2.72422 1.62584C2.73878 1.64039 2.74791 1.6595 2.75008 1.67998V2.32998C2.74791 2.35045 2.73878 2.36956 2.72422 2.38412C2.70966 2.39868 2.69055 2.4078 2.67008 2.40998Z" fill="#71717A"/>
<path d="M4.82012 2.99998C4.82012 2.99998 4.77012 2.99998 4.76012 2.99998L4.25012 2.52998C4.24308 2.51602 4.23942 2.50061 4.23942 2.48498C4.23942 2.46935 4.24308 2.45393 4.25012 2.43998C4.25643 2.42424 4.26758 2.41092 4.28196 2.40193C4.29634 2.39294 4.3132 2.38876 4.33012 2.38998H4.50012C4.49117 1.97259 4.339 1.57096 4.06912 1.25244C3.79923 0.933912 3.42805 0.717856 3.01779 0.640494C2.60753 0.563131 2.18315 0.629166 1.8158 0.827525C1.44845 1.02588 1.16046 1.34451 1.00012 1.72998C0.998152 1.74064 0.99374 1.7507 0.987226 1.75936C0.980712 1.76802 0.972275 1.77506 0.96258 1.7799C0.952885 1.78475 0.942196 1.78728 0.931357 1.78729C0.920517 1.78731 0.909823 1.7848 0.900116 1.77998C0.889133 1.77672 0.878976 1.77114 0.870335 1.76362C0.861693 1.7561 0.854768 1.74681 0.850027 1.73638C0.845286 1.72595 0.842841 1.71463 0.842856 1.70317C0.842872 1.69171 0.845348 1.68039 0.850116 1.66998C0.997293 1.30598 1.24835 0.993355 1.572 0.771073C1.89564 0.54879 2.27755 0.426684 2.67012 0.419977C3.20055 0.419977 3.70926 0.63069 4.08433 1.00576C4.4594 1.38084 4.67012 1.88954 4.67012 2.41998C4.67012 2.44385 4.66063 2.46674 4.64376 2.48362C4.62688 2.50049 4.60399 2.50998 4.58012 2.50998L4.87012 2.76998L5.11012 2.50998H5.00012C4.98561 2.512 4.97082 2.51046 4.95705 2.50548C4.94327 2.50049 4.93092 2.49222 4.92107 2.48138C4.91122 2.47054 4.90416 2.45746 4.90051 2.44328C4.89685 2.42909 4.89672 2.41423 4.90012 2.39998C4.89339 1.88636 4.71035 1.39066 4.38166 0.99593C4.05297 0.601202 3.5986 0.331432 3.09469 0.231822C2.59078 0.132212 2.06795 0.208814 1.61379 0.448794C1.15964 0.688773 0.801756 1.07755 0.600116 1.54998C0.589745 1.56917 0.573382 1.58444 0.553522 1.59347C0.533662 1.6025 0.511396 1.60478 0.490116 1.59998C0.479364 1.58365 0.473633 1.56453 0.473633 1.54498C0.473633 1.52543 0.479364 1.5063 0.490116 1.48998C0.702118 0.984887 1.07986 0.567088 1.56111 0.305427C2.04235 0.0437668 2.59837 -0.0461428 3.13756 0.0505142C3.67674 0.147171 4.16691 0.424627 4.52729 0.837163C4.88767 1.2497 5.09677 1.7727 5.12012 2.31998H5.30012C5.31534 2.32078 5.33001 2.32591 5.34241 2.33477C5.35481 2.34363 5.36442 2.35584 5.37012 2.36998C5.3807 2.38258 5.3865 2.39852 5.3865 2.41498C5.3865 2.43144 5.3807 2.44737 5.37012 2.45998L4.94012 2.92998L4.82012 2.99998Z" fill="#71717A"/>
<path d="M4.82012 2.99998C4.82012 2.99998 4.77012 2.99998 4.76012 2.99998L4.25012 2.52998C4.24308 2.51602 4.23942 2.50061 4.23942 2.48498C4.23942 2.46935 4.24308 2.45393 4.25012 2.43998C4.25643 2.42424 4.26758 2.41092 4.28196 2.40193C4.29634 2.39294 4.3132 2.38876 4.33012 2.38998H4.50012C4.49117 1.97259 4.339 1.57096 4.06912 1.25244C3.79923 0.933912 3.42805 0.717856 3.01779 0.640494C2.60753 0.563131 2.18315 0.629166 1.8158 0.827525C1.44845 1.02588 1.16046 1.34451 1.00012 1.72998C0.998152 1.74064 0.99374 1.7507 0.987226 1.75936C0.980712 1.76802 0.972275 1.77506 0.96258 1.7799C0.952885 1.78475 0.942196 1.78728 0.931357 1.78729C0.920517 1.78731 0.909823 1.7848 0.900116 1.77998C0.889133 1.77672 0.878976 1.77114 0.870335 1.76362C0.861693 1.7561 0.854768 1.74681 0.850027 1.73638C0.845286 1.72595 0.842841 1.71463 0.842856 1.70317C0.842872 1.69171 0.845348 1.68039 0.850116 1.66998C0.997293 1.30598 1.24835 0.993355 1.572 0.771073C1.89564 0.54879 2.27755 0.426684 2.67012 0.419977C3.20055 0.419977 3.70926 0.63069 4.08433 1.00576C4.4594 1.38084 4.67012 1.88954 4.67012 2.41998C4.67012 2.44385 4.66063 2.46674 4.64376 2.48362C4.62688 2.50049 4.60399 2.50998 4.58012 2.50998L4.87012 2.76998L5.11012 2.50998H5.00012C4.98561 2.512 4.97082 2.51046 4.95705 2.50548C4.94327 2.50049 4.93092 2.49222 4.92107 2.48138C4.91122 2.47054 4.90416 2.45746 4.90051 2.44328C4.89685 2.42909 4.89672 2.41423 4.90012 2.39998C4.89339 1.88636 4.71035 1.39066 4.38166 0.99593C4.05297 0.601202 3.5986 0.331432 3.09469 0.231822C2.59078 0.132212 2.06795 0.208814 1.61379 0.448794C1.15964 0.688773 0.801756 1.07755 0.600116 1.54998C0.589745 1.56917 0.573382 1.58444 0.553522 1.59347C0.533662 1.6025 0.511396 1.60478 0.490116 1.59998C0.479364 1.58365 0.473633 1.56453 0.473633 1.54498C0.473633 1.52543 0.479364 1.5063 0.490116 1.48998C0.702118 0.984887 1.07986 0.567088 1.56111 0.305427C2.04235 0.0437668 2.59837 -0.0461428 3.13756 0.0505142C3.67674 0.147171 4.16691 0.424627 4.52729 0.837163C4.88767 1.2497 5.09677 1.7727 5.12012 2.31998H5.30012C5.31534 2.32078 5.33001 2.32591 5.34241 2.33477C5.35481 2.34363 5.36442 2.35584 5.37012 2.36998C5.3807 2.38258 5.3865 2.39852 5.3865 2.41498C5.3865 2.43144 5.3807 2.44737 5.37012 2.45998L4.94012 2.92998L4.82012 2.99998Z" fill="#71717A"/>
<path d="M2.66018 4.87002C2.03729 4.87037 1.43865 4.62852 0.990798 4.19559C0.542941 3.76266 0.280948 3.17257 0.260184 2.55002H0.0801843C0.0632717 2.55124 0.046409 2.54705 0.0320299 2.53807C0.0176508 2.52908 0.00649911 2.51576 0.000184342 2.50002C-0.00884398 2.48675 -0.0136719 2.47107 -0.0136719 2.45502C-0.0136719 2.43897 -0.00884398 2.42329 0.000184342 2.41002L0.450184 2.00002C0.469596 1.99316 0.490773 1.99316 0.510184 2.00002H0.570184L1.08018 2.47002C1.08722 2.48398 1.09088 2.49939 1.09088 2.51502C1.09088 2.53065 1.08722 2.54606 1.08018 2.56002C1.06802 2.56704 1.05423 2.57074 1.04018 2.57074C1.02614 2.57074 1.01235 2.56704 1.00018 2.56002H0.850184C0.875682 3.02345 1.07727 3.45963 1.41372 3.77935C1.75017 4.09907 2.19606 4.27817 2.66018 4.28002C3.02272 4.28249 3.37745 4.17481 3.67744 3.97124C3.97744 3.76768 4.20854 3.47782 4.34018 3.14002C4.35504 3.12595 4.37472 3.11811 4.39518 3.11811C4.41564 3.11811 4.43533 3.12595 4.45018 3.14002C4.45684 3.14654 4.46212 3.15432 4.46573 3.1629C4.46934 3.17149 4.47119 3.18071 4.47119 3.19002C4.47119 3.19933 4.46934 3.20855 4.46573 3.21714C4.46212 3.22572 4.45684 3.2335 4.45018 3.24002C4.299 3.59193 4.04995 3.89303 3.73264 4.10753C3.41532 4.32203 3.04309 4.4409 2.66018 4.45002C2.12975 4.45002 1.62104 4.23931 1.24597 3.86423C0.870898 3.48916 0.660184 2.98045 0.660184 2.45002C0.660095 2.43862 0.662444 2.42733 0.667075 2.41691C0.671705 2.40649 0.67851 2.39718 0.687033 2.3896C0.695556 2.38202 0.7056 2.37636 0.716491 2.37298C0.727383 2.3696 0.738871 2.36859 0.750184 2.37002L0.520184 2.12002L0.270184 2.39002H0.340184C0.351498 2.38859 0.362986 2.3896 0.373877 2.39298C0.384769 2.39636 0.394813 2.40202 0.403336 2.4096C0.411859 2.41718 0.418663 2.42649 0.423294 2.43691C0.427925 2.44733 0.430274 2.45862 0.430184 2.47002C0.425338 2.98995 0.602323 3.49522 0.930538 3.89848C1.25875 4.30175 1.71756 4.57764 2.22764 4.67847C2.73772 4.7793 3.267 4.69872 3.72396 4.45067C4.18092 4.20262 4.53684 3.80268 4.73018 3.32002C4.74504 3.30595 4.76472 3.29812 4.78518 3.29812C4.80564 3.29812 4.82533 3.30595 4.84018 3.32002C4.85425 3.33488 4.86209 3.35456 4.86209 3.37502C4.86209 3.39548 4.85425 3.41516 4.84018 3.43002C4.65578 3.85573 4.35147 4.21857 3.96437 4.47427C3.57726 4.72997 3.12411 4.86748 2.66018 4.87002Z" fill="#71717A"/>
<path d="M2.39042 3.19H2.00042C1.9934 3.17784 1.9897 3.16404 1.9897 3.15C1.9897 3.13596 1.9934 3.12216 2.00042 3.11C1.98635 3.09514 1.97852 3.07546 1.97852 3.055C1.97852 3.03454 1.98635 3.01486 2.00042 3H2.35042C2.37429 3 2.39718 3.00948 2.41406 3.02636C2.43094 3.04324 2.44042 3.06613 2.44042 3.09C2.44458 3.10986 2.44191 3.13055 2.43283 3.14871C2.42376 3.16686 2.40881 3.18141 2.39042 3.19Z" fill="#71717A"/>
<path d="M2.39018 2.83992H2.00018C1.99116 2.82665 1.98633 2.81097 1.98633 2.79492C1.98633 2.77887 1.99116 2.76319 2.00018 2.74992C1.99316 2.73776 1.98947 2.72397 1.98947 2.70992C1.98947 2.69588 1.99316 2.68209 2.00018 2.66992H2.35018C2.37242 2.66979 2.39392 2.67788 2.41053 2.69265C2.42715 2.70743 2.43771 2.72783 2.44018 2.74992C2.44206 2.76824 2.43827 2.78669 2.42932 2.80278C2.42038 2.81887 2.40672 2.83184 2.39018 2.83992Z" fill="#71717A"/>
</svg>
