<?xml version="1.0" encoding="iso-8859-1"?>
<!-- Generator: Adobe Illustrator 19.0.0, SVG Export Plug-In . SVG Version: 6.00 Build 0)  -->
<svg version="1.1" id="Layer_1" xmlns="http://www.w3.org/2000/svg" xmlns:xlink="http://www.w3.org/1999/xlink" x="0px" y="0px"
	 viewBox="0 0 512 512" style="enable-background:new 0 0 512 512;" xml:space="preserve">
<path style="fill:#FF3F62;" d="M411.159,77.556h-38.794h-23.273H325.82h-46.536h-23.273h-23.273h-46.544h-23.273h-23.273h-38.794
	c-7.23,0-13.689,3.297-17.959,8.468c-1.898,2.299-3.362,4.968-4.268,7.883c-0.68,2.186-1.046,4.51-1.046,6.92v38.81v23.273v23.273
	v46.539v23.273v23.273v46.552v23.273v23.273v38.794c0,12.851,10.42,23.273,23.273,23.273h38.794h23.273h23.273h46.544h23.273h23.273
	h46.536h23.273h23.273h38.794c12.853,0,23.273-10.422,23.273-23.273v-38.794v-23.273v-23.273v-46.552v-23.273v-23.273v-46.539
	v-23.273v-23.273v-38.808C434.432,87.976,424.012,77.556,411.159,77.556z"/>
<g>
	<path style="fill:#FFA733;" d="M186.194,77.556V23.273C186.194,10.42,175.774,0,162.922,0c-12.853,0-23.273,10.42-23.273,23.273
		v54.283h23.273H186.194z"/>
	<path style="fill:#FFA733;" d="M372.365,77.556V23.273C372.365,10.42,361.945,0,349.092,0S325.82,10.42,325.82,23.273v54.283
		h23.273H372.365z"/>
	<path style="fill:#FFA733;" d="M279.284,77.556V23.273C279.284,10.42,268.864,0,256.011,0s-23.273,10.42-23.273,23.273v54.283
		h23.273H279.284z"/>
	<path style="fill:#FFA733;" d="M325.82,434.43v54.297c0,12.851,10.42,23.273,23.273,23.273s23.273-10.422,23.273-23.273V434.43
		h-23.273H325.82z"/>
	<path style="fill:#FFA733;" d="M139.649,434.43v54.297c0,12.851,10.42,23.273,23.273,23.273c12.853,0,23.273-10.422,23.273-23.273
		V434.43h-23.273H139.649z"/>
	<path style="fill:#FFA733;" d="M232.738,434.43v54.297c0,12.851,10.42,23.273,23.273,23.273s23.273-10.422,23.273-23.273V434.43
		h-23.273H232.738z"/>
	<path style="fill:#FFA733;" d="M434.432,186.182h54.295c12.853,0,23.273-10.42,23.273-23.273c0-12.853-10.42-23.273-23.273-23.273
		h-54.295v23.273V186.182z"/>
	<path style="fill:#FFA733;" d="M434.432,372.364h54.295c12.853,0,23.273-10.422,23.273-23.273c0-12.854-10.42-23.273-23.273-23.273
		h-54.295v23.273V372.364z"/>
	<path style="fill:#FFA733;" d="M434.432,279.267h54.295c12.853,0,23.273-10.422,23.273-23.273c0-12.854-10.42-23.273-23.273-23.273
		h-54.295v23.273V279.267z"/>
	<path style="fill:#FFA733;" d="M77.582,325.818H23.273C10.42,325.818,0,336.237,0,349.091c0,12.851,10.42,23.273,23.273,23.273
		h54.309v-23.273V325.818z"/>
	<path style="fill:#FFA733;" d="M77.582,139.636H23.273C10.42,139.636,0,150.056,0,162.909c0,12.853,10.42,23.273,23.273,23.273
		h54.309v-23.273V139.636z"/>
	<path style="fill:#FFA733;" d="M77.582,232.721H23.273C10.42,232.721,0,243.139,0,255.994c0,12.851,10.42,23.273,23.273,23.273
		h54.309v-23.273V232.721z"/>
</g>
<path style="fill:#D8143A;" d="M77.582,349.091v23.273v38.794c0,12.851,10.42,23.273,23.273,23.273h38.794h23.273h23.273h46.544
	h23.273v-93.097h-62.059c-12.853,0-23.273-10.422-23.273-23.273V193.939c0-12.853,10.42-23.273,23.273-23.273h62.059V77.556h-23.273
	h-46.544h-23.273h-23.273h-38.794c-12.853,0-23.273,10.42-23.273,23.273v38.808v23.273v23.273v46.539v23.273v23.273v46.552
	C77.582,325.818,77.582,349.091,77.582,349.091z"/>
<path style="fill:#ACABB1;" d="M318.062,170.667h-62.051H256h-62.048c-12.853,0-23.273,10.42-23.273,23.273v124.121
	c0,12.851,10.42,23.273,23.273,23.273H256h0.011h62.051c12.853,0,23.273-10.422,23.273-23.273V193.939
	C341.335,181.087,330.915,170.667,318.062,170.667z"/>
<path style="fill:#898890;" d="M193.952,170.667c-12.853,0-23.273,10.42-23.273,23.273v124.121c0,12.851,10.42,23.273,23.273,23.273
	H256V170.667H193.952z"/>
<g>
</g>
<g>
</g>
<g>
</g>
<g>
</g>
<g>
</g>
<g>
</g>
<g>
</g>
<g>
</g>
<g>
</g>
<g>
</g>
<g>
</g>
<g>
</g>
<g>
</g>
<g>
</g>
<g>
</g>
</svg>
