<svg height="512pt" viewBox="0 -59 512 512" width="512pt" xmlns="http://www.w3.org/2000/svg"><path d="m58.472656 385.972656c-28.105468 0-50.972656-22.867187-50.972656-50.972656v-276.527344c0-28.105468 22.867188-50.972656 50.972656-50.972656h395.054688c28.105468 0 50.972656 22.867188 50.972656 50.972656v276.527344c0 28.105469-22.867188 50.972656-50.972656 50.972656zm0 0" fill="#ffc843"/><path d="m504.5 58.476562v276.519532c0 28.109375-22.871094 50.980468-50.96875 50.980468h-18.339844c28.109375 0 50.980469-22.871093 50.980469-50.980468v-276.519532c0-28.109374-22.871094-50.980468-50.980469-50.980468h18.339844c28.097656 0 50.96875 22.871094 50.96875 50.980468zm0 0" fill="#f7a500"/><path d="m464.609375 58.472656v276.527344c0 6.121094-4.960937 11.082031-11.082031 11.082031h-395.054688c-6.121094 0-11.082031-4.960937-11.082031-11.082031v-276.527344c0-6.121094 4.960937-11.082031 11.082031-11.082031h395.054688c6.121094 0 11.082031 4.964844 11.082031 11.082031zm0 0" fill="#fff"/><path d="m112.738281 378.472656h-54.265625c-23.972656 0-43.472656-19.5-43.472656-43.472656v-276.527344c0-23.96875 19.5-43.472656 43.472656-43.472656h308.265625c4.144531 0 7.5-3.359375 7.5-7.5s-3.355469-7.5-7.5-7.5h-308.265625c-32.242187 0-58.472656 26.230469-58.472656 58.472656v276.527344c0 32.242188 26.230469 58.472656 58.472656 58.472656h54.265625c4.144531 0 7.5-3.359375 7.5-7.5s-3.355469-7.5-7.5-7.5zm0 0" fill="#474d54"/><path d="m453.527344 0h-52.265625c-4.144531 0-7.5 3.359375-7.5 7.5 0 4.144531 3.355469 7.5 7.5 7.5h52.265625c23.972656 0 43.472656 19.503906 43.472656 43.472656v276.527344c0 23.972656-19.5 43.472656-43.472656 43.472656h-306.265625c-4.144531 0-7.5 3.359375-7.5 7.5 0 4.144532 3.355469 7.5 7.5 7.5h306.265625c32.242187 0 58.472656-26.230468 58.472656-58.472656v-276.527344c0-32.242187-26.230469-58.472656-58.472656-58.472656zm0 0" fill="#474d54"/><g fill="#c2c7d0"><path d="m261.039062 201.054688c1.789063-3.734376.210938-8.214844-3.527343-10.003907-3.734375-1.789062-8.214844-.207031-10 3.527344-21.964844 45.878906-64.914063 77.480469-65.34375 77.796875-3.351563 2.433594-4.09375 7.121094-1.660157 10.472656 1.464844 2.019532 3.753907 3.09375 6.074219 3.09375 1.527344 0 3.070313-.464844 4.398438-1.429687 1.886719-1.367188 46.414062-34.0625 70.058593-83.457031zm0 0"/><path d="m306.632812 88.472656c-16.246093-7.777344-34.351562-11.890625-52.355468-11.890625-46.40625 0-89.328125 27.039063-109.351563 68.890625-1.789062 3.734375-.207031 8.214844 3.527344 10 3.738281 1.792969 8.214844.210938 10-3.527344 17.550781-36.667968 55.160156-60.363281 95.824219-60.363281 15.777344 0 31.636718 3.601563 45.875 10.417969 25.589844 12.246094 44.875 33.730469 54.3125 60.496094 9.433594 26.761718 7.878906 55.597656-4.371094 81.191406-1.789062 3.734375-.210938 8.214844 3.523438 10.003906 1.046874.5 2.148437.734375 3.234374.734375 2.796876 0 5.480469-1.570312 6.769532-4.261719 13.984375-29.207031 15.753906-62.113281 4.988281-92.65625-10.765625-30.542968-32.777344-55.058593-61.976563-69.035156zm0 0"/><path d="m287.851562 308.871094c1.417969 1.234375 3.167969 1.839844 4.914063 1.839844 2.09375 0 4.179687-.875 5.664063-2.582032 18.8125-21.664062 33.980468-44.40625 45.082031-67.59375 11.40625-23.839844 12.851562-50.691406 4.070312-75.613281-8.792969-24.921875-26.757812-44.929687-50.582031-56.335937-13.242188-6.347657-28.015625-9.699219-42.722656-9.699219-37.867188 0-72.890625 22.0625-89.230469 56.210937-6.449219 13.464844-17.867187 25.96875-26.308594 34.082032-2.984375 2.871093-3.082031 7.621093-.210937 10.605468s7.621094 3.078125 10.605468.207032c9.335938-8.972657 22.019532-22.925782 29.441407-38.417969 13.863281-28.972657 43.578125-47.6875 75.703125-47.6875 12.476562 0 25.007812 2.84375 36.242187 8.226562 20.214844 9.675781 35.457031 26.652344 42.917969 47.796875 7.449219 21.140625 6.222656 43.921875-3.457031 64.148438-10.519531 21.972656-24.945313 43.582031-42.875 64.230468-2.71875 3.132813-2.382813 7.867188.746093 10.582032zm0 0"/><path d="m256.320312 316.890625c1.882813 0 3.765626-.703125 5.222657-2.117187 18.496093-17.953126 44.238281-47.074219 61.851562-83.871094 8.835938-18.453125 9.957031-39.253906 3.152344-58.5625s-20.71875-34.804688-39.179687-43.640625c-10.273438-4.914063-21.71875-7.511719-33.089844-7.511719-29.328125 0-56.460938 17.089844-69.125 43.542969-12.398438 25.902343-38.171875 47.335937-43.210938 51.371093-3.234375 2.585938-3.757812 7.308594-1.167968 10.542969 2.585937 3.230469 7.308593 3.753907 10.542968 1.167969 7.707032-6.167969 33.902344-28.484375 47.363282-56.601562 10.1875-21.277344 32.007812-35.023438 55.597656-35.023438 9.148437 0 18.351562 2.089844 26.617187 6.042969 14.84375 7.105469 26.035157 19.566406 31.507813 35.089843 5.46875 15.535157 4.570312 32.261719-2.539063 47.105469-16.652343 34.796875-41.148437 62.484375-58.765625 79.582031-2.972656 2.886719-3.042968 7.632813-.160156 10.605469 1.46875 1.519531 3.425781 2.277344 5.382812 2.277344zm0 0"/><path d="m227.375 313.207031c1.730469 0 3.46875-.59375 4.886719-1.8125 17.6875-15.199219 50.4375-47.117187 71.015625-90.113281 6.265625-13.085938 7.0625-27.832031 2.234375-41.53125-4.820313-13.683594-14.6875-24.667969-27.777344-30.933594-7.28125-3.488281-15.394531-5.332031-23.457031-5.332031-20.792969 0-40.027344 12.117187-49.011719 30.871094-16.289063 34.039062-50.496094 60.027343-50.765625 60.230469-1.945312 1.429687-3.761719 2.941406-5.386719 4.5-2.992187 2.863281-3.097656 7.613281-.234375 10.605468 2.867188 2.992188 7.613282 3.09375 10.605469.230469 1.15625-1.105469 2.464844-2.199219 3.960937-3.296875 1.523438-1.144531 37.496094-28.484375 55.347657-65.789062 6.503906-13.578126 20.433593-22.351563 35.484375-22.351563 5.835937 0 11.707031 1.335937 16.984375 3.859375 9.472656 4.535156 16.613281 12.488281 20.105469 22.390625 3.492187 9.917969 2.917968 20.59375-1.621094 30.066406-19.394532 40.523438-50.464844 70.785157-67.261719 85.214844-3.140625 2.699219-3.5 7.4375-.800781 10.578125 1.484375 1.726562 3.582031 2.613281 5.691406 2.613281zm0 0"/><path d="m203.527344 303.878906c1.601562 0 3.214844-.511718 4.582031-1.570312 11.789063-9.121094 52.050781-42.613282 75.054687-90.664063 3.691407-7.710937 4.160157-16.40625 1.316407-24.46875-2.84375-8.074219-8.660157-14.554687-16.363281-18.238281-4.285157-2.058594-9.070313-3.148438-13.839844-3.148438-12.253906 0-23.597656 7.140626-28.894532 18.195313-18.46875 38.59375-55.265624 66.757813-57.675781 68.578125-2.972656 2.164062-5.519531 4.78125-7.570312 7.777344-2.339844 3.417968-1.46875 8.085937 1.949219 10.425781 3.417968 2.339844 8.085937 1.464844 10.425781-1.953125 1.089843-1.589844 2.457031-2.988281 4.058593-4.152344.035157-.023437.085938-.0625.117188-.085937 1.703125-1.277344 41.972656-31.800781 62.222656-74.109375 2.816406-5.878906 8.851563-9.679688 15.367188-9.679688 2.53125 0 5.070312.578125 7.351562 1.675782 4.101563 1.960937 7.191406 5.402343 8.707032 9.695312 1.511718 4.289062 1.261718 8.910156-.703126 13.011719-21.574218 45.070312-59.570312 76.667969-70.699218 85.277343-3.277344 2.535157-3.878906 7.246094-1.34375 10.519532 1.476562 1.914062 3.695312 2.914062 5.9375 2.914062zm0 0"/><path d="m380.417969 312.503906h.042969c4.140624-.023437 7.480468-3.398437 7.460937-7.539062-.023437-4.144532-3.367187-7.492188-7.542969-7.460938h-.09375c-4.140625.023438-7.433594 3.398438-7.414062 7.539063.023437 4.128906 3.425781 7.460937 7.546875 7.460937zm0 0"/><path d="m405.808594 312.503906c4.140625-.023437 7.480468-3.398437 7.460937-7.539062-.023437-4.128906-3.375-7.460938-7.5-7.460938-.011719 0-.027343 0-.039062 0h-.09375c-4.144531.023438-7.4375 3.398438-7.414063 7.539063.019532 4.128906 3.421875 7.460937 7.542969 7.460937zm0 0"/><path d="m431.078125 297.503906h-.09375c-4.140625.023438-7.433594 3.398438-7.414063 7.539063.023438 4.128906 3.421876 7.460937 7.546876 7.460937h.039062c4.144531-.023437 7.484375-3.398437 7.460938-7.539062-.019532-4.144532-3.382813-7.492188-7.539063-7.460938zm0 0"/><path d="m145.453125 78.546875c0-4.140625-3.355469-7.5-7.5-7.5h-53.429687c-4.140626 0-7.5 3.359375-7.5 7.5 0 4.144531 3.359374 7.5 7.5 7.5h53.429687c4.144531 0 7.5-3.355469 7.5-7.5zm0 0"/><path d="m84.523438 93.085938c-4.140626 0-7.5 3.355468-7.5 7.5 0 4.140624 3.359374 7.5 7.5 7.5h41.304687c4.144531 0 7.5-3.359376 7.5-7.5 0-4.144532-3.355469-7.5-7.5-7.5zm0 0"/><path d="m423.527344 243.222656c0 4.140625 3.355468 7.5 7.5 7.5 4.140625 0 7.5-3.359375 7.5-7.5v-25.132812c0-4.144532-3.359375-7.5-7.5-7.5-4.144532 0-7.5 3.355468-7.5 7.5zm0 0"/><path d="m431.027344 170.742188c-4.144532 0-7.5 3.359374-7.5 7.5v12.542968c0 4.144532 3.355468 7.5 7.5 7.5 4.140625 0 7.5-3.355468 7.5-7.5v-12.542968c0-4.140626-3.359375-7.5-7.5-7.5zm0 0"/></g></svg>