<svg height="512" viewBox="0 0 64 64" width="512" xmlns="http://www.w3.org/2000/svg" xmlns:xlink="http://www.w3.org/1999/xlink"><linearGradient id="New_Gradient_Swatch_3" gradientUnits="userSpaceOnUse" x1="31.53" x2="32.375" y1="66.163" y2="1.123"><stop offset="0" stop-color="#006df0"/><stop offset="1" stop-color="#00e7f0"/></linearGradient><linearGradient id="New_Gradient_Swatch_3-2" x1="31.446" x2="32.291" xlink:href="#New_Gradient_Swatch_3" y1="66.162" y2="1.122"/><linearGradient id="New_Gradient_Swatch_3-3" x1="46.943" x2="47.788" xlink:href="#New_Gradient_Swatch_3" y1="66.363" y2="1.323"/><linearGradient id="New_Gradient_Swatch_3-4" x1="53.942" x2="54.787" xlink:href="#New_Gradient_Swatch_3" y1="66.454" y2="1.414"/><linearGradient id="New_Gradient_Swatch_3-5" x1="15.949" x2="16.793" xlink:href="#New_Gradient_Swatch_3" y1="65.961" y2=".92"/><linearGradient id="New_Gradient_Swatch_3-6" x1="8.95" x2="9.794" xlink:href="#New_Gradient_Swatch_3" y1="65.87" y2=".829"/><linearGradient id="New_Gradient_Swatch_3-7" x1="45.853" x2="46.697" xlink:href="#New_Gradient_Swatch_3" y1="66.349" y2="1.309"/><linearGradient id="New_Gradient_Swatch_3-8" x1="52.851" x2="53.696" xlink:href="#New_Gradient_Swatch_3" y1="66.44" y2="1.4"/><linearGradient id="New_Gradient_Swatch_3-9" x1="31.855" x2="32.7" xlink:href="#New_Gradient_Swatch_3" y1="66.167" y2="1.127"/><linearGradient id="New_Gradient_Swatch_3-10" x1="38.854" x2="39.698" xlink:href="#New_Gradient_Swatch_3" y1="66.258" y2="1.218"/><linearGradient id="New_Gradient_Swatch_3-11" x1="10.859" x2="11.703" xlink:href="#New_Gradient_Swatch_3" y1="65.894" y2=".854"/><linearGradient id="New_Gradient_Swatch_3-12" x1="24.856" x2="25.701" xlink:href="#New_Gradient_Swatch_3" y1="66.076" y2="1.036"/><linearGradient id="New_Gradient_Swatch_3-13" x1="17.857" x2="18.702" xlink:href="#New_Gradient_Swatch_3" y1="65.985" y2=".945"/><linearGradient id="New_Gradient_Swatch_3-14" x1="45.762" x2="46.606" xlink:href="#New_Gradient_Swatch_3" y1="66.348" y2="1.307"/><linearGradient id="New_Gradient_Swatch_3-15" x1="52.761" x2="53.605" xlink:href="#New_Gradient_Swatch_3" y1="66.439" y2="1.398"/><linearGradient id="New_Gradient_Swatch_3-16" x1="31.764" x2="32.609" xlink:href="#New_Gradient_Swatch_3" y1="66.166" y2="1.126"/><linearGradient id="New_Gradient_Swatch_3-17" x1="38.763" x2="39.608" xlink:href="#New_Gradient_Swatch_3" y1="66.257" y2="1.217"/><linearGradient id="New_Gradient_Swatch_3-18" x1="10.768" x2="11.612" xlink:href="#New_Gradient_Swatch_3" y1="65.893" y2=".853"/><linearGradient id="New_Gradient_Swatch_3-19" x1="24.765" x2="25.61" xlink:href="#New_Gradient_Swatch_3" y1="66.075" y2="1.035"/><linearGradient id="New_Gradient_Swatch_3-20" x1="17.766" x2="18.611" xlink:href="#New_Gradient_Swatch_3" y1="65.984" y2=".944"/><linearGradient id="New_Gradient_Swatch_3-21" x1="12.718" x2="13.562" xlink:href="#New_Gradient_Swatch_3" y1="65.919" y2=".878"/><linearGradient id="New_Gradient_Swatch_3-22" x1="50.738" x2="51.583" xlink:href="#New_Gradient_Swatch_3" y1="66.412" y2="1.372"/><linearGradient id="New_Gradient_Swatch_3-23" x1="31.349" x2="32.193" xlink:href="#New_Gradient_Swatch_3" y1="66.161" y2="1.12"/><path d="m42 31h-20a1 1 0 0 1 0-2h20a1 1 0 0 1 0 2z" fill="url(#New_Gradient_Swatch_3)"/><path d="m42 26h-20a1 1 0 0 1 -1-1v-3a1 1 0 0 1 1-1h20a1 1 0 0 1 1 1v3a1 1 0 0 1 -1 1zm-19-2h18v-1h-18z" fill="url(#New_Gradient_Swatch_3-2)"/><path d="m49 26h-3a1 1 0 0 1 -1-1v-3a1 1 0 0 1 1-1h3a1 1 0 0 1 1 1v3a1 1 0 0 1 -1 1zm-2-2h1v-1h-1z" fill="url(#New_Gradient_Swatch_3-3)"/><path d="m56 26h-3a1 1 0 0 1 -1-1v-3a1 1 0 0 1 1-1h3a1 1 0 0 1 1 1v3a1 1 0 0 1 -1 1zm-2-2h1v-1h-1z" fill="url(#New_Gradient_Swatch_3-4)"/><path d="m18 26h-3a1 1 0 0 1 -1-1v-3a1 1 0 0 1 1-1h3a1 1 0 0 1 1 1v3a1 1 0 0 1 -1 1zm-2-2h1v-1h-1z" fill="url(#New_Gradient_Swatch_3-5)"/><path d="m11 26h-3a1 1 0 0 1 -1-1v-3a1 1 0 0 1 1-1h3a1 1 0 0 1 1 1v3a1 1 0 0 1 -1 1zm-2-2h1v-1h-1z" fill="url(#New_Gradient_Swatch_3-6)"/><path d="m48 19h-3a1 1 0 0 1 -1-1v-3a1 1 0 0 1 1-1h3a1 1 0 0 1 1 1v3a1 1 0 0 1 -1 1zm-2-2h1v-1h-1z" fill="url(#New_Gradient_Swatch_3-7)"/><path d="m55 19h-3a1 1 0 0 1 -1-1v-3a1 1 0 0 1 1-1h3a1 1 0 0 1 1 1v3a1 1 0 0 1 -1 1zm-2-2h1v-1h-1z" fill="url(#New_Gradient_Swatch_3-8)"/><path d="m34 19h-3a1 1 0 0 1 -1-1v-3a1 1 0 0 1 1-1h3a1 1 0 0 1 1 1v3a1 1 0 0 1 -1 1zm-2-2h1v-1h-1z" fill="url(#New_Gradient_Swatch_3-9)"/><path d="m41 19h-3a1 1 0 0 1 -1-1v-3a1 1 0 0 1 1-1h3a1 1 0 0 1 1 1v3a1 1 0 0 1 -1 1zm-2-2h1v-1h-1z" fill="url(#New_Gradient_Swatch_3-10)"/><path d="m13 19h-3a1 1 0 0 1 -1-1v-3a1 1 0 0 1 1-1h3a1 1 0 0 1 1 1v3a1 1 0 0 1 -1 1zm-2-2h1v-1h-1z" fill="url(#New_Gradient_Swatch_3-11)"/><path d="m27 19h-3a1 1 0 0 1 -1-1v-3a1 1 0 0 1 1-1h3a1 1 0 0 1 1 1v3a1 1 0 0 1 -1 1zm-2-2h1v-1h-1z" fill="url(#New_Gradient_Swatch_3-12)"/><path d="m20 19h-3a1 1 0 0 1 -1-1v-3a1 1 0 0 1 1-1h3a1 1 0 0 1 1 1v3a1 1 0 0 1 -1 1zm-2-2h1v-1h-1z" fill="url(#New_Gradient_Swatch_3-13)"/><path d="m48 12h-3a1 1 0 0 1 -1-1v-3a1 1 0 0 1 1-1h3a1 1 0 0 1 1 1v3a1 1 0 0 1 -1 1zm-2-2h1v-1h-1z" fill="url(#New_Gradient_Swatch_3-14)"/><path d="m55 12h-3a1 1 0 0 1 -1-1v-3a1 1 0 0 1 1-1h3a1 1 0 0 1 1 1v3a1 1 0 0 1 -1 1zm-2-2h1v-1h-1z" fill="url(#New_Gradient_Swatch_3-15)"/><path d="m34 12h-3a1 1 0 0 1 -1-1v-3a1 1 0 0 1 1-1h3a1 1 0 0 1 1 1v3a1 1 0 0 1 -1 1zm-2-2h1v-1h-1z" fill="url(#New_Gradient_Swatch_3-16)"/><path d="m41 12h-3a1 1 0 0 1 -1-1v-3a1 1 0 0 1 1-1h3a1 1 0 0 1 1 1v3a1 1 0 0 1 -1 1zm-2-2h1v-1h-1z" fill="url(#New_Gradient_Swatch_3-17)"/><path d="m13 12h-3a1 1 0 0 1 -1-1v-3a1 1 0 0 1 1-1h3a1 1 0 0 1 1 1v3a1 1 0 0 1 -1 1zm-2-2h1v-1h-1z" fill="url(#New_Gradient_Swatch_3-18)"/><path d="m27 12h-3a1 1 0 0 1 -1-1v-3a1 1 0 0 1 1-1h3a1 1 0 0 1 1 1v3a1 1 0 0 1 -1 1zm-2-2h1v-1h-1z" fill="url(#New_Gradient_Swatch_3-19)"/><path d="m20 12h-3a1 1 0 0 1 -1-1v-3a1 1 0 0 1 1-1h3a1 1 0 0 1 1 1v3a1 1 0 0 1 -1 1zm-2-2h1v-1h-1z" fill="url(#New_Gradient_Swatch_3-20)"/><path d="m21.261 38.011a3.043 3.043 0 0 0 -1.261.159v-5.058a3.077 3.077 0 0 0 -2.739-3.1 3.026 3.026 0 0 0 -1.388.207 3.034 3.034 0 0 0 -2.612-2.207 3.027 3.027 0 0 0 -3.157 2.2 3.063 3.063 0 0 0 -3.212.664 2.944 2.944 0 0 0 -.892 2.124v1.171a3.058 3.058 0 0 0 -3.108.7 2.944 2.944 0 0 0 -.892 2.129v14.343a4.966 4.966 0 0 0 1.464 3.535l.658.658a3.02 3.02 0 0 1 .878 2.121v3.343a1 1 0 0 0 1 1h14a1 1 0 0 0 1-1v-3.343a3.02 3.02 0 0 1 .878-2.121l.658-.658a4.966 4.966 0 0 0 1.464-3.535v-10.231a3.077 3.077 0 0 0 -2.739-3.101zm.739 13.332a3.02 3.02 0 0 1 -.878 2.121l-.658.658a4.966 4.966 0 0 0 -1.464 3.535v2.343h-12v-2.343a4.966 4.966 0 0 0 -1.464-3.535l-.658-.658a3.02 3.02 0 0 1 -.878-2.121v-14.343a.974.974 0 0 1 .306-.712.957.957 0 0 1 .694-.288 1 1 0 0 1 1 1v6a1 1 0 0 0 2 0v-10a.974.974 0 0 1 .306-.712.957.957 0 0 1 .694-.288 1 1 0 0 1 1 1v10a1 1 0 0 0 2 0v-12a.974.974 0 0 1 .306-.712.938.938 0 0 1 .786-.288 1.082 1.082 0 0 1 .908 1.112v11.888a1 1 0 0 0 2 0v-10a.974.974 0 0 1 .306-.712.953.953 0 0 1 .786-.288 1.082 1.082 0 0 1 .908 1.112v15.888a1 1 0 0 0 2 0v-8a.974.974 0 0 1 .306-.712.943.943 0 0 1 .786-.288 1.082 1.082 0 0 1 .908 1.112z" fill="url(#New_Gradient_Swatch_3-21)"/><path d="m58 34.171v-1.171a2.925 2.925 0 0 0 -.873-2.108 3.063 3.063 0 0 0 -3.227-.682 2.874 2.874 0 0 0 -.769-1.318 2.975 2.975 0 0 0 -2.389-.881 3.033 3.033 0 0 0 -2.611 2.208 3.029 3.029 0 0 0 -1.389-.208 3.077 3.077 0 0 0 -2.742 3.101v5.059a2.99 2.99 0 0 0 -1.262-.16 3.077 3.077 0 0 0 -2.738 3.101v10.231a4.972 4.972 0 0 0 1.464 3.535l.657.658a3.017 3.017 0 0 1 .879 2.121v3.343a1 1 0 0 0 1 1h14a1 1 0 0 0 1-1v-3.343a3.017 3.017 0 0 1 .88-2.122l.655-.657a4.968 4.968 0 0 0 1.465-3.535v-14.343a2.925 2.925 0 0 0 -.873-2.108 3.057 3.057 0 0 0 -3.127-.721zm2 17.172a3.017 3.017 0 0 1 -.88 2.122l-.655.657a4.968 4.968 0 0 0 -1.465 3.535v2.343h-12v-2.343a4.972 4.972 0 0 0 -1.464-3.535l-.657-.658a3.017 3.017 0 0 1 -.879-2.121v-10.231a1.082 1.082 0 0 1 .907-1.112 1.011 1.011 0 0 1 1.093 1v8a1 1 0 0 0 2 0v-15.888a1.082 1.082 0 0 1 .907-1.112.975.975 0 0 1 .806.3.965.965 0 0 1 .287.7v10a1 1 0 0 0 2 0v-11.888a1.082 1.082 0 0 1 .907-1.112.977.977 0 0 1 .806.3.965.965 0 0 1 .287.7v12a1 1 0 0 0 2 0v-10a1 1 0 0 1 1-1 .976.976 0 0 1 .713.306.965.965 0 0 1 .287.694v10a1 1 0 0 0 2 0v-6a1 1 0 0 1 1-1 .976.976 0 0 1 .713.306.965.965 0 0 1 .287.694z" fill="url(#New_Gradient_Swatch_3-22)"/><path d="m59 2h-54a3 3 0 0 0 -3 3v22a3 3 0 0 0 3 3 1 1 0 0 0 0-2 1 1 0 0 1 -1-1v-22a1 1 0 0 1 1-1h54a1 1 0 0 1 1 1v22a1 1 0 0 1 -1 1 1 1 0 0 0 0 2 3 3 0 0 0 3-3v-22a3 3 0 0 0 -3-3z" fill="url(#New_Gradient_Swatch_3-23)"/><path d="m42 31h-20a1 1 0 0 1 0-2h20a1 1 0 0 1 0 2z" fill="url(#New_Gradient_Swatch_3)"/><path d="m42 26h-20a1 1 0 0 1 -1-1v-3a1 1 0 0 1 1-1h20a1 1 0 0 1 1 1v3a1 1 0 0 1 -1 1zm-19-2h18v-1h-18z" fill="url(#New_Gradient_Swatch_3-2)"/><path d="m49 26h-3a1 1 0 0 1 -1-1v-3a1 1 0 0 1 1-1h3a1 1 0 0 1 1 1v3a1 1 0 0 1 -1 1zm-2-2h1v-1h-1z" fill="url(#New_Gradient_Swatch_3-3)"/><path d="m56 26h-3a1 1 0 0 1 -1-1v-3a1 1 0 0 1 1-1h3a1 1 0 0 1 1 1v3a1 1 0 0 1 -1 1zm-2-2h1v-1h-1z" fill="url(#New_Gradient_Swatch_3-4)"/><path d="m18 26h-3a1 1 0 0 1 -1-1v-3a1 1 0 0 1 1-1h3a1 1 0 0 1 1 1v3a1 1 0 0 1 -1 1zm-2-2h1v-1h-1z" fill="url(#New_Gradient_Swatch_3-5)"/><path d="m11 26h-3a1 1 0 0 1 -1-1v-3a1 1 0 0 1 1-1h3a1 1 0 0 1 1 1v3a1 1 0 0 1 -1 1zm-2-2h1v-1h-1z" fill="url(#New_Gradient_Swatch_3-6)"/><path d="m48 19h-3a1 1 0 0 1 -1-1v-3a1 1 0 0 1 1-1h3a1 1 0 0 1 1 1v3a1 1 0 0 1 -1 1zm-2-2h1v-1h-1z" fill="url(#New_Gradient_Swatch_3-7)"/><path d="m55 19h-3a1 1 0 0 1 -1-1v-3a1 1 0 0 1 1-1h3a1 1 0 0 1 1 1v3a1 1 0 0 1 -1 1zm-2-2h1v-1h-1z" fill="url(#New_Gradient_Swatch_3-8)"/><path d="m34 19h-3a1 1 0 0 1 -1-1v-3a1 1 0 0 1 1-1h3a1 1 0 0 1 1 1v3a1 1 0 0 1 -1 1zm-2-2h1v-1h-1z" fill="url(#New_Gradient_Swatch_3-9)"/><path d="m41 19h-3a1 1 0 0 1 -1-1v-3a1 1 0 0 1 1-1h3a1 1 0 0 1 1 1v3a1 1 0 0 1 -1 1zm-2-2h1v-1h-1z" fill="url(#New_Gradient_Swatch_3-10)"/><path d="m13 19h-3a1 1 0 0 1 -1-1v-3a1 1 0 0 1 1-1h3a1 1 0 0 1 1 1v3a1 1 0 0 1 -1 1zm-2-2h1v-1h-1z" fill="url(#New_Gradient_Swatch_3-11)"/><path d="m27 19h-3a1 1 0 0 1 -1-1v-3a1 1 0 0 1 1-1h3a1 1 0 0 1 1 1v3a1 1 0 0 1 -1 1zm-2-2h1v-1h-1z" fill="url(#New_Gradient_Swatch_3-12)"/><path d="m20 19h-3a1 1 0 0 1 -1-1v-3a1 1 0 0 1 1-1h3a1 1 0 0 1 1 1v3a1 1 0 0 1 -1 1zm-2-2h1v-1h-1z" fill="url(#New_Gradient_Swatch_3-13)"/><path d="m48 12h-3a1 1 0 0 1 -1-1v-3a1 1 0 0 1 1-1h3a1 1 0 0 1 1 1v3a1 1 0 0 1 -1 1zm-2-2h1v-1h-1z" fill="url(#New_Gradient_Swatch_3-14)"/><path d="m55 12h-3a1 1 0 0 1 -1-1v-3a1 1 0 0 1 1-1h3a1 1 0 0 1 1 1v3a1 1 0 0 1 -1 1zm-2-2h1v-1h-1z" fill="url(#New_Gradient_Swatch_3-15)"/><path d="m34 12h-3a1 1 0 0 1 -1-1v-3a1 1 0 0 1 1-1h3a1 1 0 0 1 1 1v3a1 1 0 0 1 -1 1zm-2-2h1v-1h-1z" fill="url(#New_Gradient_Swatch_3-16)"/><path d="m41 12h-3a1 1 0 0 1 -1-1v-3a1 1 0 0 1 1-1h3a1 1 0 0 1 1 1v3a1 1 0 0 1 -1 1zm-2-2h1v-1h-1z" fill="url(#New_Gradient_Swatch_3-17)"/><path d="m13 12h-3a1 1 0 0 1 -1-1v-3a1 1 0 0 1 1-1h3a1 1 0 0 1 1 1v3a1 1 0 0 1 -1 1zm-2-2h1v-1h-1z" fill="url(#New_Gradient_Swatch_3-18)"/><path d="m27 12h-3a1 1 0 0 1 -1-1v-3a1 1 0 0 1 1-1h3a1 1 0 0 1 1 1v3a1 1 0 0 1 -1 1zm-2-2h1v-1h-1z" fill="url(#New_Gradient_Swatch_3-19)"/><path d="m20 12h-3a1 1 0 0 1 -1-1v-3a1 1 0 0 1 1-1h3a1 1 0 0 1 1 1v3a1 1 0 0 1 -1 1zm-2-2h1v-1h-1z" fill="url(#New_Gradient_Swatch_3-20)"/></svg>