<?xml version="1.0"?>
<svg xmlns="http://www.w3.org/2000/svg" xmlns:xlink="http://www.w3.org/1999/xlink" viewBox="0 0 512 512" width="512" height="512"><defs><linearGradient id="linear-gradient" x1="47.037" y1="472.962" x2="464.963" y2="55.037" gradientUnits="userSpaceOnUse"><stop offset="0" stop-color="#41dfd0"/><stop offset="1" stop-color="#ee83ef"/></linearGradient></defs><g id="gradient"><path d="M488,392h-8V80a24.027,24.027,0,0,0-24-24H56A24.027,24.027,0,0,0,32,80V392H24a8,8,0,0,0-8,8v32a24.028,24.028,0,0,0,24,24H472a24.028,24.028,0,0,0,24-24V400A8,8,0,0,0,488,392ZM48,80a8.009,8.009,0,0,1,8-8H456a8.009,8.009,0,0,1,8,8V392H368V376h72a8,8,0,0,0,8-8V96a8,8,0,0,0-8-8H72a8,8,0,0,0-8,8V368a8,8,0,0,0,8,8H256v16H48ZM392.967,231.013a23.988,23.988,0,0,0-32.951-.9,23.984,23.984,0,0,0-32,0A24,24,0,0,0,304,225.376V200a24.005,24.005,0,0,0-43.752-13.645,30.8,30.8,0,0,0-7.493,4.4L232,207.354v-8.03a23.324,23.324,0,0,0-43.324-12L184,195.108V180a36,36,0,0,0-72,0v20a32.036,32.036,0,0,0,32,32V216a16.019,16.019,0,0,1-16-16V180a20,20,0,0,1,40,0v15.771a15.819,15.819,0,0,0,29.383,8.139l5.013-8.354a7.324,7.324,0,0,1,13.6,3.768V224a8,8,0,0,0,13,6.247l27-21.6V248H120a8,8,0,0,0,0,16H256v4l-28.8,21.6A8,8,0,0,0,224,296v32a8,8,0,0,0,1.753,5l21.6,27H80V104H432V360H373.785l25.161-44.031A7.992,7.992,0,0,0,400,312V248A23.9,23.9,0,0,0,392.967,231.013ZM256,416H232a8.009,8.009,0,0,1-8-8h32Zm-16-90.807V300l16-12v8a8,8,0,0,0,16,0V200a8,8,0,1,1,16,0v56h16v-8a8,8,0,1,1,16,0v8h16v-8a8,8,0,1,1,16,0v8h16v-8a8,8,0,1,1,16,0v61.875L355.357,360H267.845ZM32,432V408H208a24.027,24.027,0,0,0,24,24h24v8H40A8.009,8.009,0,0,1,32,432Zm240,8V376h80v64Zm208-8a8.009,8.009,0,0,1-8,8H368V408H480ZM120,336V288a8,8,0,0,1,8-8h24v16H136v32h16v16H128A8,8,0,0,1,120,336Zm56-16H160V304h16Zm32,0H192V304h16Z" style="fill:url(#linear-gradient)"/></g></svg>
