<svg width="677" height="216" viewBox="0 0 677 216" fill="none" xmlns="http://www.w3.org/2000/svg">
<path d="M199.685 0C217.016 0 225.681 0 231.407 5.22392C237.134 10.4478 237.929 19.0764 239.517 36.3335L251.995 171.885C253.868 192.236 254.805 202.412 248.881 208.928C242.958 215.445 232.739 215.48 212.302 215.552L128.681 215.843L43.8007 215.55C23.3202 215.48 13.08 215.445 7.15452 208.911C1.22904 202.377 2.19124 192.182 4.11565 171.792L16.9089 36.2415C18.5338 19.025 19.3463 10.4167 25.0694 5.20836C30.7924 0 39.4389 0 56.732 0H199.685Z" fill="url(#paint0_linear)"/>
<path d="M194.815 71.9214C185.056 156.002 80.7039 156.002 70.9443 71.9214M70.9443 71.9214L64.1877 80.6325M70.9443 71.9214L78.827 80.6325" stroke="white" stroke-width="5"/>
<path d="M187.683 77.8857L194.064 70.3108L201.572 77.8857" stroke="white" stroke-width="5"/>
<path d="M275.763 146H325.578V132.435H292.216V68.1818H275.763V146ZM336.169 146H352.356V87.6364H336.169V146ZM344.301 80.1129C349.127 80.1129 353.078 76.4272 353.078 71.9055C353.078 67.4219 349.127 63.7361 344.301 63.7361C339.513 63.7361 335.562 67.4219 335.562 71.9055C335.562 76.4272 339.513 80.1129 344.301 80.1129ZM396.366 87.6364H385.385V73.6534H369.199V87.6364H361.219V99.7955H369.199V130.193C369.123 141.63 376.912 147.292 388.653 146.798C392.833 146.646 395.797 145.81 397.43 145.278L394.885 133.233C394.087 133.385 392.377 133.765 390.857 133.765C387.627 133.765 385.385 132.549 385.385 128.065V99.7955H396.366V87.6364ZM432.882 147.14C447.321 147.14 457.048 140.11 459.328 129.281L444.357 128.293C442.723 132.739 438.543 135.057 433.148 135.057C425.054 135.057 419.925 129.699 419.925 120.998V120.96H459.67V116.514C459.67 96.6797 447.663 86.8764 432.236 86.8764C415.061 86.8764 403.928 99.0735 403.928 117.084C403.928 135.589 414.909 147.14 432.882 147.14ZM419.925 110.929C420.267 104.279 425.32 98.9595 432.502 98.9595C439.531 98.9595 444.395 103.975 444.433 110.929H419.925ZM470.233 146H486.42V127.457L490.789 122.48L506.71 146H525.671L502.911 112.904L524.569 87.6364H505.988L487.294 109.789H486.42V68.1818H470.233V146ZM549.153 147.102C557.778 147.102 563.364 143.34 566.214 137.907H566.67V146H582.021V106.635C582.021 92.728 570.241 86.8764 557.246 86.8764C543.263 86.8764 534.068 93.5639 531.826 104.203L546.797 105.419C547.899 101.543 551.357 98.6935 557.17 98.6935C562.68 98.6935 565.834 101.467 565.834 106.255V106.483C565.834 110.245 561.844 110.739 551.699 111.727C540.148 112.79 529.775 116.666 529.775 129.699C529.775 141.25 538.02 147.102 549.153 147.102ZM553.789 135.931C548.811 135.931 545.239 133.613 545.239 129.167C545.239 124.608 549.001 122.366 554.701 121.568C558.234 121.074 564.01 120.238 565.948 118.946V125.14C565.948 131.257 560.894 135.931 553.789 135.931ZM594.579 146H610.765V112.98C610.765 105.799 616.009 100.859 623.153 100.859C625.394 100.859 628.472 101.239 629.992 101.733V87.3704C628.548 87.0284 626.534 86.8004 624.9 86.8004C618.365 86.8004 613.007 90.6001 610.879 97.8196H610.271V87.6364H594.579V146ZM672.33 87.6364H661.349V73.6534H645.162V87.6364H637.183V99.7955H645.162V130.193C645.086 141.63 652.876 147.292 664.617 146.798C668.797 146.646 671.76 145.81 673.394 145.278L670.848 133.233C670.051 133.385 668.341 133.765 666.821 133.765C663.591 133.765 661.349 132.549 661.349 128.065V99.7955H672.33V87.6364Z" fill="url(#paint1_linear)"/>
<defs>
<linearGradient id="paint0_linear" x1="-24.3988" y1="240.84" x2="258.681" y2="-17.5875" gradientUnits="userSpaceOnUse">
<stop stop-color="#450B7C"/>
<stop offset="0.336148" stop-color="#563CC9"/>
<stop offset="1" stop-color="#49E9FB"/>
</linearGradient>
<linearGradient id="paint1_linear" x1="230.114" y1="186.94" x2="349.534" y2="-103.78" gradientUnits="userSpaceOnUse">
<stop stop-color="#450B7C"/>
<stop offset="0.336148" stop-color="#563CC9"/>
<stop offset="1" stop-color="#49E9FB"/>
</linearGradient>
</defs>
</svg>
