<svg width="408" height="424" viewBox="0 0 408 424" fill="none" xmlns="http://www.w3.org/2000/svg">
<path fill-rule="evenodd" clip-rule="evenodd" d="M87.1596 362.292H321.988L351.637 416.417C172.744 383.141 239.963 380.097 62.3926 418.083C71.6605 395.764 80.0253 377.25 87.1596 362.292Z" fill="#313254"/>
<path fill-rule="evenodd" clip-rule="evenodd" d="M368.328 241.407C387.453 229.611 397.781 221.896 398.671 221.332C400.753 220.02 400.242 217.317 398.174 217.277C396.105 217.238 390.346 219.35 389.6 219.757C388.853 220.177 388.88 219.429 388.88 219.429C391.864 209.706 383.355 206.452 381.065 206.085C378.774 205.704 376.941 206.584 376.836 207.83C376.732 209.077 378.447 209.759 378.447 209.759C383.787 210.861 384.638 215.755 382.243 218.721C379.847 221.673 375.135 222.854 371.98 219.416C368.812 215.978 371.77 212.108 372.935 211.005C374.101 209.903 375.279 208.722 374.258 207.436C373.223 206.151 371.927 207.108 371.927 207.108C360.264 213.866 364.885 223.379 364.885 223.379C364.885 223.379 365.723 226.646 362.934 228.181C362.659 228.338 361.94 228.653 360.892 229.099L368.328 241.407Z" fill="#F4AD85"/>
<path fill-rule="evenodd" clip-rule="evenodd" d="M223.09 119.157C210.484 113.699 198.297 113.699 185.704 119.157L187.89 124.996H220.917L223.09 119.157Z" fill="#ACB5DB"/>
<path fill-rule="evenodd" clip-rule="evenodd" d="M220.184 87.0106L219.726 97.6519C219.726 97.6519 219.726 119.446 219.726 122.766C219.726 124.366 221.218 126.676 223.836 128.683C221.532 131.176 217.265 135.624 212.893 139.049H196.53C192.17 135.611 187.89 131.176 185.586 128.683C188.217 126.676 189.696 124.366 189.696 122.766C189.696 119.459 189.696 97.6519 189.696 97.6519L189.238 87.0106C189.238 87.0106 196.844 88.3752 204.698 90.304C212.578 88.3883 220.184 87.0106 220.184 87.0106Z" fill="#E8685B"/>
<path fill-rule="evenodd" clip-rule="evenodd" d="M209.489 140.991L206.491 141.424H204.737H202.983L199.985 140.991L182.3 124.209L152.31 138.892L152.323 138.905C152.323 138.905 147.074 164.661 147.074 197.176L147.912 211.333C148.161 215.178 148.409 218.878 148.658 222.447L148.815 229.677C148.815 229.677 146.145 286.36 146.773 288.8C147.401 291.241 152.494 297.041 152.494 297.041C152.297 298.576 152.075 300.216 151.839 301.935C161.015 305.792 178.059 310.739 204.75 310.516C231.428 310.739 248.485 305.792 257.662 301.935C257.426 300.216 257.203 298.576 257.007 297.041C257.007 297.041 262.099 291.241 262.728 288.8C263.356 286.36 260.699 229.677 260.699 229.677L260.843 222.447C261.091 218.878 261.34 215.178 261.589 211.333L262.426 197.176C262.426 164.675 257.177 138.905 257.177 138.905L257.19 138.892L227.187 124.209L209.489 140.991Z" fill="#333258"/>
<path fill-rule="evenodd" clip-rule="evenodd" d="M147.061 196.1C147.061 196.454 147.061 196.821 147.061 197.176L147.899 211.333C148.148 215.178 148.396 218.878 148.645 222.447L148.802 229.677L148.763 230.516C149.273 219.849 151.054 188.319 150.203 189.775C150.006 190.13 148.841 192.491 147.061 196.1ZM146.773 279.563C150.582 285.087 160.597 292.855 186.947 294.43C228.706 296.936 243.956 281.4 246.208 267.111C248.459 252.822 266.144 162.09 224.412 133.394C222.972 132.41 221.676 131.452 220.511 130.533L227.174 124.222L257.177 138.905L257.164 138.918C257.164 138.918 257.374 139.954 257.714 141.857C257.282 149.808 257.622 162.628 261.837 178.216C262.191 184.146 262.413 190.523 262.413 197.189L261.576 211.346C261.327 215.191 261.078 218.891 260.829 222.46L260.686 229.69C260.686 229.69 263.356 286.373 262.714 288.814C262.086 291.254 256.994 297.054 256.994 297.054C257.19 298.589 257.413 300.229 257.649 301.948C248.472 305.805 231.429 310.752 204.737 310.529C178.059 310.752 161.002 305.805 151.826 301.948C152.062 300.229 152.284 298.589 152.481 297.054C152.481 297.054 147.388 291.254 146.76 288.814C146.603 288.236 146.642 284.68 146.773 279.563Z" fill="#262649"/>
<path fill-rule="evenodd" clip-rule="evenodd" d="M208.795 138.209L206.086 138.603H202.721L200.012 138.209L189.278 128.027L187.667 128.526L184.225 133.066C184.225 133.066 192.053 151.265 192.511 151.882C192.969 152.498 193.794 152.8 194.959 151.37C196.137 149.94 199.841 145.255 199.841 145.255C199.841 145.255 200.915 144.127 201.412 145.4C201.91 146.673 207.447 143.169 207.447 143.169L207.84 144.403C207.84 144.403 208.677 143.379 209.515 144.704C210.34 146.03 214.437 151.764 214.725 152.013C215 152.275 216.257 153.115 217.121 151.317C217.919 149.677 227.227 128.723 228.863 125.062L224.766 123.054L208.795 138.209Z" fill="#1F1F40"/>
<path fill-rule="evenodd" clip-rule="evenodd" d="M208.795 138.209L206.086 138.603H202.721L200.012 138.209L198.938 137.199L196.687 141.109C196.687 141.109 201.726 142.749 201.726 147.184C201.726 151.619 201.726 306.855 201.726 306.855L204.397 313.521L207.08 306.855C207.08 306.855 207.08 151.632 207.08 147.184C207.08 142.749 212.12 141.109 212.12 141.109L209.869 137.199L208.795 138.209Z" fill="#1F1F40"/>
<path fill-rule="evenodd" clip-rule="evenodd" d="M201.098 136.897L202.721 136.622C202.721 136.622 203.049 136.963 203.088 137.553C203.14 138.144 203.166 139.863 203.166 139.863C202.577 140.072 199.383 140.729 199.488 140.269C199.514 140.177 201.098 136.897 201.098 136.897Z" fill="#1F1F40"/>
<path fill-rule="evenodd" clip-rule="evenodd" d="M207.709 136.897L206.086 136.622C206.086 136.622 205.771 136.963 205.719 137.553C205.667 138.144 205.64 139.863 205.64 139.863C206.23 140.335 209.424 140.729 209.319 140.269C209.28 140.177 207.709 136.897 207.709 136.897Z" fill="#1F1F40"/>
<path fill-rule="evenodd" clip-rule="evenodd" d="M223.09 119.157C223.273 119.315 225.276 122.858 226.323 124.55C226.323 124.55 227.266 125.954 226.572 128.29C225.878 130.638 216.754 149.913 216.754 149.913C216.754 149.913 216.1 150.937 215.066 149.94C214.018 148.942 206.073 136.635 206.073 136.635L221.139 120.706C221.859 119.8 222.907 119 223.09 119.157Z" fill="white"/>
<path fill-rule="evenodd" clip-rule="evenodd" d="M185.704 119.157C185.573 119.223 183.518 122.858 182.471 124.55C182.471 124.55 181.528 125.954 182.222 128.29C182.916 130.638 192.04 149.913 192.04 149.913C192.04 149.913 192.694 150.937 193.728 149.94C194.775 148.942 202.721 136.635 202.721 136.635L187.654 120.706C186.646 119.512 185.835 119.092 185.704 119.157Z" fill="white"/>
<path fill-rule="evenodd" clip-rule="evenodd" d="M159.065 193.804H188.793C189.186 193.804 189.5 194.118 189.5 194.512V196.415C189.5 196.808 189.186 197.123 188.793 197.123H159.065C158.672 197.123 158.358 196.808 158.358 196.415V194.512C158.358 194.118 158.672 193.804 159.065 193.804Z" fill="white"/>
<path fill-rule="evenodd" clip-rule="evenodd" d="M325.286 283.382C325.286 283.382 229.399 302.84 203.035 302.84C176.685 302.84 80.7846 283.382 80.7846 283.382L85.5364 302.25L203.035 336.443L320.535 302.25L325.286 283.382Z" fill="#525475"/>
<path fill-rule="evenodd" clip-rule="evenodd" d="M114.44 360.652L119.611 359.983C119.611 359.983 126.431 358.106 128.577 357.424C130.724 356.742 136.667 358.015 138.618 367.974C140.568 377.946 135.398 379.992 129.651 381.462C123.904 382.932 109.178 387.327 109.178 387.327C109.178 387.327 101.873 371.595 114.44 360.652Z" fill="#F09373"/>
<path fill-rule="evenodd" clip-rule="evenodd" d="M109.178 383.758C109.178 383.758 110.395 383.509 113.131 383.509C115.854 383.509 116.011 385.267 116.299 386.737C116.587 388.206 117.804 392.011 113.275 393.822C108.746 395.633 81.7532 405.251 81.7532 405.251L76.7789 402.666C76.7789 402.653 91.5841 388.98 109.178 383.758Z" fill="#3B3B61"/>
<path fill-rule="evenodd" clip-rule="evenodd" d="M103.405 345.851C103.405 345.851 110.199 348.685 118.485 355.522C118.485 355.522 120.579 357.568 119.414 360.547C118.249 363.525 106.69 368.512 110.788 385.11C110.788 385.11 111.77 387.747 108.942 388.731C106.114 389.702 86.7145 397.43 84.2797 399.084C81.8449 400.75 81.9365 402.692 81.7402 405.238C81.5438 407.783 77.6429 407.193 70.6264 414.619C63.61 422.046 56.4757 425.956 50.9123 422.098C50.9123 422.098 48.399 421.167 47.6266 418.136C46.8412 415.105 49.1844 405.343 49.1844 405.343L79.3054 361.479L103.405 345.851Z" fill="#1F1F40"/>
<path fill-rule="evenodd" clip-rule="evenodd" d="M103.405 345.851C103.405 345.851 90.1442 361.977 86.6359 366.556C83.1277 371.149 77.5774 372.421 72.2103 378.182C66.8564 383.942 54.7609 399.674 50.9647 407.875C47.1685 416.075 49.3022 420.773 50.9123 422.085C50.9123 422.085 47.967 422.912 47.3517 422.702C46.7365 422.479 44.7467 417.768 44.4457 413.372C44.1577 408.977 50.9778 394.124 57.7979 384.939C64.6179 375.754 72.5114 368.433 79.5279 359.34C86.5443 350.26 91.3223 342.978 93.4691 341.023C95.6159 339.068 96.637 339.172 97.658 339.264C98.6791 339.356 102.868 343.463 103.365 344.145C103.876 344.854 103.405 345.851 103.405 345.851Z" fill="white"/>
<path fill-rule="evenodd" clip-rule="evenodd" d="M48.988 422.57C48.2942 422.715 47.6266 422.807 47.3779 422.715C46.7627 422.492 44.7729 417.781 44.4719 413.386C44.1839 408.99 51.0039 394.137 57.824 384.952C64.6441 375.767 72.5376 368.446 79.554 359.353C86.5705 350.273 91.3485 342.991 93.4953 341.036C95.6421 339.081 96.6631 339.186 97.6842 339.278C97.9853 339.304 98.5351 339.671 99.1896 340.183C99.1896 340.183 96.5584 339.396 91.6364 345.851C86.7145 352.294 77.7345 365.113 65.8615 377.893C53.9885 390.686 46.7627 406.13 45.8856 413.163C45.6107 415.288 46.9721 418.765 48.988 422.57Z" fill="#333258"/>
<path fill-rule="evenodd" clip-rule="evenodd" d="M123.014 356.65C123.014 356.65 308.583 288.853 317.93 285.337C327.289 281.82 340.537 281.033 344.241 292.566C347.946 304.087 350.472 330.67 315.783 340.432C281.08 350.207 132.753 383.614 127.687 384.388C122.621 385.162 120.972 363.394 121.404 359.484C121.417 359.484 121.797 357.372 123.014 356.65Z" fill="#626585"/>
<path fill-rule="evenodd" clip-rule="evenodd" d="M123.014 356.65C123.014 356.65 169.982 339.487 217.841 321.984C221.611 325.369 228.928 329.765 243.092 333.78C271.341 341.797 306.685 331.313 324.108 327.259C341.113 323.309 346.323 307.498 346.244 303.457C346.912 316.263 341.859 333.084 315.796 340.419C281.093 350.194 132.766 383.601 127.7 384.375C122.634 385.149 120.985 363.381 121.417 359.471C121.417 359.484 121.797 357.372 123.014 356.65Z" fill="#525475"/>
<path fill-rule="evenodd" clip-rule="evenodd" d="M291.644 360.652L286.474 359.983C286.474 359.983 279.653 358.106 277.507 357.424C275.36 356.742 269.417 358.015 267.466 367.974C265.516 377.946 270.687 379.992 276.433 381.462C282.18 382.932 296.894 387.327 296.894 387.327C296.894 387.327 304.224 371.595 291.644 360.652Z" fill="#F09373"/>
<path fill-rule="evenodd" clip-rule="evenodd" d="M296.906 383.758C296.906 383.758 295.689 383.509 292.953 383.509C290.23 383.509 290.073 385.267 289.785 386.737C289.497 388.206 288.28 392.011 292.809 393.822C297.338 395.633 324.331 405.251 324.331 405.251L329.305 402.666C329.318 402.653 314.5 388.98 296.906 383.758Z" fill="#3B3B61"/>
<path fill-rule="evenodd" clip-rule="evenodd" d="M302.679 345.851C302.679 345.851 295.885 348.685 287.599 355.522C287.599 355.522 285.505 357.568 286.67 360.547C287.835 363.525 299.394 368.512 295.296 385.11C295.296 385.11 294.328 387.747 297.155 388.731C299.983 389.702 319.37 397.43 321.817 399.084C324.252 400.75 324.161 402.692 324.357 405.238C324.553 407.783 328.454 407.193 335.471 414.619C342.487 422.046 349.621 425.956 355.185 422.098C355.185 422.098 357.698 421.167 358.471 418.136C359.256 415.105 356.913 405.343 356.913 405.343L326.805 361.479L302.679 345.851Z" fill="#1F1F40"/>
<path fill-rule="evenodd" clip-rule="evenodd" d="M302.679 345.851C302.679 345.851 315.94 361.977 319.448 366.556C322.956 371.149 328.507 372.421 333.874 378.182C339.228 383.942 351.323 399.674 355.119 407.875C358.916 416.075 356.782 420.773 355.172 422.085C355.172 422.085 358.117 422.912 358.732 422.702C359.348 422.479 361.337 417.768 361.638 413.372C361.926 408.977 355.106 394.124 348.286 384.939C341.466 375.754 333.573 368.433 326.556 359.34C319.54 350.26 314.762 342.978 312.615 341.023C310.468 339.068 309.447 339.172 308.426 339.264C307.405 339.356 303.216 343.463 302.719 344.145C302.221 344.854 302.679 345.851 302.679 345.851Z" fill="white"/>
<path fill-rule="evenodd" clip-rule="evenodd" d="M357.109 422.57C357.803 422.715 358.471 422.807 358.719 422.715C359.335 422.492 361.324 417.781 361.625 413.386C361.913 408.99 355.093 394.137 348.273 384.952C341.453 375.767 333.56 368.446 326.543 359.353C319.527 350.273 314.749 342.991 312.602 341.036C310.455 339.081 309.434 339.186 308.413 339.278C308.125 339.304 307.562 339.671 306.908 340.183C306.908 340.183 309.539 339.396 314.461 345.851C319.383 352.294 328.363 365.113 340.236 377.893C352.109 390.686 359.335 406.13 360.212 413.163C360.473 415.288 359.125 418.765 357.109 422.57Z" fill="#333258"/>
<path fill-rule="evenodd" clip-rule="evenodd" d="M283.07 356.65C283.07 356.65 97.5009 288.853 88.1544 285.337C78.7948 281.82 65.5473 281.033 61.8428 292.566C58.1382 304.087 55.5987 330.67 90.3012 340.432C124.991 350.207 273.331 383.614 278.397 384.388C283.463 385.162 285.112 363.394 284.68 359.484C284.68 359.484 284.301 357.372 283.07 356.65Z" fill="#717697"/>
<path fill-rule="evenodd" clip-rule="evenodd" d="M60.9919 295.624C57.968 308.259 58.4 331.444 90.3012 340.432C124.991 350.207 273.331 383.614 278.397 384.388C281.525 384.874 283.345 376.791 284.183 369.6C278.986 372.618 270.281 374.573 255.842 371.634C223.836 365.113 121.81 340.301 90.0525 326.012C58.6356 311.881 60.9395 295.952 60.9919 295.624Z" fill="#626585"/>
<path fill-rule="evenodd" clip-rule="evenodd" d="M166.919 66.3317C166.657 66.371 166.409 66.4104 166.147 66.4629H166.134C161.46 67.447 157.913 71.5539 157.821 76.5399C157.717 82.3395 162.311 87.1287 168.097 87.2337C173.883 87.3386 178.661 82.7331 178.779 76.9336C178.844 73.5614 177.313 70.5304 174.891 68.5623C175.153 71.6589 174.669 75.5034 170.715 75.8839L170.833 69.835C170.872 67.3945 168.595 66.2661 166.919 66.3317Z" fill="#E8685B"/>
<path fill-rule="evenodd" clip-rule="evenodd" d="M242.542 66.3317C242.804 66.371 243.053 66.4104 243.315 66.4629H243.328C248.001 67.447 251.548 71.5539 251.653 76.5399C251.758 82.3395 247.163 87.1287 241.377 87.2337C235.591 87.3386 230.813 82.7331 230.695 76.9336C230.63 73.5614 232.162 70.5304 234.583 68.5623C234.321 71.6589 234.806 75.5034 238.759 75.8839L238.641 69.835C238.589 67.3945 240.867 66.2661 242.542 66.3317Z" fill="#E8685B"/>
<path fill-rule="evenodd" clip-rule="evenodd" d="M204.737 13.8604C185.01 13.8604 168.857 30.0387 168.857 49.8254V82.5364C168.857 102.31 184.997 118.501 204.737 118.501C224.464 118.501 240.605 102.323 240.605 82.5364V49.8254C240.605 30.0518 224.464 13.8604 204.737 13.8604Z" fill="#F4AD85"/>
<path fill-rule="evenodd" clip-rule="evenodd" d="M206.806 118.436C225.577 117.347 240.605 101.614 240.605 82.5364V49.8254C240.605 35.0379 231.573 22.2579 218.77 16.747C205.405 22.4547 173.831 45.4167 173.831 45.4167L176.959 49.9304C176.959 49.9304 178.583 44.6032 188.466 44.6032C198.336 44.6032 208.599 44.6032 214.162 44.6032C219.726 44.6032 225.472 46.6107 225.472 52.9351C225.472 59.2595 228.221 65.8463 234.099 65.8463C234.099 65.8463 234.099 78.7575 234.099 87.2731C234.086 95.7887 225.904 116.14 206.806 118.436Z" fill="#F09373"/>
<path fill-rule="evenodd" clip-rule="evenodd" d="M225.067 84.3076C222.462 84.2551 220.315 86.3414 220.262 88.9525C220.21 91.5636 222.291 93.7155 224.883 93.768C227.488 93.8205 229.635 91.7342 229.688 89.1231C229.74 86.5251 227.672 84.3601 225.067 84.3076Z" fill="#E8685B"/>
<path fill-rule="evenodd" clip-rule="evenodd" d="M184.486 83.5336C181.881 83.4811 179.735 85.5673 179.682 88.1784C179.63 90.7896 181.698 92.9414 184.316 92.9939C186.921 93.0464 189.068 90.9732 189.12 88.349C189.173 85.751 187.091 83.586 184.486 83.5336Z" fill="#E8685B"/>
<path fill-rule="evenodd" clip-rule="evenodd" d="M182.51 66.7779C181.881 67.0928 181.109 66.8304 180.808 66.2137C180.494 65.5838 180.756 64.8097 181.371 64.5079C184.748 62.7628 189.264 62.566 192.576 64.5473C193.178 64.9016 193.375 65.7019 193.008 66.2924C192.655 66.896 191.856 67.0928 191.254 66.7254C188.584 65.1246 185.22 65.4789 182.51 66.7779Z" fill="#1F1F40"/>
<path fill-rule="evenodd" clip-rule="evenodd" d="M228.313 66.7779C225.59 65.4789 222.239 65.1246 219.556 66.7254C218.953 67.0928 218.168 66.8829 217.815 66.2924C217.461 65.6888 217.657 64.9015 218.246 64.5473C221.558 62.5528 226.075 62.7628 229.452 64.4948C230.08 64.8097 230.329 65.5838 230.015 66.2137C229.701 66.8435 228.941 67.0928 228.313 66.7779Z" fill="#1F1F40"/>
<path fill-rule="evenodd" clip-rule="evenodd" d="M190.089 40.1682C186.227 40.1682 178.753 42.0052 178.753 49.7335C178.753 57.4619 177.287 63.6026 172.365 63.6026C172.365 63.6026 172.365 66.2793 172.365 69.6645C172.365 73.0498 172.038 76.4875 168.843 76.4875C168.843 69.1922 166.631 66.3186 166.631 66.3186C166.631 66.3186 166.631 56.5565 166.631 48.0278C166.631 39.499 169.027 28.0312 180.193 20.1716C194.645 9.98959 214.791 9.98959 229.256 20.1716C240.435 28.0312 242.817 39.499 242.817 48.0278C242.817 56.5565 242.817 66.3186 242.817 66.3186C242.817 66.3186 240.605 69.1922 240.605 76.4875C237.411 76.4875 237.084 73.0629 237.084 69.6645C237.084 66.2661 237.084 63.6026 237.084 63.6026C232.162 63.6026 230.695 57.475 230.695 49.7335C230.695 42.0052 223.221 40.1682 219.359 40.1682C209.607 40.1682 199.855 40.1682 190.089 40.1682Z" fill="#555272"/>
<path fill-rule="evenodd" clip-rule="evenodd" d="M233.222 23.4388C237.66 27.7294 242.896 32.9647 243.472 34.4605C244.218 36.3631 243.21 40.7062 242.581 43.3304C240.422 52.0035 237.097 63.6026 237.097 63.6026C232.175 63.6026 230.709 57.475 230.709 49.7335C230.709 43.9996 226.598 41.5066 222.907 40.6012L222.265 24.9871L233.222 23.4388Z" fill="#333258"/>
<path fill-rule="evenodd" clip-rule="evenodd" d="M176.24 23.4388C171.802 27.7294 166.566 32.9647 165.99 34.4605C165.244 36.3631 166.252 40.7062 166.88 43.3304C169.04 52.0035 172.365 63.6026 172.365 63.6026C177.287 63.6026 178.753 57.475 178.753 49.7335C178.753 43.9996 182.863 41.5066 186.555 40.6012L187.196 24.9871L176.24 23.4388Z" fill="#333258"/>
<path fill-rule="evenodd" clip-rule="evenodd" d="M178.714 42.53C178.714 42.53 170.139 37.3734 169.734 30.8915C168.974 18.9907 185.848 0.0831158 201.386 7.61465C236.246 -8.03887 257.596 15.7366 228.064 42.53C227.933 42.6481 227.789 42.7662 227.658 42.8843C225.145 40.798 221.637 40.1682 219.372 40.1682C209.607 40.1682 199.855 40.1682 190.089 40.1682C187.55 40.1682 183.439 40.9686 180.926 43.7109C179.525 43.0023 178.714 42.53 178.714 42.53Z" fill="#262649"/>
<path fill-rule="evenodd" clip-rule="evenodd" d="M171.697 33.7913C171.854 34.0144 171.815 34.3293 171.606 34.4867C171.396 34.6573 171.108 34.618 170.951 34.3949C170.938 34.3687 164.864 26.2205 172.116 15.5268C172.273 15.3037 172.561 15.2512 172.771 15.4218C172.98 15.5792 173.032 15.8941 172.875 16.1172C166.042 26.2073 171.684 33.7782 171.697 33.7913Z" fill="#262649"/>
<path fill-rule="evenodd" clip-rule="evenodd" d="M179.198 14.582C179.041 14.8051 178.753 14.8444 178.543 14.687C178.334 14.5164 178.295 14.2146 178.452 13.9915C178.478 13.9522 187.301 1.11972 196.857 0.975383C206.792 0.817929 204.384 11.7216 204.371 11.7478C204.318 12.0103 204.057 12.1808 203.808 12.1283C203.559 12.0627 203.402 11.8003 203.454 11.5379C203.454 11.5117 205.601 1.84138 196.87 1.98572C187.772 2.11693 179.224 14.5558 179.198 14.582Z" fill="#262649"/>
<path fill-rule="evenodd" clip-rule="evenodd" d="M216.61 4.43937C216.374 4.54434 216.1 4.42625 215.995 4.17695C215.89 3.92765 216.008 3.62586 216.244 3.52089C216.27 3.50777 224.687 -0.376081 234.112 2.4712C236.638 3.23222 238.811 4.55746 240.487 6.28945C241.992 7.85086 243.092 9.7403 243.655 11.8397C244.218 13.9391 244.231 16.2615 243.589 18.6627C242.896 21.2869 241.403 24.0292 238.942 26.719C238.759 26.9158 238.471 26.9158 238.275 26.7321C238.091 26.5353 238.078 26.2204 238.262 26.0236C240.592 23.465 242.019 20.867 242.673 18.3871C243.262 16.1696 243.249 14.044 242.725 12.1152C242.215 10.1864 241.207 8.44131 239.806 6.99799C238.249 5.38409 236.206 4.13759 233.837 3.42905C224.752 0.673613 216.636 4.42625 216.61 4.43937Z" fill="#262649"/>
<path fill-rule="evenodd" clip-rule="evenodd" d="M173.399 19.0432C173.818 18.374 174.263 17.718 174.747 17.075C189.147 28.6872 222.737 21.1819 214.346 3.42905C219.307 2.47121 223.784 2.41872 227.619 3.12726C235.316 19.1613 194.723 42.9105 173.399 19.0432Z" fill="#333258"/>
<path fill-rule="evenodd" clip-rule="evenodd" d="M171.435 16.6157C171.645 16.2615 171.88 15.9072 172.129 15.5398C172.286 15.3167 172.574 15.2643 172.784 15.4348C172.993 15.5923 173.045 15.9072 172.888 16.1303C172.587 16.5764 172.312 17.0094 172.064 17.4424C171.841 17.1668 171.632 16.8913 171.435 16.6157Z" fill="#333258"/>
<path fill-rule="evenodd" clip-rule="evenodd" d="M216.61 4.43937C216.374 4.54433 216.1 4.42625 215.995 4.17695C215.89 3.92764 216.008 3.62586 216.244 3.52089C216.257 3.50777 220.642 1.48711 226.611 1.42151C226.847 1.74954 227.056 2.07756 227.253 2.41871C221.166 2.32686 216.623 4.42624 216.61 4.43937Z" fill="#333258"/>
<path fill-rule="evenodd" clip-rule="evenodd" d="M178.714 42.53C178.714 42.53 170.139 37.3734 169.734 30.8915C169.563 28.1886 170.297 25.1314 171.723 22.1135C172.797 26.5353 176.135 31.0096 184.329 33.6339C201.779 39.2235 243.694 24.4359 234.662 5.60712C245.2 11.7609 245.618 26.614 228.077 42.53C227.946 42.6481 227.802 42.7662 227.672 42.8843C225.158 40.798 221.65 40.1682 219.385 40.1682C209.62 40.1682 199.868 40.1682 190.102 40.1682C187.563 40.1682 183.452 40.9686 180.939 43.7109C179.525 43.0023 178.714 42.53 178.714 42.53Z" fill="#1F1F40"/>
<path fill-rule="evenodd" clip-rule="evenodd" d="M171.697 33.7913C171.854 34.0143 171.815 34.3292 171.605 34.4867C171.396 34.6573 171.108 34.6179 170.951 34.3949C170.938 34.3686 165.296 26.7977 171.383 16.6813C171.318 17.3768 171.278 18.0853 171.304 18.8201C167.024 27.5325 171.684 33.7782 171.697 33.7913Z" fill="#1F1F40"/>
<path fill-rule="evenodd" clip-rule="evenodd" d="M232.306 1.99878C232.895 2.12999 233.497 2.28744 234.099 2.47114C236.625 3.23217 238.798 4.5574 240.474 6.28939C241.979 7.8508 243.079 9.74024 243.642 11.8396C244.205 13.939 244.218 16.2614 243.576 18.6626C242.883 21.2868 241.39 24.0291 238.929 26.719C238.746 26.9158 238.458 26.9158 238.262 26.7321C238.078 26.5353 238.065 26.2204 238.249 26.0236C240.579 23.4649 242.006 20.867 242.66 18.3871C243.249 16.1696 243.236 14.044 242.712 12.1152C242.202 10.1864 241.194 8.44126 239.793 6.99793C238.236 5.38403 236.193 4.13753 233.824 3.42899C233.628 3.3765 233.444 3.32401 233.248 3.27153C232.986 2.83853 232.659 2.41866 232.306 1.99878Z" fill="#1F1F40"/>
<path fill-rule="evenodd" clip-rule="evenodd" d="M219.529 73.4565C219.516 72.8267 219.006 72.3281 218.377 72.3412C217.749 72.3543 217.252 72.866 217.265 73.4958C217.278 75.0048 217.906 76.3694 218.914 77.3404C219.922 78.3244 221.297 78.9149 222.789 78.9018C224.294 78.8887 225.643 78.2588 226.624 77.2485C227.606 76.2382 228.195 74.8604 228.182 73.3646C228.169 72.7348 227.659 72.2362 227.03 72.2493C226.402 72.2625 225.904 72.7742 225.917 73.404C225.931 74.2831 225.577 75.0966 225.014 75.674C224.438 76.2644 223.64 76.6318 222.763 76.6449C221.886 76.6581 221.074 76.3038 220.498 75.7396C219.909 75.136 219.542 74.3487 219.529 73.4565Z" fill="#1F1F40"/>
<path fill-rule="evenodd" clip-rule="evenodd" d="M183.531 73.837C183.518 73.2072 183.007 72.7086 182.379 72.7217C181.751 72.7349 181.253 73.2466 181.266 73.8764C181.279 75.3853 181.908 76.7368 182.916 77.7209C183.924 78.705 185.285 79.2954 186.79 79.2823C188.296 79.2692 189.644 78.6394 190.626 77.629C191.608 76.6187 192.197 75.241 192.184 73.7452C192.171 73.1154 191.66 72.6168 191.032 72.6299C190.403 72.643 189.906 73.1547 189.919 73.7714C189.932 74.6505 189.579 75.4641 189.016 76.0545C188.44 76.645 187.641 77.0124 186.764 77.0255C185.887 77.0386 185.076 76.6843 184.5 76.1201C183.91 75.5297 183.544 74.7293 183.531 73.837Z" fill="#1F1F40"/>
<path fill-rule="evenodd" clip-rule="evenodd" d="M201.53 91.9048C201.517 91.275 201.007 90.7764 200.391 90.7895C199.763 90.8026 199.266 91.3143 199.266 91.9441C199.279 93.4531 199.92 94.8045 200.915 95.7886C201.923 96.7727 203.297 97.3632 204.79 97.3501C206.295 97.3369 207.643 96.7071 208.625 95.6968C209.607 94.6865 210.196 93.3087 210.183 91.8129C210.17 91.1831 209.659 90.6845 209.031 90.6976C208.403 90.7108 207.905 91.2225 207.918 91.8392C207.931 92.7183 207.578 93.5318 207.015 94.1223C206.439 94.7127 205.64 95.0801 204.763 95.0801C203.886 95.0932 203.075 94.7389 202.486 94.1747C201.91 93.5843 201.543 92.7839 201.53 91.9048Z" fill="#ED8068"/>
<path fill-rule="evenodd" clip-rule="evenodd" d="M252.779 194.302C252.779 194.302 291.487 269.775 303.151 272.675C314.827 275.574 345.498 257.231 371.024 241.486C371.378 238.35 365.631 226.501 362.555 226.344C353.038 230.359 313.662 247.653 310.926 247.626C308.649 247.613 291.055 201.283 280.845 173.492C275.883 159.977 268.644 143.917 256.902 138.787C256.902 138.8 238.471 143.497 252.779 194.302Z" fill="#333258"/>
<path fill-rule="evenodd" clip-rule="evenodd" d="M252.779 194.302C252.779 194.302 291.487 269.775 303.151 272.675C314.827 275.574 345.498 257.231 371.024 241.486C371.234 239.662 369.375 234.886 367.176 231.186C365.579 238.862 351.664 248.781 338.364 255.447C323.611 262.847 309.604 269.604 304.983 264.973C300.362 260.341 292.731 245.042 272.231 204.943C257.151 175.447 256.955 150.425 257.897 139.246C257.57 139.088 257.243 138.931 256.902 138.787C256.902 138.787 243.838 142.119 248.25 173.492C249.022 176.89 249.65 180.368 250.161 183.884C250.868 187.125 251.732 190.589 252.779 194.302Z" fill="#262649"/>
<path fill-rule="evenodd" clip-rule="evenodd" d="M40.4662 241.407C21.3412 229.611 9.50751 221.266 8.61736 220.702C6.536 219.39 7.04651 216.687 9.11478 216.647C11.1831 216.608 18.4482 219.337 19.1944 219.757C19.9405 220.177 19.9143 219.429 19.9143 219.429C16.9297 209.706 25.4385 206.452 27.7293 206.085C30.0201 205.704 31.8527 206.584 31.9575 207.83C32.0622 209.077 30.3474 209.759 30.3474 209.759C25.0065 210.861 24.1556 215.755 26.5512 218.721C28.9467 221.673 33.6592 222.854 36.814 219.416C39.9819 215.978 37.0234 212.108 35.8584 211.005C34.6934 209.903 33.5152 208.722 34.5363 207.436C35.5704 206.151 36.8663 207.108 36.8663 207.108C48.5299 213.866 43.909 223.379 43.909 223.379C43.909 223.379 43.0712 226.646 45.8594 228.181C46.1343 228.338 46.8543 228.653 47.9015 229.099L40.4662 241.407Z" fill="#F4AD85"/>
<path fill-rule="evenodd" clip-rule="evenodd" d="M156.015 194.302C156.015 194.302 117.307 269.775 105.643 272.675C93.9796 275.574 63.2958 257.231 37.7696 241.486C37.4161 238.35 43.1628 226.501 46.239 226.344C55.7557 230.359 95.1316 247.653 97.8675 247.626C100.145 247.613 117.739 201.283 127.949 173.492C132.91 159.977 140.149 143.917 151.891 138.787C151.905 138.8 170.336 143.497 156.015 194.302Z" fill="#333258"/>
<path fill-rule="evenodd" clip-rule="evenodd" d="M149.967 205.796C138.605 227.039 114.44 270.483 105.643 272.675C93.9796 275.574 63.2958 257.231 37.7696 241.486C37.6125 240.042 38.7252 236.775 40.2829 233.652C42.325 236.906 46.8936 241.355 56.7899 246.813C79.0435 259.094 92.1731 265.366 99.543 266.993C106.913 268.62 113.668 256.969 121.168 245.566C128.669 234.164 149.3 191.297 150.177 189.802C150.622 189.054 150.386 196.677 149.967 205.796Z" fill="#262649"/>
<path fill-rule="evenodd" clip-rule="evenodd" d="M382.583 220.413C389.822 210.795 399.339 201.361 399.705 205.652C400.085 209.943 390.751 218.537 386.392 222.67C382.059 226.829 382.583 220.413 382.583 220.413Z" fill="#F4AD85"/>
<path fill-rule="evenodd" clip-rule="evenodd" d="M384.115 221.043C394.43 212.396 407.18 204.537 406.512 209.3C405.831 214.076 393.5 221.069 387.714 224.481C381.929 227.892 384.115 221.043 384.115 221.043Z" fill="#F4AD85"/>
<path fill-rule="evenodd" clip-rule="evenodd" d="M388.421 211.202C388.238 210.861 388.042 210.546 387.832 210.244C385.607 207.082 381.811 205.704 380.331 205.429C377.779 204.956 375.684 205.849 375.54 207.213C375.396 208.578 377.294 209.365 377.294 209.365C383.251 210.73 384.075 216.083 381.3 219.232C380.528 220.111 379.559 220.833 378.499 221.332C378.774 221.292 379.062 221.227 379.389 221.161C382.138 220.649 391.354 215.926 388.421 211.202Z" fill="#F09373"/>
<path fill-rule="evenodd" clip-rule="evenodd" d="M388.67 222.801C388.251 224.638 387.518 226.659 385.947 228.758C393.33 224.533 398.802 221.358 400.556 220.387C404.902 217.986 406.761 217.028 407.075 215.65C406.735 215.27 406.224 215.02 405.583 214.994C403.737 214.915 395.189 218.209 391.34 219.783C390.346 220.19 389.678 220.479 389.495 220.571C389.285 220.676 389.141 220.702 389.024 220.689C388.945 221.371 388.84 222.08 388.67 222.801Z" fill="#F4AD85"/>
<path fill-rule="evenodd" clip-rule="evenodd" d="M25.4253 220.61C18.1864 210.992 8.66969 201.558 8.30316 205.849C7.92354 210.139 17.2569 218.734 21.616 222.867C25.962 227.013 25.4253 220.61 25.4253 220.61Z" fill="#F4AD85"/>
<path fill-rule="evenodd" clip-rule="evenodd" d="M23.9069 221.24C13.5917 212.593 0.841639 204.734 1.50925 209.496C2.18995 214.273 14.5211 221.266 20.307 224.678C26.0929 228.076 23.9069 221.24 23.9069 221.24Z" fill="#F4AD85"/>
<path fill-rule="evenodd" clip-rule="evenodd" d="M19.6002 211.386C19.7834 211.045 19.9798 210.73 20.1892 210.428C22.4146 207.266 26.2108 205.888 27.69 205.613C30.2426 205.14 32.3371 206.033 32.4811 207.397C32.6251 208.749 30.7401 209.549 30.7401 209.549C24.7709 210.914 23.9593 216.267 26.7344 219.416C27.5067 220.295 28.4623 221.017 29.5357 221.515C29.2608 221.476 28.9728 221.41 28.6456 221.345C25.8835 220.833 16.6679 216.123 19.6002 211.386Z" fill="#F09373"/>
<path fill-rule="evenodd" clip-rule="evenodd" d="M19.3514 222.998C19.7703 224.835 20.5034 226.856 22.0742 228.955C14.6913 224.743 9.21947 221.555 7.46536 220.584C3.11936 218.183 1.26052 217.225 0.94635 215.847C1.2867 215.467 1.79722 215.217 2.43865 215.191C4.2844 215.112 12.8324 218.406 16.681 219.98C17.6759 220.387 18.3435 220.676 18.5267 220.768C18.7362 220.873 18.8802 220.899 18.998 220.886C19.0765 221.555 19.1813 222.263 19.3514 222.998Z" fill="#F4AD85"/>
</svg>
