<svg width="6" height="5" viewBox="0 0 6 5" fill="none" xmlns="http://www.w3.org/2000/svg">
<path d="M1.10332 1.32813C1.06655 1.33762 1.02757 1.33762 0.990798 1.32813L0.775989 1.15277L0.561179 1.30044C0.52673 1.32229 0.48565 1.33401 0.443545 1.33401C0.401439 1.33401 0.360359 1.32229 0.325911 1.30044C0.294829 1.27776 0.272258 1.24697 0.261275 1.21228C0.250291 1.1776 0.251431 1.1407 0.264537 1.10662L0.325911 0.87588L0.100872 0.709747C0.064888 0.690606 0.0371866 0.660994 0.0223162 0.625773C0.00744585 0.590552 0.0062904 0.551816 0.0190396 0.515924C0.032418 0.479489 0.0586748 0.448021 0.0937821 0.426347C0.128889 0.404673 0.170908 0.393991 0.213391 0.395938H0.479346L0.581637 0.155968C0.591291 0.119375 0.615194 0.0871293 0.64899 0.0651058C0.682786 0.0430824 0.724226 0.0327468 0.765759 0.0359821C0.806517 0.0360358 0.846225 0.0476499 0.879267 0.0691818C0.912308 0.0907137 0.937011 0.121074 0.949882 0.155968L1.04194 0.386709H1.3079C1.34866 0.386763 1.38836 0.398377 1.42141 0.419909C1.45445 0.44144 1.47915 0.4718 1.49202 0.506694C1.50403 0.541701 1.50358 0.579222 1.49073 0.613986C1.47789 0.64875 1.4533 0.679011 1.42042 0.700517L1.21584 0.857421L1.29767 1.08816C1.31137 1.12305 1.31176 1.16107 1.29879 1.19618C1.28582 1.23129 1.26022 1.26149 1.22607 1.28199C1.19199 1.30927 1.14879 1.32551 1.10332 1.32813ZM0.765759 0.958947C0.801913 0.946091 0.842126 0.946091 0.878279 0.958947L1.09309 1.09739L1.04194 0.958947C1.02935 0.939667 1.02121 0.91829 1.018 0.8961C1.01479 0.87391 1.01659 0.851364 1.02327 0.829815C1.02996 0.808265 1.0414 0.788157 1.05692 0.770697C1.07243 0.753236 1.09169 0.738783 1.11355 0.728206L1.32836 0.589761H1.04194C0.996621 0.587546 0.953803 0.570304 0.921709 0.541345C0.889614 0.512386 0.870505 0.473751 0.86805 0.432857L0.786218 0.202116L0.663469 0.432857C0.650598 0.467751 0.625895 0.498111 0.592853 0.519643C0.559812 0.541175 0.520104 0.552789 0.479346 0.552843H0.192933L0.417972 0.728206C0.456846 0.753857 0.48504 0.790551 0.498025 0.832397C0.51101 0.874242 0.508035 0.918811 0.489575 0.958947L0.407743 1.18969L0.622553 1.05124C0.633046 1.02446 0.652415 1.00124 0.678033 0.984729C0.703651 0.968218 0.734279 0.959217 0.765759 0.958947Z" fill="#71717A"/>
<path d="M3.08779 1.32813C3.04739 1.33644 3.00544 1.33644 2.96504 1.32813L2.75023 1.18046L2.53542 1.32813C2.50319 1.35059 2.46362 1.36276 2.4229 1.36276C2.38218 1.36276 2.34261 1.35059 2.31038 1.32813C2.27622 1.30764 2.25063 1.27744 2.23766 1.24233C2.22469 1.20721 2.22508 1.1692 2.23878 1.13431L2.27969 0.87588L2.06488 0.709747C2.03017 0.689492 2.00352 0.659777 1.98881 0.624922C1.97409 0.590066 1.97207 0.551884 1.98305 0.515924C1.99592 0.48103 2.02063 0.45067 2.05367 0.429138C2.08671 0.407606 2.12642 0.395992 2.16718 0.395938H2.43313L2.53542 0.155968C2.54829 0.121074 2.57299 0.0907137 2.60604 0.0691818C2.63908 0.0476499 2.67879 0.0360358 2.71954 0.0359821C2.76108 0.0327468 2.80252 0.0430824 2.83631 0.0651058C2.87011 0.0871293 2.89401 0.119375 2.90367 0.155968L2.9855 0.386709H3.27191C3.31305 0.385255 3.35354 0.396284 3.38692 0.418034C3.4203 0.439784 3.44463 0.471 3.45603 0.506694C3.46973 0.541582 3.47013 0.579598 3.45716 0.614711C3.44418 0.649824 3.41859 0.680023 3.38443 0.700517L3.16962 0.857421L3.26168 1.08816C3.27093 1.12328 3.26913 1.16003 3.25648 1.19428C3.24383 1.22852 3.22083 1.2589 3.19008 1.28199L3.08779 1.32813ZM2.16718 0.552843L2.37176 0.728206C2.39361 0.738783 2.41287 0.753236 2.42839 0.770697C2.4439 0.788157 2.45534 0.808265 2.46203 0.829815C2.46872 0.851364 2.47051 0.87391 2.4673 0.8961C2.46409 0.91829 2.45595 0.939667 2.44336 0.958947L2.36153 1.18969L2.57634 1.05124C2.60857 1.02879 2.64814 1.01661 2.68886 1.01661C2.72957 1.01661 2.76915 1.02879 2.80138 1.05124L3.08779 1.17123L2.99573 0.958947C2.97924 0.916806 2.9794 0.870818 2.99617 0.828769C3.01295 0.78672 3.04531 0.751194 3.08779 0.728206L3.28214 0.589761H3.00596C2.95955 0.587783 2.91546 0.570869 2.88168 0.542085C2.8479 0.5133 2.82667 0.474551 2.82183 0.432857L2.74 0.202116L2.61725 0.432857C2.6076 0.46945 2.5837 0.501695 2.5499 0.523719C2.5161 0.545742 2.47466 0.556078 2.43313 0.552843H2.16718Z" fill="#71717A"/>
<path d="M5.02114 1.32813C4.98437 1.33762 4.94539 1.33762 4.90862 1.32813L4.69381 1.18046L4.479 1.32813C4.44677 1.35059 4.4072 1.36276 4.36648 1.36276C4.32577 1.36276 4.2862 1.35059 4.25396 1.32813C4.22797 1.32282 4.20346 1.31274 4.18196 1.29852C4.16046 1.2843 4.14244 1.26624 4.12901 1.24546C4.11558 1.22468 4.10703 1.20164 4.10389 1.17775C4.10075 1.15387 4.10309 1.12966 4.11076 1.10662L4.23351 0.87588L4.0187 0.709747C3.98454 0.689253 3.95894 0.659054 3.94597 0.623941C3.933 0.588828 3.9334 0.550811 3.94709 0.515924C3.95604 0.482509 3.9769 0.45267 4.00647 0.430992C4.03604 0.409315 4.07268 0.396999 4.11076 0.395938H4.41763L4.49946 0.155968C4.50912 0.119375 4.53302 0.0871293 4.56682 0.0651058C4.60061 0.0430824 4.64205 0.0327468 4.68358 0.0359821C4.72434 0.0360358 4.76405 0.0476499 4.79709 0.0691818C4.83013 0.0907137 4.85484 0.121074 4.86771 0.155968L4.94954 0.386709H5.21549C5.25703 0.383474 5.29847 0.393809 5.33226 0.415833C5.36606 0.437856 5.38996 0.470102 5.39962 0.506694C5.41272 0.540774 5.41386 0.577672 5.40288 0.612358C5.3919 0.647043 5.36932 0.677829 5.33824 0.700517L5.13366 0.857421L5.21549 1.08816C5.23157 1.12659 5.23218 1.16889 5.21722 1.20769C5.20227 1.24648 5.1727 1.27931 5.13366 1.30044C5.09993 1.31933 5.06083 1.32895 5.02114 1.32813ZM4.68358 0.958947C4.72005 0.947696 4.75963 0.947696 4.7961 0.958947L5.01091 1.09739L4.95977 0.958947C4.94718 0.939667 4.93903 0.91829 4.93583 0.8961C4.93262 0.87391 4.93441 0.851364 4.9411 0.829815C4.94779 0.808265 4.95923 0.788157 4.97474 0.770697C4.99025 0.753236 5.00952 0.738783 5.03137 0.728206L5.24618 0.589761H4.95977C4.91365 0.589761 4.86942 0.57323 4.83681 0.543805C4.8042 0.51438 4.78587 0.474471 4.78587 0.432857L4.69381 0.202116L4.58129 0.432857C4.56842 0.467751 4.54372 0.498111 4.51068 0.519643C4.47764 0.541175 4.43793 0.552789 4.39717 0.552843H4.11076L4.32557 0.691287C4.35225 0.702361 4.3758 0.718747 4.39446 0.739214C4.41311 0.759681 4.42638 0.783697 4.43328 0.809457C4.44017 0.835216 4.4405 0.86205 4.43424 0.887942C4.42799 0.913834 4.41532 0.93811 4.39717 0.958947L4.31534 1.18969L4.53015 1.05124C4.54525 1.0256 4.56718 1.00374 4.59396 0.98763C4.62074 0.971521 4.65154 0.961665 4.68358 0.958947Z" fill="#71717A"/>
<path d="M4.30513 3.81091H3.96758C3.94497 3.80863 3.92411 3.79888 3.909 3.78355C3.89389 3.76821 3.8856 3.74837 3.88574 3.72785C3.88574 3.70826 3.89437 3.68948 3.90971 3.67563C3.92506 3.66179 3.94587 3.65401 3.96758 3.65401H4.30513C4.34583 3.65401 4.38485 3.63942 4.41363 3.61346C4.4424 3.5875 4.45857 3.55228 4.45857 3.51556C4.45857 3.47885 4.4424 3.44363 4.41363 3.41767C4.38485 3.3917 4.34583 3.37712 4.30513 3.37712H3.96758C3.94497 3.37484 3.92411 3.36509 3.909 3.34975C3.89389 3.33441 3.8856 3.31457 3.88574 3.29405C3.88574 3.27447 3.89437 3.25569 3.90971 3.24184C3.92506 3.22799 3.94587 3.22021 3.96758 3.22021H4.30513C4.34812 3.22021 4.39068 3.22785 4.4304 3.2427C4.47011 3.25754 4.5062 3.27929 4.53659 3.30672C4.56699 3.33415 4.5911 3.36671 4.60755 3.40254C4.624 3.43837 4.63246 3.47678 4.63246 3.51556C4.6299 3.59316 4.59458 3.66695 4.53375 3.72184C4.47291 3.77673 4.39113 3.80859 4.30513 3.81091Z" fill="#71717A"/>
<path d="M4.30513 4.2355H3.96758C3.94587 4.2355 3.92506 4.22772 3.90971 4.21387C3.89437 4.20002 3.88574 4.18124 3.88574 4.16166C3.8856 4.14114 3.89389 4.1213 3.909 4.10596C3.92411 4.09062 3.94497 4.08087 3.96758 4.07859H4.30513C4.34412 4.07867 4.38167 4.06536 4.41017 4.04136C4.43867 4.01736 4.45597 3.98447 4.45857 3.94938C4.45857 3.9312 4.4546 3.91319 4.44689 3.8964C4.43918 3.8796 4.42788 3.86434 4.41363 3.85148C4.39938 3.83863 4.38247 3.82843 4.36385 3.82147C4.34524 3.81451 4.32528 3.81093 4.30513 3.81093H3.96758C3.94497 3.80865 3.92411 3.7989 3.909 3.78357C3.89389 3.76823 3.8856 3.74839 3.88574 3.72787C3.88574 3.70828 3.89437 3.6895 3.90971 3.67566C3.92506 3.66181 3.94587 3.65403 3.96758 3.65403H4.30513C4.35225 3.64642 4.40065 3.64824 4.4469 3.65934C4.49316 3.67044 4.53616 3.69056 4.57286 3.71828C4.60957 3.746 4.63909 3.78065 4.65935 3.81978C4.6796 3.85891 4.6901 3.90157 4.6901 3.94476C4.6901 3.98795 4.6796 4.03062 4.65935 4.06975C4.63909 4.10888 4.60957 4.14353 4.57286 4.17125C4.53616 4.19897 4.49316 4.21909 4.4469 4.23019C4.40065 4.24129 4.35225 4.2431 4.30513 4.2355Z" fill="#71717A"/>
<path d="M4.30502 4.65081H1.91142C1.88972 4.65081 1.8689 4.64303 1.85356 4.62919C1.83821 4.61534 1.82959 4.59656 1.82959 4.57698V2.86026C1.83374 2.84549 1.84284 2.83224 1.85566 2.82233C1.86848 2.81241 1.88438 2.80632 1.90119 2.80488H2.10577C2.22134 2.78331 2.32892 2.73556 2.41839 2.66613C2.50786 2.5967 2.57629 2.50788 2.61723 2.40801L2.82181 1.88192C2.84806 1.82269 2.89315 1.77181 2.9514 1.73567C3.00965 1.69954 3.07845 1.67977 3.14914 1.67887C3.2063 1.67815 3.26287 1.68945 3.31436 1.71188C3.36585 1.7343 3.41084 1.76724 3.44578 1.80808C3.47101 1.85398 3.48415 1.90452 3.48415 1.95575C3.48415 2.00699 3.47101 2.05753 3.44578 2.10343L3.23097 2.65721C3.21504 2.69273 3.21504 2.73244 3.23097 2.76796C3.25103 2.79099 3.27916 2.80718 3.31075 2.81389C3.34235 2.8206 3.37553 2.81742 3.40486 2.80488H4.30502C4.39183 2.80488 4.47509 2.836 4.53647 2.89139C4.59786 2.94678 4.63235 3.0219 4.63235 3.10023C4.62978 3.17783 4.59447 3.25161 4.53363 3.30651C4.47279 3.3614 4.39102 3.39326 4.30502 3.39558H3.96746C3.94486 3.3933 3.92399 3.38355 3.90888 3.36821C3.89377 3.35288 3.88549 3.33303 3.88563 3.31251C3.88563 3.29293 3.89425 3.27415 3.90959 3.2603C3.92494 3.24646 3.94576 3.23868 3.96746 3.23868H4.30502C4.34571 3.23868 4.38474 3.22409 4.41351 3.19813C4.44229 3.17216 4.45845 3.13695 4.45845 3.10023C4.45845 3.06351 4.44229 3.0283 4.41351 3.00234C4.38474 2.97637 4.34571 2.96179 4.30502 2.96179H3.40486C3.35094 2.9575 3.29913 2.94083 3.25436 2.91337C3.2096 2.8859 3.17337 2.84856 3.14914 2.80488C3.1288 2.76428 3.11828 2.72023 3.11828 2.67567C3.11828 2.63111 3.1288 2.58706 3.14914 2.54645L3.36395 1.99267C3.37656 1.96972 3.38313 1.94445 3.38313 1.91884C3.38313 1.89322 3.37656 1.86795 3.36395 1.845C3.34648 1.82279 3.32352 1.80455 3.29689 1.79173C3.27026 1.77892 3.24068 1.77187 3.21051 1.77116C3.16304 1.75928 3.11234 1.76411 3.06867 1.78467C3.02499 1.80523 2.9916 1.83999 2.97524 1.88192L2.78089 2.38032C2.73226 2.50594 2.6482 2.61796 2.53699 2.70535C2.42579 2.79275 2.29127 2.8525 2.14669 2.87872H2.00348V4.51237H4.30502C4.32517 4.51237 4.34512 4.50879 4.36373 4.50183C4.38235 4.49487 4.39926 4.48467 4.41351 4.47182C4.42776 4.45896 4.43906 4.4437 4.44677 4.4269C4.45448 4.41011 4.45845 4.3921 4.45845 4.37392C4.45845 4.33721 4.44229 4.30199 4.41351 4.27603C4.38474 4.25007 4.34571 4.23548 4.30502 4.23548H3.96746C3.94576 4.23548 3.92494 4.2277 3.90959 4.21385C3.89425 4.20001 3.88563 4.18122 3.88563 4.16164C3.88549 4.14112 3.89377 4.12128 3.90888 4.10594C3.92399 4.0906 3.94486 4.08085 3.96746 4.07857H4.30502C4.39102 4.08089 4.47279 4.11275 4.53363 4.16765C4.59447 4.22254 4.62978 4.29633 4.63235 4.37392C4.62714 4.44901 4.59036 4.51948 4.52953 4.57093C4.4687 4.62239 4.3884 4.65096 4.30502 4.65081Z" fill="#71717A"/>
<path d="M1.91111 4.83543H0.785911C0.761495 4.83543 0.738079 4.82667 0.720814 4.8111C0.703549 4.79552 0.69385 4.77439 0.69385 4.75236V2.66646C0.693759 2.65593 0.696162 2.64551 0.700898 2.63589C0.705635 2.62628 0.712595 2.61768 0.721313 2.61069C0.730032 2.6037 0.740306 2.59847 0.751447 2.59535C0.762588 2.59224 0.774339 2.5913 0.785911 2.59262H1.91111C1.92268 2.5913 1.93443 2.59224 1.94557 2.59535C1.95671 2.59847 1.96699 2.6037 1.9757 2.61069C1.98442 2.61768 1.99138 2.62628 1.99612 2.63589C2.00086 2.64551 2.00326 2.65593 2.00317 2.66646V4.75236C2.00317 4.77439 1.99347 4.79552 1.9762 4.8111C1.95894 4.82667 1.93552 4.83543 1.91111 4.83543ZM0.867744 4.65083H1.82927V2.74952H0.867744V4.65083Z" fill="#71717A"/>
<path d="M1.34877 3.39554C1.28589 3.38447 1.22923 3.35402 1.1885 3.3094C1.14776 3.26478 1.12549 3.20877 1.12549 3.15096C1.12549 3.09315 1.14776 3.03714 1.1885 2.99252C1.22923 2.9479 1.28589 2.91745 1.34877 2.90637C1.41165 2.91745 1.46831 2.9479 1.50904 2.99252C1.54977 3.03714 1.57205 3.09315 1.57205 3.15096C1.57205 3.20877 1.54977 3.26478 1.50904 3.3094C1.46831 3.35402 1.41165 3.38447 1.34877 3.39554ZM1.34877 3.06328C1.32345 3.06557 1.29999 3.0763 1.28296 3.09337C1.26594 3.11043 1.25658 3.13261 1.25671 3.15557C1.25671 3.1776 1.26641 3.19873 1.28367 3.21431C1.30094 3.22989 1.32435 3.23864 1.34877 3.23864C1.37318 3.23864 1.3966 3.22989 1.41386 3.21431C1.43113 3.19873 1.44083 3.1776 1.44083 3.15557C1.44096 3.13261 1.43159 3.11043 1.41457 3.09337C1.39755 3.0763 1.37409 3.06557 1.34877 3.06328Z" fill="#71717A"/>
</svg>
