<svg id="icons" enable-background="new 0 0 64 64" height="512" viewBox="0 0 64 64" width="512" xmlns="http://www.w3.org/2000/svg"><path d="m63 29.99c0 .549-.45 1-1 1h-28.5c-.55 0-1-.451-1-1v-3.002c0-.549.45-1 1-1h28.5c.55 0 1 .451 1 1z" fill="#ffce54"/><path d="m30.5 25.988c.55 0 1 .451 1 1v3.002c0 .549-.45 1-1 1h-28.5c-.55 0-1-.451-1-1v-3.002c0-.549.45-1 1-1z" fill="#ffce54"/><path d="m62.001 23.991c0-.552.446-.999.999-1v-.001-6.999c-.553-.001-.999-.448-.999-1s.446-.999.999-1v-.001-3c0-.55-.45-1-1-1h-60c-.55 0-1 .45-1 1v3 .001c.553.001.999.448.999 1s-.446.999-.999 1v6.999.001c.553.001.999.448.999 1s-.446.999-.999 1v3.999h62v-3.999c-.553-.001-.999-.449-.999-1z" fill="#a0d468"/><g fill="#545c66"><path d="m28 14.99c.55 0 1 .451 1 1v9c0 .551-.45 1-1 1h-4c-.55 0-1-.449-1-1v-9c0-.549.45-1 1-1z"/><path d="m19 14.99c.55 0 1 .451 1 1v9c0 .551-.45 1-1 1h-4c-.55 0-1-.449-1-1v-9c0-.549.45-1 1-1z"/><path d="m58 14.99c.55 0 1 .451 1 1v9c0 .551-.45 1-1 1h-4c-.55 0-1-.449-1-1v-9c0-.549.45-1 1-1z"/><path d="m40 14.99c.55 0 1 .451 1 1v9c0 .551-.45 1-1 1h-4c-.55 0-1-.449-1-1v-9c0-.549.45-1 1-1z"/><path d="m49 14.99c.55 0 1 .451 1 1v9c0 .551-.45 1-1 1h-4c-.55 0-1-.449-1-1v-9c0-.549.45-1 1-1z"/><path d="m10 14.99c.55 0 1 .451 1 1v9c0 .551-.45 1-1 1h-4c-.55 0-1-.449-1-1v-9c0-.549.45-1 1-1z"/></g><path d="m28 13.99c.55 0 1 .45 1 1v9c0 .55-.45 1-1 1h-4c-.55 0-1-.45-1-1v-9c0-.55.45-1 1-1z" fill="#656d78"/><path d="m19 13.99c.55 0 1 .45 1 1v9c0 .55-.45 1-1 1h-4c-.55 0-1-.45-1-1v-9c0-.55.45-1 1-1z" fill="#656d78"/><path d="m58 13.99c.55 0 1 .45 1 1v9c0 .55-.45 1-1 1h-4c-.55 0-1-.45-1-1v-9c0-.55.45-1 1-1z" fill="#656d78"/><path d="m40 13.99c.55 0 1 .45 1 1v9c0 .55-.45 1-1 1h-4c-.55 0-1-.45-1-1v-9c0-.55.45-1 1-1z" fill="#656d78"/><path d="m49 13.99c.55 0 1 .45 1 1v9c0 .55-.45 1-1 1h-4c-.55 0-1-.45-1-1v-9c0-.55.45-1 1-1z" fill="#656d78"/><path d="m10 13.99c.55 0 1 .45 1 1v9c0 .55-.45 1-1 1h-4c-.55 0-1-.45-1-1v-9c0-.55.45-1 1-1z" fill="#656d78"/><path d="m63 53.01c0 .549-.45 1-1 1h-28.5c-.55 0-1-.451-1-1v-3.002c0-.551.45-1.002 1-1.002h28.5c.55 0 1 .451 1 1.002z" fill="#ffce54"/><path d="m30.5 49.006c.55 0 1 .451 1 1.002v3.002c0 .549-.45 1-1 1h-28.5c-.55 0-1-.451-1-1v-3.002c0-.551.45-1.002 1-1.002z" fill="#ffce54"/><path d="m62.001 47.008c0-.553.446-1 .999-1 0 0 0 0 0-.002v-7.002c-.553 0-.999-.449-.999-1 0-.553.446-1 .999-1v-.002-3c0-.551-.45-1-1-1h-60c-.55 0-1 .449-1 1v3 .002c.553 0 .999.447.999 1 0 .551-.446 1-.999 1v7.002.002c.553 0 .999.447.999 1s-.446 1-.999 1v4.002h62v-4.002c-.553 0-.999-.447-.999-1z" fill="#a0d468"/><path d="m28 38.004c.55 0 1 .449 1 1v9.004c0 .551-.45 1-1 1h-4c-.55 0-1-.449-1-1v-9.004c0-.551.45-1 1-1z" fill="#545c66"/><path d="m19 38.004c.55 0 1 .449 1 1v9.004c0 .551-.45 1-1 1h-4c-.55 0-1-.449-1-1v-9.004c0-.551.45-1 1-1z" fill="#545c66"/><path d="m58 38.004c.55 0 1 .449 1 1v9.004c0 .551-.45 1-1 1h-4c-.55 0-1-.449-1-1v-9.004c0-.551.45-1 1-1z" fill="#545c66"/><path d="m40 38.004c.55 0 1 .449 1 1v9.004c0 .551-.45 1-1 1h-4c-.55 0-1-.449-1-1v-9.004c0-.551.45-1 1-1z" fill="#545c66"/><path d="m49 38.004c.55 0 1 .449 1 1v9.004c0 .551-.45 1-1 1h-4c-.55 0-1-.449-1-1v-9.004c0-.551.45-1 1-1z" fill="#545c66"/><path d="m10 38.004c.55 0 1 .449 1 1v9.004c0 .551-.45 1-1 1h-4c-.55 0-1-.449-1-1v-9.004c0-.551.45-1 1-1z" fill="#545c66"/><path d="m28 37.002c.55 0 1 .451 1 1v9.006c0 .549-.45 1-1 1h-4c-.55 0-1-.451-1-1v-9.006c0-.549.45-1 1-1z" fill="#656d78"/><path d="m19 37.002c.55 0 1 .451 1 1v9.006c0 .549-.45 1-1 1h-4c-.55 0-1-.451-1-1v-9.006c0-.549.45-1 1-1z" fill="#656d78"/><path d="m58 37.002c.55 0 1 .451 1 1v9.006c0 .549-.45 1-1 1h-4c-.55 0-1-.451-1-1v-9.006c0-.549.45-1 1-1z" fill="#656d78"/><path d="m40 37.002c.55 0 1 .451 1 1v9.006c0 .549-.45 1-1 1h-4c-.55 0-1-.451-1-1v-9.006c0-.549.45-1 1-1z" fill="#656d78"/><path d="m49 37.002c.55 0 1 .451 1 1v9.006c0 .549-.45 1-1 1h-4c-.55 0-1-.451-1-1v-9.006c0-.549.45-1 1-1z" fill="#656d78"/><path d="m10 37.002c.55 0 1 .451 1 1v9.006c0 .549-.45 1-1 1h-4c-.55 0-1-.451-1-1v-9.006c0-.549.45-1 1-1z" fill="#656d78"/></svg>