<svg xmlns="http://www.w3.org/2000/svg" viewBox="0 0 54.07 9.95"><title>Asset 1</title><g id="Layer_2" data-name="Layer 2"><g id="Layer_1-2" data-name="Layer 1"><path d="M3.28,9.56a3.4,3.4,0,0,1-1-.12,5.74,5.74,0,0,1-.65-.23,1,1,0,0,0-.39-.11.22.22,0,0,0-.2.1A1,1,0,0,0,1,9.51H.6A4.58,4.58,0,0,0,.61,9V8.14c0-.33,0-.75,0-1.26H1a2.8,2.8,0,0,0,.66,1.69,1.87,1.87,0,0,0,1.45.59,1.48,1.48,0,0,0,1-.31A1,1,0,0,0,4.49,8a1.13,1.13,0,0,0-.17-.6,1.61,1.61,0,0,0-.55-.51,5.9,5.9,0,0,0-1-.44,4.55,4.55,0,0,1-1.19-.58,2.24,2.24,0,0,1-.67-.71A1.71,1.71,0,0,1,.7,4.29,1.82,1.82,0,0,1,1,3.3a1.82,1.82,0,0,1,.74-.63,2.52,2.52,0,0,1,1.14-.23,3,3,0,0,1,.85.11,4.85,4.85,0,0,1,.56.23.77.77,0,0,0,.38.11.23.23,0,0,0,.2-.09A.86.86,0,0,0,5,2.49h.37q0,.21,0,.48c0,.18,0,.41,0,.69s0,.64,0,1.08H4.89a2.32,2.32,0,0,0-.62-1.39A1.72,1.72,0,0,0,3,2.83a1.32,1.32,0,0,0-.88.27,1,1,0,0,0-.32.76A1,1,0,0,0,2,4.43a1.57,1.57,0,0,0,.57.48,9.38,9.38,0,0,0,1.07.5,4,4,0,0,1,1.57.91,1.85,1.85,0,0,1,.47,1.27A1.78,1.78,0,0,1,5,9,2.62,2.62,0,0,1,3.28,9.56Z" transform="translate(-0.6 -1.85)"/><path d="M6.43,11.66v-.38a1.46,1.46,0,0,0,.78-.16.59.59,0,0,0,.22-.53V5.66A.76.76,0,0,0,7.2,5a1.24,1.24,0,0,0-.77-.21V4.43l.42,0h.42A6,6,0,0,0,8.6,4.33v6.19a.63.63,0,0,0,.28.58,2,2,0,0,0,1,.18v.38H9.38l-.67,0H8l-.92,0Zm3.41-2.1A1.94,1.94,0,0,1,9,9.38a1,1,0,0,1-.51-.53l.07-.32A1,1,0,0,0,8.93,9a1.23,1.23,0,0,0,.61.15,1.08,1.08,0,0,0,1-.57,3.17,3.17,0,0,0,.35-1.64,3.12,3.12,0,0,0-.3-1.52.94.94,0,0,0-.87-.53A1.21,1.21,0,0,0,9,5.08a1.18,1.18,0,0,0-.48.62l0-.32a1.42,1.42,0,0,1,.6-.79,1.83,1.83,0,0,1,1-.29,1.78,1.78,0,0,1,1.07.31,2,2,0,0,1,.68.88,3.3,3.3,0,0,1,.25,1.36,3.33,3.33,0,0,1-.29,1.44,2.16,2.16,0,0,1-.79.94A2.11,2.11,0,0,1,9.84,9.56Z" transform="translate(-0.6 -1.85)"/><path d="M14.65,9.56a1.47,1.47,0,0,1-1-.34,1.14,1.14,0,0,1-.39-.91,1.15,1.15,0,0,1,.22-.73A1.76,1.76,0,0,1,14,7.12a4.26,4.26,0,0,1,.7-.28l.72-.19A1.75,1.75,0,0,0,16,6.41a.42.42,0,0,0,.21-.34V5.6A.89.89,0,0,0,16,4.92a1.06,1.06,0,0,0-.74-.23,1.63,1.63,0,0,0-.58.1c-.15.06-.23.15-.23.24a.38.38,0,0,0,.07.22,1.38,1.38,0,0,1,.14.24.5.5,0,0,1,.07.27.43.43,0,0,1-.15.34.64.64,0,0,1-.42.13A.59.59,0,0,1,13.64,6a.65.65,0,0,1-.18-.48.9.9,0,0,1,.28-.66,1.73,1.73,0,0,1,.76-.45,3.64,3.64,0,0,1,1.09-.15,2.45,2.45,0,0,1,1,.18,1.13,1.13,0,0,1,.58.58,2.33,2.33,0,0,1,.19,1V8.62a.58.58,0,0,0,.07.33.27.27,0,0,0,.23.11A.67.67,0,0,0,18,9a2.29,2.29,0,0,0,.29-.18l.19.32a2.35,2.35,0,0,1-.57.33,2.12,2.12,0,0,1-.69.11q-1,0-1-.81a1.71,1.71,0,0,1-.65.61A1.87,1.87,0,0,1,14.65,9.56Zm.53-.66a1.12,1.12,0,0,0,1-.57V6.56a.71.71,0,0,1-.29.28,3.18,3.18,0,0,1-.45.2L15,7.28a1.24,1.24,0,0,0-.38.34.92.92,0,0,0-.14.53.74.74,0,0,0,.19.55A.69.69,0,0,0,15.18,8.9Z" transform="translate(-0.6 -1.85)"/><path d="M18.84,9.43V9.05a1.47,1.47,0,0,0,.77-.16.65.65,0,0,0,.2-.54V5.66A.85.85,0,0,0,19.6,5a1.28,1.28,0,0,0-.76-.2V4.43l.43,0h.42A5.6,5.6,0,0,0,21,4.33V8.28a.63.63,0,0,0,.29.59,2.22,2.22,0,0,0,1,.18v.38l-.49,0H19.51ZM22.7,6.15A.49.49,0,0,1,22.33,6a.45.45,0,0,1-.13-.34.69.69,0,0,1,.05-.24,1,1,0,0,1,.1-.21.41.41,0,0,0,0-.19c0-.14-.09-.21-.29-.21a.91.91,0,0,0-.43.11,1.62,1.62,0,0,0-.42.28,1.11,1.11,0,0,0-.28.41l0-.39a2.05,2.05,0,0,1,.65-.69,1.63,1.63,0,0,1,.84-.24,1,1,0,0,1,.74.26,1,1,0,0,1,.26.71,1,1,0,0,1-.2.64A.65.65,0,0,1,22.7,6.15Z" transform="translate(-0.6 -1.85)"/><path d="M23.77,9.43V9.05a1.63,1.63,0,0,0,.79-.18.58.58,0,0,0,.21-.52V3.18a.77.77,0,0,0-.22-.64,1.28,1.28,0,0,0-.78-.21V2l.44,0h.4a6.25,6.25,0,0,0,1.33-.13v6.5a.72.72,0,0,0,.15.52.86.86,0,0,0,.54.18v.38l-.58,0H24.47Zm3.58,0V9.05c.24,0,.4-.07.46-.16s0-.23-.06-.42l-.36-.88A1.11,1.11,0,0,0,27,7.07a1,1,0,0,0-.56-.14h-.67V6.55h.79a1.08,1.08,0,0,0,.51-.1,1.37,1.37,0,0,0,.4-.32l.21-.29a.89.89,0,0,0,.2-.4.36.36,0,0,0,0-.31.56.56,0,0,0-.28-.21A1.56,1.56,0,0,0,27,4.81V4.43l.64,0h1.66l.41,0v.38a2.37,2.37,0,0,0-.6.17,1.61,1.61,0,0,0-.47.29,3.7,3.7,0,0,0-.42.45l-.75,1-.17-.25a1.49,1.49,0,0,1,.56.13.93.93,0,0,1,.4.34,3,3,0,0,1,.32.63l.32.69a2.64,2.64,0,0,0,.28.46.74.74,0,0,0,.37.25,2.52,2.52,0,0,0,.56.11v.38l-.6,0H28.08Z" transform="translate(-0.6 -1.85)"/><path d="M30.61,9.43V9.05a1.45,1.45,0,0,0,.76-.16.6.6,0,0,0,.21-.54V5.66A.84.84,0,0,0,31.37,5a1.17,1.17,0,0,0-.76-.21V4.43l.4,0h.41q.38,0,.72,0l.62-.1v4A.61.61,0,0,0,33,8.9a1.65,1.65,0,0,0,.76.15v.38l-.39,0H31.29Zm1.53-6.06a.76.76,0,0,1-.51-.19.65.65,0,0,1-.22-.52.71.71,0,0,1,.22-.52.83.83,0,0,1,1.06,0,.68.68,0,0,1,.23.52.63.63,0,0,1-.24.51A.82.82,0,0,1,32.14,3.37Z" transform="translate(-0.6 -1.85)"/><path d="M34.32,9.43V9.05a1.45,1.45,0,0,0,.76-.16.62.62,0,0,0,.2-.54V5.66A.85.85,0,0,0,35.07,5a1.23,1.23,0,0,0-.75-.2V4.43l.4,0h.41q.39,0,.72,0c.22,0,.43-.06.61-.1v4a.76.76,0,0,0,.15.54.79.79,0,0,0,.53.16v.38l-.55,0H35Zm3.5,0V9.05a.75.75,0,0,0,.51-.16.76.76,0,0,0,.15-.54V6a1.33,1.33,0,0,0-.23-.84.76.76,0,0,0-.66-.29,1.13,1.13,0,0,0-.65.19,1.54,1.54,0,0,0-.51.58V5.23a1.57,1.57,0,0,1,.66-.69,2,2,0,0,1,1-.24,1.45,1.45,0,0,1,1.18.47,2,2,0,0,1,.4,1.32V8.35a.62.62,0,0,0,.21.54,1.51,1.51,0,0,0,.78.16v.38l-.4,0H38.35Z" transform="translate(-0.6 -1.85)"/><path d="M41.15,9.43V9.05a1.45,1.45,0,0,0,.76-.16.6.6,0,0,0,.21-.54V5.66A.84.84,0,0,0,41.91,5a1.17,1.17,0,0,0-.76-.21V4.43l.39,0H42q.38,0,.72,0l.62-.1v4a.61.61,0,0,0,.22.55,1.65,1.65,0,0,0,.76.15v.38l-.39,0H41.83Zm1.53-6.06a.76.76,0,0,1-.51-.19A.65.65,0,0,1,42,2.66a.67.67,0,0,1,.22-.52.83.83,0,0,1,1.06,0,.68.68,0,0,1,.23.52.63.63,0,0,1-.24.51A.84.84,0,0,1,42.68,3.37Z" transform="translate(-0.6 -1.85)"/><path d="M47.22,9.56a1.44,1.44,0,0,1-1.11-.41,1.85,1.85,0,0,1-.38-1.28V4.81H44.62V4.43h1.11V3a4.14,4.14,0,0,0,.64,0,2.57,2.57,0,0,0,.55-.12v1.6h1.53v.38H46.92V8.17a1,1,0,0,0,.15.61.59.59,0,0,0,.49.19.73.73,0,0,0,.52-.19,1.64,1.64,0,0,0,.34-.58l.3.11a2,2,0,0,1-.55.94A1.36,1.36,0,0,1,47.22,9.56Z" transform="translate(-0.6 -1.85)"/><path d="M51.79,9.78,49.84,5.44A1.23,1.23,0,0,0,49.46,5a1,1,0,0,0-.57-.15V4.43q.33,0,.66,0h1.52a5.79,5.79,0,0,0,.61,0v.39c-.32,0-.52.07-.59.18s-.06.31.06.6l1.22,2.71-.2.1L53,6.23a2.06,2.06,0,0,0,.18-.75A.62.62,0,0,0,53,5a.83.83,0,0,0-.52-.19V4.43l.42,0h1.27l.48,0v.39a1.13,1.13,0,0,0-.66.31,2.08,2.08,0,0,0-.47.82L52.06,9.78Zm-1.37,2a1.2,1.2,0,0,1-.8-.25.76.76,0,0,1-.31-.64.73.73,0,0,1,.19-.54.78.78,0,0,1,.53-.19.58.58,0,0,1,.38.12.34.34,0,0,1,.14.3.6.6,0,0,1,0,.24l-.1.21a.58.58,0,0,0,0,.19c0,.12.07.18.2.18a.57.57,0,0,0,.4-.16,1.17,1.17,0,0,0,.28-.46l.64-1.6.3.19-.55,1.44a2,2,0,0,1-.29.54,1.2,1.2,0,0,1-.4.32A1.22,1.22,0,0,1,50.42,11.8Z" transform="translate(-0.6 -1.85)"/></g></g></svg>