<svg id="icons" enable-background="new 0 0 64 64" height="512" viewBox="0 0 64 64" width="512" xmlns="http://www.w3.org/2000/svg"><path d="m29.99 55v4h-6v-4h3.01z" fill="#d7e9ff"/><path d="m45 59h-15.01v-4h3.01 3 3 3 3z" fill="#d7e9ff"/><path d="m53 55v4c0 2.2-1.8 4-4 4h-34c-2.2 0-4-1.8-4-4v-4c0 2.2 1.8 4 4 4h8.99 6 15.01 4c2.2 0 4-1.8 4-4z" fill="#5c9eff"/><path d="m49 1h-34c-2.2 0-4 1.8-4 4v4 46c0 2.2 1.8 4 4 4h8.99v-4h3.01 2.99 3.01 3 3 3 3v4h4c2.2 0 4-1.8 4-4v-46-4c0-2.2-1.8-4-4-4z" fill="#94c1ff"/><g fill="#116fff"><path d="m49 59.999h-34c-2.757 0-5-2.243-5-5v-49.999c0-2.757 2.243-5 5-5h34c2.757 0 5 2.243 5 5v49.999c0 2.757-2.243 5-5 5zm-34-57.999c-1.654 0-3 1.346-3 3v49.999c0 1.654 1.346 3 3 3h34c1.654 0 3-1.346 3-3v-49.999c0-1.654-1.346-3-3-3z"/><path d="m49.03 6c-.553 0-1.005-.447-1.005-1s.442-1 .994-1h.011c.552 0 1 .447 1 1s-.448 1-1 1z"/><path d="m15.03 6c-.553 0-1.005-.447-1.005-1s.442-1 .994-1h.011c.552 0 1 .447 1 1s-.448 1-1 1z"/><path d="m49.03 56.049c-.553 0-1.005-.447-1.005-1s.442-1 .994-1h.011c.552 0 1 .447 1 1s-.448 1-1 1z"/><path d="m15.03 56.049c-.553 0-1.005-.447-1.005-1s.442-1 .994-1h.011c.552 0 1 .447 1 1s-.448 1-1 1z"/><path d="m23.997 59.999c-.553 0-1-.447-1-1v-3.998c0-.553.447-1 1-1s1 .447 1 1v3.998c0 .553-.447 1-1 1z"/><path d="m45 56.001h-21.003c-.553 0-1-.447-1-1s.447-1 1-1h21.003c.553 0 1 .447 1 1s-.447 1-1 1z"/><path d="m45 59.999c-.553 0-1-.447-1-1v-3.998c0-.553.447-1 1-1s1 .447 1 1v3.998c0 .553-.447 1-1 1z"/><path d="m29.994 59.999c-.553 0-1-.447-1-1v-3.998c0-.553.447-1 1-1s1 .447 1 1v3.998c0 .553-.447 1-1 1z"/><path d="m26.999 57.001c-.553 0-1-.447-1-1v-1c0-.553.447-1 1-1s1 .447 1 1v1c0 .553-.447 1-1 1z"/><path d="m32.999 57.001c-.553 0-1-.447-1-1v-1c0-.553.447-1 1-1s1 .447 1 1v1c0 .553-.447 1-1 1z"/><path d="m35.999 57.001c-.553 0-1-.447-1-1v-1c0-.553.447-1 1-1s1 .447 1 1v1c0 .553-.447 1-1 1z"/><path d="m38.999 57.001c-.553 0-1-.447-1-1v-1c0-.553.447-1 1-1s1 .447 1 1v1c0 .553-.447 1-1 1z"/><path d="m41.999 57.001c-.553 0-1-.447-1-1v-1c0-.553.447-1 1-1s1 .447 1 1v1c0 .553-.447 1-1 1z"/><path d="m49 64h-34c-2.757 0-5-2.243-5-5v-49.999c0-.553.447-1 1-1s1 .447 1 1v49.999c0 1.654 1.346 3 3 3h34c1.654 0 3-1.346 3-3v-49.999c0-.553.447-1 1-1s1 .447 1 1v49.999c0 2.757-2.243 5-5 5z"/><path d="m24.996 26.009c-.553 0-1-.447-1-1 0-1.103-.897-2-2-2s-2 .897-2 2c0 .553-.447 1-1 1s-1-.447-1-1c0-2.206 1.794-4 4-4s4 1.794 4 4c0 .553-.447 1-1 1z"/><path d="m21.996 37.011c-2.206 0-4-1.794-4-4 0-.553.447-1 1-1s1 .447 1 1c0 1.103.897 2 2 2s2-.897 2-2c0-.553.447-1 1-1s1 .447 1 1c0 2.206-1.794 4-4 4z"/><path d="m24.996 34.011c-.553 0-1-.447-1-1 0-1.209-1.733-2.783-3.126-4.049-1.542-1.401-2.874-2.611-2.874-3.953 0-.553.447-1 1-1s1 .447 1 1c0 .456 1.39 1.719 2.22 2.473 1.771 1.61 3.78 3.436 3.78 5.529 0 .552-.447 1-1 1z"/><path d="m35.001 26.009c-.553 0-1-.447-1-1 0-1.103-.897-2-2-2s-2 .897-2 2c0 .553-.447 1-1 1s-1-.447-1-1c0-2.206 1.794-4 4-4s4 1.794 4 4c0 .553-.447 1-1 1z"/><path d="m32.001 37.011c-2.206 0-4-1.794-4-4 0-.553.447-1 1-1s1 .447 1 1c0 1.103.897 2 2 2s2-.897 2-2c0-.553.447-1 1-1s1 .447 1 1c0 2.206-1.794 4-4 4z"/><path d="m35.001 34.011c-.553 0-1-.447-1-1 0-1.209-1.733-2.783-3.126-4.049-1.542-1.401-2.874-2.611-2.874-3.953 0-.553.447-1 1-1s1 .447 1 1c0 .456 1.39 1.719 2.22 2.473 1.771 1.61 3.78 3.436 3.78 5.529 0 .552-.447 1-1 1z"/><path d="m45.001 26.009c-.553 0-1-.447-1-1 0-1.103-.897-2-2-2-.553 0-1-.447-1-1s.447-1 1-1c2.206 0 4 1.794 4 4 0 .553-.447 1-1 1z"/><path d="m42.001 37.011c-.553 0-1-.447-1-1s.447-1 1-1c1.103 0 2-.897 2-2 0-.553.447-1 1-1s1 .447 1 1c0 2.206-1.794 4-4 4z"/><path d="m45.001 34.011c-.553 0-1-.447-1-1v-8.002c0-.553.447-1 1-1s1 .447 1 1v8.002c0 .552-.447 1-1 1z"/><path d="m42.001 37.011h-3c-.553 0-1-.447-1-1s.447-1 1-1h3c.553 0 1 .447 1 1s-.447 1-1 1z"/><path d="m42.001 23.009h-3c-.553 0-1-.447-1-1s.447-1 1-1h3c.553 0 1 .447 1 1s-.447 1-1 1z"/><path d="m39.001 37.011c-.553 0-1-.447-1-1v-14.002c0-.553.447-1 1-1s1 .447 1 1v14.002c0 .552-.447 1-1 1z"/></g></svg>