<?xml version="1.0" encoding="iso-8859-1"?>
<!-- Generator: Adobe Illustrator 18.0.0, SVG Export Plug-In . SVG Version: 6.00 Build 0)  -->
<!DOCTYPE svg PUBLIC "-//W3C//DTD SVG 1.1//EN" "http://www.w3.org/Graphics/SVG/1.1/DTD/svg11.dtd">
<svg version="1.1" id="Capa_1" xmlns="http://www.w3.org/2000/svg" xmlns:xlink="http://www.w3.org/1999/xlink" x="0px" y="0px"
	 viewBox="0 0 58 58" style="enable-background:new 0 0 58 58;" xml:space="preserve">
<g>
	<rect x="1.999" y="13" style="fill:#F9EAB0;" width="53.001" height="30"/>
	<path style="fill:#556080;" d="M4,20.95C2.267,20.755,0.841,14.591,0.276,13H0v30h4V20.95z"/>
	<path style="fill:#556080;" d="M57.724,15c-0.566,1.591-1.991,5.755-3.724,5.95V43h4V15H57.724z"/>
	<path style="fill:#ED7161;" d="M10,11L10,11l3-5V0H6.896C5.849,0,5,0.849,5,1.896V6l-5,5l0,0H10z"/>
	<polygon style="fill:#F3D55B;" points="20,11 20,11 21,6 21,0 13,0 13,6 10,11 10,11 	"/>
	<polygon style="fill:#ED7161;" points="29,11 29,11 29,6 29,0 21,0 21,6 20,11 20,11 	"/>
	<path style="fill:#D36259;" d="M5.5,21h-1C2.015,21,0,18.985,0,16.5V11h10v5.5C10,18.985,7.985,21,5.5,21z"/>
	<path style="fill:#F0C419;" d="M15.5,21h-1c-2.485,0-4.5-2.015-4.5-4.5V11h10v5.5C20,18.985,17.985,21,15.5,21z"/>
	<path style="fill:#D36259;" d="M43.5,21h-1c-2.485,0-4.5-2.015-4.5-4.5V11h10v5.5C48,18.985,45.985,21,43.5,21z"/>
	<path style="fill:#F0C419;" d="M53.5,21h-1c-2.485,0-4.5-2.015-4.5-4.5V11h10v5.5C58,18.985,55.985,21,53.5,21z"/>
	<path style="fill:#D36259;" d="M24.5,21L24.5,21c-2.485,0-4.5-2.015-4.5-4.5V11h9v5.5C29,18.985,26.985,21,24.5,21z"/>
	<path style="fill:#F0C419;" d="M33.5,21L33.5,21c-2.485,0-4.5-2.015-4.5-4.5V11h9v5.5C38,18.985,35.985,21,33.5,21z"/>
	<rect x="0" y="43" style="fill:#7F6E5D;" width="58" height="12"/>
	<rect x="4" y="43" style="fill:#CBB292;" width="2" height="12"/>
	<rect x="8" y="43" style="fill:#CBB292;" width="2" height="12"/>
	<rect x="12" y="43" style="fill:#CBB292;" width="2" height="12"/>
	<rect x="16" y="43" style="fill:#CBB292;" width="2" height="12"/>
	<rect x="20" y="43" style="fill:#CBB292;" width="2" height="12"/>
	<rect x="24" y="43" style="fill:#CBB292;" width="2" height="12"/>
	<rect x="28" y="43" style="fill:#CBB292;" width="2" height="12"/>
	<rect x="32" y="43" style="fill:#CBB292;" width="2" height="12"/>
	<rect x="36" y="43" style="fill:#CBB292;" width="2" height="12"/>
	<rect x="40" y="43" style="fill:#CBB292;" width="2" height="12"/>
	<rect x="44" y="43" style="fill:#CBB292;" width="2" height="12"/>
	<rect x="48" y="43" style="fill:#CBB292;" width="2" height="12"/>
	<rect x="52" y="43" style="fill:#CBB292;" width="2" height="12"/>
	<rect x="0" y="55" style="fill:#556080;" width="4" height="3"/>
	<rect x="54" y="55" style="fill:#556080;" width="4" height="3"/>
	<path style="fill:#BDC3C7;" d="M17.999,39.999L10,32l1.126-1.126c3.796-3.796,9.952-3.796,13.748,0L26,32l-7.999,7.999
		C18,40,18,40,17.999,39.999z"/>
	<rect x="16" y="40" style="fill:#A5A5A4;" width="4" height="3"/>
	<circle style="fill:#14A085;" cx="40" cy="40" r="3"/>
	<circle style="fill:#4C8056;" cx="46" cy="40" r="3"/>
	<circle style="fill:#71C285;" cx="43" cy="35" r="3"/>
	<path style="fill:#ECF0F1;" d="M17.999,39.999c0,0,0.001,0,0.002,0L19,39v-7c0-0.553-0.448-1-1-1s-1,0.447-1,1v7L17.999,39.999z"/>
	<path style="fill:#D1D4D1;" d="M25,41H11c-0.552,0-1-0.447-1-1s0.448-1,1-1h14c0.552,0,1,0.447,1,1S25.552,41,25,41z"/>
	<path style="fill:#F3D55B;" d="M48,11L48,11l-3-5V0l6.104,0C52.151,0,53,0.849,53,1.896V6l5,5l0,0H48z"/>
	<polygon style="fill:#ED7161;" points="38,11 38,11 37,6 37,0 45,0 45,6 48,11 48,11 	"/>
	<polygon style="fill:#F3D55B;" points="29,11 29,11 29,6 29,0 37,0 37,6 38,11 38,11 	"/>
</g>
<g>
</g>
<g>
</g>
<g>
</g>
<g>
</g>
<g>
</g>
<g>
</g>
<g>
</g>
<g>
</g>
<g>
</g>
<g>
</g>
<g>
</g>
<g>
</g>
<g>
</g>
<g>
</g>
<g>
</g>
</svg>
