<svg  width="183" height="83" viewBox="0 0 183 83" fill="none" xmlns="http://www.w3.org/2000/svg">
<path d="M8.41 4.88477H42.04L40.35 15.0248L19.53 35.2948H37.38L35.18 46.9548H0L1.94 35.2948L21.86 16.4148H6.08L8.41 4.88477Z" fill="white"/>
<path d="M72.56 24.3348C72.04 14.8348 59.76 14.8348 59.76 14.8348C49.15 14.3948 43.33 20.4648 43.33 20.4648L49.54 27.0648C50.8119 25.8826 52.3697 25.0521 54.06 24.6548C60.6 23.2648 60 27.1848 60 27.1848C56.58 27.2548 49.53 28.3948 49.53 28.3948C35.24 30.9948 37.53 47.3948 49.53 47.9648C55.74 47.7748 58.19 44.2348 58.19 44.2348V47.0048H69.72L72.24 30.5348C72.5437 28.483 72.6508 26.4069 72.56 24.3348ZM54.56 39.4448C54.56 39.4448 50.27 39.4448 52.13 36.0348C52.65 35.4948 54.03 33.7948 59.56 34.1248C59.53 34.1248 59.63 39.1148 54.53 39.4448H54.56Z" fill="white"/>
<path d="M86.53 15.7848H102.18L90.15 30.4848H98.43L85.75 47.0848H94.29L65.32 82.0548L79.93 53.6748H69.84L81.61 37.3248H72.95L86.53 15.7848Z" fill="#FFBB1A"/>
<path d="M95.32 28.0748L104.38 17.4648C104.38 17.4648 108.32 13.2148 117.44 16.2648C117.44 16.2648 124.23 19.0748 124.44 28.0748C124.65 37.0748 118.91 44.5748 113.67 46.0748C113.67 46.0748 107.27 49.8048 98.67 44.8948H90.67L100.24 33.0048C100.24 33.0048 100.92 36.5248 104.38 36.9048C105.37 36.9234 106.351 36.7192 107.251 36.3072C108.151 35.8952 108.947 35.2861 109.58 34.5248C110.661 32.7977 111.077 30.736 110.75 28.7248C110.75 28.7248 110.07 24.9748 104.38 26.4448C103.451 26.7399 102.637 27.3165 102.05 28.0948L95.32 28.0748Z" fill="white"/>
<path d="M98.19 46.6248L95.62 61.0248H86.06L98.19 46.6248Z" fill="white"/>
<path d="M149.45 15.5948H164.68L146.06 47.0548H131.22L125.69 15.5948H140.24L141.5 33.0848L149.45 15.5948Z" fill="white"/>
<path d="M167.5 15.7848H181.27L175.65 47.0548H161.77L167.5 15.7848Z" fill="white"/>
<path d="M175.94 0.00477293C175.94 0.00477293 183.12 -0.405227 182.94 6.37477C182.75 12.7448 177.15 13.5648 174.79 13.5048C174.79 13.5048 168.2 13.1248 168.49 6.94477C168.6 0.134773 175.94 0.00477293 175.94 0.00477293Z" fill="white"/>
</svg>
