<svg xmlns="http://www.w3.org/2000/svg" xmlns:xlink="http://www.w3.org/1999/xlink" width="160" zoomAndPan="magnify" viewBox="0 0 120 44.999999" height="60" preserveAspectRatio="xMidYMid meet" version="1.0"><defs><clipPath id="b77cc45a06"><path d="M 11.65625 3 L 34 3 L 34 27 L 11.65625 27 Z M 11.65625 3 " clip-rule="nonzero"/></clipPath><clipPath id="21e084de5a"><path d="M 100 0.773438 L 108.40625 0.773438 L 108.40625 9 L 100 9 Z M 100 0.773438 " clip-rule="nonzero"/></clipPath></defs><g clip-path="url(#b77cc45a06)"><path fill="#112d4e" d="M 16.152344 3.410156 L 33.917969 3.410156 L 33.03125 8.875 L 22.027344 19.808594 L 31.457031 19.808594 L 30.296875 26.097656 L 11.710938 26.097656 L 12.734375 19.808594 L 23.261719 9.625 L 14.921875 9.625 Z M 16.152344 3.410156 " fill-opacity="1" fill-rule="nonzero"/></g><path fill="#112d4e" d="M 50.042969 13.898438 C 49.773438 8.773438 43.28125 8.773438 43.28125 8.773438 C 37.675781 8.53125 34.601562 11.808594 34.601562 11.808594 L 37.882812 15.367188 C 38.5625 14.722656 39.355469 14.289062 40.269531 14.066406 C 43.71875 13.316406 43.414062 15.433594 43.414062 15.433594 C 41.601562 15.46875 37.878906 16.082031 37.878906 16.082031 C 30.316406 17.484375 31.523438 26.332031 37.878906 26.640625 C 41.15625 26.539062 42.453125 24.625 42.453125 24.625 L 42.453125 26.136719 L 48.535156 26.136719 L 49.871094 17.253906 C 50.144531 15.054688 50.042969 13.898438 50.042969 13.898438 Z M 40.519531 22.046875 C 40.519531 22.046875 38.253906 22.054688 39.234375 20.199219 C 39.507812 19.90625 40.242188 18.988281 43.160156 19.167969 C 43.160156 19.175781 43.210938 21.867188 40.519531 22.046875 Z M 40.519531 22.046875 " fill-opacity="1" fill-rule="nonzero"/><path fill="#186094" d="M 57.425781 9.285156 L 65.691406 9.285156 L 59.335938 17.210938 L 63.710938 17.210938 L 57.011719 26.164062 L 61.523438 26.164062 L 46.21875 45.023438 L 53.9375 29.71875 L 48.609375 29.71875 L 54.828125 20.902344 L 50.25 20.902344 Z M 57.425781 9.285156 " fill-opacity="1" fill-rule="nonzero"/><path fill="#112d4e" d="M 62.070312 15.914062 L 66.851562 10.191406 C 66.851562 10.191406 68.9375 7.902344 73.753906 9.542969 C 73.753906 9.542969 77.34375 11.0625 77.449219 15.914062 C 77.558594 20.765625 74.53125 24.816406 71.761719 25.632812 C 71.761719 25.632812 68.378906 27.648438 63.820312 25.003906 L 59.621094 25.003906 L 64.675781 18.5625 C 64.675781 18.5625 65.035156 20.457031 66.859375 20.664062 C 68.609375 20.726562 69.609375 19.382812 69.609375 19.382812 C 69.609375 19.382812 70.449219 18.28125 70.226562 16.253906 C 70.226562 16.253906 69.867188 14.230469 66.867188 15.027344 C 66.867188 15.027344 66.234375 15.167969 65.636719 15.914062 Z M 62.070312 15.914062 " fill-opacity="1" fill-rule="nonzero"/><path fill="#112d4e" d="M 63.582031 25.917969 L 62.222656 33.679688 L 57.175781 33.679688 Z M 63.582031 25.917969 " fill-opacity="1" fill-rule="nonzero"/><path fill="#112d4e" d="M 90.664062 9.183594 L 98.710938 9.183594 L 88.875 26.144531 L 81.03125 26.144531 L 78.109375 9.183594 L 85.796875 9.183594 L 86.464844 18.613281 Z M 90.664062 9.183594 " fill-opacity="1" fill-rule="nonzero"/><path fill="#112d4e" d="M 100.199219 9.285156 L 107.476562 9.285156 L 104.503906 26.144531 L 97.175781 26.144531 Z M 100.199219 9.285156 " fill-opacity="1" fill-rule="nonzero"/><g clip-path="url(#21e084de5a)"><path fill="#112d4e" d="M 104.65625 0.773438 C 104.65625 0.773438 108.449219 0.550781 108.351562 4.207031 C 108.25 7.640625 105.292969 8.085938 104.046875 8.050781 C 104.046875 8.050781 100.5625 7.847656 100.714844 4.515625 C 100.78125 0.84375 104.65625 0.773438 104.65625 0.773438 Z M 104.65625 0.773438 " fill-opacity="1" fill-rule="nonzero"/></g></svg>