<svg class="animated" id="freepik_stories-creative-writing" xmlns="http://www.w3.org/2000/svg" viewBox="0 0 500 500" version="1.1" xmlns:xlink="http://www.w3.org/1999/xlink" xmlns:svgjs="http://svgjs.com/svgjs"><style>svg#freepik_stories-creative-writing:not(.animated) .animable {opacity: 0;}svg#freepik_stories-creative-writing.animated #freepik--Character--inject-2 {animation: 1s 1 forwards ease-in slideLeft;animation-delay: 0s;}svg#freepik_stories-creative-writing.animated #freepik--speech-bubble--inject-2 {animation: 1s 1 forwards ease-in slideUp;animation-delay: 0.6s;opacity: 0}svg#freepik_stories-creative-writing.animated #freepik--text-icon--inject-2 {animation: 1s 1 forwards ease-in slideUp;animation-delay: 0.6s;opacity: 0}            @keyframes slideLeft {                0% {                    opacity: 0;                    transform: translateX(-30px);                }                100% {                    opacity: 1;                    transform: translateX(0);                }            }                    @keyframes slideUp {                0% {                    opacity: 0;                    transform: translateY(30px);                }                100% {                    opacity: 1;                    transform: inherit;                }            }        </style><g id="freepik--Floor--inject-2" class="animable" style="transform-origin: 249.917px 344.695px;"><path id="freepik--floor--inject-2" d="M80.34,246.79c-93.65,54.07-93.65,141.74,0,195.81s245.5,54.07,339.15,0,93.66-141.74,0-195.81S174,192.72,80.34,246.79Z" style="fill: rgb(250, 250, 250); transform-origin: 249.917px 344.695px;" class="animable"></path></g><g id="freepik--Plants--inject-2" class="animable" style="transform-origin: 252.315px 235.462px;"><g id="freepik--plants--inject-2" class="animable" style="transform-origin: 455.337px 235.589px;"><path d="M456.72,202.46c-5.6,1.21-14.17,8.72-17.81,23.36a76.16,76.16,0,0,0-1.28,32.68c1.13.82,2.24,1.64,3.34,2.48l.86.65q1.73,1.33,3.39,2.67l.8.66c.24-2.89.64-6.47,1.31-10.82.24-1.5.5-2.93.77-4.29,4.13-20,13.15-24.69,17.3-33.51C470.07,206.45,463,201.09,456.72,202.46Z" style="fill: rgb(224, 224, 224); transform-origin: 451.674px 233.604px;" id="el2h0ik3olj3b" class="animable"></path><path d="M458.21,208.16c-8.75,8-18.63,29-16.38,53.47L441,261c-2-24.45,7.92-45.42,16.69-53.41a.4.4,0,0,1,.57,0A.4.4,0,0,1,458.21,208.16Z" style="fill: rgb(255, 255, 255); transform-origin: 449.548px 234.55px;" id="eltmtuex7tylh" class="animable"></path><path d="M458.69,253.53a44.75,44.75,0,0,0-8,15.4c-.74-.64-1.48-1.29-2.23-1.92l-.76-.64c-.56-.48-1.12-.95-1.7-1.41l-.8-.66a68.78,68.78,0,0,1,3.12-17c2-5.43,5.14-11.46,7.89-14.38,6.83-7.24,14.77-7.92,17.57-2S465.91,244,458.69,253.53Z" style="fill: rgb(240, 240, 240); transform-origin: 459.719px 247.932px;" id="elcxiiz43mp" class="animable"></path><path d="M465.48,235.65c-5.67,3.44-15.3,18.49-17,31.36l-.76-.64c1.91-13.09,11.49-27.85,17.35-31.41a.4.4,0,1,1,.41.69Z" style="fill: rgb(255, 255, 255); transform-origin: 456.699px 250.956px;" id="elgmmou1f75xp" class="animable"></path></g><g id="freepik--plants--inject-2" class="animable" style="transform-origin: 50.988px 235.462px;"><path d="M69.86,253.24c-1.28.84-2.55,1.69-3.79,2.54q-2.34,1.62-4.58,3.25a79.93,79.93,0,0,0-5.93-30.48,54.81,54.81,0,0,0-5.31-9.93c-9.38-13.48-7.74-20.07-2.07-22s20.57,6.56,23,29.21C72.24,235.84,71,246.58,69.86,253.24Z" style="fill: rgb(240, 240, 240); transform-origin: 57.5765px 227.692px;" id="el0lzbrh3t1eif" class="animable"></path><path d="M64.33,255.19h-.07a.51.51,0,0,1-.4-.59c4-20.89-3.32-44.35-12.36-54.12a.5.5,0,0,1,0-.71.51.51,0,0,1,.71,0c9.2,9.94,16.64,33.79,12.61,55A.5.5,0,0,1,64.33,255.19Z" style="fill: rgb(255, 255, 255); transform-origin: 58.6468px 227.408px;" id="elvy2glmzr9kf" class="animable"></path><path d="M66.84,252.29a17.73,17.73,0,0,1-.77,3.49q-2.34,1.62-4.58,3.25-3.72,2.72-7.16,5.52l-1,.8q-5.44,4.47-10.19,9.14h0c-1.08.55-3.95-1.92-4.75-2.51a10.1,10.1,0,0,1-3.15-4,9.47,9.47,0,0,1-.55-5.69,23.35,23.35,0,0,1,.87-3c.33-1,.66-1.91,1-2.87a7.25,7.25,0,0,0,.58-2.92c-.16-2-1.85-3.49-3.4-4.77-1.71-1.42-3.47-3.27-3.34-5.67a8.47,8.47,0,0,1,2.36-4.92c1.22-1.39,2.65-2.61,3.76-4.09a5.92,5.92,0,0,0,1.4-3.66,6.19,6.19,0,0,0-.7-2.37,34.12,34.12,0,0,1-2.31-4.8c-.5-1.71-.31-3.79,1.06-4.93a5.5,5.5,0,0,1,4.18-.81,9.48,9.48,0,0,1,3.77,1.54c3.7,2.31,5.65,6.93,9.6,8.76a11.87,11.87,0,0,0,2.08.71c.91.25,1.85.44,2.75.73a6.08,6.08,0,0,1,3.9,3c1.33,3-1.6,6.55-.72,9.75.55,2,2,3.19,3.36,4.64a10,10,0,0,1,.92,1.12,6.79,6.79,0,0,1,.54.85A6,6,0,0,1,66.84,252.29Z" style="fill: rgb(224, 224, 224); transform-origin: 48.6683px 245.966px;" id="elcdp81jjpuae" class="animable"></path><path d="M54.33,264.55l-1,.8c.66-17.94-6.63-37.19-12.43-43.2a.47.47,0,0,1,0-.67.48.48,0,0,1,.67,0C47.43,227.52,54.73,246.6,54.33,264.55Z" style="fill: rgb(255, 255, 255); transform-origin: 47.5527px 243.347px;" id="el87pbc723i3l" class="animable"></path><path d="M51.73,245.88a.35.35,0,0,1-.14,0A64.17,64.17,0,0,0,38,243a.47.47,0,0,1-.43-.51.46.46,0,0,1,.52-.43A64.07,64.07,0,0,1,51.92,245a.48.48,0,0,1-.19.92Z" style="fill: rgb(255, 255, 255); transform-origin: 44.8882px 243.988px;" id="elgvgrkej9o26" class="animable"></path></g></g><g id="freepik--Shadows--inject-2" class="animable" style="transform-origin: 242.994px 347.94px;"><path id="freepik--Shadow--inject-2" d="M234.18,251.07,96,330.86c-2.22,1.28-2.22,3.36,0,4.65l189.84,109.3a8.92,8.92,0,0,0,8.05,0L432.07,365c2.23-1.28,2.23-3.36,0-4.65L242.23,251.07A8.92,8.92,0,0,0,234.18,251.07Z" style="fill: rgb(224, 224, 224); transform-origin: 264.039px 347.94px;" class="animable"></path><path id="freepik--shadow--inject-2" d="M161.69,339.63c25,14.62,25,38.33,0,52.95s-65.64,14.62-90.68,0-25-38.33,0-52.95S136.65,325,161.69,339.63Z" style="fill: rgb(224, 224, 224); transform-origin: 116.343px 366.103px;" class="animable"></path></g><g id="freepik--Lines--inject-2" class="animable" style="transform-origin: 246.883px 426.145px;"><path id="freepik--Line--inject-2" d="M48.27,395.84c18.61,13.64,38.27,16.58,59.38,17.56,14,.64,28-.31,41.88-1.71,6.21-.63,12.4-1.37,18.58-2.13,6.68-.83,13.35-1.69,20.09-1.48,4.92.15,10.17.68,14.77,2.93,4.45,2.17,7.44,6.7,5.7,11.75a16.2,16.2,0,0,1-3.81,5.75c-5.26,5.55-11.76,9.35-15.52,16.34-1.28,2.4-2.3,6.27-.93,8.62,3.36,5.74,15,5.73,20.27,5.52,14.67-.6,23.53-2.88,33.43-6.51,15.21-5.59,27.24-14,38.21-22.47,3.26-2.52,6.72-4.81,10-7.37.55-.44.82.86.42,1.21-5.25,4.63-11.07,8.46-16.41,12.92a91.65,91.65,0,0,1-16.1,10.72c-11.4,6-18.29,9.29-31.89,12.17-3.39.72-11.45,1.76-14.91,2a73.76,73.76,0,0,1-17.32-.48c-3.46-.56-8.16-2.67-9.48-6.5-1.5-4.34,0-8.61,2.35-12.37a42.09,42.09,0,0,1,8.6-9.38c2.24-2,5.91-5.06,7.67-7.46,6.65-9.11-3-13.19-10.8-14.07a83.26,83.26,0,0,0-18.2.29c-6,.73-12.31,1.8-18.28,2.47a323.21,323.21,0,0,1-41.13,2.49c-6.73-.08-15.27-.64-22.14-1.4-22.07-2.42-39.93-11.36-47.41-20.37-.83-1-2.1-3.06-1.46-3.4A27,27,0,0,0,48.27,395.84Z" style="fill: rgb(207, 216, 220); transform-origin: 167.294px 426.719px;" class="animable"></path><path id="freepik--line--inject-2" d="M431.92,390.39a23.41,23.41,0,0,0-11.69,3.67,16.21,16.21,0,0,0-5.76,7.4c-2.1,5.08-2,10.41-4.55,15.44s-9.46,9.19-18.82,10.18a36.57,36.57,0,0,1-11.72-.73c5.2-3.87,8.51-8.67,6.13-13.56a11.58,11.58,0,0,0-8.85-6.13c-5-.7-10.2,2.06-12.71,4.26-5.92,5.21-.72,11.92,7.18,15.34.73.32,1.5.6,2.28.87A59.41,59.41,0,0,1,355,434.05a64.67,64.67,0,0,1-25.52.36,53.47,53.47,0,0,1-23.6-11.72c-1.53-1.25-3.08-2.48-4.7-3.69-.62-.46-3.12-.36-2.56.41,4.47,6.18,12.69,12,22.78,15.43,8.54,2.87,18.65,3.43,28.21,2.26a70.94,70.94,0,0,0,24.9-7.63c.79-.43,1.56-.89,2.32-1.36a44.44,44.44,0,0,0,22.89-.73c8.94-2.8,13.53-7.81,15.34-13.42,1.74-5.41,1.41-11.14,5.25-16.27,2.29-3.08,6.42-5.53,12.37-5.95a20.48,20.48,0,0,1,13.15,3.15,9.44,9.44,0,0,1,3.46,4.22c.07.18.82.41.82.11C450,393.81,441,389.79,431.92,390.39Zm-64.3,30c-2.3-2.46-3.32-5.47-1-8.05a12.93,12.93,0,0,1,4.76-3,9,9,0,0,1,3-.8,6.56,6.56,0,0,1,3.05.84c3.49,1.82,5,4.68,4.86,7.34-.16,3-2.39,5.79-5.48,8.18-.24.19-.51.36-.76.55A20.84,20.84,0,0,1,367.62,420.37Z" style="fill: rgb(69, 90, 100); transform-origin: 374.324px 414.002px;" class="animable"></path></g><g id="freepik--Notebook--inject-2" class="animable" style="transform-origin: 265.57px 337.38px;"><g id="freepik--notebook--inject-2" class="animable" style="transform-origin: 265.57px 337.38px;"><path d="M242.58,252.45,109,322.82l-2.75,4.32v3.48a5,5,0,0,0,2.75,4.32L285.07,436.62a9.79,9.79,0,0,0,9.17,0l130.65-75.43v-3.48Z" style="fill: rgb(38, 50, 56); transform-origin: 265.57px 345.105px;" id="eltzfkctomj1a" class="animable"></path><path d="M289.66,434.28a9.24,9.24,0,0,1-4.59-1.14L109,331.46a4.77,4.77,0,0,1,0-8.64L236.7,249.06,424.89,357.71,294.24,433.14A9.23,9.23,0,0,1,289.66,434.28Z" style="fill: rgb(207, 216, 220); transform-origin: 265.571px 341.671px;" id="elsiekempxx1" class="animable"></path><path d="M236.7,238.85,110.4,311.77l-1.3,1.81v13.56h0a2.2,2.2,0,0,0,1.3,1.81L286.52,430.63a6.87,6.87,0,0,0,6.27,0L419.1,357.71V344.16Z" style="fill: rgb(235, 235, 235); transform-origin: 264.1px 335.119px;" id="el645c1djxweb" class="animable"></path><path d="M419.11,344.16l-1.58.91L397,356.94l-3.82,2.21L292.8,417.08a6.93,6.93,0,0,1-6.27,0L110.39,315.39c-1.72-1-1.72-2.63,0-3.63l1.68-1L236.7,238.85l180.84,104.4.38.23Z" style="fill: rgb(240, 240, 240); transform-origin: 264.105px 328.34px;" id="el2ugu674mzaq" class="animable"></path><path d="M289.65,417.83v13.56a6.22,6.22,0,0,1-3.12-.76L110.39,328.94a2.19,2.19,0,0,1-1.29-1.81V313.58a2.24,2.24,0,0,0,1.29,1.81L286.53,417.08A6.21,6.21,0,0,0,289.65,417.83Z" style="fill: rgb(224, 224, 224); transform-origin: 199.375px 372.486px;" id="el1t47mgaic4y" class="animable"></path><path d="M419.11,342.35l-22.75,13.13-3.56,2-100,57.74a6.93,6.93,0,0,1-6.27,0L128.8,324.21c-1.42-.78-2.74-1.55-4-2.29-6.42-3.91-10.28-7.4-12.76-11.13l-.3-.46a2.41,2.41,0,0,1-.4-.94,2.83,2.83,0,0,1,2.21-3.19,58.18,58.18,0,0,0,11.89-4.95l.16-.09L236.7,237Z" style="fill: rgb(255, 255, 255); transform-origin: 265.209px 326.485px;" id="elprmm2sto3za" class="animable"></path><g id="elb2nbwnco1va"><path d="M395.56,340.76c-1.61.94-1.61,2.46,0,3.4a6.44,6.44,0,0,0,5.86,0c1.62-.94,1.62-2.46,0-3.4A6.44,6.44,0,0,0,395.56,340.76Z" style="opacity: 0.1; transform-origin: 398.494px 342.46px;" class="animable"></path></g><path d="M414.38,329.78c-2.23-1.29-5-1.09-7.88.55-4.41,2.56-8.24,8.27-9.9,14.25a5.73,5.73,0,0,0,2.16.26c1.53-5.33,4.92-10.35,8.83-12.63a7.44,7.44,0,0,1,3.59-1.1,4.27,4.27,0,0,1,2.12.55c1.88,1.09,3,3.74,3,7.26a14.5,14.5,0,0,1-.1,1.74l2.05,1.18a19.33,19.33,0,0,0,.22-2.92C418.44,334.6,417,331.27,414.38,329.78Z" style="fill: rgb(38, 50, 56); transform-origin: 407.535px 336.896px;" id="elda20pwbipl" class="animable"></path><path d="M418,343a3.4,3.4,0,0,1-.1.5l-.38-.23Z" style="fill: rgb(38, 50, 56); transform-origin: 417.76px 343.25px;" id="eljyiplq8gtbb" class="animable"></path><g id="el7nbtmux7uje"><path d="M377.92,330.57c-1.61.94-1.61,2.46,0,3.39a6.42,6.42,0,0,0,5.85,0c1.63-.93,1.63-2.45,0-3.39A6.42,6.42,0,0,0,377.92,330.57Z" style="opacity: 0.1; transform-origin: 380.853px 332.265px;" class="animable"></path></g><path d="M396.74,319.59c-2.24-1.29-5-1.09-7.89.55-4.41,2.56-8.24,8.27-9.9,14.25a5.94,5.94,0,0,0,2.16.26c1.53-5.33,4.92-10.36,8.83-12.63a7.36,7.36,0,0,1,3.59-1.1,4.27,4.27,0,0,1,2.12.55c1.88,1.08,3,3.74,3,7.25a14.5,14.5,0,0,1-.1,1.74l2.05,1.19a19.46,19.46,0,0,0,.22-2.93C400.79,324.41,399.31,321.08,396.74,319.59Z" style="fill: rgb(38, 50, 56); transform-origin: 389.885px 326.705px;" id="elsdyrix52cs" class="animable"></path><g id="elp2sr3v4mpxs"><path d="M360.26,320.38c-1.61.93-1.61,2.45,0,3.39a6.44,6.44,0,0,0,5.86,0c1.62-.94,1.62-2.46,0-3.39A6.44,6.44,0,0,0,360.26,320.38Z" style="opacity: 0.1; transform-origin: 363.194px 322.075px;" class="animable"></path></g><path d="M379.08,309.39c-2.23-1.29-5-1.08-7.88.55-4.42,2.57-8.24,8.27-9.91,14.26a6.2,6.2,0,0,0,2.16.26c1.54-5.33,4.93-10.36,8.84-12.63a7.35,7.35,0,0,1,3.59-1.11,4.17,4.17,0,0,1,2.12.56c1.88,1.08,3,3.73,3,7.25a14.5,14.5,0,0,1-.1,1.74l2.06,1.19a21,21,0,0,0,.22-2.93C383.14,314.22,381.66,310.88,379.08,309.39Z" style="fill: rgb(38, 50, 56); transform-origin: 372.235px 316.511px;" id="eliqddqwim0wp" class="animable"></path><g id="el9srm50lvbiv"><path d="M342.61,310.19c-1.61.93-1.61,2.45,0,3.39a6.44,6.44,0,0,0,5.86,0c1.62-.94,1.62-2.46,0-3.39A6.44,6.44,0,0,0,342.61,310.19Z" style="opacity: 0.1; transform-origin: 345.544px 311.885px;" class="animable"></path></g><path d="M361.43,299.2c-2.23-1.29-5-1.08-7.88.56-4.42,2.56-8.24,8.27-9.91,14.25a6.2,6.2,0,0,0,2.16.26c1.54-5.33,4.93-10.36,8.84-12.63a7.33,7.33,0,0,1,3.59-1.1,4.2,4.2,0,0,1,2.11.55c1.89,1.08,3,3.73,3,7.25a14.5,14.5,0,0,1-.1,1.74l2.06,1.19a21,21,0,0,0,.22-2.93C365.49,304,364,300.7,361.43,299.2Z" style="fill: rgb(38, 50, 56); transform-origin: 354.58px 306.321px;" id="eltxz94n15z6q" class="animable"></path><g id="elgfueamhtzue"><path d="M325,300c-1.61.94-1.61,2.46,0,3.4a6.42,6.42,0,0,0,5.85,0c1.63-.94,1.63-2.46,0-3.4A6.5,6.5,0,0,0,325,300Z" style="opacity: 0.1; transform-origin: 327.933px 301.705px;" class="animable"></path></g><path d="M343.78,289c-2.23-1.29-5-1.08-7.88.55-4.42,2.57-8.24,8.27-9.91,14.26a6.2,6.2,0,0,0,2.16.26c1.54-5.33,4.92-10.36,8.84-12.63a7.35,7.35,0,0,1,3.59-1.11,4.11,4.11,0,0,1,2.11.56c1.89,1.08,3,3.73,3,7.25a14.5,14.5,0,0,1-.1,1.74l2.06,1.19a20.94,20.94,0,0,0,.21-2.93C347.83,293.84,346.36,290.5,343.78,289Z" style="fill: rgb(38, 50, 56); transform-origin: 336.925px 296.121px;" id="elqyugc5wkwbe" class="animable"></path><g id="el8chp0w85sad"><path d="M307.3,289.8c-1.61.94-1.61,2.46,0,3.4a6.44,6.44,0,0,0,5.86,0c1.62-.94,1.62-2.46,0-3.4A6.44,6.44,0,0,0,307.3,289.8Z" style="opacity: 0.1; transform-origin: 310.234px 291.5px;" class="animable"></path></g><path d="M326.12,278.82c-2.23-1.29-5-1.09-7.88.55-4.41,2.57-8.24,8.27-9.9,14.25a5.92,5.92,0,0,0,2.15.27c1.54-5.33,4.93-10.36,8.84-12.64a7.44,7.44,0,0,1,3.59-1.1,4.27,4.27,0,0,1,2.12.55c1.88,1.09,3,3.74,3,7.26a14.5,14.5,0,0,1-.1,1.74l2,1.19a19.56,19.56,0,0,0,.22-2.93C330.18,283.64,328.7,280.31,326.12,278.82Z" style="fill: rgb(38, 50, 56); transform-origin: 319.25px 285.939px;" id="el7vzl9exrmoc" class="animable"></path><g id="elojlt4l7b2"><path d="M289.65,279.61c-1.6.94-1.6,2.46,0,3.4a6.44,6.44,0,0,0,5.86,0c1.62-.94,1.62-2.46,0-3.4A6.44,6.44,0,0,0,289.65,279.61Z" style="opacity: 0.1; transform-origin: 292.587px 281.31px;" class="animable"></path></g><path d="M308.47,268.63c-2.23-1.29-5-1.09-7.88.55-4.41,2.56-8.24,8.27-9.9,14.25a5.68,5.68,0,0,0,2.15.26c1.54-5.33,4.93-10.35,8.84-12.63a7.47,7.47,0,0,1,3.59-1.1,4.27,4.27,0,0,1,2.12.55c1.88,1.09,3,3.74,3,7.26a14.5,14.5,0,0,1-.1,1.74l2.05,1.19a19.56,19.56,0,0,0,.22-2.93C312.53,273.45,311.05,270.12,308.47,268.63Z" style="fill: rgb(38, 50, 56); transform-origin: 301.625px 275.746px;" id="el23xyj0wajsp" class="animable"></path><g id="eliovakxeufr"><path d="M272,269.42c-1.61.94-1.61,2.46,0,3.4a6.44,6.44,0,0,0,5.86,0c1.62-.94,1.62-2.46,0-3.4A6.44,6.44,0,0,0,272,269.42Z" style="opacity: 0.1; transform-origin: 274.934px 271.12px;" class="animable"></path></g><path d="M290.82,258.44c-2.23-1.29-5-1.09-7.88.55-4.42,2.56-8.24,8.27-9.91,14.25a5.76,5.76,0,0,0,2.16.26c1.54-5.33,4.92-10.35,8.84-12.63a7.44,7.44,0,0,1,3.59-1.1,4.23,4.23,0,0,1,2.11.55c1.89,1.09,3,3.74,3,7.26a14.5,14.5,0,0,1-.1,1.74l2.06,1.19a21,21,0,0,0,.22-2.93C294.88,263.26,293.4,259.93,290.82,258.44Z" style="fill: rgb(38, 50, 56); transform-origin: 283.97px 265.556px;" id="elfru8mhdvqoq" class="animable"></path><g id="el9mn0fhvprk9"><path d="M254.35,259.23c-1.61.93-1.61,2.46,0,3.39a6.44,6.44,0,0,0,5.86,0c1.62-.93,1.62-2.46,0-3.39A6.44,6.44,0,0,0,254.35,259.23Z" style="opacity: 0.1; transform-origin: 257.284px 260.925px;" class="animable"></path></g><path d="M273.17,248.25c-2.23-1.29-5-1.09-7.88.55-4.42,2.56-8.24,8.27-9.91,14.25a6,6,0,0,0,2.16.26c1.54-5.33,4.93-10.36,8.84-12.63a7.33,7.33,0,0,1,3.59-1.1,4.2,4.2,0,0,1,2.11.55c1.89,1.08,3,3.74,3,7.26a14.34,14.34,0,0,1-.1,1.73l2.06,1.19a20.83,20.83,0,0,0,.22-2.92C277.23,253.07,275.75,249.74,273.17,248.25Z" style="fill: rgb(38, 50, 56); transform-origin: 266.32px 255.365px;" id="eldchhf841hgr" class="animable"></path><g id="el12vl91jvwusk"><path d="M236.7,249c-1.61.94-1.61,2.46,0,3.39a6.42,6.42,0,0,0,5.85,0c1.63-.93,1.63-2.45,0-3.39A6.42,6.42,0,0,0,236.7,249Z" style="opacity: 0.1; transform-origin: 239.632px 250.695px;" class="animable"></path></g><path d="M255.52,238.06c-2.24-1.29-5-1.09-7.88.55-4.42,2.56-8.24,8.27-9.91,14.25a6,6,0,0,0,2.16.26c1.53-5.33,4.92-10.36,8.83-12.63a7.37,7.37,0,0,1,3.6-1.1,4.26,4.26,0,0,1,2.11.55c1.88,1.09,3,3.74,3,7.26a14.34,14.34,0,0,1-.1,1.73l2.05,1.19a19.43,19.43,0,0,0,.22-2.92C259.57,242.88,258.09,239.55,255.52,238.06Z" style="fill: rgb(38, 50, 56); transform-origin: 248.665px 245.175px;" id="elz9cwdv82mj" class="animable"></path><path d="M288.43,408.73a4.76,4.76,0,0,1-2.36-.6L275.36,402a2,2,0,0,1-1.17-1.68,1.62,1.62,0,0,1,.91-1.4L376.41,340.4a4.68,4.68,0,0,1,4.24.15l10.71,6.19a2,2,0,0,1,1.18,1.68,1.63,1.63,0,0,1-.92,1.4L290.31,408.29A3.76,3.76,0,0,1,288.43,408.73Zm89.85-67.68a2.68,2.68,0,0,0-1.32.3L275.65,399.82c-.14.08-.37.24-.37.45s.17.47.63.74l10.71,6.18a3.59,3.59,0,0,0,3.15.15l101.31-58.47c.13-.08.36-.24.36-.45s-.16-.47-.63-.74L380.1,341.5A3.83,3.83,0,0,0,378.28,341.05Z" style="fill: rgb(224, 224, 224); transform-origin: 333.365px 374.348px;" id="el2fpke5dj8dc" class="animable"></path><g id="elc8dy9w0wn2g"><rect x="273.01" y="373.87" width="120.93" height="1.09" style="fill: rgb(224, 224, 224); transform-origin: 333.475px 374.415px; transform: rotate(-29.8865deg);" class="animable"></rect></g><path d="M265.66,395.58a4.86,4.86,0,0,1-2.36-.59L123.93,314.52a2,2,0,0,1-1.18-1.68,1.63,1.63,0,0,1,.92-1.4L225,253a4.62,4.62,0,0,1,4.24.16l139.37,80.46a2,2,0,0,1,1.18,1.68,1.63,1.63,0,0,1-.92,1.4L267.54,395.14A3.76,3.76,0,0,1,265.66,395.58Zm-38.81-142a2.75,2.75,0,0,0-1.33.3L124.21,312.39c-.13.08-.36.24-.36.45s.16.47.63.74L263.85,394a3.53,3.53,0,0,0,3.14.15l101.32-58.47c.13-.08.36-.24.36-.45s-.17-.46-.63-.73L228.67,254.07A3.83,3.83,0,0,0,226.85,253.62Z" style="fill: rgb(224, 224, 224); transform-origin: 246.27px 324.071px;" id="eldpp3hbaf9tk" class="animable"></path><g id="el011q6avgbw0y"><rect x="250.24" y="360.72" width="120.93" height="1.09" style="fill: rgb(224, 224, 224); transform-origin: 310.705px 361.265px; transform: rotate(-30deg);" class="animable"></rect></g><g id="elbzibsg1kdrs"><rect x="243.07" y="356.58" width="120.93" height="1.09" style="fill: rgb(224, 224, 224); transform-origin: 303.535px 357.125px; transform: rotate(-30deg);" class="animable"></rect></g><g id="eltsc1d7lnox"><rect x="235.89" y="352.43" width="120.93" height="1.09" style="fill: rgb(224, 224, 224); transform-origin: 296.355px 352.975px; transform: rotate(-30deg);" class="animable"></rect></g><g id="elzpn1jwf2xl"><rect x="228.72" y="348.29" width="120.93" height="1.09" style="fill: rgb(224, 224, 224); transform-origin: 289.185px 348.835px; transform: rotate(-30deg);" class="animable"></rect></g><g id="elsnc442rhjf"><rect x="221.54" y="344.15" width="120.93" height="1.09" style="fill: rgb(224, 224, 224); transform-origin: 282.005px 344.695px; transform: rotate(-29.99deg);" class="animable"></rect></g><g id="elo78n8j7a9x9"><rect x="214.36" y="340.01" width="120.93" height="1.09" style="fill: rgb(224, 224, 224); transform-origin: 274.825px 340.555px; transform: rotate(-30deg);" class="animable"></rect></g><g id="elw1l0q9vrska"><rect x="207.19" y="335.86" width="120.93" height="1.09" style="fill: rgb(224, 224, 224); transform-origin: 267.655px 336.405px; transform: rotate(-30deg);" class="animable"></rect></g><g id="eluvibfu21xvd"><rect x="200.01" y="331.72" width="120.93" height="1.09" style="fill: rgb(224, 224, 224); transform-origin: 260.475px 332.265px; transform: rotate(-30deg);" class="animable"></rect></g><g id="el64w9wml6rv4"><rect x="192.84" y="327.58" width="120.93" height="1.09" style="fill: rgb(224, 224, 224); transform-origin: 253.305px 328.125px; transform: rotate(-30deg);" class="animable"></rect></g><g id="el1gsrdfm9bbq"><rect x="185.66" y="323.43" width="120.93" height="1.09" style="fill: rgb(224, 224, 224); transform-origin: 246.125px 323.975px; transform: rotate(-30deg);" class="animable"></rect></g><g id="elvaxwhcxotxj"><rect x="178.49" y="319.29" width="120.93" height="1.09" style="fill: rgb(224, 224, 224); transform-origin: 238.955px 319.835px; transform: rotate(-29.99deg);" class="animable"></rect></g><g id="el11ueheuakruf"><rect x="171.31" y="315.15" width="120.93" height="1.09" style="fill: rgb(224, 224, 224); transform-origin: 231.775px 315.695px; transform: rotate(-30deg);" class="animable"></rect></g><g id="el9am7fvaie3d"><rect x="164.14" y="311.01" width="120.93" height="1.09" style="fill: rgb(224, 224, 224); transform-origin: 224.605px 311.555px; transform: rotate(-30deg);" class="animable"></rect></g><g id="elj8cekw6qb4s"><rect x="156.96" y="306.86" width="120.93" height="1.09" style="fill: rgb(224, 224, 224); transform-origin: 217.425px 307.405px; transform: rotate(-30deg);" class="animable"></rect></g><g id="el59ef317o92s"><rect x="149.78" y="302.72" width="120.93" height="1.09" style="fill: rgb(224, 224, 224); transform-origin: 210.245px 303.265px; transform: rotate(-30deg);" class="animable"></rect></g><g id="elcd8y17yeai5"><rect x="142.61" y="298.58" width="120.93" height="1.09" style="fill: rgb(224, 224, 224); transform-origin: 203.075px 299.125px; transform: rotate(-30deg);" class="animable"></rect></g><g id="eldgexinh7z0q"><rect x="135.43" y="294.44" width="120.93" height="1.09" style="fill: rgb(224, 224, 224); transform-origin: 195.895px 294.985px; transform: rotate(-30deg);" class="animable"></rect></g><g id="eltsem4yjwpik"><rect x="128.26" y="290.29" width="120.93" height="1.09" style="fill: rgb(224, 224, 224); transform-origin: 188.725px 290.835px; transform: rotate(-29.99deg);" class="animable"></rect></g><g id="elq9lpggv575"><rect x="121.08" y="286.15" width="120.93" height="1.09" style="fill: rgb(224, 224, 224); transform-origin: 181.545px 286.695px; transform: rotate(-30deg);" class="animable"></rect></g><path d="M365,338.82a.57.57,0,0,1-.28-.08L221.39,256a.53.53,0,0,1-.2-.75.54.54,0,0,1,.74-.2L365.26,337.8a.54.54,0,0,1,.2.74A.53.53,0,0,1,365,338.82Z" style="fill: rgb(207, 216, 220); transform-origin: 293.321px 296.899px;" id="el4s9pvc9diwk" class="animable"></path></g></g><g id="freepik--light-bulb--inject-2" class="animable" style="transform-origin: 312.515px 136.767px;"><g id="freepik--Bulb--inject-2" class="animable" style="transform-origin: 312.515px 136.767px;"><g id="freepik--bulb--inject-2" class="animable" style="transform-origin: 312.574px 152.889px;"><g id="freepik--Socket--inject-2" class="animable" style="transform-origin: 305.087px 215.539px;"><path d="M295.69,228.59c-3.87-2.73-3.52-6.56.78-8.54a16.41,16.41,0,0,1,14.81,1.36c3.87,2.74,3.51,6.56-.79,8.55A16.42,16.42,0,0,1,295.69,228.59Z" style="fill: rgb(38, 50, 56); transform-origin: 303.483px 225.001px;" id="el6t22xtwd6z5" class="animable"></path><path d="M313.19,227.89l-1.69-.16a5.25,5.25,0,0,0-2-2.35,13.33,13.33,0,0,0-12-1.11,5.31,5.31,0,0,0-2.38,1.95l-1.69-.15,1.66,3.26h0a5.62,5.62,0,0,0,1.76,1.89,13.39,13.39,0,0,0,12,1.11,5.72,5.72,0,0,0,2.07-1.54h0Z" style="fill: rgb(38, 50, 56); transform-origin: 303.31px 228.297px;" id="el2w3pz5bjxg3" class="animable"></path><path d="M292.4,225.51c-5.72-4.06-5.18-9.72,1.19-12.63s16.17-2,21.89,2.07,5.17,9.72-1.2,12.63S298.11,229.57,292.4,225.51Z" style="fill: rgb(69, 90, 100); transform-origin: 303.938px 220.229px;" id="el8b6ojwp9zlo" class="animable"></path><path d="M292.18,223.42c-5.92-4.21-5.36-10.07,1.25-13.1s16.77-2.06,22.69,2.15,5.37,10.08-1.24,13.1S298.11,227.64,292.18,223.42Z" style="fill: rgb(55, 71, 79); transform-origin: 304.152px 217.944px;" id="el699326w48c" class="animable"></path><path d="M292.11,221.12c-6.07-4.32-5.5-10.34,1.28-13.44s17.19-2.11,23.27,2.21,5.5,10.33-1.28,13.43S298.19,225.43,292.11,221.12Z" style="fill: rgb(69, 90, 100); transform-origin: 304.387px 215.5px;" id="el3hktz2injwq" class="animable"></path><path d="M292,218.81c-6.22-4.43-5.64-10.59,1.31-13.77s17.62-2.17,23.84,2.26,5.64,10.59-1.3,13.77S298.27,223.23,292,218.81Z" style="fill: rgb(55, 71, 79); transform-origin: 304.575px 213.054px;" id="elz9li61h0wan" class="animable"></path><path d="M292,216.5c-6.37-4.54-5.77-10.85,1.34-14.1s18-2.22,24.42,2.31,5.77,10.85-1.34,14.1S298.35,221,292,216.5Z" style="fill: rgb(69, 90, 100); transform-origin: 304.89px 210.601px;" id="elo1o515rz18" class="animable"></path><path d="M291.9,214.19c-6.52-4.64-5.91-11.1,1.37-14.43s18.47-2.27,25,2.37,5.91,11.09-1.37,14.43S298.42,218.83,291.9,214.19Z" style="fill: rgb(55, 71, 79); transform-origin: 305.087px 208.162px;" id="elystvtt635cc" class="animable"></path></g><path d="M324.44,200.77c.25-2.73-1.3-5.63-4.71-8.05-6.83-4.86-18.54-6-26.15-2.48-3.81,1.74-5.88,4.3-6.13,7-.1,1.06-.5,5.22-.6,6.28-.26,2.74,1.29,5.64,4.71,8.06,6.83,4.86,18.54,6,26.16,2.48,3.8-1.74,5.87-4.3,6.12-7C323.94,206,324.34,201.84,324.44,200.77Z" style="fill: rgb(207, 216, 220); transform-origin: 305.644px 202.15px;" id="el49ymawxqth3" class="animable"></path><path d="M317.91,72.77A55.87,55.87,0,0,0,257,123.12c-4.19,44.15,31.55,54.94,29.86,72.73-.26,2.84,1.34,5.85,4.88,8.37,7.09,5,19.24,6.19,27.14,2.57,4-1.81,6.09-4.47,6.36-7.3h0c1.69-17.8,38.82-21.68,43-65.83A55.87,55.87,0,0,0,317.91,72.77Z" style="fill: rgb(207, 216, 220); transform-origin: 312.574px 140.705px;" id="el50f3vs8n20w" class="animable"></path><g id="elirtgenfuphe"><path d="M317.91,72.77A55.87,55.87,0,0,0,257,123.12c-4.19,44.15,31.55,54.94,29.86,72.73-.26,2.84,1.34,5.85,4.88,8.37,7.09,5,19.24,6.19,27.14,2.57,4-1.81,6.09-4.47,6.36-7.3h0c1.69-17.8,38.82-21.68,43-65.83A55.87,55.87,0,0,0,317.91,72.77Z" style="fill: rgb(255, 255, 255); mix-blend-mode: screen; opacity: 0.9; transform-origin: 312.574px 140.705px;" class="animable"></path></g><path d="M294.1,203.24c-5.93-4.21-5.37-10.07,1.24-13.1s16.77-2.06,22.69,2.15,5.37,10.08-1.24,13.11S300,207.46,294.1,203.24Z" style="fill: rgb(207, 216, 220); transform-origin: 306.063px 197.77px;" id="elh49ekx3umrc" class="animable"></path><g id="el35newqjw4m"><path d="M294.1,203.24c-5.93-4.21-5.37-10.07,1.24-13.1s16.77-2.06,22.69,2.15,5.37,10.08-1.24,13.11S300,207.46,294.1,203.24Z" style="fill: rgb(255, 255, 255); opacity: 0.55; transform-origin: 306.063px 197.77px;" class="animable"></path></g><g id="elnzicrraa1k"><path d="M319.7,203.58a12.29,12.29,0,0,1-2.91,1.82c-6.61,3-16.77,2.06-22.69-2.15a12.39,12.39,0,0,1-2.51-2.33,12.1,12.1,0,0,1,2.9-1.82c6.61-3,16.78-2.07,22.7,2.15A12.1,12.1,0,0,1,319.7,203.58Z" style="fill: rgb(207, 216, 220); opacity: 0.25; transform-origin: 305.645px 202.249px;" class="animable"></path></g><path d="M319.7,203.58a12.29,12.29,0,0,1-2.91,1.82c-6.61,3-16.77,2.06-22.69-2.15a12.39,12.39,0,0,1-2.51-2.33,12.1,12.1,0,0,1,2.9-1.82c6.61-3,16.78-2.07,22.7,2.15A12.1,12.1,0,0,1,319.7,203.58Z" style="fill: rgb(207, 216, 220); transform-origin: 305.645px 202.249px;" id="elkgg9bsyooi" class="animable"></path><g id="el7zrfmrqhmsx"><path d="M319.7,203.58a12.29,12.29,0,0,1-2.91,1.82c-6.61,3-16.77,2.06-22.69-2.15a12.39,12.39,0,0,1-2.51-2.33,12.1,12.1,0,0,1,2.9-1.82c6.61-3,16.78-2.07,22.7,2.15A12.1,12.1,0,0,1,319.7,203.58Z" style="fill: rgb(255, 255, 255); opacity: 0.35; transform-origin: 305.645px 202.249px;" class="animable"></path></g><g id="el7vk0zv00uli"><path d="M358.86,106.16c-3-5.61-8-10.44-14.78-8.26a8.6,8.6,0,0,0-2.06,1,8.23,8.23,0,0,0-3.42,7.32c.28,5.46,5.14,9.3,7.74,13.77a48.13,48.13,0,0,1,5.82,15.85,29.52,29.52,0,0,0,1.3,5.94,4.37,4.37,0,0,0,5.36,2.39c2.27-.94,3.65-3.54,4.15-5.63C366,126.1,364.29,116.45,358.86,106.16ZM356,147.54a4.57,4.57,0,0,0-4.8,2.73,6.15,6.15,0,0,0,.11,5,3.58,3.58,0,0,0,4.78,1.57,5.8,5.8,0,0,0,3.1-4.56C359.36,150.27,358.25,148,356,147.54Z" style="fill: rgb(255, 255, 255); opacity: 0.35; transform-origin: 351.517px 127.29px;" class="animable"></path></g><path d="M312,203.93l-.64-.06c1.87-19.79,4.2-32.09,7.78-41.11a40,40,0,0,1,3.37-6.69,34.58,34.58,0,0,1-11.73-8.5,34.46,34.46,0,0,1-13.11,6.15,38.51,38.51,0,0,1,2.05,7.2c1.83,9.53,1.8,22.05-.07,41.84l-.65-.06c1.87-19.73,1.9-32.19.09-41.66a38.18,38.18,0,0,0-2.08-7.2,16.29,16.29,0,0,1-1.89.24c-6.57.47-10.16-1.75-11.33-4a4.23,4.23,0,0,1,.57-4.77A4.3,4.3,0,0,1,289,144c2.77.69,6.07,3.46,8.48,9.11a33.56,33.56,0,0,0,12.95-6,15,15,0,0,1-1.64-2.38c-2.59-4.88-2-8.85-.65-10.93a4.48,4.48,0,0,1,7.95.76c1,2.3.78,6.3-2.69,10.61a14.72,14.72,0,0,1-2.06,2,33.62,33.62,0,0,0,11.59,8.35c3.43-5.09,7.19-7.19,10-7.35a4.31,4.31,0,0,1,4.26,2.15,4.24,4.24,0,0,1-.34,4.8c-1.57,2-5.52,3.48-11.88,1.79-.6-.16-1.2-.36-1.81-.59a37.32,37.32,0,0,0-3.39,6.68C316.22,172,313.9,184.2,312,203.93Zm11.51-48.16c.54.2,1.08.37,1.61.51,6.06,1.61,9.76.25,11.2-1.57a3.54,3.54,0,0,0,.27-4.08,3.66,3.66,0,0,0-3.64-1.82C330.43,149,326.85,151,323.54,155.77ZM288.05,144.5a3.5,3.5,0,0,0-3.16,1.23,3.55,3.55,0,0,0-.5,4.06c1.07,2.05,4.46,4.09,10.71,3.65a16.75,16.75,0,0,0,1.68-.21c-2.35-5.35-5.49-8-8-8.6A5.39,5.39,0,0,0,288.05,144.5Zm24.21-12.15a3.79,3.79,0,0,0-3.61,1.78c-1.61,2.42-1.34,6.45.69,10.27a14.09,14.09,0,0,0,1.56,2.28,13.89,13.89,0,0,0,2-2c2.71-3.37,3.73-7.27,2.6-9.95A3.77,3.77,0,0,0,312.26,132.35Z" style="fill: rgb(69, 90, 100); transform-origin: 310.54px 167.826px;" id="eltpscaxkmyud" class="animable"></path></g><path d="M317.58,60.32a1.68,1.68,0,0,1-1.56-1.8l1.16-16.68a1.68,1.68,0,1,1,3.36.24l-1.16,16.68A1.69,1.69,0,0,1,317.58,60.32Z" style="fill: rgb(240, 240, 240); transform-origin: 318.28px 50.2998px;" id="elntqp8jby228" class="animable"></path><path d="M352.18,72.36a1.73,1.73,0,0,1-.83-.29,1.67,1.67,0,0,1-.45-2.33l9.35-13.86A1.68,1.68,0,1,1,363,57.76l-9.35,13.86A1.7,1.7,0,0,1,352.18,72.36Z" style="fill: rgb(240, 240, 240); transform-origin: 357.019px 63.66px;" id="el6nq42vsv4in" class="animable"></path><path d="M376.12,100.08a1.68,1.68,0,0,1-.62-3.19l15-7.33a1.68,1.68,0,0,1,1.47,3l-15,7.32A1.64,1.64,0,0,1,376.12,100.08Z" style="fill: rgb(240, 240, 240); transform-origin: 383.652px 94.7701px;" id="elxlqjsf66pw" class="animable"></path><path d="M399.67,137.23,383,136.06a1.68,1.68,0,1,1,.24-3.35l16.68,1.16a1.68,1.68,0,1,1-.24,3.36Z" style="fill: rgb(240, 240, 240); transform-origin: 391.44px 134.968px;" id="elxigu5ynakfo" class="animable"></path><path d="M384.81,180a1.71,1.71,0,0,1-.82-.28l-13.86-9.35a1.68,1.68,0,0,1,1.88-2.79l13.86,9.35a1.68,1.68,0,0,1-1.06,3.07Z" style="fill: rgb(240, 240, 240); transform-origin: 378.002px 173.649px;" id="eloiihj56j29" class="animable"></path><path d="M233.68,169a1.68,1.68,0,0,1-.62-3.19l15-7.33a1.68,1.68,0,1,1,1.47,3l-15,7.33A1.7,1.7,0,0,1,233.68,169Z" style="fill: rgb(240, 240, 240); transform-origin: 241.373px 163.611px;" id="elt4ddjnyxk6" class="animable"></path><path d="M241.83,125.73l-16.68-1.17a1.68,1.68,0,1,1,.24-3.35l16.68,1.16a1.68,1.68,0,1,1-.24,3.36Z" style="fill: rgb(240, 240, 240); transform-origin: 233.588px 123.468px;" id="elk0rrk3ywhpc" class="animable"></path><path d="M253.87,91.13a1.68,1.68,0,0,1-.82-.28L239.19,81.5a1.68,1.68,0,1,1,1.88-2.79l13.86,9.35a1.68,1.68,0,0,1-1.06,3.07Z" style="fill: rgb(240, 240, 240); transform-origin: 247.06px 84.7787px;" id="el2am4f8oce4s" class="animable"></path><path d="M281.6,67.19a1.69,1.69,0,0,1-1.4-.94l-7.33-15a1.68,1.68,0,0,1,3-1.47l7.33,15a1.68,1.68,0,0,1-.78,2.25A1.61,1.61,0,0,1,281.6,67.19Z" style="fill: rgb(240, 240, 240); transform-origin: 278.07px 58.095px;" id="elzpq0nljpixi" class="animable"></path></g></g><g id="freepik--Character--inject-2" class="animable" style="transform-origin: 172.471px 224.367px;"><g id="freepik--character--inject-2" class="animable" style="transform-origin: 172.471px 224.367px;"><g id="freepik--Bottom--inject-2" class="animable" style="transform-origin: 118.982px 282.054px;"><path d="M106.65,369.56c.73-3.11-2.35-5.07-3.81-6.86-2.25-2.76-3-9.19-2.92-12.47,0-4.1-.47-7,2.08-10.72,3-4.39,7.22-9.52,21.28-22.08L106,300c-3.62,5.68-12.76,25.59-12.76,25.59l-.6,1.23a22.83,22.83,0,0,1-5.46,5.23l-1,.49c-1.65,1.12-5.85,2.32-5.78,6.25s1.6,4.89,3.38,8.1a11.7,11.7,0,0,1,2,7c.06,3.16-.07,6.68-.1,9.51,0,2.38,2.17,5.83,6.75,7.38C99.14,373.08,105.93,372.61,106.65,369.56Z" style="fill: rgb(255, 189, 167); transform-origin: 101.84px 336.113px;" id="elis7nbj6egsp" class="animable"></path><path d="M78,338.93a44.15,44.15,0,0,0-5,8.61l4.6,6.44,3.86-6.5A23.37,23.37,0,0,1,78,338.93Z" style="fill: rgb(38, 50, 56); transform-origin: 77.23px 346.455px;" id="el7i6isi67qpp" class="animable"></path><path d="M77.62,354l6.32-.44a5.34,5.34,0,0,0-.63-3.89,7.83,7.83,0,0,0-1.83-2.17Z" id="el1kjyewdmfyh" class="animable" style="transform-origin: 80.8428px 350.75px;"></path><path d="M79.29,337.47a4.68,4.68,0,0,0-1.22,1.32,11.6,11.6,0,0,0,1.36,6.63c1.31,2,3.45,4,4,6.82s-.58,9.21.53,13.1,4.87,8.35,13.06,9.4c5.85.75,8.06-.36,10-1.58.71-2.53.64-3.19-2.56-5.32S79.29,337.47,79.29,337.47Z" style="fill: rgb(38, 50, 56); transform-origin: 92.7023px 356.227px;" id="elbmcqlrr7eg" class="animable"></path><path d="M90.2,327.19c-2.63,3.12-3.57,4.32-6,5.72-2.93,1.7-3.53,2.38-4.93,4.56-.59,3.38.09,4.77,3.19,9.09,2.13,2.95,2.82,4.89,2.76,8.95-.07,4.91-1.74,9.39,4.24,14.41,4.66,3.92,14.86,4.18,17.62,1.46,2.37-6.7-3.93-6.35-5.36-13.46-.79-3.93-.86-9.87.37-13.8a32.29,32.29,0,0,1,2.07-5.14c1-1.67,1.85-2.89,1.06-3.76l-1.49,1.83c-1.48.32-5.07-.45-7.44-2.36-5.7-4.58-3.71-7.84-3.71-7.84l.6-1.23C92.62,324.93,91.69,325.42,90.2,327.19Z" style="fill: rgb(55, 71, 79); transform-origin: 93.3423px 349.251px;" id="elyeruhhk0nsf" class="animable"></path><path d="M153.58,170.73c1.44,9.68,6.1,21.82,8.69,44.73,2.43,21.5,3.51,32.71,2,43.39-.54,3.81-2.51,8.27-6.25,13.91-11.73,17.65-34.81,45.44-34.81,45.44s-5.24-.09-11.58-5.14a17.64,17.64,0,0,1-6.39-12.1s.61-4,10.29-20.3a86,86,0,0,0,10.92-33.87l-6.31-69C135.14,179.11,146.57,176.36,153.58,170.73Z" style="fill: rgb(38, 50, 56); transform-origin: 135.102px 244.465px;" id="ely12usvahrr8" class="animable"></path><path d="M111.6,313.06a17.64,17.64,0,0,1-6.39-12.1s.61-4,10.29-20.3a86,86,0,0,0,10.92-33.87L121.59,194c11.76-1.82,28.16-1.67,28.16-1.67.31,7.56-1.36,16.92-12.25,22.56,0,0,2,37.16,2.26,48,.19,8.3-2.22,29.42-3.38,39-7.33,9.28-13.2,16.35-13.2,16.35S117.94,318.11,111.6,313.06Z" id="elea191z1i9gr" class="animable" style="transform-origin: 127.497px 255.284px;"></path><path d="M131.52,352.82l.07-1.67,1.64-33.94-23.88,6,5.31,27.21.18,1.41s.25,6.92,10.92,7.31C131.22,359.31,131.52,352.82,131.52,352.82Z" style="fill: rgb(255, 189, 167); transform-origin: 121.29px 338.177px;" id="el9vf9hwwe1l6" class="animable"></path><polygon points="118.62 383.76 126.91 380.69 127.17 372.81 118.74 375.99 118.62 383.76" id="elpf6dnpvatkj" class="animable" style="transform-origin: 122.895px 378.285px;"></polygon><path d="M110.56,366.1c-.34,2.9,2,14,2,14l6,3.65.12-7.77s1.67,1.43,3.44,5.54c1.67,3.88,4,7.61,7.9,9.57s10.75,2.77,16.53,2c4.11-.53,6.64-2.29,7.33-3.33a3.75,3.75,0,0,0,.24-1.65Z" style="fill: rgb(38, 50, 56); transform-origin: 132.329px 379.739px;" id="elk4r3w1wxh7" class="animable"></path><path d="M131.59,351.15c1.14-.09,1,1,2.45,7.5,1,4.87,3.33,13.26,12.18,18.79,3.65,2.28,8.7,3.72,8,10.69-2.53,3.39-11.35,4.28-16.63,3.35-10.67-1.88-12.26-6.09-14.93-12.37-2.13-5-4-5.56-6.86-7.58-1.89-1.33-4.45-3.25-5.2-5.43-.14-4.78,1.67-7.9,2.31-10.31s.26-5.06,1.79-5.41l.18,1.41s1.43,3.84,8.85,4,7.83-2.95,7.83-2.95Z" style="fill: rgb(55, 71, 79); transform-origin: 132.439px 371.103px;" id="elk1cm5rp8vmk" class="animable"></path><path d="M153.58,170.73s1.91,12.5-2.16,23.89c-3.54,9.9-10.34,15.48-17.49,17.8,0,0,2.38,44.45,3,50.64s-.84,28.61-2.19,43.37S133,326.24,133,326.24s-3.15,3.32-12,3.49-11.63-3.47-11.63-3.47-5.58-17.06-5.81-30.45c-.14-7.67,1.55-11.48.09-19.09S91.42,235.25,89.6,219.2s.91-30.16,12.33-46.6C114.22,180.62,142.39,178.61,153.58,170.73Z" style="fill: rgb(38, 50, 56); transform-origin: 121.556px 250.233px;" id="elcyugviottcg" class="animable"></path><path d="M107,175.08c-6.19,8.54-15.11,26.16-8.78,51.38q2.7,10.77,5.33,20.79c4.07,15.68,7.28,28.07,7.71,32.79a37.63,37.63,0,0,1-.39,8,66.61,66.61,0,0,0,0,18.75c1.11,8.08,2.72,16.56,3.88,22.31-.37-.1-.72-.2-1-.31-1.16-5.74-2.71-14-3.8-21.87a67.45,67.45,0,0,1,0-19,36.53,36.53,0,0,0,.38-7.78c-.42-4.65-3.63-17-7.68-32.64-1.74-6.7-3.54-13.63-5.34-20.8-6.37-25.41,2.52-43.23,8.8-52C106.35,174.84,106.65,175,107,175.08Z" id="elp2nkb6tuvf" class="animable" style="transform-origin: 104.932px 251.9px;"></path></g><g id="freepik--Top--inject-2" class="animable" style="transform-origin: 178.205px 199.746px;"><path d="M193.08,161.79c3.64,2.26,6.55,2,9.44,2.68,3.67.85,6.56,2.66,11.53,4.95.86.39,1.7.8,2.55,1.2a10,10,0,0,0,1.25.56c.4.13.74.26.73.8a1.59,1.59,0,0,1-.51,1,4.6,4.6,0,0,1-3.52,1.16,22.89,22.89,0,0,1-3.74-.73c-.95-.21-.5.8-.22,1.25,1.39,2.2,8.39,3.91,10.67,5.06,1,.52,2.41.51,2.61,1.88a7.67,7.67,0,0,0,.2,1.37,6,6,0,0,0,.78,1.24,3.09,3.09,0,0,1,.63,2,1.86,1.86,0,0,1-1.25,1.63c-.56.15-1.18,0-1.7.22a6.11,6.11,0,0,0-.67.46c-1,.67-2.32.32-3.53.28-1,0-2,.29-3,.3A20.74,20.74,0,0,1,212,189a39.54,39.54,0,0,1-7.36-2,26.21,26.21,0,0,1-8.31-5.84,16.92,16.92,0,0,0-6.89-4.86c-4.49-2-21.81-8.65-27.92-13.05-2.22-1.6-3.33-3.32-10.4-10.59-10.5-10.79-13.79-15.27-13.79-15.27l-7.58-25.18c8.73.27,12.52-.46,19.08,6.62,9.19,9.91,23,27,23,27S190,159.88,193.08,161.79Z" style="fill: rgb(255, 189, 167); transform-origin: 177.616px 150.668px;" id="elh1vifqjre2f" class="animable"></path><path d="M207.87,174c-3.36,2.41-8.69,1.08-10.9-.22,0,0,2.92,2.73,5.74,2.73C205.81,176.5,207,175.42,207.87,174Z" style="fill: rgb(240, 153, 122); transform-origin: 202.42px 175.145px;" id="el07fetdlchm4x" class="animable"></path><path d="M237.54,310.66l32,33a1.39,1.39,0,0,0,2.39-1.13l-5.32-46Z" style="fill: rgb(255, 168, 167); transform-origin: 254.741px 320.313px;" id="el0tkliw606cij" class="animable"></path><path d="M271.93,342.57a1.39,1.39,0,0,1-2.39,1.13l-6.25-6.45h0a7.75,7.75,0,0,0,7.11-3.83l.39-.68Z" style="fill: rgb(69, 90, 100); transform-origin: 267.616px 338.438px;" id="elxq6zlte2jed" class="animable"></path><path d="M175.79,104.53l1.82,3.85,2.21,4.64,86.8,183.59c-1.43,5-5.17,8.92-9.59,11.57-6.72,4.05-15,5.14-19.47,2.47l-86.74-183.5-4.2-8.88C149.66,123.87,178.76,110.19,175.79,104.53Z" style="fill: rgb(69, 90, 100); transform-origin: 206.62px 208.32px;" id="elm1ja0xwqahb" class="animable"></path><path d="M182.77,119.16l4,8.6c1.25,2.46-3.31,6.56-9.17,10-7.79,4.59-18.42,6.89-20.09,3.64l-3-6.33-1-2.29c1.68,3.25,12.31,1,20.09-3.63,5.62-3.31,10-7.26,9.25-9.72v0A.63.63,0,0,0,182.77,119.16Z" style="fill: rgb(235, 235, 235); transform-origin: 170.244px 131.041px;" id="elxx6rjoqqos" class="animable"></path><path d="M183.76,121.32c2.93,5.69-26.31,19.33-29.24,13.63l-4.08-8.59c2.93,5.69,32.16-8,29.23-13.64Z" style="fill: rgb(207, 216, 220); transform-origin: 167.203px 124.517px;" id="el2tx52pit2jg" class="animable"></path><path d="M175.79,104.53l4,8.49c2.92,5.57-25.18,19-29,14.13a1.21,1.21,0,0,1-.21-.3l-4-8.58C149.66,123.87,178.76,110.19,175.79,104.53Z" style="fill: rgb(235, 235, 235); transform-origin: 163.291px 116.362px;" id="el8651brngwdc" class="animable"></path><g id="elt1rst6dstrm"><path d="M150.82,127.15l-4.2-8.88c1.37,2.53,8.24,1.67,15-1.19l91.31,193.21,16.65,33.41-32-33h0Z" style="opacity: 0.1; transform-origin: 208.1px 230.39px;" class="animable"></path></g><path d="M129.23,81.52c0-.09-.12-.18-.17-.28-1.75-3.74,3.36-9.84,11.42-13.62s16-3.82,17.77-.1h0l17.53,37c1.27,2.42-3.22,6.51-9,10-7.77,4.62-18.42,7-20.15,3.78,0,0,0,0,0,0L129.47,82.09c-.08-.16-.15-.32-.22-.49S129.24,81.55,129.23,81.52Z" style="fill: rgb(242, 143, 143); transform-origin: 152.357px 92.2691px;" id="elbld2lo5lkcc" class="animable"></path><g id="eleo92co11w7i"><path d="M138.77,68.48l22.82,48.6c-6.68,2.78-13.6,3.73-15,1.19,0,0,0,0,0,0L129.47,82.09c-.08-.16-.15-.32-.22-.49s0,0,0-.08-.12-.18-.17-.28C127.43,77.78,131.72,72.28,138.77,68.48Z" style="opacity: 0.1; transform-origin: 145.159px 94.1145px;" class="animable"></path></g><path d="M129.06,81.24c1.76,3.74,9.71,3.7,17.78-.08S160,71.27,158.26,67.53s-9.72-3.7-17.78.09S127.31,77.5,129.06,81.24Z" style="fill: rgb(255, 168, 167); transform-origin: 143.659px 74.3856px;" id="eluu5rbtny15e" class="animable"></path><path d="M90.21,151.27s4.71-2.28,6-12.51c.58-4.65-1-10.71-3-17.7l13.37-5.82s4.42-1.22,14.17-3l9,0s16.3,6.88,22.93,15.57c3.61,4.74,7.36,14.85,1,22.53.49,6.88.58,20.9.58,20.9s-3.74,6.78-21.71,8.83c-25.78,3-33-6.45-33-6.45C99.12,166.27,92.93,158.36,90.21,151.27Z" style="fill: rgb(207, 216, 220); transform-origin: 123.663px 146.449px;" id="el37q9p0mmlsi" class="animable"></path><g id="el4aqbjfiakc"><path d="M90.21,151.27s4.71-2.28,6-12.51c.58-4.65-1-10.71-3-17.7l13.37-5.82s4.42-1.22,14.17-3l9,0s16.3,6.88,22.93,15.57c3.61,4.74,7.36,14.85,1,22.53.49,6.88.58,20.9.58,20.9s-3.74,6.78-21.71,8.83c-25.78,3-33-6.45-33-6.45C99.12,166.27,92.93,158.36,90.21,151.27Z" style="fill: rgb(255, 255, 255); opacity: 0.2; transform-origin: 123.663px 146.449px;" class="animable"></path></g><path d="M134.58,152.77s-3.73,6.3-13.7,6.06-12.95-7.32-12.95-7.32.77,9.55,12.69,9.79C132.36,161.53,134.58,152.77,134.58,152.77Z" style="fill: rgb(207, 216, 220); transform-origin: 121.255px 156.407px;" id="elnoutkhq2en" class="animable"></path><g id="freepik--Head--inject-2" class="animable" style="transform-origin: 119.604px 92.1183px;"><path d="M98.13,63.84a10.5,10.5,0,0,1,5.53-3.48c2.08-.51,3.35-.48,5.33-1.29s3.5-2.08,5.38-2.87c4.13-1.74,9.1-.66,12.65,2.07,1.57,1.21,3,2.78,5,3.07a19.15,19.15,0,0,0,2.93,0,9.39,9.39,0,0,1,7.59,4.63,16.1,16.1,0,0,1,2.16,6.86c.24,2.39-.59,4.62-.44,7a8.56,8.56,0,0,0,2.26,4.6,15.27,15.27,0,0,1,3.32,5.38,11,11,0,0,1,.53,5.37,5.43,5.43,0,0,1-3.22,4.1,5.51,5.51,0,0,0-.7-5.15,6.24,6.24,0,0,1-.93,4.72,13.05,13.05,0,0,1-3.48,3.47,18.25,18.25,0,0,1-10.43,3.8c-4,0-8-1.35-11.88-.32a32.41,32.41,0,0,0-3.17,1.15,28.3,28.3,0,0,1-5.57,1.5c-1.82.3-3.67.16-5.47.42a11.85,11.85,0,0,1-8.48-2,13.32,13.32,0,0,1-5.12-10.39,6.08,6.08,0,0,0-1.21,3A8.64,8.64,0,0,1,89,91.76c.55-2.07,1.87-3.92,2-6.05.13-1.85-.63-3.63-.83-5.47a9.42,9.42,0,0,1,6.71-9.79A8.68,8.68,0,0,1,98.13,63.84Z" style="fill: rgb(38, 50, 56); transform-origin: 119.604px 82.1754px;" id="elyltmwm2z7mp" class="animable"></path><path d="M98.18,87c2.52-1.06,4.71-.18,6.17,2.45,1.26,2.29,3.74,1.38,3-2.22,5.55-5.66-1.24-8.92,3.32-14.36,2.84-3.39,9.17-2.72,11.76-.74a6.17,6.17,0,0,1,7-3.1c2.68.84,4.41,2.36,5.81,6,1.45,3.78.1,4.55.84,7.23A20.17,20.17,0,0,1,137.69,88c.64,12.65-1.88,15.93-4.61,18.11-1.87,1.49-4.29,2.33-8.46,2.51l.39,5.51a28.41,28.41,0,0,1,6.3,14.75c-12-3.08-18.3-7.15-25.35-12.46l-1.2-18.34h0c-.54,1.46-3.43,3.14-6.47.82C94.45,96,93.73,88.88,98.18,87Z" style="fill: rgb(255, 189, 167); transform-origin: 116.455px 98.8573px;" id="elbetbiecafm" class="animable"></path><path d="M134,80.77l-4.11-1.52a2.09,2.09,0,0,1,2.74-1.34A2.32,2.32,0,0,1,134,80.77Z" style="fill: rgb(38, 50, 56); transform-origin: 131.999px 79.2719px;" id="eltjhy8k0rohk" class="animable"></path><path d="M117.93,79.74,114.16,82a2.1,2.1,0,0,1,.69-3A2.31,2.31,0,0,1,117.93,79.74Z" style="fill: rgb(38, 50, 56); transform-origin: 115.864px 80.3475px;" id="elpaot081anl" class="animable"></path><path d="M120.16,94.81l6.13,1.9a3.22,3.22,0,0,1-4.31,2A3,3,0,0,1,120.16,94.81Z" style="fill: rgb(177, 102, 104); transform-origin: 123.127px 96.8842px;" id="elyssen1ody6d" class="animable"></path><path d="M123.75,98.88a3.36,3.36,0,0,0-3.42-2.95,1.55,1.55,0,0,0-.31,0,2.82,2.82,0,0,0,2,2.75A3.63,3.63,0,0,0,123.75,98.88Z" style="fill: rgb(242, 143, 143); transform-origin: 121.885px 97.4158px;" id="elgginqmjiruw" class="animable"></path><polygon points="123.9 81.83 125.24 93.14 131.43 90.81 123.9 81.83" style="fill: rgb(240, 153, 122); transform-origin: 127.665px 87.485px;" id="elhjqktu46ulc" class="animable"></polygon><circle cx="117.44" cy="85.23" r="1.83" style="fill: rgb(38, 50, 56); transform-origin: 117.44px 85.23px;" id="el0hlyjs0xyvf5" class="animable"></circle><circle cx="131.7" cy="84.43" r="1.83" style="fill: rgb(38, 50, 56); transform-origin: 131.7px 84.43px;" id="elnog7tiawa6" class="animable"></circle><path d="M124.62,108.61c-4.07-.11-11-.11-14.46-4.56,0,0,.53,2.7,4.73,4.68,3,1.39,9.85,1.79,9.85,1.79Z" style="fill: rgb(240, 153, 122); transform-origin: 117.45px 107.285px;" id="elbvrtvyaaheq" class="animable"></path></g><path d="M184.39,170.64c-.36.7-1.21,1-1.5,1.66a2.69,2.69,0,0,0,0,1.1,3.53,3.53,0,0,1-1.1,2.73,3.5,3.5,0,0,0-.67.66,2.92,2.92,0,0,0-.3.92,7.33,7.33,0,0,1-2.33,3.6c-.47.4-1,.8-1.48,1.16a15.53,15.53,0,0,1-4.24,2.19,44.28,44.28,0,0,1-11.13,1.48c-4,0-7.67-1-13.94-.64-9.16.49-28.23.86-34.48.74s-8.94-.64-12.77-8.44c-3.07-6.23-4.05-8.13-10.23-22.22-8.12-18.58-8.1-29.43,3-34.52,6,1.77,10.1,9,13.14,16.73,3.55,8.92,11.75,28.4,11.75,28.4s28.25,2.92,33.16,2.69c4.61-.23,8.82-2.21,13.11-3.7,1.28-.45,2.5-1,3.76-1.45l1.88,4a6.48,6.48,0,0,1-1.18,1.28c-.56.48-1.88,1.49-1,2.23s2.37.35,3.78-.08c.91-.28,1.74-.62,2.27-.79a46.17,46.17,0,0,1,6.66-2,4.38,4.38,0,0,1,3.35.45A1.28,1.28,0,0,1,184.39,170.64Z" style="fill: rgb(255, 189, 167); transform-origin: 134.528px 153.661px;" id="elvtcsme7wkg" class="animable"></path><path d="M170,167.73a7.3,7.3,0,0,1-1.39,1.78c-.51.49-1,1.2-.56,1.38,1,.66,2.69,0,3.84-.35,2.83-.91,5.68-2,8.67-2.14-2.84.91-5.53,2.15-8.37,3.09a7.84,7.84,0,0,1-3.47.54c-1-.08-2-1.06-1.29-2.05s1.82-1.34,2.57-2.25Z" style="fill: rgb(240, 153, 122); transform-origin: 173.875px 169.89px;" id="elsu8sizjperg" class="animable"></path><path d="M118.09,166.19c8.36.44,17.09,1.25,25.42,1.83,2.12.16,4.23.33,6.34.4,4.22.18,8.27-1.3,12.22-2.67l6.05-2c-5.9,2.36-11.77,5.69-18.29,5.6a309.73,309.73,0,0,1-31.74-3.14Z" style="fill: rgb(240, 153, 122); transform-origin: 143.105px 166.551px;" id="elfzy65lh3uc" class="animable"></path></g></g></g><g id="freepik--Shapes--inject-2" class="animable" style="transform-origin: 258.32px 294.981px;"><g id="freepik--abstract-forms--inject-2" class="animable" style="transform-origin: 258.32px 294.981px;"><path d="M261.69,346.33c-8.37-4.56-18.39-5.43-27.79-3.89s-18.28,5.34-26.75,9.69c-3.28,1.69-7,3.51-10.49,2.37s-5.65-5.31-5.32-9.09,2.53-7.16,5.15-9.9c9.61-10.05,25.41-13.73,38.61-9.35,11.64,3.85,20.21,11.47,26.59,20.17" style="fill: rgb(207, 216, 220); transform-origin: 226.498px 339.597px;" id="el0yjkmzxi3i4" class="animable"></path><g id="elnf1ggk2eubh"><path d="M261.69,346.33c-8.37-4.56-18.39-5.43-27.79-3.89s-18.28,5.34-26.75,9.69c-3.28,1.69-7,3.51-10.49,2.37s-5.65-5.31-5.32-9.09,2.53-7.16,5.15-9.9c9.61-10.05,25.41-13.73,38.61-9.35,11.64,3.85,20.21,11.47,26.59,20.17" style="fill: rgb(255, 255, 255); opacity: 0.6; transform-origin: 226.498px 339.597px;" class="animable"></path></g><path d="M207.06,318.38a22.15,22.15,0,0,1,5.51-.39c.84.05,1.64.23,2.48.35a17,17,0,0,1,2.64.57,6.64,6.64,0,0,0-1.12-1.31,16.66,16.66,0,0,0-4.14-3.08,40,40,0,0,0-15.78-4.64,37.86,37.86,0,0,0-10.93.74c-4.73,1-9.58,3.24-12,7.47-1.11,2-1.58,4.48-.52,6.48a6.21,6.21,0,0,0,4.16,2.95,12.71,12.71,0,0,0,5.21-.1c4.28-.83,8.28-2.68,12.23-4.52S202.78,319.21,207.06,318.38Z" style="fill: rgb(207, 216, 220); transform-origin: 195.148px 318.754px;" id="elkb58rv5sunn" class="animable"></path><g id="elmhbzr9mp94g"><path d="M207.06,318.38a22.15,22.15,0,0,1,5.51-.39c.84.05,1.64.23,2.48.35a17,17,0,0,1,2.64.57,6.64,6.64,0,0,0-1.12-1.31,16.66,16.66,0,0,0-4.14-3.08,40,40,0,0,0-15.78-4.64,37.86,37.86,0,0,0-10.93.74c-4.73,1-9.58,3.24-12,7.47-1.11,2-1.58,4.48-.52,6.48a6.21,6.21,0,0,0,4.16,2.95,12.71,12.71,0,0,0,5.21-.1c4.28-.83,8.28-2.68,12.23-4.52S202.78,319.21,207.06,318.38Z" style="fill: rgb(255, 255, 255); opacity: 0.35; transform-origin: 195.148px 318.754px;" class="animable"></path></g><path d="M204.11,301.25c7.44,6.91,15.91,11.11,25.23,14.7-5.35-5.68-8.8-12.62-11.52-19.86s-3.54-15-4.88-22.63c-.75-4.31-2.15-8.65-5.07-11.9s-7.61-5.18-11.78-3.88c-3.65,1.15-6.27,4.57-7.25,8.27a22.73,22.73,0,0,0,.42,11.34C191.64,286.61,197.07,294.7,204.11,301.25Z" style="fill: rgb(207, 216, 220); transform-origin: 208.828px 286.61px;" id="el7ssga7i0m4o" class="animable"></path><g id="el9qfumtunxum"><g style="opacity: 0.2; transform-origin: 208.828px 286.61px;" class="animable"><path d="M204.11,301.25c7.44,6.91,15.91,11.11,25.23,14.7-5.35-5.68-8.8-12.62-11.52-19.86s-3.54-15-4.88-22.63c-.75-4.31-2.15-8.65-5.07-11.9s-7.61-5.18-11.78-3.88c-3.65,1.15-6.27,4.57-7.25,8.27a22.73,22.73,0,0,0,.42,11.34C191.64,286.61,197.07,294.7,204.11,301.25Z" style="fill: rgb(255, 255, 255); transform-origin: 208.828px 286.61px;" id="elt54vwdqhqen" class="animable"></path></g></g><path d="M195.45,255.14a14,14,0,0,0-8.38,9c-.21.73-.52,1.62-1.27,1.73s-1.4-.9-1.52-1.76C183.38,257.4,190.57,255.24,195.45,255.14Z" style="fill: rgb(207, 216, 220); transform-origin: 189.826px 260.509px;" id="eljevnrsh0s6p" class="animable"></path><path d="M298.23,313.09c-8.92,6.51-17.65,15.56-20.73,26.49-3.09-17.75,2.55-37.37,12.43-52.13,9.52-14.23,27.2-27.39,45.17-20.07,4.58,1.86,8.44,6,8.89,11,.4,4.36-1.87,8.61-5,11.63s-7.15,5-11.09,6.9C317.71,301.76,307.34,306.43,298.23,313.09Z" style="fill: rgb(207, 216, 220); transform-origin: 310.344px 302.435px;" id="elgn29b234fk9" class="animable"></path><g id="elqkiqtnvkghd"><path d="M298.23,313.09c-8.92,6.51-17.65,15.56-20.73,26.49-3.09-17.75,2.55-37.37,12.43-52.13,9.52-14.23,27.2-27.39,45.17-20.07,4.58,1.86,8.44,6,8.89,11,.4,4.36-1.87,8.61-5,11.63s-7.15,5-11.09,6.9C317.71,301.76,307.34,306.43,298.23,313.09Z" style="fill: rgb(255, 255, 255); opacity: 0.35; transform-origin: 310.344px 302.435px;" class="animable"></path></g><path d="M264.18,247.84c.45,7.52,4.06,16.51,6.05,22.34,3,8.75,5.8,18.18,3.41,27.12,6.32-8.15,12.31-17.46,15.11-27.46,2.93-10.51,2.6-22.49-5.42-30.81-5.23-5.42-16.09-5.82-18.59,2.6A18.3,18.3,0,0,0,264.18,247.84Z" style="fill: rgb(207, 216, 220); transform-origin: 277.28px 266.203px;" id="el0fqay997fkdl" class="animable"></path><g id="el5h01vra1qq3"><path d="M264.18,247.84c.45,7.52,4.06,16.51,6.05,22.34,3,8.75,5.8,18.18,3.41,27.12,6.32-8.15,12.31-17.46,15.11-27.46,2.93-10.51,2.6-22.49-5.42-30.81-5.23-5.42-16.09-5.82-18.59,2.6A18.3,18.3,0,0,0,264.18,247.84Z" style="fill: rgb(255, 255, 255); opacity: 0.6; transform-origin: 277.28px 266.203px;" class="animable"></path></g><path d="M330.2,256.81a14.22,14.22,0,0,0-8,.75,14,14,0,0,0-6.77,6c2.69-1.54,6.91-2.87,13.92-1.87,6.72.95,10.72,4.12,12.14,5.85-.12-3.35-2.79-6.9-5.66-8.62A17.11,17.11,0,0,0,330.2,256.81Z" style="fill: rgb(207, 216, 220); transform-origin: 328.46px 262.043px;" id="elvn76jy5i44s" class="animable"></path></g></g><g id="freepik--text-icon--inject-2" class="animable" style="transform-origin: 387.825px 245.915px;"><g id="freepik--speech-bubble--inject-2" class="animable" style="transform-origin: 387.825px 245.915px;"><g id="freepik--speech-bubble--inject-2" class="animable" style="transform-origin: 387.825px 245.915px;"><path d="M382.31,277l1.66-5.9c-.73-3.38,13.07,4.59,13.8,8l-4.45,12a1.9,1.9,0,0,1-.75.87c-1,.6-7.56,4.34-7.88,4.53a1.93,1.93,0,0,1-2.84-1.05l-5.76-19.76C375.73,274,378.91,275.07,382.31,277Z" style="fill: rgb(55, 71, 79); transform-origin: 386.916px 283.532px;" id="el4qsjms4kav7" class="animable"></path><path d="M366.55,194.84,419,225.11a3.9,3.9,0,0,1,1.77,3.07v62.17a3.86,3.86,0,0,1-1.78,3L412.77,297a4,4,0,0,1-3.56,0l-52.47-30.27a3.9,3.9,0,0,1-1.77-3.07V201.42a3.9,3.9,0,0,1,1.78-3.06l6.24-3.54A4,4,0,0,1,366.55,194.84Z" style="fill: rgb(55, 71, 79); transform-origin: 387.87px 245.915px;" id="el9etar7c3q8r" class="animable"></path><path d="M356.74,200.39l52.47,30.27a3.93,3.93,0,0,1,1.78,3.07v62.18c0,1.13-.8,1.59-1.78,1l-20.08-11.58-3.69,10.23a1.92,1.92,0,0,1-3.59-.18L377,278.32l-20.21-11.66a3.9,3.9,0,0,1-1.77-3.07V201.42C355,200.29,355.76,199.83,356.74,200.39Z" style="fill: rgb(250, 250, 250); transform-origin: 383.005px 248.66px;" id="elpaz45tiabq" class="animable"></path><path d="M356,201a.78.78,0,0,1,.36.12l52.47,30.27a3,3,0,0,1,1.34,2.32v62.18c0,.27-.07.38-.12.4a.73.73,0,0,1-.36-.13L389.56,284.6l-.89-.52-.35,1-3.68,10.2a1.06,1.06,0,0,1-2-.09l-4.9-17.08-.1-.34-.3-.17-20.21-11.66a3.06,3.06,0,0,1-1.34-2.32V201.42c0-.27.07-.39.09-.4h0m0-.87c-.58,0-1,.47-1,1.27v62.17a3.9,3.9,0,0,0,1.77,3.07L377,278.32l4.9,17.08a1.89,1.89,0,0,0,1.84,1.33,1.87,1.87,0,0,0,1.75-1.15l3.69-10.23,20.08,11.58a1.69,1.69,0,0,0,.79.24c.59,0,1-.46,1-1.26V233.73a3.93,3.93,0,0,0-1.78-3.07l-52.47-30.27a1.62,1.62,0,0,0-.79-.24Z" style="fill: rgb(55, 71, 79); transform-origin: 382.965px 248.66px;" id="el4h3ovhm6dw6" class="animable"></path><path d="M355,201.1c.14-.9.87-1.22,1.76-.71l52.46,30.27a3.65,3.65,0,0,1,1.25,1.33l9.78-5.62A3.55,3.55,0,0,0,419,225.1l-52.47-30.27a4,4,0,0,0-3.56,0l-6.24,3.54A4,4,0,0,0,355,201.1Z" style="fill: rgb(69, 90, 100); transform-origin: 387.625px 213.201px;" id="elnsnp077vnn8" class="animable"></path></g><path d="M367.82,220.19v15.16l1.38.77v-4.78c0-2.58,2.1-3.46,4.68-2l6.44,3.71v27.35c0,3-1.83,4.35-4.09,3.05l-4-2.33v1.65l21.88,12.63V273.8l-4-2.33c-2.26-1.3-4.09-4.78-4.09-7.77V236.35l6.44,3.72c2.59,1.49,4.68,4.79,4.68,7.37v4.78l1.38.82V237.88Z" style="fill: rgb(69, 90, 100); transform-origin: 383.17px 247.795px;" id="elaappolrpct5" class="animable"></path></g></g><defs>     <filter id="active" height="200%">         <feMorphology in="SourceAlpha" result="DILATED" operator="dilate" radius="2"></feMorphology>                <feFlood flood-color="#32DFEC" flood-opacity="1" result="PINK"></feFlood>        <feComposite in="PINK" in2="DILATED" operator="in" result="OUTLINE"></feComposite>        <feMerge>            <feMergeNode in="OUTLINE"></feMergeNode>            <feMergeNode in="SourceGraphic"></feMergeNode>        </feMerge>    </filter>    <filter id="hover" height="200%">        <feMorphology in="SourceAlpha" result="DILATED" operator="dilate" radius="2"></feMorphology>                <feFlood flood-color="#ff0000" flood-opacity="0.5" result="PINK"></feFlood>        <feComposite in="PINK" in2="DILATED" operator="in" result="OUTLINE"></feComposite>        <feMerge>            <feMergeNode in="OUTLINE"></feMergeNode>            <feMergeNode in="SourceGraphic"></feMergeNode>        </feMerge>            <feColorMatrix type="matrix" values="0   0   0   0   0                0   1   0   0   0                0   0   0   0   0                0   0   0   1   0 "></feColorMatrix>    </filter></defs></svg>